<svg width="24" height="24" viewBox="0 0 24 24" fill="none" xmlns="http://www.w3.org/2000/svg">
<g clip-path="url(#clip0_365_6101)">
<path d="M24 9.14258H22.86V10.2826H24V9.14258Z" fill="#2EA1DA"/>
<path d="M22.86 10.2825H21.7125V11.4225H22.86V10.2825Z" fill="#2EA1DA"/>
<path d="M21.7125 20.5725H20.5725V22.8525H21.7125V20.5725Z" fill="#2EA1DA"/>
<path d="M20.5725 18.2849H19.425V20.5724H20.5725V18.2849Z" fill="#2EA1DA"/>
<path d="M21.7125 11.4226H19.425V12.5701H21.7125V11.4226Z" fill="#2EA1DA"/>
<path d="M20.5725 22.8525H18.285V24H20.5725V22.8525Z" fill="#2EA1DA"/>
<path d="M19.425 15.9976H18.285V18.2851H19.425V15.9976Z" fill="#2EA1DA"/>
<path d="M19.425 12.5701H18.285V13.7101H19.425V12.5701Z" fill="#2EA1DA"/>
<path d="M18.285 21.7124H17.145V22.8524H18.285V21.7124Z" fill="#2EA1DA"/>
<path d="M18.285 13.71H17.145V15.9975H18.285V13.71Z" fill="#2EA1DA"/>
<path d="M17.145 20.5725H14.8575V21.7125H17.145V20.5725Z" fill="#2EA1DA"/>
<path d="M22.8601 7.99512H15.9976V9.14262H22.8601V7.99512Z" fill="#2EA1DA"/>
<path d="M15.9975 5.71509H14.8575V7.99509H15.9975V5.71509Z" fill="#2EA1DA"/>
<path d="M14.8575 19.425H13.7175V20.5725H14.8575V19.425Z" fill="#2EA1DA"/>
<path d="M14.8575 12.5701H13.7175V13.7101H14.8575V12.5701Z" fill="#2EA1DA"/>
<path d="M14.8575 3.42749H13.7175V5.71499H14.8575V3.42749Z" fill="#2EA1DA"/>
<path d="M13.7174 18.2849H12.5699V19.4249H13.7174V18.2849Z" fill="#2EA1DA"/>
<path d="M13.7174 10.2825H12.5699V11.4225H13.7174V10.2825Z" fill="#2EA1DA"/>
<path d="M13.7174 1.13989H12.5699V3.42739H13.7174V1.13989Z" fill="#2EA1DA"/>
<path d="M12.5701 17.1375H11.4301V18.285H12.5701V17.1375Z" fill="#2EA1DA"/>
<path d="M13.7175 13.71H10.2825V14.8575H13.7175V13.71Z" fill="#2EA1DA"/>
<path d="M12.5701 0H11.4301V1.14H12.5701V0Z" fill="#2EA1DA"/>
<path d="M11.43 18.2849H10.2825V19.4249H11.43V18.2849Z" fill="#2EA1DA"/>
<path d="M11.43 10.2825H10.2825V11.4225H11.43V10.2825Z" fill="#2EA1DA"/>
<path d="M11.43 1.13989H10.2825V3.42739H11.43V1.13989Z" fill="#2EA1DA"/>
<path d="M10.2825 19.425H9.14246V20.5725H10.2825V19.425Z" fill="#2EA1DA"/>
<path d="M10.2825 12.5701H9.14246V13.7101H10.2825V12.5701Z" fill="#2EA1DA"/>
<path d="M10.2825 3.42749H9.14246V5.71499H10.2825V3.42749Z" fill="#2EA1DA"/>
<path d="M9.14244 5.71509H8.00244V7.99509H9.14244V5.71509Z" fill="#2EA1DA"/>
<path d="M9.14248 20.5725H6.85498V21.7125H9.14248V20.5725Z" fill="#2EA1DA"/>
<path d="M6.85497 21.7124H5.71497V22.8524H6.85497V21.7124Z" fill="#2EA1DA"/>
<path d="M6.85497 13.71H5.71497V15.9975H6.85497V13.71Z" fill="#2EA1DA"/>
<path d="M5.71495 15.9976H4.57495V18.2851H5.71495V15.9976Z" fill="#2EA1DA"/>
<path d="M5.71495 12.5701H4.57495V13.7101H5.71495V12.5701Z" fill="#2EA1DA"/>
<path d="M5.71499 22.8525H3.42749V24H5.71499V22.8525Z" fill="#2EA1DA"/>
<path d="M4.57499 18.2849H3.42749V20.5724H4.57499V18.2849Z" fill="#2EA1DA"/>
<path d="M4.57498 11.4226H2.28748V12.5701H4.57498V11.4226Z" fill="#2EA1DA"/>
<path d="M3.42748 20.5725H2.28748V22.8525H3.42748V20.5725Z" fill="#2EA1DA"/>
<path d="M8.00251 7.99512H1.14001V9.14262H8.00251V7.99512Z" fill="#2EA1DA"/>
<path d="M2.28751 10.2825H1.14001V11.4225H2.28751V10.2825Z" fill="#2EA1DA"/>
<path d="M1.14 9.14258H0V10.2826H1.14V9.14258Z" fill="#2EA1DA"/>
</g>
<defs>
<clipPath id="clip0_365_6101">
<rect width="24" height="24" fill="white"/>
</clipPath>
</defs>
</svg>
