<svg width="60" height="44" viewBox="0 0 60 44" fill="none" xmlns="http://www.w3.org/2000/svg">
<path d="M60 26.2844H57.1312V32.0031H60V26.2844Z" fill="#6DBDE5"/>
<path d="M60 11.9969H57.1312V17.7156H60V11.9969Z" fill="#6DBDE5"/>
<path d="M57.1312 23.4344H54.2812V26.2844H57.1312V23.4344Z" fill="#6DBDE5"/>
<path d="M57.1312 17.7156H54.2812V20.5656H57.1312V17.7156Z" fill="#6DBDE5"/>
<path d="M57.1312 9.14688H51.4125V11.9969H57.1312V9.14688Z" fill="#6DBDE5"/>
<path d="M57.1312 32.0031H51.4125V34.8531H57.1312V32.0031Z" fill="#6DBDE5"/>
<path d="M54.2812 20.5656H51.4125V23.4344H54.2812V20.5656Z" fill="#6DBDE5"/>
<path d="M51.4125 29.1344H48.5625V32.0031H51.4125V29.1344Z" fill="#6DBDE5"/>
<path d="M51.4125 11.9969H48.5625V14.8469H51.4125V11.9969Z" fill="#6DBDE5"/>
<path d="M48.5625 26.2844H45.7125V29.1344H48.5625V26.2844Z" fill="#6DBDE5"/>
<path d="M48.5625 14.8469H45.7125V17.7156H48.5625V14.8469Z" fill="#6DBDE5"/>
<path d="M45.7125 29.1344H42.8438V32.0031H45.7125V29.1344Z" fill="#6DBDE5"/>
<path d="M45.7125 11.9969H42.8438V14.8469H45.7125V11.9969Z" fill="#6DBDE5"/>
<path d="M42.8438 32.0031H39.9938V34.8531H42.8438V32.0031Z" fill="#6DBDE5"/>
<path d="M42.8438 9.14688H39.9938V11.9969H42.8438V9.14688Z" fill="#6DBDE5"/>
<path d="M39.9937 34.8531H37.1437V37.7219H39.9937V34.8531Z" fill="#6DBDE5"/>
<path d="M39.9937 6.27814H37.1437V9.14689H39.9937V6.27814Z" fill="#6DBDE5"/>
<path d="M37.1437 37.7219H31.425V40.5719H37.1437V37.7219Z" fill="#6DBDE5"/>
<path d="M37.1437 3.42813H31.425V6.27813H37.1437V3.42813Z" fill="#6DBDE5"/>
<path d="M31.425 40.5719H19.9875V43.4219H31.425V40.5719Z" fill="#6DBDE5"/>
<path d="M31.425 0.578125H19.9875V3.42812H31.425V0.578125Z" fill="#6DBDE5"/>
<path d="M19.9875 37.7219H11.4188V40.5719H19.9875V37.7219Z" fill="#6DBDE5"/>
<path d="M19.9875 3.42813H11.4188V6.27813H19.9875V3.42813Z" fill="#6DBDE5"/>
<path d="M11.4188 34.8531H5.70001V37.7219H11.4188V34.8531Z" fill="#6DBDE5"/>
<path d="M14.2687 20.5656H8.56873V26.2844H14.2687V20.5656Z" fill="#6DBDE5"/>
<path d="M11.4188 6.27814H5.70001V9.14689H11.4188V6.27814Z" fill="#6DBDE5"/>
<path d="M5.69998 29.1344H2.84998V34.8531H5.69998V29.1344Z" fill="#6DBDE5"/>
<path d="M5.69998 9.14688H2.84998V14.8469H5.69998V9.14688Z" fill="#6DBDE5"/>
<path d="M2.85 14.8469H0V29.1344H2.85V14.8469Z" fill="#6DBDE5"/>
</svg>
