<svg width="56" height="56" viewBox="0 0 56 56" fill="none" xmlns="http://www.w3.org/2000/svg">
<path d="M53.34 53.34H13.335V50.6625H10.675V53.34H5.3375V50.6625H2.6775V53.34H0V56H56V42.665H53.34V53.34Z" fill="#F8C468"/>
<path d="M50.6625 45.3252H45.3425V50.6627H50.6625V45.3252Z" fill="#F8C468"/>
<path d="M53.34 40.0049H42.665V42.6649H53.34V40.0049Z" fill="#F8C468"/>
<path d="M48.0025 7.99756H45.3425V13.3351H48.0025V7.99756Z" fill="#F8C468"/>
<path d="M42.665 48.0024H40.005V50.6624H42.665V48.0024Z" fill="#F8C468"/>
<path d="M42.665 42.665H40.005V45.325H42.665V42.665Z" fill="#F8C468"/>
<path d="M45.3425 13.335H40.005V15.995H45.3425V13.335Z" fill="#F8C468"/>
<path d="M45.3425 5.3374H40.005V7.9974H45.3425V5.3374Z" fill="#F8C468"/>
<path d="M40.005 40.0049H37.345V42.6649H40.005V40.0049Z" fill="#F8C468"/>
<path d="M37.345 48.0024H34.6675V50.6624H37.345V48.0024Z" fill="#F8C468"/>
<path d="M34.6675 13.335H32.0075V18.6725H29.33V21.3325H34.6675V18.6725H40.005V15.995H34.6675V13.335Z" fill="#F8C468"/>
<path d="M40.005 2.66016H34.6675V5.33766H40.005V2.66016Z" fill="#F8C468"/>
<path d="M34.6675 42.665H32.0075V45.325H34.6675V42.665Z" fill="#F8C468"/>
<path d="M32.0075 7.99756H29.33V13.3351H32.0075V7.99756Z" fill="#F8C468"/>
<path d="M29.33 45.3252H24.01V50.6627H29.33V45.3252Z" fill="#F8C468"/>
<path d="M37.345 40.005V37.3275H32.0075V34.6675H29.33V37.3275H24.01V40.005H37.345Z" fill="#F8C468"/>
<path d="M29.33 29.3301H26.67V34.6676H29.33V29.3301Z" fill="#F8C468"/>
<path d="M29.33 5.3374H24.01V7.9974H29.33V5.3374Z" fill="#F8C468"/>
<path d="M29.33 23.9925V21.3325H24.01V23.9925H18.6725V26.67H24.01V29.33H26.67V23.9925H29.33Z" fill="#F8C468"/>
<path d="M24.01 40.0049H18.6725V42.6649H24.01V40.0049Z" fill="#F8C468"/>
<path d="M21.3325 48.0024H18.6725V50.6624H21.3325V48.0024Z" fill="#F8C468"/>
<path d="M18.6725 42.665H15.995V45.325H18.6725V42.665Z" fill="#F8C468"/>
<path d="M15.995 21.3325H13.335V29.33H18.6725V26.67H15.995V21.3325Z" fill="#F8C468"/>
<path d="M15.995 45.3252H7.9975V48.0027H15.995V45.3252Z" fill="#F8C468"/>
<path d="M13.335 13.335H10.675V21.3325H13.335V13.335Z" fill="#F8C468"/>
<path d="M13.335 13.335H15.995V5.3375H24.01V2.66H34.6675V0H18.6725V2.66H13.335V5.3375H7.9975V7.9975H13.335V13.335Z" fill="#F8C468"/>
<path d="M13.335 29.3301H7.9975V31.9901H13.335V29.3301Z" fill="#F8C468"/>
<path d="M7.99749 48.0024H5.33749V50.6624H7.99749V48.0024Z" fill="#F8C468"/>
<path d="M7.99749 7.99756H5.33749V13.3351H7.99749V7.99756Z" fill="#F8C468"/>
<path d="M7.99749 31.9902H2.67749V34.6677H7.99749V31.9902Z" fill="#F8C468"/>
<path d="M5.33749 13.335H2.67749V21.3325H5.33749V13.335Z" fill="#F8C468"/>
<path d="M2.6775 21.3325H0V31.99H2.6775V21.3325Z" fill="#F8C468"/>
</svg>
