<svg width="63" height="56" viewBox="0 0 63 56" fill="none" xmlns="http://www.w3.org/2000/svg">
<path d="M12.9242 23.9925V21.3325H16.032V18.6725H19.1195V15.995H22.207V13.335H25.3148V10.675H28.4023V7.9975H34.5977V10.675H37.6852V13.335H40.793V15.995H43.8805V18.6725H46.968V21.3325H50.0758V23.9925H53.1633V53.34H56.2711V29.33H59.3586V26.67H62.4461V23.9925H59.3586V21.3325H56.2711V18.6725H53.1633V15.995H50.0758V13.335H46.968V10.675H43.8805V7.9975H40.793V5.3375H37.6852V2.66H34.5977V0H28.4023V2.66H25.3148V5.3375H22.207V7.9975H19.1195V10.675H16.032V13.335H12.9242V15.995H9.83672V18.6725H6.74922V21.3325H3.64141V23.9925H0.553909V26.67H3.64141V29.33H6.74922V53.34H9.83672V23.9925H12.9242Z" fill="#D197FF"/>
<path d="M53.1633 55.9998V53.3398H40.793V32.0073H37.6852V53.3398H25.3148V32.0073H22.207V53.3398H9.83672V55.9998H53.1633Z" fill="#D197FF"/>
<path d="M50.0758 34.6675H43.8805V40.005H50.0758V34.6675Z" fill="#D197FF"/>
<path d="M37.6852 15.9951H34.5977V21.3326H37.6852V15.9951Z" fill="#D197FF"/>
<path d="M34.5977 13.335H28.4023V15.995H34.5977V13.335Z" fill="#D197FF"/>
<path d="M31.5102 40.0049H28.4023V42.6649H31.5102V40.0049Z" fill="#D197FF"/>
<path d="M37.6852 29.3301H25.3148V32.0076H37.6852V29.3301Z" fill="#D197FF"/>
<path d="M34.5977 21.3325H28.4023V23.9925H34.5977V21.3325Z" fill="#D197FF"/>
<path d="M28.4024 15.9951H25.3148V21.3326H28.4024V15.9951Z" fill="#D197FF"/>
<path d="M19.1195 34.6675H12.9242V40.005H19.1195V34.6675Z" fill="#D197FF"/>
</svg>
