<svg width="60" height="60" viewBox="0 0 60 60" fill="none" xmlns="http://www.w3.org/2000/svg">
<path d="M15.7109 26.4219V24.0469H18.1016V21.6719H20.4766V19.2813H22.8516V16.9062H25.2422V14.5312H27.6172V12.1406H32.3828V14.5312H34.7578V16.9062H37.1484V19.2813H39.5234V21.6719H41.8984V24.0469H44.2891V26.4219H46.6641V52.625H49.0547V31.1875H51.4297V28.8125H53.8047V26.4219H51.4297V24.0469H49.0547V21.6719H46.6641V19.2813H44.2891V16.9062H41.8984V14.5312H39.5234V12.1406H37.1484V9.76562H34.7578V7.375H32.3828V5H27.6172V7.375H25.2422V9.76562H22.8516V12.1406H20.4766V14.5312H18.1016V16.9062H15.7109V19.2813H13.3359V21.6719H10.9609V24.0469H8.57031V26.4219H6.19531V28.8125H8.57031V31.1875H10.9609V52.625H13.3359V26.4219H15.7109Z" fill="#D197FF"/>
<path d="M46.6641 55V52.625H37.1484V33.5781H34.7578V52.625H25.2422V33.5781H22.8516V52.625H13.3359V55H46.6641Z" fill="#D197FF"/>
<path d="M44.2891 35.9531H39.5234V40.7188H44.2891V35.9531Z" fill="#D197FF"/>
<path d="M34.7578 19.2812H32.3828V24.0469H34.7578V19.2812Z" fill="#D197FF"/>
<path d="M32.3828 16.9062H27.6172V19.2813H32.3828V16.9062Z" fill="#D197FF"/>
<path d="M30.0078 40.7188H27.6172V43.0937H30.0078V40.7188Z" fill="#D197FF"/>
<path d="M34.7578 31.1875H25.2422V33.5781H34.7578V31.1875Z" fill="#D197FF"/>
<path d="M32.3828 24.0469H27.6172V26.4219H32.3828V24.0469Z" fill="#D197FF"/>
<path d="M27.6172 19.2812H25.2422V24.0469H27.6172V19.2812Z" fill="#D197FF"/>
<path d="M20.4766 35.9531H15.7109V40.7188H20.4766V35.9531Z" fill="#D197FF"/>
</svg>
