<svg width="56" height="56" viewBox="0 0 56 56" fill="none" xmlns="http://www.w3.org/2000/svg">
<path d="M56 5.60352H53.189V50.3962H56V5.60352Z" fill="#453333"/>
<path d="M53.189 50.3965H50.3963V53.1891H53.189V50.3965Z" fill="#453333"/>
<path d="M53.189 2.79248H50.3963V5.6035H53.189V2.79248Z" fill="#453333"/>
<path d="M50.3963 53.189H5.60367V56H50.3963V53.189Z" fill="#453333"/>
<path d="M44.7927 36.3965H11.2074V39.1891H8.39633V44.7928H11.2074V42.0002H44.7927V44.7928H47.6037V39.1891H44.7927V36.3965Z" fill="#453333"/>
<path d="M44.7927 22.3965H11.2074V25.1891H8.39633V30.7928H11.2074V28.0002H44.7927V30.7928H47.6037V25.1891H44.7927V22.3965Z" fill="#453333"/>
<path d="M44.7927 8.39648H11.2074V11.1891H8.39633V16.7928H11.2074V14.0002H44.7927V16.7928H47.6037V11.1891H44.7927V8.39648Z" fill="#453333"/>
<path d="M44.7926 44.7925H11.2073V47.5851H44.7926V44.7925Z" fill="#453333"/>
<path d="M44.7926 30.7925H11.2073V33.5851H44.7926V30.7925Z" fill="#453333"/>
<path d="M44.7926 16.7925H11.2073V19.6035H44.7926V16.7925Z" fill="#453333"/>
<path d="M50.3963 0H5.60367V2.79265H50.3963V0Z" fill="#453333"/>
<path d="M5.60366 50.3965H2.811V53.1891H5.60366V50.3965Z" fill="#453333"/>
<path d="M5.60366 2.79248H2.811V5.6035H5.60366V2.79248Z" fill="#453333"/>
<path d="M2.81102 5.60352H0V50.3962H2.81102V5.60352Z" fill="#453333"/>
</svg>
