<?xml version="1.0" encoding="utf-8"?>
<!-- Generator: Adobe Illustrator 26.5.0, SVG Export Plug-In . SVG Version: 6.00 Build 0)  -->
<svg version="1.1" id="Layer_1" xmlns="http://www.w3.org/2000/svg" xmlns:xlink="http://www.w3.org/1999/xlink" x="0px" y="0px"
	 viewBox="0 0 155 49" style="enable-background:new 0 0 155 49;" xml:space="preserve">
<style type="text/css">
	.st0{fill:#2EA1DA;}
	.st1{fill:#43AADE;}
	.st2{fill:#6DBDE5;}
	.st3{fill:#58B4E1;}
</style>
<path d="M155,33.9h-4.8v4.8h4.8V33.9z"/>
<path d="M155,29.1h-4.8v4.8h4.8V29.1z"/>
<path d="M155,24.2h-4.8V29h4.8V24.2z"/>
<path d="M155,19.4h-4.8v4.8h4.8V19.4z"/>
<path d="M155,14.5h-4.8v4.8h4.8V14.5z"/>
<path d="M155,9.7h-4.8v4.8h4.8V9.7z"/>
<path d="M150.2,38.8h-4.8v4.8h4.8V38.8z"/>
<path class="st0" d="M150.2,33.9h-4.8v4.8h4.8V33.9z"/>
<path class="st0" d="M150.2,29.1h-4.8v4.8h4.8V29.1z"/>
<path class="st0" d="M150.2,24.2h-4.8V29h4.8V24.2z"/>
<path class="st0" d="M150.2,19.4h-4.8v4.8h4.8V19.4z"/>
<path class="st0" d="M150.2,14.5h-4.8v4.8h4.8V14.5z"/>
<path class="st0" d="M150.2,9.7h-4.8v4.8h4.8V9.7z"/>
<path d="M150.2,4.8h-4.8v4.8h4.8V4.8z"/>
<path d="M145.3,43.6h-4.8v4.8h4.8V43.6z"/>
<path class="st0" d="M145.3,38.8h-4.8v4.8h4.8V38.8z"/>
<path class="st0" d="M145.3,33.9h-4.8v4.8h4.8V33.9z"/>
<path class="st1" d="M145.3,29.1h-4.8v4.8h4.8V29.1z"/>
<path class="st1" d="M145.3,24.2h-4.8V29h4.8V24.2z"/>
<path class="st1" d="M145.3,19.4h-4.8v4.8h4.8V19.4z"/>
<path class="st2" d="M145.3,14.5h-4.8v4.8h4.8V14.5z"/>
<path class="st0" d="M145.3,9.7h-4.8v4.8h4.8V9.7z"/>
<path class="st0" d="M145.3,4.8h-4.8v4.8h4.8V4.8z"/>
<path d="M145.3,0h-4.8v4.8h4.8V0z"/>
<path d="M140.5,43.6h-4.8v4.8h4.8V43.6z"/>
<path class="st0" d="M140.5,38.8h-4.8v4.8h4.8V38.8z"/>
<path class="st1" d="M140.5,33.9h-4.8v4.8h4.8V33.9z"/>
<path class="st3" d="M140.5,29.1h-4.8v4.8h4.8V29.1z"/>
<path class="st3" d="M140.5,24.2h-4.8V29h4.8V24.2z"/>
<path class="st3" d="M140.5,19.4h-4.8v4.8h4.8V19.4z"/>
<path class="st3" d="M140.5,14.5h-4.8v4.8h4.8V14.5z"/>
<path class="st2" d="M140.5,9.7h-4.8v4.8h4.8V9.7z"/>
<path class="st0" d="M140.5,4.8h-4.8v4.8h4.8V4.8z"/>
<path d="M140.5,0h-4.8v4.8h4.8V0z"/>
<path d="M135.6,43.6h-4.8v4.8h4.8V43.6z"/>
<path class="st0" d="M135.6,38.8h-4.8v4.8h4.8V38.8z"/>
<path class="st1" d="M135.6,33.9h-4.8v4.8h4.8V33.9z"/>
<path class="st3" d="M135.6,29.1h-4.8v4.8h4.8V29.1z"/>
<path class="st3" d="M135.6,24.2h-4.8V29h4.8V24.2z"/>
<path class="st3" d="M135.6,19.4h-4.8v4.8h4.8V19.4z"/>
<path class="st3" d="M135.6,14.5h-4.8v4.8h4.8V14.5z"/>
<path class="st2" d="M135.6,9.7h-4.8v4.8h4.8V9.7z"/>
<path class="st0" d="M135.6,4.8h-4.8v4.8h4.8V4.8z"/>
<path d="M135.6,0h-4.8v4.8h4.8V0z"/>
<path d="M130.8,43.6H126v4.8h4.8V43.6z"/>
<path class="st0" d="M130.8,38.8H126v4.8h4.8V38.8z"/>
<path class="st1" d="M130.8,33.9H126v4.8h4.8V33.9z"/>
<path class="st3" d="M130.8,29.1H126v4.8h4.8V29.1z"/>
<path class="st3" d="M130.8,24.2H126V29h4.8V24.2z"/>
<path class="st3" d="M130.8,19.4H126v4.8h4.8V19.4z"/>
<path class="st3" d="M130.8,14.5H126v4.8h4.8V14.5z"/>
<path class="st2" d="M130.8,9.7H126v4.8h4.8V9.7z"/>
<path class="st0" d="M130.8,4.8H126v4.8h4.8V4.8z"/>
<path d="M130.8,0H126v4.8h4.8V0z"/>
<path d="M125.9,43.6h-4.8v4.8h4.8V43.6z"/>
<path class="st0" d="M125.9,38.8h-4.8v4.8h4.8V38.8z"/>
<path class="st1" d="M125.9,33.9h-4.8v4.8h4.8V33.9z"/>
<path class="st3" d="M125.9,29.1h-4.8v4.8h4.8V29.1z"/>
<path class="st3" d="M125.9,24.2h-4.8V29h4.8V24.2z"/>
<path class="st3" d="M125.9,19.4h-4.8v4.8h4.8V19.4z"/>
<path class="st3" d="M125.9,14.5h-4.8v4.8h4.8V14.5z"/>
<path class="st2" d="M125.9,9.7h-4.8v4.8h4.8V9.7z"/>
<path class="st0" d="M125.9,4.8h-4.8v4.8h4.8V4.8z"/>
<path d="M125.9,0h-4.8v4.8h4.8V0z"/>
<path d="M121.1,43.6h-4.8v4.8h4.8V43.6z"/>
<path class="st0" d="M121.1,38.8h-4.8v4.8h4.8V38.8z"/>
<path class="st1" d="M121.1,33.9h-4.8v4.8h4.8V33.9z"/>
<path class="st3" d="M121.1,29.1h-4.8v4.8h4.8V29.1z"/>
<path class="st3" d="M121.1,24.2h-4.8V29h4.8V24.2z"/>
<path class="st3" d="M121.1,19.4h-4.8v4.8h4.8V19.4z"/>
<path class="st3" d="M121.1,14.5h-4.8v4.8h4.8V14.5z"/>
<path class="st2" d="M121.1,9.7h-4.8v4.8h4.8V9.7z"/>
<path class="st0" d="M121.1,4.8h-4.8v4.8h4.8V4.8z"/>
<path d="M121.1,0h-4.8v4.8h4.8V0z"/>
<path d="M116.2,43.6h-4.8v4.8h4.8V43.6z"/>
<path class="st0" d="M116.2,38.8h-4.8v4.8h4.8V38.8z"/>
<path class="st1" d="M116.2,33.9h-4.8v4.8h4.8V33.9z"/>
<path class="st3" d="M116.2,29.1h-4.8v4.8h4.8V29.1z"/>
<path class="st3" d="M116.2,24.2h-4.8V29h4.8V24.2z"/>
<path class="st3" d="M116.2,19.4h-4.8v4.8h4.8V19.4z"/>
<path class="st3" d="M116.2,14.5h-4.8v4.8h4.8V14.5z"/>
<path class="st2" d="M116.2,9.7h-4.8v4.8h4.8V9.7z"/>
<path class="st0" d="M116.2,4.8h-4.8v4.8h4.8V4.8z"/>
<path d="M116.2,0h-4.8v4.8h4.8V0z"/>
<path d="M111.4,43.6h-4.8v4.8h4.8V43.6z"/>
<path class="st0" d="M111.4,38.8h-4.8v4.8h4.8V38.8z"/>
<path class="st1" d="M111.4,33.9h-4.8v4.8h4.8V33.9z"/>
<path class="st3" d="M111.4,29.1h-4.8v4.8h4.8V29.1z"/>
<path class="st3" d="M111.4,24.2h-4.8V29h4.8V24.2z"/>
<path class="st3" d="M111.4,19.4h-4.8v4.8h4.8V19.4z"/>
<path class="st3" d="M111.4,14.5h-4.8v4.8h4.8V14.5z"/>
<path class="st2" d="M111.4,9.7h-4.8v4.8h4.8V9.7z"/>
<path class="st0" d="M111.4,4.8h-4.8v4.8h4.8V4.8z"/>
<path d="M111.4,0h-4.8v4.8h4.8V0z"/>
<path d="M106.6,43.6h-4.8v4.8h4.8V43.6z"/>
<path class="st0" d="M106.6,38.8h-4.8v4.8h4.8V38.8z"/>
<path class="st1" d="M106.6,33.9h-4.8v4.8h4.8V33.9z"/>
<path class="st3" d="M106.6,29.1h-4.8v4.8h4.8V29.1z"/>
<path class="st3" d="M106.6,24.2h-4.8V29h4.8V24.2z"/>
<path class="st3" d="M106.6,19.4h-4.8v4.8h4.8V19.4z"/>
<path class="st3" d="M106.6,14.5h-4.8v4.8h4.8V14.5z"/>
<path class="st2" d="M106.6,9.7h-4.8v4.8h4.8V9.7z"/>
<path class="st0" d="M106.6,4.8h-4.8v4.8h4.8V4.8z"/>
<path d="M106.6,0h-4.8v4.8h4.8V0z"/>
<path d="M101.7,43.6h-4.8v4.8h4.8V43.6z"/>
<path class="st0" d="M101.7,38.8h-4.8v4.8h4.8V38.8z"/>
<path class="st1" d="M101.7,33.9h-4.8v4.8h4.8V33.9z"/>
<path class="st3" d="M101.7,29.1h-4.8v4.8h4.8V29.1z"/>
<path class="st3" d="M101.7,24.2h-4.8V29h4.8V24.2z"/>
<path class="st3" d="M101.7,19.4h-4.8v4.8h4.8V19.4z"/>
<path class="st3" d="M101.7,14.5h-4.8v4.8h4.8V14.5z"/>
<path class="st2" d="M101.7,9.7h-4.8v4.8h4.8V9.7z"/>
<path class="st0" d="M101.7,4.8h-4.8v4.8h4.8V4.8z"/>
<path d="M101.7,0h-4.8v4.8h4.8V0z"/>
<path d="M96.9,43.6H92v4.8h4.8L96.9,43.6L96.9,43.6z"/>
<path class="st0" d="M96.9,38.8H92v4.8h4.8L96.9,38.8L96.9,38.8z"/>
<path class="st1" d="M96.9,33.9H92v4.8h4.8L96.9,33.9L96.9,33.9z"/>
<path class="st3" d="M96.9,29.1H92v4.8h4.8L96.9,29.1L96.9,29.1z"/>
<path class="st3" d="M96.9,24.2H92V29h4.8L96.9,24.2L96.9,24.2z"/>
<path class="st3" d="M96.9,19.4H92v4.8h4.8L96.9,19.4L96.9,19.4z"/>
<path class="st3" d="M96.9,14.5H92v4.8h4.8L96.9,14.5L96.9,14.5z"/>
<path class="st2" d="M96.9,9.7H92v4.8h4.8L96.9,9.7L96.9,9.7z"/>
<path class="st0" d="M96.9,4.8H92v4.8h4.8L96.9,4.8L96.9,4.8z"/>
<path d="M96.9,0H92v4.8h4.8L96.9,0L96.9,0z"/>
<path d="M92,43.6h-4.8v4.8H92V43.6z"/>
<path class="st0" d="M92,38.8h-4.8v4.8H92V38.8z"/>
<path class="st1" d="M92,33.9h-4.8v4.8H92V33.9z"/>
<path class="st3" d="M92,29.1h-4.8v4.8H92V29.1z"/>
<path class="st3" d="M92,24.2h-4.8V29H92V24.2z"/>
<path class="st3" d="M92,19.4h-4.8v4.8H92V19.4z"/>
<path class="st3" d="M92,14.5h-4.8v4.8H92V14.5z"/>
<path class="st2" d="M92,9.7h-4.8v4.8H92V9.7z"/>
<path class="st0" d="M92,4.8h-4.8v4.8H92V4.8z"/>
<path d="M92,0h-4.8v4.8H92V0z"/>
<path d="M87.2,43.6h-4.8v4.8h4.8V43.6z"/>
<path class="st0" d="M87.2,38.8h-4.8v4.8h4.8V38.8z"/>
<path class="st1" d="M87.2,33.9h-4.8v4.8h4.8V33.9z"/>
<path class="st3" d="M87.2,29.1h-4.8v4.8h4.8V29.1z"/>
<path class="st3" d="M87.2,24.2h-4.8V29h4.8V24.2z"/>
<path class="st3" d="M87.2,19.4h-4.8v4.8h4.8V19.4z"/>
<path class="st3" d="M87.2,14.5h-4.8v4.8h4.8V14.5z"/>
<path class="st2" d="M87.2,9.7h-4.8v4.8h4.8V9.7z"/>
<path class="st0" d="M87.2,4.8h-4.8v4.8h4.8V4.8z"/>
<path d="M87.2,0h-4.8v4.8h4.8V0z"/>
<path d="M82.3,43.6h-4.8v4.8h4.8V43.6z"/>
<path class="st0" d="M82.3,38.8h-4.8v4.8h4.8V38.8z"/>
<path class="st1" d="M82.3,33.9h-4.8v4.8h4.8V33.9z"/>
<path class="st3" d="M82.3,29.1h-4.8v4.8h4.8V29.1z"/>
<path class="st3" d="M82.3,24.2h-4.8V29h4.8V24.2z"/>
<path class="st3" d="M82.3,19.4h-4.8v4.8h4.8V19.4z"/>
<path class="st3" d="M82.3,14.5h-4.8v4.8h4.8V14.5z"/>
<path class="st2" d="M82.3,9.7h-4.8v4.8h4.8V9.7z"/>
<path class="st0" d="M82.3,4.8h-4.8v4.8h4.8V4.8z"/>
<path d="M82.3,0h-4.8v4.8h4.8V0z"/>
<path d="M77.5,43.6h-4.8v4.8h4.8V43.6z"/>
<path class="st0" d="M77.5,38.8h-4.8v4.8h4.8V38.8z"/>
<path class="st1" d="M77.5,33.9h-4.8v4.8h4.8V33.9z"/>
<path class="st3" d="M77.5,29.1h-4.8v4.8h4.8V29.1z"/>
<path class="st3" d="M77.5,24.2h-4.8V29h4.8V24.2z"/>
<path class="st3" d="M77.5,19.4h-4.8v4.8h4.8V19.4z"/>
<path class="st3" d="M77.5,14.5h-4.8v4.8h4.8V14.5z"/>
<path class="st2" d="M77.5,9.7h-4.8v4.8h4.8V9.7z"/>
<path class="st0" d="M77.5,4.8h-4.8v4.8h4.8V4.8z"/>
<path d="M77.5,0h-4.8v4.8h4.8V0z"/>
<path d="M72.7,43.6h-4.8v4.8h4.8V43.6z"/>
<path class="st0" d="M72.7,38.8h-4.8v4.8h4.8V38.8z"/>
<path class="st1" d="M72.7,33.9h-4.8v4.8h4.8V33.9z"/>
<path class="st3" d="M72.7,29.1h-4.8v4.8h4.8V29.1z"/>
<path class="st3" d="M72.7,24.2h-4.8V29h4.8V24.2z"/>
<path class="st3" d="M72.7,19.4h-4.8v4.8h4.8V19.4z"/>
<path class="st3" d="M72.7,14.5h-4.8v4.8h4.8V14.5z"/>
<path class="st2" d="M72.7,9.7h-4.8v4.8h4.8V9.7z"/>
<path class="st0" d="M72.7,4.8h-4.8v4.8h4.8V4.8z"/>
<path d="M72.7,0h-4.8v4.8h4.8V0z"/>
<path d="M67.8,43.6H63v4.8h4.8V43.6z"/>
<path class="st0" d="M67.8,38.8H63v4.8h4.8V38.8z"/>
<path class="st1" d="M67.8,33.9H63v4.8h4.8V33.9z"/>
<path class="st3" d="M67.8,29.1H63v4.8h4.8V29.1z"/>
<path class="st3" d="M67.8,24.2H63V29h4.8V24.2z"/>
<path class="st3" d="M67.8,19.4H63v4.8h4.8V19.4z"/>
<path class="st3" d="M67.8,14.5H63v4.8h4.8V14.5z"/>
<path class="st2" d="M67.8,9.7H63v4.8h4.8V9.7z"/>
<path class="st0" d="M67.8,4.8H63v4.8h4.8V4.8z"/>
<path d="M67.8,0H63v4.8h4.8V0z"/>
<path d="M63,43.6h-4.8v4.8H63V43.6z"/>
<path class="st0" d="M63,38.8h-4.8v4.8H63V38.8z"/>
<path class="st1" d="M63,33.9h-4.8v4.8H63V33.9z"/>
<path class="st3" d="M63,29.1h-4.8v4.8H63V29.1z"/>
<path class="st3" d="M63,24.2h-4.8V29H63V24.2z"/>
<path class="st3" d="M63,19.4h-4.8v4.8H63V19.4z"/>
<path class="st3" d="M63,14.5h-4.8v4.8H63V14.5z"/>
<path class="st2" d="M63,9.7h-4.8v4.8H63V9.7z"/>
<path class="st0" d="M63,4.8h-4.8v4.8H63V4.8z"/>
<path d="M63,0h-4.8v4.8H63V0z"/>
<path d="M58.1,43.6h-4.8v4.8h4.8V43.6z"/>
<path class="st0" d="M58.1,38.8h-4.8v4.8h4.8V38.8z"/>
<path class="st1" d="M58.1,33.9h-4.8v4.8h4.8V33.9z"/>
<path class="st3" d="M58.1,29.1h-4.8v4.8h4.8V29.1z"/>
<path class="st3" d="M58.1,24.2h-4.8V29h4.8V24.2z"/>
<path class="st3" d="M58.1,19.4h-4.8v4.8h4.8V19.4z"/>
<path class="st3" d="M58.1,14.5h-4.8v4.8h4.8V14.5z"/>
<path class="st2" d="M58.1,9.7h-4.8v4.8h4.8V9.7z"/>
<path class="st0" d="M58.1,4.8h-4.8v4.8h4.8V4.8z"/>
<path d="M58.1,0h-4.8v4.8h4.8V0z"/>
<path d="M53.3,43.6h-4.8v4.8h4.8V43.6z"/>
<path class="st0" d="M53.3,38.8h-4.8v4.8h4.8V38.8z"/>
<path class="st1" d="M53.3,33.9h-4.8v4.8h4.8V33.9z"/>
<path class="st3" d="M53.3,29.1h-4.8v4.8h4.8V29.1z"/>
<path class="st3" d="M53.3,24.2h-4.8V29h4.8V24.2z"/>
<path class="st3" d="M53.3,19.4h-4.8v4.8h4.8V19.4z"/>
<path class="st3" d="M53.3,14.5h-4.8v4.8h4.8V14.5z"/>
<path class="st2" d="M53.3,9.7h-4.8v4.8h4.8V9.7z"/>
<path class="st0" d="M53.3,4.8h-4.8v4.8h4.8V4.8z"/>
<path d="M53.3,0h-4.8v4.8h4.8V0z"/>
<path d="M48.4,43.6h-4.8v4.8h4.8V43.6z"/>
<path class="st0" d="M48.4,38.8h-4.8v4.8h4.8V38.8z"/>
<path class="st1" d="M48.4,33.9h-4.8v4.8h4.8V33.9z"/>
<path class="st3" d="M48.4,29.1h-4.8v4.8h4.8V29.1z"/>
<path class="st3" d="M48.4,24.2h-4.8V29h4.8V24.2z"/>
<path class="st3" d="M48.4,19.4h-4.8v4.8h4.8V19.4z"/>
<path class="st3" d="M48.4,14.5h-4.8v4.8h4.8V14.5z"/>
<path class="st2" d="M48.4,9.7h-4.8v4.8h4.8V9.7z"/>
<path class="st0" d="M48.4,4.8h-4.8v4.8h4.8V4.8z"/>
<path d="M48.4,0h-4.8v4.8h4.8V0z"/>
<path d="M43.6,43.6h-4.8v4.8h4.8V43.6z"/>
<path class="st0" d="M43.6,38.8h-4.8v4.8h4.8V38.8z"/>
<path class="st1" d="M43.6,33.9h-4.8v4.8h4.8V33.9z"/>
<path class="st3" d="M43.6,29.1h-4.8v4.8h4.8V29.1z"/>
<path class="st3" d="M43.6,24.2h-4.8V29h4.8V24.2z"/>
<path class="st3" d="M43.6,19.4h-4.8v4.8h4.8V19.4z"/>
<path class="st3" d="M43.6,14.5h-4.8v4.8h4.8V14.5z"/>
<path class="st2" d="M43.6,9.7h-4.8v4.8h4.8V9.7z"/>
<path class="st0" d="M43.6,4.8h-4.8v4.8h4.8V4.8z"/>
<path d="M43.6,0h-4.8v4.8h4.8V0z"/>
<path d="M38.8,43.6H34v4.8h4.8V43.6z"/>
<path class="st0" d="M38.8,38.8H34v4.8h4.8V38.8z"/>
<path class="st1" d="M38.8,33.9H34v4.8h4.8V33.9z"/>
<path class="st3" d="M38.8,29.1H34v4.8h4.8V29.1z"/>
<path class="st3" d="M38.8,24.2H34V29h4.8V24.2z"/>
<path class="st3" d="M38.8,19.4H34v4.8h4.8V19.4z"/>
<path class="st3" d="M38.8,14.5H34v4.8h4.8V14.5z"/>
<path class="st2" d="M38.8,9.7H34v4.8h4.8V9.7z"/>
<path class="st0" d="M38.8,4.8H34v4.8h4.8V4.8z"/>
<path d="M38.8,0H34v4.8h4.8V0z"/>
<path d="M33.9,43.6h-4.8v4.8h4.8V43.6z"/>
<path class="st0" d="M33.9,38.8h-4.8v4.8h4.8V38.8z"/>
<path class="st1" d="M33.9,33.9h-4.8v4.8h4.8V33.9z"/>
<path class="st3" d="M33.9,29.1h-4.8v4.8h4.8V29.1z"/>
<path class="st3" d="M33.9,24.2h-4.8V29h4.8V24.2z"/>
<path class="st3" d="M33.9,19.4h-4.8v4.8h4.8V19.4z"/>
<path class="st3" d="M33.9,14.5h-4.8v4.8h4.8V14.5z"/>
<path class="st2" d="M33.9,9.7h-4.8v4.8h4.8V9.7z"/>
<path class="st0" d="M33.9,4.8h-4.8v4.8h4.8V4.8z"/>
<path d="M33.9,0h-4.8v4.8h4.8V0z"/>
<path d="M29.1,43.6h-4.8v4.8h4.8C29.1,48.4,29.1,43.6,29.1,43.6z"/>
<path class="st0" d="M29.1,38.8h-4.8v4.8h4.8C29.1,43.6,29.1,38.8,29.1,38.8z"/>
<path class="st1" d="M29.1,33.9h-4.8v4.8h4.8C29.1,38.7,29.1,33.9,29.1,33.9z"/>
<path class="st3" d="M29.1,29.1h-4.8v4.8h4.8C29.1,33.9,29.1,29.1,29.1,29.1z"/>
<path class="st3" d="M29.1,24.2h-4.8V29h4.8C29.1,29,29.1,24.2,29.1,24.2z"/>
<path class="st3" d="M29.1,19.4h-4.8v4.8h4.8C29.1,24.2,29.1,19.4,29.1,19.4z"/>
<path class="st3" d="M29.1,14.5h-4.8v4.8h4.8C29.1,19.3,29.1,14.5,29.1,14.5z"/>
<path class="st2" d="M29.1,9.7h-4.8v4.8h4.8C29.1,14.5,29.1,9.7,29.1,9.7z"/>
<path class="st0" d="M29.1,4.8h-4.8v4.8h4.8C29.1,9.6,29.1,4.8,29.1,4.8z"/>
<path d="M29.1,0h-4.8v4.8h4.8C29.1,4.8,29.1,0,29.1,0z"/>
<path d="M24.2,43.6h-4.8v4.8h4.8V43.6z"/>
<path class="st0" d="M24.2,38.8h-4.8v4.8h4.8V38.8z"/>
<path class="st1" d="M24.2,33.9h-4.8v4.8h4.8V33.9z"/>
<path class="st3" d="M24.2,29.1h-4.8v4.8h4.8V29.1z"/>
<path class="st3" d="M24.2,24.2h-4.8V29h4.8V24.2z"/>
<path class="st3" d="M24.2,19.4h-4.8v4.8h4.8V19.4z"/>
<path class="st3" d="M24.2,14.5h-4.8v4.8h4.8V14.5z"/>
<path class="st2" d="M24.2,9.7h-4.8v4.8h4.8V9.7z"/>
<path class="st0" d="M24.2,4.8h-4.8v4.8h4.8V4.8z"/>
<path d="M24.2,0h-4.8v4.8h4.8V0z"/>
<path d="M19.4,43.6h-4.8v4.8h4.8V43.6z"/>
<path class="st0" d="M19.4,38.8h-4.8v4.8h4.8V38.8z"/>
<path class="st1" d="M19.4,33.9h-4.8v4.8h4.8V33.9z"/>
<path class="st3" d="M19.4,29.1h-4.8v4.8h4.8V29.1z"/>
<path class="st3" d="M19.4,24.2h-4.8V29h4.8V24.2z"/>
<path class="st3" d="M19.4,19.4h-4.8v4.8h4.8V19.4z"/>
<path class="st3" d="M19.4,14.5h-4.8v4.8h4.8V14.5z"/>
<path class="st2" d="M19.4,9.7h-4.8v4.8h4.8V9.7z"/>
<path class="st0" d="M19.4,4.8h-4.8v4.8h4.8V4.8z"/>
<path d="M19.4,0h-4.8v4.8h4.8V0z"/>
<path d="M14.5,43.6H9.7v4.8h4.8V43.6z"/>
<path class="st0" d="M14.5,38.8H9.7v4.8h4.8V38.8z"/>
<path class="st0" d="M14.5,33.9H9.7v4.8h4.8V33.9z"/>
<path class="st1" d="M14.5,29.1H9.7v4.8h4.8V29.1z"/>
<path class="st1" d="M14.5,24.2H9.7V29h4.8V24.2z"/>
<path class="st1" d="M14.5,19.4H9.7v4.8h4.8V19.4z"/>
<path class="st2" d="M14.5,14.5H9.7v4.8h4.8V14.5z"/>
<path class="st0" d="M14.5,9.7H9.7v4.8h4.8V9.7z"/>
<path class="st0" d="M14.5,4.8H9.7v4.8h4.8V4.8z"/>
<path d="M14.5,0H9.7v4.8h4.8V0z"/>
<path d="M9.7,38.8H4.8v4.8h4.8L9.7,38.8L9.7,38.8z"/>
<path class="st0" d="M9.7,33.9H4.8v4.8h4.8L9.7,33.9L9.7,33.9z"/>
<path class="st0" d="M9.7,29.1H4.8v4.8h4.8L9.7,29.1L9.7,29.1z"/>
<path class="st0" d="M9.7,24.2H4.8V29h4.8L9.7,24.2L9.7,24.2z"/>
<path class="st0" d="M9.7,19.4H4.8v4.8h4.8L9.7,19.4L9.7,19.4z"/>
<path class="st0" d="M9.7,14.5H4.8v4.8h4.8L9.7,14.5L9.7,14.5z"/>
<path class="st0" d="M9.7,9.7H4.8v4.8h4.8L9.7,9.7L9.7,9.7z"/>
<path d="M9.7,4.8H4.8v4.8h4.8L9.7,4.8L9.7,4.8z"/>
<path d="M4.8,33.9H0v4.8h4.8V33.9z"/>
<path d="M4.8,29.1H0v4.8h4.8V29.1z"/>
<path d="M4.8,24.2H0V29h4.8V24.2z"/>
<path d="M4.8,19.4H0v4.8h4.8V19.4z"/>
<path d="M4.8,14.5H0v4.8h4.8V14.5z"/>
<path d="M4.8,9.7H0v4.8h4.8V9.7z"/>
</svg>
