<svg width="24" height="24" viewBox="0 0 24 24" fill="#2ea1da" xmlns="http://www.w3.org/2000/svg">
<path d="M13.1401 14.8534V17.1409H14.2876V16.0009H18.8551V13.7134H17.7151V14.8534H13.1401Z" fill="#2ea1da"/>
<path d="M17.7149 12.5659H16.5674V13.7134H17.7149V12.5659Z" fill="#2ea1da"/>
<path d="M16.5677 19.4287H15.4277V21.7087H16.5677V19.4287Z" fill="#2ea1da"/>
<path d="M16.5677 11.4263H15.4277V12.5663H16.5677V11.4263Z" fill="#2ea1da"/>
<path d="M15.4276 17.1411H14.2876V19.4286H15.4276V17.1411Z" fill="#2ea1da"/>
<path d="M15.4276 10.2861H14.2876V11.4261H15.4276V10.2861Z" fill="#2ea1da"/>
<path d="M15.4276 21.7085H13.1401V22.856H15.4276V21.7085Z" fill="#2ea1da"/>
<path d="M14.2876 9.13867H13.1401V10.2862H14.2876V9.13867Z" fill="#2ea1da"/>
<path d="M13.14 19.4287H12V21.7087H13.14V19.4287Z" fill="#2ea1da"/>
<path d="M13.14 7.99854H12V9.13854H13.14V7.99854Z" fill="#2ea1da"/>
<path d="M12 17.1411H10.8525V19.4286H12V17.1411Z" fill="#2ea1da"/>
<path d="M12 6.85107H10.8525V7.99857H12V6.85107Z" fill="#2ea1da"/>
<path d="M10.8524 16.001H9.7124V17.141H10.8524V16.001Z" fill="#2ea1da"/>
<path d="M10.8524 5.71094H9.7124V6.85094H10.8524V5.71094Z" fill="#2ea1da"/>
<path d="M9.71275 17.1411H8.57275V18.2811H9.71275V17.1411Z" fill="#2ea1da"/>
<path d="M9.71275 4.57129H8.57275V5.71129H9.71275V4.57129Z" fill="#2ea1da"/>
<path d="M8.57231 18.2812H7.4248V19.4288H8.57231V18.2812Z" fill="#2ea1da"/>
<path d="M8.57231 3.42334H7.4248V4.57084H8.57231V3.42334Z" fill="#2ea1da"/>
<path d="M5.14502 1.14355V20.5686H7.42502V19.4286H6.28502V3.42355H7.42502V2.28355H6.28502V1.14355H5.14502Z" fill="#2ea1da"/>
</svg>
