<svg width="155" height="49" viewBox="0 0 155 49" fill="none" xmlns="http://www.w3.org/2000/svg">
<path d="M155 33.9062H150.156V38.75H155V33.9062Z" fill="black"/>
<path d="M155 29.0625H150.156V33.9062H155V29.0625Z" fill="black"/>
<path d="M155 24.2188H150.156V29.0625H155V24.2188Z" fill="black"/>
<path d="M155 19.375H150.156V24.2187H155V19.375Z" fill="black"/>
<path d="M155 14.5312H150.156V19.375H155V14.5312Z" fill="black"/>
<path d="M155 9.6875H150.156V14.5312H155V9.6875Z" fill="black"/>
<path d="M150.156 38.75H145.312V43.5937H150.156V38.75Z" fill="black"/>
<path d="M150.156 33.9062H145.312V38.75H150.156V33.9062Z" fill="#2EA1DA"/>
<path d="M150.156 29.0625H145.312V33.9062H150.156V29.0625Z" fill="#2EA1DA"/>
<path d="M150.156 24.2188H145.312V29.0625H150.156V24.2188Z" fill="#2EA1DA"/>
<path d="M150.156 19.375H145.312V24.2187H150.156V19.375Z" fill="#2EA1DA"/>
<path d="M150.156 14.5312H145.312V19.375H150.156V14.5312Z" fill="#2EA1DA"/>
<path d="M150.156 9.6875H145.312V14.5312H150.156V9.6875Z" fill="#2EA1DA"/>
<path d="M150.156 4.84375H145.312V9.6875H150.156V4.84375Z" fill="black"/>
<path d="M145.312 43.5938H140.469V48.4375H145.312V43.5938Z" fill="black"/>
<path d="M145.312 38.75H140.469V43.5937H145.312V38.75Z" fill="#2EA1DA"/>
<path d="M145.312 33.9062H140.469V38.75H145.312V33.9062Z" fill="#2EA1DA"/>
<path d="M145.312 29.0625H140.469V33.9062H145.312V29.0625Z" fill="#43AADE"/>
<path d="M145.312 24.2188H140.469V29.0625H145.312V24.2188Z" fill="#43AADE"/>
<path d="M145.312 19.375H140.469V24.2187H145.312V19.375Z" fill="#43AADE"/>
<path d="M145.312 14.5312H140.469V19.375H145.312V14.5312Z" fill="#6DBDE5"/>
<path d="M145.312 9.6875H140.469V14.5312H145.312V9.6875Z" fill="#2EA1DA"/>
<path d="M145.312 4.84375H140.469V9.6875H145.312V4.84375Z" fill="#2EA1DA"/>
<path d="M145.312 0H140.469V4.84375H145.312V0Z" fill="black"/>
<path d="M140.469 43.5938H135.625V48.4375H140.469V43.5938Z" fill="black"/>
<path d="M140.469 38.75H135.625V43.5937H140.469V38.75Z" fill="#2EA1DA"/>
<path d="M140.469 33.9062H135.625V38.75H140.469V33.9062Z" fill="#43AADE"/>
<path d="M140.469 29.0625H135.625V33.9062H140.469V29.0625Z" fill="#58B4E1"/>
<path d="M140.469 24.2188H135.625V29.0625H140.469V24.2188Z" fill="#58B4E1"/>
<path d="M140.469 19.375H135.625V24.2187H140.469V19.375Z" fill="#58B4E1"/>
<path d="M140.469 14.5312H135.625V19.375H140.469V14.5312Z" fill="#58B4E1"/>
<path d="M140.469 9.6875H135.625V14.5312H140.469V9.6875Z" fill="#6DBDE5"/>
<path d="M140.469 4.84375H135.625V9.6875H140.469V4.84375Z" fill="#2EA1DA"/>
<path d="M140.469 0H135.625V4.84375H140.469V0Z" fill="black"/>
<path d="M135.625 43.5938H130.781V48.4375H135.625V43.5938Z" fill="black"/>
<path d="M135.625 38.75H130.781V43.5937H135.625V38.75Z" fill="#2EA1DA"/>
<path d="M135.625 33.9062H130.781V38.75H135.625V33.9062Z" fill="#43AADE"/>
<path d="M135.625 29.0625H130.781V33.9062H135.625V29.0625Z" fill="#58B4E1"/>
<path d="M135.625 24.2188H130.781V29.0625H135.625V24.2188Z" fill="#58B4E1"/>
<path d="M135.625 19.375H130.781V24.2187H135.625V19.375Z" fill="#58B4E1"/>
<path d="M135.625 14.5312H130.781V19.375H135.625V14.5312Z" fill="#58B4E1"/>
<path d="M135.625 9.6875H130.781V14.5312H135.625V9.6875Z" fill="#6DBDE5"/>
<path d="M135.625 4.84375H130.781V9.6875H135.625V4.84375Z" fill="#2EA1DA"/>
<path d="M135.625 0H130.781V4.84375H135.625V0Z" fill="black"/>
<path d="M130.781 43.5938H125.938V48.4375H130.781V43.5938Z" fill="black"/>
<path d="M130.781 38.75H125.938V43.5937H130.781V38.75Z" fill="#2EA1DA"/>
<path d="M130.781 33.9062H125.938V38.75H130.781V33.9062Z" fill="#43AADE"/>
<path d="M130.781 29.0625H125.938V33.9062H130.781V29.0625Z" fill="#58B4E1"/>
<path d="M130.781 24.2188H125.938V29.0625H130.781V24.2188Z" fill="#58B4E1"/>
<path d="M130.781 19.375H125.938V24.2187H130.781V19.375Z" fill="#58B4E1"/>
<path d="M130.781 14.5312H125.938V19.375H130.781V14.5312Z" fill="#58B4E1"/>
<path d="M130.781 9.6875H125.938V14.5312H130.781V9.6875Z" fill="#6DBDE5"/>
<path d="M130.781 4.84375H125.938V9.6875H130.781V4.84375Z" fill="#2EA1DA"/>
<path d="M130.781 0H125.938V4.84375H130.781V0Z" fill="black"/>
<path d="M125.937 43.5938H121.094V48.4375H125.937V43.5938Z" fill="black"/>
<path d="M125.937 38.75H121.094V43.5937H125.937V38.75Z" fill="#2EA1DA"/>
<path d="M125.937 33.9062H121.094V38.75H125.937V33.9062Z" fill="#43AADE"/>
<path d="M125.937 29.0625H121.094V33.9062H125.937V29.0625Z" fill="#58B4E1"/>
<path d="M125.937 24.2188H121.094V29.0625H125.937V24.2188Z" fill="#58B4E1"/>
<path d="M125.937 19.375H121.094V24.2187H125.937V19.375Z" fill="#58B4E1"/>
<path d="M125.937 14.5312H121.094V19.375H125.937V14.5312Z" fill="#58B4E1"/>
<path d="M125.937 9.6875H121.094V14.5312H125.937V9.6875Z" fill="#6DBDE5"/>
<path d="M125.937 4.84375H121.094V9.6875H125.937V4.84375Z" fill="#2EA1DA"/>
<path d="M125.937 0H121.094V4.84375H125.937V0Z" fill="black"/>
<path d="M121.094 43.5938H116.25V48.4375H121.094V43.5938Z" fill="black"/>
<path d="M121.094 38.75H116.25V43.5937H121.094V38.75Z" fill="#2EA1DA"/>
<path d="M121.094 33.9062H116.25V38.75H121.094V33.9062Z" fill="#43AADE"/>
<path d="M121.094 29.0625H116.25V33.9062H121.094V29.0625Z" fill="#58B4E1"/>
<path d="M121.094 24.2188H116.25V29.0625H121.094V24.2188Z" fill="#58B4E1"/>
<path d="M121.094 19.375H116.25V24.2187H121.094V19.375Z" fill="#58B4E1"/>
<path d="M121.094 14.5312H116.25V19.375H121.094V14.5312Z" fill="#58B4E1"/>
<path d="M121.094 9.6875H116.25V14.5312H121.094V9.6875Z" fill="#6DBDE5"/>
<path d="M121.094 4.84375H116.25V9.6875H121.094V4.84375Z" fill="#2EA1DA"/>
<path d="M121.094 0H116.25V4.84375H121.094V0Z" fill="black"/>
<path d="M116.25 43.5938H111.406V48.4375H116.25V43.5938Z" fill="black"/>
<path d="M116.25 38.75H111.406V43.5937H116.25V38.75Z" fill="#2EA1DA"/>
<path d="M116.25 33.9062H111.406V38.75H116.25V33.9062Z" fill="#43AADE"/>
<path d="M116.25 29.0625H111.406V33.9062H116.25V29.0625Z" fill="#58B4E1"/>
<path d="M116.25 24.2188H111.406V29.0625H116.25V24.2188Z" fill="#58B4E1"/>
<path d="M116.25 19.375H111.406V24.2187H116.25V19.375Z" fill="#58B4E1"/>
<path d="M116.25 14.5312H111.406V19.375H116.25V14.5312Z" fill="#58B4E1"/>
<path d="M116.25 9.6875H111.406V14.5312H116.25V9.6875Z" fill="#6DBDE5"/>
<path d="M116.25 4.84375H111.406V9.6875H116.25V4.84375Z" fill="#2EA1DA"/>
<path d="M116.25 0H111.406V4.84375H116.25V0Z" fill="black"/>
<path d="M111.406 43.5938H106.562V48.4375H111.406V43.5938Z" fill="black"/>
<path d="M111.406 38.75H106.562V43.5937H111.406V38.75Z" fill="#2EA1DA"/>
<path d="M111.406 33.9062H106.562V38.75H111.406V33.9062Z" fill="#43AADE"/>
<path d="M111.406 29.0625H106.562V33.9062H111.406V29.0625Z" fill="#58B4E1"/>
<path d="M111.406 24.2188H106.562V29.0625H111.406V24.2188Z" fill="#58B4E1"/>
<path d="M111.406 19.375H106.562V24.2187H111.406V19.375Z" fill="#58B4E1"/>
<path d="M111.406 14.5312H106.562V19.375H111.406V14.5312Z" fill="#58B4E1"/>
<path d="M111.406 9.6875H106.562V14.5312H111.406V9.6875Z" fill="#6DBDE5"/>
<path d="M111.406 4.84375H106.562V9.6875H111.406V4.84375Z" fill="#2EA1DA"/>
<path d="M111.406 0H106.562V4.84375H111.406V0Z" fill="black"/>
<path d="M106.562 43.5938H101.719V48.4375H106.562V43.5938Z" fill="black"/>
<path d="M106.562 38.75H101.719V43.5937H106.562V38.75Z" fill="#2EA1DA"/>
<path d="M106.562 33.9062H101.719V38.75H106.562V33.9062Z" fill="#43AADE"/>
<path d="M106.562 29.0625H101.719V33.9062H106.562V29.0625Z" fill="#58B4E1"/>
<path d="M106.562 24.2188H101.719V29.0625H106.562V24.2188Z" fill="#58B4E1"/>
<path d="M106.562 19.375H101.719V24.2187H106.562V19.375Z" fill="#58B4E1"/>
<path d="M106.562 14.5312H101.719V19.375H106.562V14.5312Z" fill="#58B4E1"/>
<path d="M106.562 9.6875H101.719V14.5312H106.562V9.6875Z" fill="#6DBDE5"/>
<path d="M106.562 4.84375H101.719V9.6875H106.562V4.84375Z" fill="#2EA1DA"/>
<path d="M106.562 0H101.719V4.84375H106.562V0Z" fill="black"/>
<path d="M101.719 43.5938H96.875V48.4375H101.719V43.5938Z" fill="black"/>
<path d="M101.719 38.75H96.875V43.5937H101.719V38.75Z" fill="#2EA1DA"/>
<path d="M101.719 33.9062H96.875V38.75H101.719V33.9062Z" fill="#43AADE"/>
<path d="M101.719 29.0625H96.875V33.9062H101.719V29.0625Z" fill="#58B4E1"/>
<path d="M101.719 24.2188H96.875V29.0625H101.719V24.2188Z" fill="#58B4E1"/>
<path d="M101.719 19.375H96.875V24.2187H101.719V19.375Z" fill="#58B4E1"/>
<path d="M101.719 14.5312H96.875V19.375H101.719V14.5312Z" fill="#58B4E1"/>
<path d="M101.719 9.6875H96.875V14.5312H101.719V9.6875Z" fill="#6DBDE5"/>
<path d="M101.719 4.84375H96.875V9.6875H101.719V4.84375Z" fill="#2EA1DA"/>
<path d="M101.719 0H96.875V4.84375H101.719V0Z" fill="black"/>
<path d="M96.875 43.5938H92.0312V48.4375H96.875V43.5938Z" fill="black"/>
<path d="M96.875 38.75H92.0312V43.5937H96.875V38.75Z" fill="#2EA1DA"/>
<path d="M96.875 33.9062H92.0312V38.75H96.875V33.9062Z" fill="#43AADE"/>
<path d="M96.875 29.0625H92.0312V33.9062H96.875V29.0625Z" fill="#58B4E1"/>
<path d="M96.875 24.2188H92.0312V29.0625H96.875V24.2188Z" fill="#58B4E1"/>
<path d="M96.875 19.375H92.0312V24.2187H96.875V19.375Z" fill="#58B4E1"/>
<path d="M96.875 14.5312H92.0312V19.375H96.875V14.5312Z" fill="#58B4E1"/>
<path d="M96.875 9.6875H92.0312V14.5312H96.875V9.6875Z" fill="#6DBDE5"/>
<path d="M96.875 4.84375H92.0312V9.6875H96.875V4.84375Z" fill="#2EA1DA"/>
<path d="M96.875 0H92.0312V4.84375H96.875V0Z" fill="black"/>
<path d="M92.0312 43.5938H87.1875V48.4375H92.0312V43.5938Z" fill="black"/>
<path d="M92.0312 38.75H87.1875V43.5937H92.0312V38.75Z" fill="#2EA1DA"/>
<path d="M92.0312 33.9062H87.1875V38.75H92.0312V33.9062Z" fill="#43AADE"/>
<path d="M92.0312 29.0625H87.1875V33.9062H92.0312V29.0625Z" fill="#58B4E1"/>
<path d="M92.0312 24.2188H87.1875V29.0625H92.0312V24.2188Z" fill="#58B4E1"/>
<path d="M92.0312 19.375H87.1875V24.2187H92.0312V19.375Z" fill="#58B4E1"/>
<path d="M92.0312 14.5312H87.1875V19.375H92.0312V14.5312Z" fill="#58B4E1"/>
<path d="M92.0312 9.6875H87.1875V14.5312H92.0312V9.6875Z" fill="#6DBDE5"/>
<path d="M92.0312 4.84375H87.1875V9.6875H92.0312V4.84375Z" fill="#2EA1DA"/>
<path d="M92.0312 0H87.1875V4.84375H92.0312V0Z" fill="black"/>
<path d="M87.1875 43.5938H82.3438V48.4375H87.1875V43.5938Z" fill="black"/>
<path d="M87.1875 38.75H82.3438V43.5937H87.1875V38.75Z" fill="#2EA1DA"/>
<path d="M87.1875 33.9062H82.3438V38.75H87.1875V33.9062Z" fill="#43AADE"/>
<path d="M87.1875 29.0625H82.3438V33.9062H87.1875V29.0625Z" fill="#58B4E1"/>
<path d="M87.1875 24.2188H82.3438V29.0625H87.1875V24.2188Z" fill="#58B4E1"/>
<path d="M87.1875 19.375H82.3438V24.2187H87.1875V19.375Z" fill="#58B4E1"/>
<path d="M87.1875 14.5312H82.3438V19.375H87.1875V14.5312Z" fill="#58B4E1"/>
<path d="M87.1875 9.6875H82.3438V14.5312H87.1875V9.6875Z" fill="#6DBDE5"/>
<path d="M87.1875 4.84375H82.3438V9.6875H87.1875V4.84375Z" fill="#2EA1DA"/>
<path d="M87.1875 0H82.3438V4.84375H87.1875V0Z" fill="black"/>
<path d="M82.3437 43.5938H77.5V48.4375H82.3437V43.5938Z" fill="black"/>
<path d="M82.3437 38.75H77.5V43.5937H82.3437V38.75Z" fill="#2EA1DA"/>
<path d="M82.3437 33.9062H77.5V38.75H82.3437V33.9062Z" fill="#43AADE"/>
<path d="M82.3437 29.0625H77.5V33.9062H82.3437V29.0625Z" fill="#58B4E1"/>
<path d="M82.3437 24.2188H77.5V29.0625H82.3437V24.2188Z" fill="#58B4E1"/>
<path d="M82.3437 19.375H77.5V24.2187H82.3437V19.375Z" fill="#58B4E1"/>
<path d="M82.3437 14.5312H77.5V19.375H82.3437V14.5312Z" fill="#58B4E1"/>
<path d="M82.3437 9.6875H77.5V14.5312H82.3437V9.6875Z" fill="#6DBDE5"/>
<path d="M82.3437 4.84375H77.5V9.6875H82.3437V4.84375Z" fill="#2EA1DA"/>
<path d="M82.3437 0H77.5V4.84375H82.3437V0Z" fill="black"/>
<path d="M77.5 43.5938H72.6562V48.4375H77.5V43.5938Z" fill="black"/>
<path d="M77.5 38.75H72.6562V43.5937H77.5V38.75Z" fill="#2EA1DA"/>
<path d="M77.5 33.9062H72.6562V38.75H77.5V33.9062Z" fill="#43AADE"/>
<path d="M77.5 29.0625H72.6562V33.9062H77.5V29.0625Z" fill="#58B4E1"/>
<path d="M77.5 24.2188H72.6562V29.0625H77.5V24.2188Z" fill="#58B4E1"/>
<path d="M77.5 19.375H72.6562V24.2187H77.5V19.375Z" fill="#58B4E1"/>
<path d="M77.5 14.5312H72.6562V19.375H77.5V14.5312Z" fill="#58B4E1"/>
<path d="M77.5 9.6875H72.6562V14.5312H77.5V9.6875Z" fill="#6DBDE5"/>
<path d="M77.5 4.84375H72.6562V9.6875H77.5V4.84375Z" fill="#2EA1DA"/>
<path d="M77.5 0H72.6562V4.84375H77.5V0Z" fill="black"/>
<path d="M72.6562 43.5938H67.8125V48.4375H72.6562V43.5938Z" fill="black"/>
<path d="M72.6562 38.75H67.8125V43.5937H72.6562V38.75Z" fill="#2EA1DA"/>
<path d="M72.6562 33.9062H67.8125V38.75H72.6562V33.9062Z" fill="#43AADE"/>
<path d="M72.6562 29.0625H67.8125V33.9062H72.6562V29.0625Z" fill="#58B4E1"/>
<path d="M72.6562 24.2188H67.8125V29.0625H72.6562V24.2188Z" fill="#58B4E1"/>
<path d="M72.6562 19.375H67.8125V24.2187H72.6562V19.375Z" fill="#58B4E1"/>
<path d="M72.6562 14.5312H67.8125V19.375H72.6562V14.5312Z" fill="#58B4E1"/>
<path d="M72.6562 9.6875H67.8125V14.5312H72.6562V9.6875Z" fill="#6DBDE5"/>
<path d="M72.6562 4.84375H67.8125V9.6875H72.6562V4.84375Z" fill="#2EA1DA"/>
<path d="M72.6562 0H67.8125V4.84375H72.6562V0Z" fill="black"/>
<path d="M67.8125 43.5938H62.9688V48.4375H67.8125V43.5938Z" fill="black"/>
<path d="M67.8125 38.75H62.9688V43.5937H67.8125V38.75Z" fill="#2EA1DA"/>
<path d="M67.8125 33.9062H62.9688V38.75H67.8125V33.9062Z" fill="#43AADE"/>
<path d="M67.8125 29.0625H62.9688V33.9062H67.8125V29.0625Z" fill="#58B4E1"/>
<path d="M67.8125 24.2188H62.9688V29.0625H67.8125V24.2188Z" fill="#58B4E1"/>
<path d="M67.8125 19.375H62.9688V24.2187H67.8125V19.375Z" fill="#58B4E1"/>
<path d="M67.8125 14.5312H62.9688V19.375H67.8125V14.5312Z" fill="#58B4E1"/>
<path d="M67.8125 9.6875H62.9688V14.5312H67.8125V9.6875Z" fill="#6DBDE5"/>
<path d="M67.8125 4.84375H62.9688V9.6875H67.8125V4.84375Z" fill="#2EA1DA"/>
<path d="M67.8125 0H62.9688V4.84375H67.8125V0Z" fill="black"/>
<path d="M62.9687 43.5938H58.125V48.4375H62.9687V43.5938Z" fill="black"/>
<path d="M62.9687 38.75H58.125V43.5937H62.9687V38.75Z" fill="#2EA1DA"/>
<path d="M62.9687 33.9062H58.125V38.75H62.9687V33.9062Z" fill="#43AADE"/>
<path d="M62.9687 29.0625H58.125V33.9062H62.9687V29.0625Z" fill="#58B4E1"/>
<path d="M62.9687 24.2188H58.125V29.0625H62.9687V24.2188Z" fill="#58B4E1"/>
<path d="M62.9687 19.375H58.125V24.2187H62.9687V19.375Z" fill="#58B4E1"/>
<path d="M62.9687 14.5312H58.125V19.375H62.9687V14.5312Z" fill="#58B4E1"/>
<path d="M62.9687 9.6875H58.125V14.5312H62.9687V9.6875Z" fill="#6DBDE5"/>
<path d="M62.9687 4.84375H58.125V9.6875H62.9687V4.84375Z" fill="#2EA1DA"/>
<path d="M62.9687 0H58.125V4.84375H62.9687V0Z" fill="black"/>
<path d="M58.125 43.5938H53.2812V48.4375H58.125V43.5938Z" fill="black"/>
<path d="M58.125 38.75H53.2812V43.5937H58.125V38.75Z" fill="#2EA1DA"/>
<path d="M58.125 33.9062H53.2812V38.75H58.125V33.9062Z" fill="#43AADE"/>
<path d="M58.125 29.0625H53.2812V33.9062H58.125V29.0625Z" fill="#58B4E1"/>
<path d="M58.125 24.2188H53.2812V29.0625H58.125V24.2188Z" fill="#58B4E1"/>
<path d="M58.125 19.375H53.2812V24.2187H58.125V19.375Z" fill="#58B4E1"/>
<path d="M58.125 14.5312H53.2812V19.375H58.125V14.5312Z" fill="#58B4E1"/>
<path d="M58.125 9.6875H53.2812V14.5312H58.125V9.6875Z" fill="#6DBDE5"/>
<path d="M58.125 4.84375H53.2812V9.6875H58.125V4.84375Z" fill="#2EA1DA"/>
<path d="M58.125 0H53.2812V4.84375H58.125V0Z" fill="black"/>
<path d="M53.2812 43.5938H48.4375V48.4375H53.2812V43.5938Z" fill="black"/>
<path d="M53.2812 38.75H48.4375V43.5937H53.2812V38.75Z" fill="#2EA1DA"/>
<path d="M53.2812 33.9062H48.4375V38.75H53.2812V33.9062Z" fill="#43AADE"/>
<path d="M53.2812 29.0625H48.4375V33.9062H53.2812V29.0625Z" fill="#58B4E1"/>
<path d="M53.2812 24.2188H48.4375V29.0625H53.2812V24.2188Z" fill="#58B4E1"/>
<path d="M53.2812 19.375H48.4375V24.2187H53.2812V19.375Z" fill="#58B4E1"/>
<path d="M53.2812 14.5312H48.4375V19.375H53.2812V14.5312Z" fill="#58B4E1"/>
<path d="M53.2812 9.6875H48.4375V14.5312H53.2812V9.6875Z" fill="#6DBDE5"/>
<path d="M53.2812 4.84375H48.4375V9.6875H53.2812V4.84375Z" fill="#2EA1DA"/>
<path d="M53.2812 0H48.4375V4.84375H53.2812V0Z" fill="black"/>
<path d="M48.4375 43.5938H43.5938V48.4375H48.4375V43.5938Z" fill="black"/>
<path d="M48.4375 38.75H43.5938V43.5937H48.4375V38.75Z" fill="#2EA1DA"/>
<path d="M48.4375 33.9062H43.5938V38.75H48.4375V33.9062Z" fill="#43AADE"/>
<path d="M48.4375 29.0625H43.5938V33.9062H48.4375V29.0625Z" fill="#58B4E1"/>
<path d="M48.4375 24.2188H43.5938V29.0625H48.4375V24.2188Z" fill="#58B4E1"/>
<path d="M48.4375 19.375H43.5938V24.2187H48.4375V19.375Z" fill="#58B4E1"/>
<path d="M48.4375 14.5312H43.5938V19.375H48.4375V14.5312Z" fill="#58B4E1"/>
<path d="M48.4375 9.6875H43.5938V14.5312H48.4375V9.6875Z" fill="#6DBDE5"/>
<path d="M48.4375 4.84375H43.5938V9.6875H48.4375V4.84375Z" fill="#2EA1DA"/>
<path d="M48.4375 0H43.5938V4.84375H48.4375V0Z" fill="black"/>
<path d="M43.5937 43.5938H38.75V48.4375H43.5937V43.5938Z" fill="black"/>
<path d="M43.5937 38.75H38.75V43.5937H43.5937V38.75Z" fill="#2EA1DA"/>
<path d="M43.5937 33.9062H38.75V38.75H43.5937V33.9062Z" fill="#43AADE"/>
<path d="M43.5937 29.0625H38.75V33.9062H43.5937V29.0625Z" fill="#58B4E1"/>
<path d="M43.5937 24.2188H38.75V29.0625H43.5937V24.2188Z" fill="#58B4E1"/>
<path d="M43.5937 19.375H38.75V24.2187H43.5937V19.375Z" fill="#58B4E1"/>
<path d="M43.5937 14.5312H38.75V19.375H43.5937V14.5312Z" fill="#58B4E1"/>
<path d="M43.5937 9.6875H38.75V14.5312H43.5937V9.6875Z" fill="#6DBDE5"/>
<path d="M43.5937 4.84375H38.75V9.6875H43.5937V4.84375Z" fill="#2EA1DA"/>
<path d="M43.5937 0H38.75V4.84375H43.5937V0Z" fill="black"/>
<path d="M38.75 43.5938H33.9062V48.4375H38.75V43.5938Z" fill="black"/>
<path d="M38.75 38.75H33.9062V43.5937H38.75V38.75Z" fill="#2EA1DA"/>
<path d="M38.75 33.9062H33.9062V38.75H38.75V33.9062Z" fill="#43AADE"/>
<path d="M38.75 29.0625H33.9062V33.9062H38.75V29.0625Z" fill="#58B4E1"/>
<path d="M38.75 24.2188H33.9062V29.0625H38.75V24.2188Z" fill="#58B4E1"/>
<path d="M38.75 19.375H33.9062V24.2187H38.75V19.375Z" fill="#58B4E1"/>
<path d="M38.75 14.5312H33.9062V19.375H38.75V14.5312Z" fill="#58B4E1"/>
<path d="M38.75 9.6875H33.9062V14.5312H38.75V9.6875Z" fill="#6DBDE5"/>
<path d="M38.75 4.84375H33.9062V9.6875H38.75V4.84375Z" fill="#2EA1DA"/>
<path d="M38.75 0H33.9062V4.84375H38.75V0Z" fill="black"/>
<path d="M33.9062 43.5938H29.0625V48.4375H33.9062V43.5938Z" fill="black"/>
<path d="M33.9062 38.75H29.0625V43.5937H33.9062V38.75Z" fill="#2EA1DA"/>
<path d="M33.9062 33.9062H29.0625V38.75H33.9062V33.9062Z" fill="#43AADE"/>
<path d="M33.9062 29.0625H29.0625V33.9062H33.9062V29.0625Z" fill="#58B4E1"/>
<path d="M33.9062 24.2188H29.0625V29.0625H33.9062V24.2188Z" fill="#58B4E1"/>
<path d="M33.9062 19.375H29.0625V24.2187H33.9062V19.375Z" fill="#58B4E1"/>
<path d="M33.9062 14.5312H29.0625V19.375H33.9062V14.5312Z" fill="#58B4E1"/>
<path d="M33.9062 9.6875H29.0625V14.5312H33.9062V9.6875Z" fill="#6DBDE5"/>
<path d="M33.9062 4.84375H29.0625V9.6875H33.9062V4.84375Z" fill="#2EA1DA"/>
<path d="M33.9062 0H29.0625V4.84375H33.9062V0Z" fill="black"/>
<path d="M29.0625 43.5938H24.2188V48.4375H29.0625V43.5938Z" fill="black"/>
<path d="M29.0625 38.75H24.2188V43.5937H29.0625V38.75Z" fill="#2EA1DA"/>
<path d="M29.0625 33.9062H24.2188V38.75H29.0625V33.9062Z" fill="#43AADE"/>
<path d="M29.0625 29.0625H24.2188V33.9062H29.0625V29.0625Z" fill="#58B4E1"/>
<path d="M29.0625 24.2188H24.2188V29.0625H29.0625V24.2188Z" fill="#58B4E1"/>
<path d="M29.0625 19.375H24.2188V24.2187H29.0625V19.375Z" fill="#58B4E1"/>
<path d="M29.0625 14.5312H24.2188V19.375H29.0625V14.5312Z" fill="#58B4E1"/>
<path d="M29.0625 9.6875H24.2188V14.5312H29.0625V9.6875Z" fill="#6DBDE5"/>
<path d="M29.0625 4.84375H24.2188V9.6875H29.0625V4.84375Z" fill="#2EA1DA"/>
<path d="M29.0625 0H24.2188V4.84375H29.0625V0Z" fill="black"/>
<path d="M24.2187 43.5938H19.375V48.4375H24.2187V43.5938Z" fill="black"/>
<path d="M24.2187 38.75H19.375V43.5937H24.2187V38.75Z" fill="#2EA1DA"/>
<path d="M24.2187 33.9062H19.375V38.75H24.2187V33.9062Z" fill="#43AADE"/>
<path d="M24.2187 29.0625H19.375V33.9062H24.2187V29.0625Z" fill="#58B4E1"/>
<path d="M24.2187 24.2188H19.375V29.0625H24.2187V24.2188Z" fill="#58B4E1"/>
<path d="M24.2187 19.375H19.375V24.2187H24.2187V19.375Z" fill="#58B4E1"/>
<path d="M24.2187 14.5312H19.375V19.375H24.2187V14.5312Z" fill="#58B4E1"/>
<path d="M24.2187 9.6875H19.375V14.5312H24.2187V9.6875Z" fill="#6DBDE5"/>
<path d="M24.2187 4.84375H19.375V9.6875H24.2187V4.84375Z" fill="#2EA1DA"/>
<path d="M24.2187 0H19.375V4.84375H24.2187V0Z" fill="black"/>
<path d="M19.375 43.5938H14.5312V48.4375H19.375V43.5938Z" fill="black"/>
<path d="M19.375 38.75H14.5312V43.5937H19.375V38.75Z" fill="#2EA1DA"/>
<path d="M19.375 33.9062H14.5312V38.75H19.375V33.9062Z" fill="#43AADE"/>
<path d="M19.375 29.0625H14.5312V33.9062H19.375V29.0625Z" fill="#58B4E1"/>
<path d="M19.375 24.2188H14.5312V29.0625H19.375V24.2188Z" fill="#58B4E1"/>
<path d="M19.375 19.375H14.5312V24.2187H19.375V19.375Z" fill="#58B4E1"/>
<path d="M19.375 14.5312H14.5312V19.375H19.375V14.5312Z" fill="#58B4E1"/>
<path d="M19.375 9.6875H14.5312V14.5312H19.375V9.6875Z" fill="#6DBDE5"/>
<path d="M19.375 4.84375H14.5312V9.6875H19.375V4.84375Z" fill="#2EA1DA"/>
<path d="M19.375 0H14.5312V4.84375H19.375V0Z" fill="black"/>
<path d="M14.5312 43.5938H9.6875V48.4375H14.5312V43.5938Z" fill="black"/>
<path d="M14.5312 38.75H9.6875V43.5937H14.5312V38.75Z" fill="#2EA1DA"/>
<path d="M14.5312 33.9062H9.6875V38.75H14.5312V33.9062Z" fill="#2EA1DA"/>
<path d="M14.5312 29.0625H9.6875V33.9062H14.5312V29.0625Z" fill="#43AADE"/>
<path d="M14.5312 24.2188H9.6875V29.0625H14.5312V24.2188Z" fill="#43AADE"/>
<path d="M14.5312 19.375H9.6875V24.2187H14.5312V19.375Z" fill="#43AADE"/>
<path d="M14.5312 14.5312H9.6875V19.375H14.5312V14.5312Z" fill="#6DBDE5"/>
<path d="M14.5312 9.6875H9.6875V14.5312H14.5312V9.6875Z" fill="#2EA1DA"/>
<path d="M14.5312 4.84375H9.6875V9.6875H14.5312V4.84375Z" fill="#2EA1DA"/>
<path d="M14.5312 0H9.6875V4.84375H14.5312V0Z" fill="black"/>
<path d="M9.6875 38.75H4.84375V43.5937H9.6875V38.75Z" fill="black"/>
<path d="M9.6875 33.9062H4.84375V38.75H9.6875V33.9062Z" fill="#2EA1DA"/>
<path d="M9.6875 29.0625H4.84375V33.9062H9.6875V29.0625Z" fill="#2EA1DA"/>
<path d="M9.6875 24.2188H4.84375V29.0625H9.6875V24.2188Z" fill="#2EA1DA"/>
<path d="M9.6875 19.375H4.84375V24.2187H9.6875V19.375Z" fill="#2EA1DA"/>
<path d="M9.6875 14.5312H4.84375V19.375H9.6875V14.5312Z" fill="#2EA1DA"/>
<path d="M9.6875 9.6875H4.84375V14.5312H9.6875V9.6875Z" fill="#2EA1DA"/>
<path d="M9.6875 4.84375H4.84375V9.6875H9.6875V4.84375Z" fill="black"/>
<path d="M4.84375 33.9062H0V38.75H4.84375V33.9062Z" fill="black"/>
<path d="M4.84375 29.0625H0V33.9062H4.84375V29.0625Z" fill="black"/>
<path d="M4.84375 24.2188H0V29.0625H4.84375V24.2188Z" fill="black"/>
<path d="M4.84375 19.375H0V24.2187H4.84375V19.375Z" fill="black"/>
<path d="M4.84375 14.5312H0V19.375H4.84375V14.5312Z" fill="black"/>
<path d="M4.84375 9.6875H0V14.5312H4.84375V9.6875Z" fill="black"/>
<path d="M47.5556 20.3333H44V18.5556H52.8889V20.3333H49.3333V31H47.5556V20.3333ZM56.4497 29.2222H54.6719V22.1111H56.4497V29.2222ZM63.5608 29.2222H61.783V22.1111H63.5608V29.2222ZM61.783 31H56.4497V29.2222H61.783V31ZM68.8993 22.1111H70.6771V23.8889H68.8993V29.2222H70.6771V31H67.1215V23.8889H65.3438V22.1111H67.1215V18.5556H68.8993V22.1111ZM74.2309 29.2222H72.4531V23.8889H74.2309V29.2222ZM79.5642 23.8889H74.2309V22.1111H79.5642V23.8889ZM81.342 29.2222H79.5642V23.8889H81.342V29.2222ZM79.5642 31H74.2309V29.2222H79.5642V31ZM88.4583 25.6667H86.6806V23.8889H88.4583V25.6667ZM90.2361 23.8889H88.4583V22.1111H90.2361V23.8889ZM84.9028 27.4444V31H83.125V22.1111H84.9028V25.6667H86.6806V27.4444H84.9028ZM93.7934 31H92.0156V22.1111H93.7934V31ZM93.7934 20.3333H92.0156V18.5556H93.7934V20.3333ZM97.3559 29.2222H95.5781V23.8889H97.3559V29.2222ZM102.689 25.6667H100.911V23.8889H102.689V22.1111H104.467V31H102.689V29.2222H100.911V27.4444H102.689V25.6667ZM100.911 31H97.3559V29.2222H100.911V31ZM100.911 23.8889H97.3559V22.1111H100.911V23.8889ZM108.028 31H106.25V18.5556H108.028V31Z" fill="black"/>
</svg>
