<svg width="155" height="49" viewBox="0 0 155 49" fill="none" xmlns="http://www.w3.org/2000/svg">
<g clip-path="url(#clip0_384_9252)">
<path d="M155 33.8999H150.2V38.6999H155V33.8999Z" fill="black"/>
<path d="M155 29.1001H150.2V33.9001H155V29.1001Z" fill="black"/>
<path d="M155 24.2H150.2V29H155V24.2Z" fill="black"/>
<path d="M155 19.3999H150.2V24.1999H155V19.3999Z" fill="black"/>
<path d="M155 14.5H150.2V19.3H155V14.5Z" fill="black"/>
<path d="M155 9.69995H150.2V14.5H155V9.69995Z" fill="black"/>
<path d="M150.2 38.8H145.4V43.6H150.2V38.8Z" fill="black"/>
<path d="M150.2 33.8999H145.4V38.6999H150.2V33.8999Z" fill="#F8C468"/>
<path d="M150.2 29.1001H145.4V33.9001H150.2V29.1001Z" fill="#F8C468"/>
<path d="M150.2 24.2H145.4V29H150.2V24.2Z" fill="#F8C468"/>
<path d="M150.2 19.3999H145.4V24.1999H150.2V19.3999Z" fill="#F8C468"/>
<path d="M150.2 14.5H145.4V19.3H150.2V14.5Z" fill="#F8C468"/>
<path d="M150.2 9.69995H145.4V14.5H150.2V9.69995Z" fill="#F8C468"/>
<path d="M150.2 4.80005H145.4V9.60005H150.2V4.80005Z" fill="black"/>
<path d="M145.3 43.6001H140.5V48.4001H145.3V43.6001Z" fill="black"/>
<path d="M145.3 38.8H140.5V43.6H145.3V38.8Z" fill="#F8C468"/>
<path d="M145.3 33.8999H140.5V38.6999H145.3V33.8999Z" fill="#F8C468"/>
<path d="M145.3 29.1001H140.5V33.9001H145.3V29.1001Z" fill="#FFD386"/>
<path d="M145.3 24.2H140.5V29H145.3V24.2Z" fill="#FFD386"/>
<path d="M145.3 19.3999H140.5V24.1999H145.3V19.3999Z" fill="#FFD386"/>
<path d="M145.3 14.5H140.5V19.3H145.3V14.5Z" fill="#FCF5E5"/>
<path d="M145.3 9.69995H140.5V14.5H145.3V9.69995Z" fill="#F8C468"/>
<path d="M145.3 4.80005H140.5V9.60005H145.3V4.80005Z" fill="#F8C468"/>
<path d="M145.3 0H140.5V4.8H145.3V0Z" fill="black"/>
<path d="M140.5 43.6001H135.7V48.4001H140.5V43.6001Z" fill="black"/>
<path d="M140.5 38.8H135.7V43.6H140.5V38.8Z" fill="#F8C468"/>
<path d="M140.5 33.8999H135.7V38.6999H140.5V33.8999Z" fill="#FFD386"/>
<path d="M140.5 29.1001H135.7V33.9001H140.5V29.1001Z" fill="#FFDC9E"/>
<path d="M140.5 24.2H135.7V29H140.5V24.2Z" fill="#FFDC9E"/>
<path d="M140.5 19.3999H135.7V24.1999H140.5V19.3999Z" fill="#FFDC9E"/>
<path d="M140.5 14.5H135.7V19.3H140.5V14.5Z" fill="#FFDC9E"/>
<path d="M140.5 9.69995H135.7V14.5H140.5V9.69995Z" fill="#FCF5E5"/>
<path d="M140.5 4.80005H135.7V9.60005H140.5V4.80005Z" fill="#F8C468"/>
<path d="M140.5 0H135.7V4.8H140.5V0Z" fill="black"/>
<path d="M135.6 43.6001H130.8V48.4001H135.6V43.6001Z" fill="black"/>
<path d="M135.6 38.8H130.8V43.6H135.6V38.8Z" fill="#F8C468"/>
<path d="M135.6 33.8999H130.8V38.6999H135.6V33.8999Z" fill="#FFD386"/>
<path d="M135.6 29.1001H130.8V33.9001H135.6V29.1001Z" fill="#FFDC9E"/>
<path d="M135.6 24.2H130.8V29H135.6V24.2Z" fill="#FFDC9E"/>
<path d="M135.6 19.3999H130.8V24.1999H135.6V19.3999Z" fill="#FFDC9E"/>
<path d="M135.6 14.5H130.8V19.3H135.6V14.5Z" fill="#FFDC9E"/>
<path d="M135.6 9.69995H130.8V14.5H135.6V9.69995Z" fill="#FCF5E5"/>
<path d="M135.6 4.80005H130.8V9.60005H135.6V4.80005Z" fill="#F8C468"/>
<path d="M135.6 0H130.8V4.8H135.6V0Z" fill="black"/>
<path d="M130.8 43.6001H126V48.4001H130.8V43.6001Z" fill="black"/>
<path d="M130.8 38.8H126V43.6H130.8V38.8Z" fill="#F8C468"/>
<path d="M130.8 33.8999H126V38.6999H130.8V33.8999Z" fill="#FFD386"/>
<path d="M130.8 29.1001H126V33.9001H130.8V29.1001Z" fill="#FFDC9E"/>
<path d="M130.8 24.2H126V29H130.8V24.2Z" fill="#FFDC9E"/>
<path d="M130.8 19.3999H126V24.1999H130.8V19.3999Z" fill="#FFDC9E"/>
<path d="M130.8 14.5H126V19.3H130.8V14.5Z" fill="#FFDC9E"/>
<path d="M130.8 9.69995H126V14.5H130.8V9.69995Z" fill="#FCF5E5"/>
<path d="M130.8 4.80005H126V9.60005H130.8V4.80005Z" fill="#F8C468"/>
<path d="M130.8 0H126V4.8H130.8V0Z" fill="black"/>
<path d="M125.9 43.6001H121.1V48.4001H125.9V43.6001Z" fill="black"/>
<path d="M125.9 38.8H121.1V43.6H125.9V38.8Z" fill="#F8C468"/>
<path d="M125.9 33.8999H121.1V38.6999H125.9V33.8999Z" fill="#FFD386"/>
<path d="M125.9 29.1001H121.1V33.9001H125.9V29.1001Z" fill="#FFDC9E"/>
<path d="M125.9 24.2H121.1V29H125.9V24.2Z" fill="#FFDC9E"/>
<path d="M125.9 19.3999H121.1V24.1999H125.9V19.3999Z" fill="#FFDC9E"/>
<path d="M125.9 14.5H121.1V19.3H125.9V14.5Z" fill="#FFDC9E"/>
<path d="M125.9 9.69995H121.1V14.5H125.9V9.69995Z" fill="#FCF5E5"/>
<path d="M125.9 4.80005H121.1V9.60005H125.9V4.80005Z" fill="#F8C468"/>
<path d="M125.9 0H121.1V4.8H125.9V0Z" fill="black"/>
<path d="M121.1 43.6001H116.3V48.4001H121.1V43.6001Z" fill="black"/>
<path d="M121.1 38.8H116.3V43.6H121.1V38.8Z" fill="#F8C468"/>
<path d="M121.1 33.8999H116.3V38.6999H121.1V33.8999Z" fill="#FFD386"/>
<path d="M121.1 29.1001H116.3V33.9001H121.1V29.1001Z" fill="#FFDC9E"/>
<path d="M121.1 24.2H116.3V29H121.1V24.2Z" fill="#FFDC9E"/>
<path d="M121.1 19.3999H116.3V24.1999H121.1V19.3999Z" fill="#FFDC9E"/>
<path d="M121.1 14.5H116.3V19.3H121.1V14.5Z" fill="#FFDC9E"/>
<path d="M121.1 9.69995H116.3V14.5H121.1V9.69995Z" fill="#FCF5E5"/>
<path d="M121.1 4.80005H116.3V9.60005H121.1V4.80005Z" fill="#F8C468"/>
<path d="M121.1 0H116.3V4.8H121.1V0Z" fill="black"/>
<path d="M116.2 43.6001H111.4V48.4001H116.2V43.6001Z" fill="black"/>
<path d="M116.2 38.8H111.4V43.6H116.2V38.8Z" fill="#F8C468"/>
<path d="M116.2 33.8999H111.4V38.6999H116.2V33.8999Z" fill="#FFD386"/>
<path d="M116.2 29.1001H111.4V33.9001H116.2V29.1001Z" fill="#FFDC9E"/>
<path d="M116.2 24.2H111.4V29H116.2V24.2Z" fill="#FFDC9E"/>
<path d="M116.2 19.3999H111.4V24.1999H116.2V19.3999Z" fill="#FFDC9E"/>
<path d="M116.2 14.5H111.4V19.3H116.2V14.5Z" fill="#FFDC9E"/>
<path d="M116.2 9.69995H111.4V14.5H116.2V9.69995Z" fill="#FCF5E5"/>
<path d="M116.2 4.80005H111.4V9.60005H116.2V4.80005Z" fill="#F8C468"/>
<path d="M116.2 0H111.4V4.8H116.2V0Z" fill="black"/>
<path d="M111.4 43.6001H106.6V48.4001H111.4V43.6001Z" fill="black"/>
<path d="M111.4 38.8H106.6V43.6H111.4V38.8Z" fill="#F8C468"/>
<path d="M111.4 33.8999H106.6V38.6999H111.4V33.8999Z" fill="#FFD386"/>
<path d="M111.4 29.1001H106.6V33.9001H111.4V29.1001Z" fill="#FFDC9E"/>
<path d="M111.4 24.2H106.6V29H111.4V24.2Z" fill="#FFDC9E"/>
<path d="M111.4 19.3999H106.6V24.1999H111.4V19.3999Z" fill="#FFDC9E"/>
<path d="M111.4 14.5H106.6V19.3H111.4V14.5Z" fill="#FFDC9E"/>
<path d="M111.4 9.69995H106.6V14.5H111.4V9.69995Z" fill="#FCF5E5"/>
<path d="M111.4 4.80005H106.6V9.60005H111.4V4.80005Z" fill="#F8C468"/>
<path d="M111.4 0H106.6V4.8H111.4V0Z" fill="black"/>
<path d="M106.6 43.6001H101.8V48.4001H106.6V43.6001Z" fill="black"/>
<path d="M106.6 38.8H101.8V43.6H106.6V38.8Z" fill="#F8C468"/>
<path d="M106.6 33.8999H101.8V38.6999H106.6V33.8999Z" fill="#FFD386"/>
<path d="M106.6 29.1001H101.8V33.9001H106.6V29.1001Z" fill="#FFDC9E"/>
<path d="M106.6 24.2H101.8V29H106.6V24.2Z" fill="#FFDC9E"/>
<path d="M106.6 19.3999H101.8V24.1999H106.6V19.3999Z" fill="#FFDC9E"/>
<path d="M106.6 14.5H101.8V19.3H106.6V14.5Z" fill="#FFDC9E"/>
<path d="M106.6 9.69995H101.8V14.5H106.6V9.69995Z" fill="#FCF5E5"/>
<path d="M106.6 4.80005H101.8V9.60005H106.6V4.80005Z" fill="#F8C468"/>
<path d="M106.6 0H101.8V4.8H106.6V0Z" fill="black"/>
<path d="M101.7 43.6001H96.9V48.4001H101.7V43.6001Z" fill="black"/>
<path d="M101.7 38.8H96.9V43.6H101.7V38.8Z" fill="#F8C468"/>
<path d="M101.7 33.8999H96.9V38.6999H101.7V33.8999Z" fill="#FFD386"/>
<path d="M101.7 29.1001H96.9V33.9001H101.7V29.1001Z" fill="#FFDC9E"/>
<path d="M101.7 24.2H96.9V29H101.7V24.2Z" fill="#FFDC9E"/>
<path d="M101.7 19.3999H96.9V24.1999H101.7V19.3999Z" fill="#FFDC9E"/>
<path d="M101.7 14.5H96.9V19.3H101.7V14.5Z" fill="#FFDC9E"/>
<path d="M101.7 9.69995H96.9V14.5H101.7V9.69995Z" fill="#FCF5E5"/>
<path d="M101.7 4.80005H96.9V9.60005H101.7V4.80005Z" fill="#F8C468"/>
<path d="M101.7 0H96.9V4.8H101.7V0Z" fill="black"/>
<path d="M96.9 43.6001H92V48.4001H96.8V43.6001H96.9Z" fill="black"/>
<path d="M96.9 38.8H92V43.6H96.8V38.8H96.9Z" fill="#F8C468"/>
<path d="M96.9 33.8999H92V38.6999H96.8V33.8999H96.9Z" fill="#FFD386"/>
<path d="M96.9 29.1001H92V33.9001H96.8V29.1001H96.9Z" fill="#FFDC9E"/>
<path d="M96.9 24.2H92V29H96.8V24.2H96.9Z" fill="#FFDC9E"/>
<path d="M96.9 19.3999H92V24.1999H96.8V19.3999H96.9Z" fill="#FFDC9E"/>
<path d="M96.9 14.5H92V19.3H96.8V14.5H96.9Z" fill="#FFDC9E"/>
<path d="M96.9 9.69995H92V14.5H96.8V9.69995H96.9Z" fill="#FCF5E5"/>
<path d="M96.9 4.80005H92V9.60005H96.8V4.80005H96.9Z" fill="#F8C468"/>
<path d="M96.9 0H92V4.8H96.8V0H96.9Z" fill="black"/>
<path d="M92 43.6001H87.2V48.4001H92V43.6001Z" fill="black"/>
<path d="M92 38.8H87.2V43.6H92V38.8Z" fill="#F8C468"/>
<path d="M92 33.8999H87.2V38.6999H92V33.8999Z" fill="#FFD386"/>
<path d="M92 29.1001H87.2V33.9001H92V29.1001Z" fill="#FFDC9E"/>
<path d="M92 24.2H87.2V29H92V24.2Z" fill="#FFDC9E"/>
<path d="M92 19.3999H87.2V24.1999H92V19.3999Z" fill="#FFDC9E"/>
<path d="M92 14.5H87.2V19.3H92V14.5Z" fill="#FFDC9E"/>
<path d="M92 9.69995H87.2V14.5H92V9.69995Z" fill="#FCF5E5"/>
<path d="M92 4.80005H87.2V9.60005H92V4.80005Z" fill="#F8C468"/>
<path d="M92 0H87.2V4.8H92V0Z" fill="black"/>
<path d="M87.2 43.6001H82.4V48.4001H87.2V43.6001Z" fill="black"/>
<path d="M87.2 38.8H82.4V43.6H87.2V38.8Z" fill="#F8C468"/>
<path d="M87.2 33.8999H82.4V38.6999H87.2V33.8999Z" fill="#FFD386"/>
<path d="M87.2 29.1001H82.4V33.9001H87.2V29.1001Z" fill="#FFDC9E"/>
<path d="M87.2 24.2H82.4V29H87.2V24.2Z" fill="#FFDC9E"/>
<path d="M87.2 19.3999H82.4V24.1999H87.2V19.3999Z" fill="#FFDC9E"/>
<path d="M87.2 14.5H82.4V19.3H87.2V14.5Z" fill="#FFDC9E"/>
<path d="M87.2 9.69995H82.4V14.5H87.2V9.69995Z" fill="#FCF5E5"/>
<path d="M87.2 4.80005H82.4V9.60005H87.2V4.80005Z" fill="#F8C468"/>
<path d="M87.2 0H82.4V4.8H87.2V0Z" fill="black"/>
<path d="M82.3 43.6001H77.5V48.4001H82.3V43.6001Z" fill="black"/>
<path d="M82.3 38.8H77.5V43.6H82.3V38.8Z" fill="#F8C468"/>
<path d="M82.3 33.8999H77.5V38.6999H82.3V33.8999Z" fill="#FFD386"/>
<path d="M82.3 29.1001H77.5V33.9001H82.3V29.1001Z" fill="#FFDC9E"/>
<path d="M82.3 24.2H77.5V29H82.3V24.2Z" fill="#FFDC9E"/>
<path d="M82.3 19.3999H77.5V24.1999H82.3V19.3999Z" fill="#FFDC9E"/>
<path d="M82.3 14.5H77.5V19.3H82.3V14.5Z" fill="#FFDC9E"/>
<path d="M82.3 9.69995H77.5V14.5H82.3V9.69995Z" fill="#FCF5E5"/>
<path d="M82.3 4.80005H77.5V9.60005H82.3V4.80005Z" fill="#F8C468"/>
<path d="M82.3 0H77.5V4.8H82.3V0Z" fill="black"/>
<path d="M77.5 43.6001H72.7V48.4001H77.5V43.6001Z" fill="black"/>
<path d="M77.5 38.8H72.7V43.6H77.5V38.8Z" fill="#F8C468"/>
<path d="M77.5 33.8999H72.7V38.6999H77.5V33.8999Z" fill="#FFD386"/>
<path d="M77.5 29.1001H72.7V33.9001H77.5V29.1001Z" fill="#FFDC9E"/>
<path d="M77.5 24.2H72.7V29H77.5V24.2Z" fill="#FFDC9E"/>
<path d="M77.5 19.3999H72.7V24.1999H77.5V19.3999Z" fill="#FFDC9E"/>
<path d="M77.5 14.5H72.7V19.3H77.5V14.5Z" fill="#FFDC9E"/>
<path d="M77.5 9.69995H72.7V14.5H77.5V9.69995Z" fill="#FCF5E5"/>
<path d="M77.5 4.80005H72.7V9.60005H77.5V4.80005Z" fill="#F8C468"/>
<path d="M77.5 0H72.7V4.8H77.5V0Z" fill="black"/>
<path d="M72.7 43.6001H67.9V48.4001H72.7V43.6001Z" fill="black"/>
<path d="M72.7 38.8H67.9V43.6H72.7V38.8Z" fill="#F8C468"/>
<path d="M72.7 33.8999H67.9V38.6999H72.7V33.8999Z" fill="#FFD386"/>
<path d="M72.7 29.1001H67.9V33.9001H72.7V29.1001Z" fill="#FFDC9E"/>
<path d="M72.7 24.2H67.9V29H72.7V24.2Z" fill="#FFDC9E"/>
<path d="M72.7 19.3999H67.9V24.1999H72.7V19.3999Z" fill="#FFDC9E"/>
<path d="M72.7 14.5H67.9V19.3H72.7V14.5Z" fill="#FFDC9E"/>
<path d="M72.7 9.69995H67.9V14.5H72.7V9.69995Z" fill="#FCF5E5"/>
<path d="M72.7 4.80005H67.9V9.60005H72.7V4.80005Z" fill="#F8C468"/>
<path d="M72.7 0H67.9V4.8H72.7V0Z" fill="black"/>
<path d="M67.8 43.6001H63V48.4001H67.8V43.6001Z" fill="black"/>
<path d="M67.8 38.8H63V43.6H67.8V38.8Z" fill="#F8C468"/>
<path d="M67.8 33.8999H63V38.6999H67.8V33.8999Z" fill="#FFD386"/>
<path d="M67.8 29.1001H63V33.9001H67.8V29.1001Z" fill="#FFDC9E"/>
<path d="M67.8 24.2H63V29H67.8V24.2Z" fill="#FFDC9E"/>
<path d="M67.8 19.3999H63V24.1999H67.8V19.3999Z" fill="#FFDC9E"/>
<path d="M67.8 14.5H63V19.3H67.8V14.5Z" fill="#FFDC9E"/>
<path d="M67.8 9.69995H63V14.5H67.8V9.69995Z" fill="#FCF5E5"/>
<path d="M67.8 4.80005H63V9.60005H67.8V4.80005Z" fill="#F8C468"/>
<path d="M67.8 0H63V4.8H67.8V0Z" fill="black"/>
<path d="M63 43.6001H58.2V48.4001H63V43.6001Z" fill="black"/>
<path d="M63 38.8H58.2V43.6H63V38.8Z" fill="#F8C468"/>
<path d="M63 33.8999H58.2V38.6999H63V33.8999Z" fill="#FFD386"/>
<path d="M63 29.1001H58.2V33.9001H63V29.1001Z" fill="#FFDC9E"/>
<path d="M63 24.2H58.2V29H63V24.2Z" fill="#FFDC9E"/>
<path d="M63 19.3999H58.2V24.1999H63V19.3999Z" fill="#FFDC9E"/>
<path d="M63 14.5H58.2V19.3H63V14.5Z" fill="#FFDC9E"/>
<path d="M63 9.69995H58.2V14.5H63V9.69995Z" fill="#FCF5E5"/>
<path d="M63 4.80005H58.2V9.60005H63V4.80005Z" fill="#F8C468"/>
<path d="M63 0H58.2V4.8H63V0Z" fill="black"/>
<path d="M58.1 43.6001H53.3V48.4001H58.1V43.6001Z" fill="black"/>
<path d="M58.1 38.8H53.3V43.6H58.1V38.8Z" fill="#F8C468"/>
<path d="M58.1 33.8999H53.3V38.6999H58.1V33.8999Z" fill="#FFD386"/>
<path d="M58.1 29.1001H53.3V33.9001H58.1V29.1001Z" fill="#FFDC9E"/>
<path d="M58.1 24.2H53.3V29H58.1V24.2Z" fill="#FFDC9E"/>
<path d="M58.1 19.3999H53.3V24.1999H58.1V19.3999Z" fill="#FFDC9E"/>
<path d="M58.1 14.5H53.3V19.3H58.1V14.5Z" fill="#FFDC9E"/>
<path d="M58.1 9.69995H53.3V14.5H58.1V9.69995Z" fill="#FCF5E5"/>
<path d="M58.1 4.80005H53.3V9.60005H58.1V4.80005Z" fill="#F8C468"/>
<path d="M58.1 0H53.3V4.8H58.1V0Z" fill="black"/>
<path d="M53.3 43.6001H48.5V48.4001H53.3V43.6001Z" fill="black"/>
<path d="M53.3 38.8H48.5V43.6H53.3V38.8Z" fill="#F8C468"/>
<path d="M53.3 33.8999H48.5V38.6999H53.3V33.8999Z" fill="#FFD386"/>
<path d="M53.3 29.1001H48.5V33.9001H53.3V29.1001Z" fill="#FFDC9E"/>
<path d="M53.3 24.2H48.5V29H53.3V24.2Z" fill="#FFDC9E"/>
<path d="M53.3 19.3999H48.5V24.1999H53.3V19.3999Z" fill="#FFDC9E"/>
<path d="M53.3 14.5H48.5V19.3H53.3V14.5Z" fill="#FFDC9E"/>
<path d="M53.3 9.69995H48.5V14.5H53.3V9.69995Z" fill="#FCF5E5"/>
<path d="M53.3 4.80005H48.5V9.60005H53.3V4.80005Z" fill="#F8C468"/>
<path d="M53.3 0H48.5V4.8H53.3V0Z" fill="black"/>
<path d="M48.4 43.6001H43.6V48.4001H48.4V43.6001Z" fill="black"/>
<path d="M48.4 38.8H43.6V43.6H48.4V38.8Z" fill="#F8C468"/>
<path d="M48.4 33.8999H43.6V38.6999H48.4V33.8999Z" fill="#FFD386"/>
<path d="M48.4 29.1001H43.6V33.9001H48.4V29.1001Z" fill="#FFDC9E"/>
<path d="M48.4 24.2H43.6V29H48.4V24.2Z" fill="#FFDC9E"/>
<path d="M48.4 19.3999H43.6V24.1999H48.4V19.3999Z" fill="#FFDC9E"/>
<path d="M48.4 14.5H43.6V19.3H48.4V14.5Z" fill="#FFDC9E"/>
<path d="M48.4 9.69995H43.6V14.5H48.4V9.69995Z" fill="#FCF5E5"/>
<path d="M48.4 4.80005H43.6V9.60005H48.4V4.80005Z" fill="#F8C468"/>
<path d="M48.4 0H43.6V4.8H48.4V0Z" fill="black"/>
<path d="M43.6 43.6001H38.8V48.4001H43.6V43.6001Z" fill="black"/>
<path d="M43.6 38.8H38.8V43.6H43.6V38.8Z" fill="#F8C468"/>
<path d="M43.6 33.8999H38.8V38.6999H43.6V33.8999Z" fill="#FFD386"/>
<path d="M43.6 29.1001H38.8V33.9001H43.6V29.1001Z" fill="#FFDC9E"/>
<path d="M43.6 24.2H38.8V29H43.6V24.2Z" fill="#FFDC9E"/>
<path d="M43.6 19.3999H38.8V24.1999H43.6V19.3999Z" fill="#FFDC9E"/>
<path d="M43.6 14.5H38.8V19.3H43.6V14.5Z" fill="#FFDC9E"/>
<path d="M43.6 9.69995H38.8V14.5H43.6V9.69995Z" fill="#FCF5E5"/>
<path d="M43.6 4.80005H38.8V9.60005H43.6V4.80005Z" fill="#F8C468"/>
<path d="M43.6 0H38.8V4.8H43.6V0Z" fill="black"/>
<path d="M38.8 43.6001H34V48.4001H38.8V43.6001Z" fill="black"/>
<path d="M38.8 38.8H34V43.6H38.8V38.8Z" fill="#F8C468"/>
<path d="M38.8 33.8999H34V38.6999H38.8V33.8999Z" fill="#FFD386"/>
<path d="M38.8 29.1001H34V33.9001H38.8V29.1001Z" fill="#FFDC9E"/>
<path d="M38.8 24.2H34V29H38.8V24.2Z" fill="#FFDC9E"/>
<path d="M38.8 19.3999H34V24.1999H38.8V19.3999Z" fill="#FFDC9E"/>
<path d="M38.8 14.5H34V19.3H38.8V14.5Z" fill="#FFDC9E"/>
<path d="M38.8 9.69995H34V14.5H38.8V9.69995Z" fill="#FCF5E5"/>
<path d="M38.8 4.80005H34V9.60005H38.8V4.80005Z" fill="#F8C468"/>
<path d="M38.8 0H34V4.8H38.8V0Z" fill="black"/>
<path d="M33.9 43.6001H29.1V48.4001H33.9V43.6001Z" fill="black"/>
<path d="M33.9 38.8H29.1V43.6H33.9V38.8Z" fill="#F8C468"/>
<path d="M33.9 33.8999H29.1V38.6999H33.9V33.8999Z" fill="#FFD386"/>
<path d="M33.9 29.1001H29.1V33.9001H33.9V29.1001Z" fill="#FFDC9E"/>
<path d="M33.9 24.2H29.1V29H33.9V24.2Z" fill="#FFDC9E"/>
<path d="M33.9 19.3999H29.1V24.1999H33.9V19.3999Z" fill="#FFDC9E"/>
<path d="M33.9 14.5H29.1V19.3H33.9V14.5Z" fill="#FFDC9E"/>
<path d="M33.9 9.69995H29.1V14.5H33.9V9.69995Z" fill="#FCF5E5"/>
<path d="M33.9 4.80005H29.1V9.60005H33.9V4.80005Z" fill="#F8C468"/>
<path d="M33.9 0H29.1V4.8H33.9V0Z" fill="black"/>
<path d="M29.1 43.6001H24.3V48.4001H29.1V43.6001Z" fill="black"/>
<path d="M29.1 38.8H24.3V43.6H29.1V38.8Z" fill="#F8C468"/>
<path d="M29.1 33.8999H24.3V38.6999H29.1V33.8999Z" fill="#FFD386"/>
<path d="M29.1 29.1001H24.3V33.9001H29.1V29.1001Z" fill="#FFDC9E"/>
<path d="M29.1 24.2H24.3V29H29.1V24.2Z" fill="#FFDC9E"/>
<path d="M29.1 19.3999H24.3V24.1999H29.1V19.3999Z" fill="#FFDC9E"/>
<path d="M29.1 14.5H24.3V19.3H29.1V14.5Z" fill="#FFDC9E"/>
<path d="M29.1 9.69995H24.3V14.5H29.1V9.69995Z" fill="#FCF5E5"/>
<path d="M29.1 4.80005H24.3V9.60005H29.1V4.80005Z" fill="#F8C468"/>
<path d="M29.1 0H24.3V4.8H29.1V0Z" fill="black"/>
<path d="M24.2 43.6001H19.4V48.4001H24.2V43.6001Z" fill="black"/>
<path d="M24.2 38.8H19.4V43.6H24.2V38.8Z" fill="#F8C468"/>
<path d="M24.2 33.8999H19.4V38.6999H24.2V33.8999Z" fill="#FFD386"/>
<path d="M24.2 29.1001H19.4V33.9001H24.2V29.1001Z" fill="#FFDC9E"/>
<path d="M24.2 24.2H19.4V29H24.2V24.2Z" fill="#FFDC9E"/>
<path d="M24.2 19.3999H19.4V24.1999H24.2V19.3999Z" fill="#FFDC9E"/>
<path d="M24.2 14.5H19.4V19.3H24.2V14.5Z" fill="#FFDC9E"/>
<path d="M24.2 9.69995H19.4V14.5H24.2V9.69995Z" fill="#FCF5E5"/>
<path d="M24.2 4.80005H19.4V9.60005H24.2V4.80005Z" fill="#F8C468"/>
<path d="M24.2 0H19.4V4.8H24.2V0Z" fill="black"/>
<path d="M19.4 43.6001H14.6V48.4001H19.4V43.6001Z" fill="black"/>
<path d="M19.4 38.8H14.6V43.6H19.4V38.8Z" fill="#F8C468"/>
<path d="M19.4 33.8999H14.6V38.6999H19.4V33.8999Z" fill="#FFD386"/>
<path d="M19.4 29.1001H14.6V33.9001H19.4V29.1001Z" fill="#FFDC9E"/>
<path d="M19.4 24.2H14.6V29H19.4V24.2Z" fill="#FFDC9E"/>
<path d="M19.4 19.3999H14.6V24.1999H19.4V19.3999Z" fill="#FFDC9E"/>
<path d="M19.4 14.5H14.6V19.3H19.4V14.5Z" fill="#FFDC9E"/>
<path d="M19.4 9.69995H14.6V14.5H19.4V9.69995Z" fill="#FCF5E5"/>
<path d="M19.4 4.80005H14.6V9.60005H19.4V4.80005Z" fill="#F8C468"/>
<path d="M19.4 0H14.6V4.8H19.4V0Z" fill="black"/>
<path d="M14.5 43.6001H9.69995V48.4001H14.5V43.6001Z" fill="black"/>
<path d="M14.5 38.8H9.69995V43.6H14.5V38.8Z" fill="#F8C468"/>
<path d="M14.5 33.8999H9.69995V38.6999H14.5V33.8999Z" fill="#F8C468"/>
<path d="M14.5 29.1001H9.69995V33.9001H14.5V29.1001Z" fill="#FFD386"/>
<path d="M14.5 24.2H9.69995V29H14.5V24.2Z" fill="#FFD386"/>
<path d="M14.5 19.3999H9.69995V24.1999H14.5V19.3999Z" fill="#FFD386"/>
<path d="M14.5 14.5H9.69995V19.3H14.5V14.5Z" fill="#FCF5E5"/>
<path d="M14.5 9.69995H9.69995V14.5H14.5V9.69995Z" fill="#F8C468"/>
<path d="M14.5 4.80005H9.69995V9.60005H14.5V4.80005Z" fill="#F8C468"/>
<path d="M14.5 0H9.69995V4.8H14.5V0Z" fill="black"/>
<path d="M9.70005 38.8H4.80005V43.6H9.60005V38.8H9.70005Z" fill="black"/>
<path d="M9.70005 33.8999H4.80005V38.6999H9.60005V33.8999H9.70005Z" fill="#F8C468"/>
<path d="M9.70005 29.1001H4.80005V33.9001H9.60005V29.1001H9.70005Z" fill="#F8C468"/>
<path d="M9.70005 24.2H4.80005V29H9.60005V24.2H9.70005Z" fill="#F8C468"/>
<path d="M9.70005 19.3999H4.80005V24.1999H9.60005V19.3999H9.70005Z" fill="#F8C468"/>
<path d="M9.70005 14.5H4.80005V19.3H9.60005V14.5H9.70005Z" fill="#F8C468"/>
<path d="M9.70005 9.69995H4.80005V14.5H9.60005V9.69995H9.70005Z" fill="#F8C468"/>
<path d="M9.70005 4.80005H4.80005V9.60005H9.60005V4.80005H9.70005Z" fill="black"/>
<path d="M4.8 33.8999H0V38.6999H4.8V33.8999Z" fill="black"/>
<path d="M4.8 29.1001H0V33.9001H4.8V29.1001Z" fill="black"/>
<path d="M4.8 24.2H0V29H4.8V24.2Z" fill="black"/>
<path d="M4.8 19.3999H0V24.1999H4.8V19.3999Z" fill="black"/>
<path d="M4.8 14.5H0V19.3H4.8V14.5Z" fill="black"/>
<path d="M4.8 9.69995H0V14.5H4.8V9.69995Z" fill="black"/>
<path d="M47.6 20.3H44V18.5H52.9V20.3H49.3V31H47.5V20.3H47.6ZM56.4 29.2H54.6V22.1H56.4V29.2ZM63.6 29.2H61.8V22.1H63.6V29.2ZM61.8 31H56.5V29.2H61.8V31ZM68.9 22.1H70.7V23.9H68.9V29.2H70.7V31H67.1V23.9H65.3V22.1H67.1V18.5H68.9V22.1ZM74.2 29.2H72.4V23.9H74.2V29.2ZM79.6 23.9H74.3V22.1H79.6V23.9ZM81.3 29.2H79.5V23.9H81.3V29.2ZM79.6 31H74.3V29.2H79.6V31ZM88.5 25.7H86.7V23.9H88.5V25.7ZM90.2 23.9H88.4V22.1H90.2V23.9ZM84.9 27.4V31H83.1V22.1H84.9V25.7H86.7V27.5H84.9V27.4ZM93.8 31H92V22.1H93.8V31ZM93.8 20.3H92V18.5H93.8V20.3ZM97.4 29.2H95.6V23.9H97.4V29.2ZM102.7 25.7H100.9V23.9H102.7V22.1H104.5V31H102.7V29.2H100.9V27.4H102.7V25.7ZM100.9 31H97.3V29.2H100.9V31ZM100.9 23.9H97.3V22.1H100.9V23.9ZM108 31H106.2V18.6H108V31Z" fill="black"/>
</g>
<defs>
<clipPath id="clip0_384_9252">
<rect width="155" height="49" fill="white"/>
</clipPath>
</defs>
</svg>
