<svg width="24" height="24" viewBox="0 0 24 24" fill="none" xmlns="http://www.w3.org/2000/svg">
<path d="M24 7.42875H22.8525V16.5712H24V7.42875Z" fill="#6BCC69"/>
<path d="M22.8524 16.5713H21.7124V17.7113H22.8524V16.5713Z" fill="#6BCC69"/>
<path d="M22.8524 6.28125H21.7124V7.42875H22.8524V6.28125Z" fill="#6BCC69"/>
<path d="M21.7125 17.7113H20.5725V18.8513H21.7125V17.7113Z" fill="#6BCC69"/>
<path d="M21.7125 9.70875H20.5725V14.2837H21.7125V9.70875Z" fill="#6BCC69"/>
<path d="M21.7125 5.14125H20.5725V6.28125H21.7125V5.14125Z" fill="#6BCC69"/>
<path d="M20.5725 14.2838H19.425V15.4238H20.5725V14.2838Z" fill="#6BCC69"/>
<path d="M20.5725 8.56875H19.425V9.70875H20.5725V8.56875Z" fill="#6BCC69"/>
<path d="M19.4249 10.8563H18.2849V13.1438H19.4249V10.8563Z" fill="#6BCC69"/>
<path d="M17.1376 4.00125H15.9976V19.9987H17.1376V4.00125Z" fill="#6BCC69"/>
<path d="M15.9974 19.9987H14.8574V21.1387H15.9974V19.9987Z" fill="#6BCC69"/>
<path d="M15.9974 2.85375H14.8574V4.00125H15.9974V2.85375Z" fill="#6BCC69"/>
<path d="M14.8574 21.1387H11.4299V22.2862H14.8574V21.1387Z" fill="#6BCC69"/>
<path d="M13.7101 16.5713H12.5701V17.7113H13.7101V16.5713Z" fill="#6BCC69"/>
<path d="M13.7101 6.28125H12.5701V7.42875H13.7101V6.28125Z" fill="#6BCC69"/>
<path d="M14.8574 1.71375H11.4299V2.85375H14.8574V1.71375Z" fill="#6BCC69"/>
<path d="M12.5699 7.42875H11.4299V16.5712H12.5699V7.42875Z" fill="#6BCC69"/>
<path d="M11.43 19.9987H10.2825V21.1387H11.43V19.9987Z" fill="#6BCC69"/>
<path d="M11.43 2.85375H10.2825V4.00125H11.43V2.85375Z" fill="#6BCC69"/>
<path d="M10.2826 18.8512H9.14258V19.9988H10.2826V18.8512Z" fill="#6BCC69"/>
<path d="M10.2826 4.00125H9.14258V5.14125H10.2826V4.00125Z" fill="#6BCC69"/>
<path d="M9.14262 17.7113H7.99512V18.8513H9.14262V17.7113Z" fill="#6BCC69"/>
<path d="M9.14262 5.14125H7.99512V6.28125H9.14262V5.14125Z" fill="#6BCC69"/>
<path d="M7.99498 16.5713H6.85498V17.7113H7.99498V16.5713Z" fill="#6BCC69"/>
<path d="M7.99498 6.28125H6.85498V7.42875H7.99498V6.28125Z" fill="#6BCC69"/>
<path d="M6.85509 15.4238H5.71509V16.5713H6.85509V15.4238Z" fill="#6BCC69"/>
<path d="M6.85509 7.42875H5.71509V8.56875H6.85509V7.42875Z" fill="#6BCC69"/>
<path d="M5.715 8.56875H1.14V9.70875H0V14.2837H1.14V15.4237H5.715V8.56875ZM3.4275 10.8562H2.2875V13.1437H1.14V10.8562H2.2875V9.70875H3.4275V10.8562Z" fill="#6BCC69"/>
</svg>
