<svg width="145" height="41" viewBox="0 0 145 41" fill="none" xmlns="http://www.w3.org/2000/svg">
<g clip-path="url(#clip0_474_13273)">
<path d="M145 28.3652H140.51V32.3816H145V28.3652Z" fill="black"/>
<path d="M145 24.3489H140.51V28.3652H145V24.3489Z" fill="black"/>
<path d="M145 20.249H140.51V24.2653H145V20.249Z" fill="black"/>
<path d="M145 16.2327H140.51V20.249H145V16.2327Z" fill="black"/>
<path d="M145 12.1326H140.51V16.1489H145V12.1326Z" fill="black"/>
<path d="M145 8.11621H140.51V12.1325H145V8.11621Z" fill="black"/>
<path d="M140.51 32.4653H136.019V36.4817H140.51V32.4653Z" fill="black"/>
<path d="M140.51 28.3652H136.019V32.3816H140.51V28.3652Z" fill="#EB8B8B"/>
<path d="M140.51 24.3489H136.019V28.3652H140.51V24.3489Z" fill="#EB8B8B"/>
<path d="M140.51 20.249H136.019V24.2653H140.51V20.249Z" fill="#EB8B8B"/>
<path d="M140.51 16.2327H136.019V20.249H140.51V16.2327Z" fill="#EB8B8B"/>
<path d="M140.51 12.1326H136.019V16.1489H140.51V12.1326Z" fill="#EB8B8B"/>
<path d="M140.51 8.11621H136.019V12.1325H140.51V8.11621Z" fill="#EB8B8B"/>
<path d="M140.51 4.01636H136.019V8.03268H140.51V4.01636Z" fill="black"/>
<path d="M135.926 36.4817H131.436V40.498H135.926V36.4817Z" fill="black"/>
<path d="M135.926 32.4653H131.436V36.4817H135.926V32.4653Z" fill="#EB8B8B"/>
<path d="M135.926 28.3652H131.436V32.3816H135.926V28.3652Z" fill="#EB8B8B"/>
<path d="M135.926 24.3489H131.436V28.3652H135.926V24.3489Z" fill="#EFA2A2"/>
<path d="M135.926 20.249H131.436V24.2653H135.926V20.249Z" fill="#EFA2A2"/>
<path d="M135.926 16.2327H131.436V20.249H135.926V16.2327Z" fill="#EFA2A2"/>
<path d="M135.926 12.1326H131.436V16.1489H135.926V12.1326Z" fill="#F8CBC5"/>
<path d="M135.926 8.11621H131.436V12.1325H135.926V8.11621Z" fill="#EB8B8B"/>
<path d="M135.926 4.01636H131.436V8.03268H135.926V4.01636Z" fill="#EB8B8B"/>
<path d="M135.926 0H131.436V4.01633H135.926V0Z" fill="black"/>
<path d="M131.436 36.4817H126.945V40.498H131.436V36.4817Z" fill="black"/>
<path d="M131.436 32.4653H126.945V36.4817H131.436V32.4653Z" fill="#EB8B8B"/>
<path d="M131.436 28.3652H126.945V32.3816H131.436V28.3652Z" fill="#EFA2A2"/>
<path d="M131.436 24.3489H126.945V28.3652H131.436V24.3489Z" fill="#F1AEAE"/>
<path d="M131.436 20.249H126.945V24.2653H131.436V20.249Z" fill="#F1AEAE"/>
<path d="M131.436 16.2327H126.945V20.249H131.436V16.2327Z" fill="#F1AEAE"/>
<path d="M131.436 12.1326H126.945V16.1489H131.436V12.1326Z" fill="#F1AEAE"/>
<path d="M131.436 8.11621H126.945V12.1325H131.436V8.11621Z" fill="#F8CBC5"/>
<path d="M131.436 4.01636H126.945V8.03268H131.436V4.01636Z" fill="#EB8B8B"/>
<path d="M131.436 0H126.945V4.01633H131.436V0Z" fill="black"/>
<path d="M126.852 36.4817H122.361V40.498H126.852V36.4817Z" fill="black"/>
<path d="M126.852 32.4653H122.361V36.4817H126.852V32.4653Z" fill="#EB8B8B"/>
<path d="M126.852 28.3652H122.361V32.3816H126.852V28.3652Z" fill="#EFA2A2"/>
<path d="M126.852 24.3489H122.361V28.3652H126.852V24.3489Z" fill="#F1AEAE"/>
<path d="M126.852 20.249H122.361V24.2653H126.852V20.249Z" fill="#F1AEAE"/>
<path d="M126.852 16.2327H122.361V20.249H126.852V16.2327Z" fill="#F1AEAE"/>
<path d="M126.852 12.1326H122.361V16.1489H126.852V12.1326Z" fill="#F1AEAE"/>
<path d="M126.852 8.11621H122.361V12.1325H126.852V8.11621Z" fill="#F8CBC5"/>
<path d="M126.852 4.01636H122.361V8.03268H126.852V4.01636Z" fill="#EB8B8B"/>
<path d="M126.852 0H122.361V4.01633H126.852V0Z" fill="black"/>
<path d="M122.361 36.4817H117.871V40.498H122.361V36.4817Z" fill="black"/>
<path d="M122.361 32.4653H117.871V36.4817H122.361V32.4653Z" fill="#EB8B8B"/>
<path d="M122.361 28.3652H117.871V32.3816H122.361V28.3652Z" fill="#EFA2A2"/>
<path d="M122.361 24.3489H117.871V28.3652H122.361V24.3489Z" fill="#F1AEAE"/>
<path d="M122.361 20.249H117.871V24.2653H122.361V20.249Z" fill="#F1AEAE"/>
<path d="M122.361 16.2327H117.871V20.249H122.361V16.2327Z" fill="#F1AEAE"/>
<path d="M122.361 12.1326H117.871V16.1489H122.361V12.1326Z" fill="#F1AEAE"/>
<path d="M122.361 8.11621H117.871V12.1325H122.361V8.11621Z" fill="#F8CBC5"/>
<path d="M122.361 4.01636H117.871V8.03268H122.361V4.01636Z" fill="#EB8B8B"/>
<path d="M122.361 0H117.871V4.01633H122.361V0Z" fill="black"/>
<path d="M117.777 36.4817H113.287V40.498H117.777V36.4817Z" fill="black"/>
<path d="M117.777 32.4653H113.287V36.4817H117.777V32.4653Z" fill="#EB8B8B"/>
<path d="M117.777 28.3652H113.287V32.3816H117.777V28.3652Z" fill="#EFA2A2"/>
<path d="M117.777 24.3489H113.287V28.3652H117.777V24.3489Z" fill="#F1AEAE"/>
<path d="M117.777 20.249H113.287V24.2653H117.777V20.249Z" fill="#F1AEAE"/>
<path d="M117.777 16.2327H113.287V20.249H117.777V16.2327Z" fill="#F1AEAE"/>
<path d="M117.777 12.1326H113.287V16.1489H117.777V12.1326Z" fill="#F1AEAE"/>
<path d="M117.777 8.11621H113.287V12.1325H117.777V8.11621Z" fill="#F8CBC5"/>
<path d="M117.777 4.01636H113.287V8.03268H117.777V4.01636Z" fill="#EB8B8B"/>
<path d="M117.777 0H113.287V4.01633H117.777V0Z" fill="black"/>
<path d="M113.287 36.4817H108.797V40.498H113.287V36.4817Z" fill="black"/>
<path d="M113.287 32.4653H108.797V36.4817H113.287V32.4653Z" fill="#EB8B8B"/>
<path d="M113.287 28.3652H108.797V32.3816H113.287V28.3652Z" fill="#EFA2A2"/>
<path d="M113.287 24.3489H108.797V28.3652H113.287V24.3489Z" fill="#F1AEAE"/>
<path d="M113.287 20.249H108.797V24.2653H113.287V20.249Z" fill="#F1AEAE"/>
<path d="M113.287 16.2327H108.797V20.249H113.287V16.2327Z" fill="#F1AEAE"/>
<path d="M113.287 12.1326H108.797V16.1489H113.287V12.1326Z" fill="#F1AEAE"/>
<path d="M113.287 8.11621H108.797V12.1325H113.287V8.11621Z" fill="#F8CBC5"/>
<path d="M113.287 4.01636H108.797V8.03268H113.287V4.01636Z" fill="#EB8B8B"/>
<path d="M113.287 0H108.797V4.01633H113.287V0Z" fill="black"/>
<path d="M108.703 36.4817H104.213V40.498H108.703V36.4817Z" fill="black"/>
<path d="M108.703 32.4653H104.213V36.4817H108.703V32.4653Z" fill="#EB8B8B"/>
<path d="M108.703 28.3652H104.213V32.3816H108.703V28.3652Z" fill="#EFA2A2"/>
<path d="M108.703 24.3489H104.213V28.3652H108.703V24.3489Z" fill="#F1AEAE"/>
<path d="M108.703 20.249H104.213V24.2653H108.703V20.249Z" fill="#F1AEAE"/>
<path d="M108.703 16.2327H104.213V20.249H108.703V16.2327Z" fill="#F1AEAE"/>
<path d="M108.703 12.1326H104.213V16.1489H108.703V12.1326Z" fill="#F1AEAE"/>
<path d="M108.703 8.11621H104.213V12.1325H108.703V8.11621Z" fill="#F8CBC5"/>
<path d="M108.703 4.01636H104.213V8.03268H108.703V4.01636Z" fill="#EB8B8B"/>
<path d="M108.703 0H104.213V4.01633H108.703V0Z" fill="black"/>
<path d="M104.213 36.4817H99.7225V40.498H104.213V36.4817Z" fill="black"/>
<path d="M104.213 32.4653H99.7225V36.4817H104.213V32.4653Z" fill="#EB8B8B"/>
<path d="M104.213 28.3652H99.7225V32.3816H104.213V28.3652Z" fill="#EFA2A2"/>
<path d="M104.213 24.3489H99.7225V28.3652H104.213V24.3489Z" fill="#F1AEAE"/>
<path d="M104.213 20.249H99.7225V24.2653H104.213V20.249Z" fill="#F1AEAE"/>
<path d="M104.213 16.2327H99.7225V20.249H104.213V16.2327Z" fill="#F1AEAE"/>
<path d="M104.213 12.1326H99.7225V16.1489H104.213V12.1326Z" fill="#F1AEAE"/>
<path d="M104.213 8.11621H99.7225V12.1325H104.213V8.11621Z" fill="#F8CBC5"/>
<path d="M104.213 4.01636H99.7225V8.03268H104.213V4.01636Z" fill="#EB8B8B"/>
<path d="M104.213 0H99.7225V4.01633H104.213V0Z" fill="black"/>
<path d="M99.7226 36.4817H95.2323V40.498H99.7226V36.4817Z" fill="black"/>
<path d="M99.7226 32.4653H95.2323V36.4817H99.7226V32.4653Z" fill="#EB8B8B"/>
<path d="M99.7226 28.3652H95.2323V32.3816H99.7226V28.3652Z" fill="#EFA2A2"/>
<path d="M99.7226 24.3489H95.2323V28.3652H99.7226V24.3489Z" fill="#F1AEAE"/>
<path d="M99.7226 20.249H95.2323V24.2653H99.7226V20.249Z" fill="#F1AEAE"/>
<path d="M99.7226 16.2327H95.2323V20.249H99.7226V16.2327Z" fill="#F1AEAE"/>
<path d="M99.7226 12.1326H95.2323V16.1489H99.7226V12.1326Z" fill="#F1AEAE"/>
<path d="M99.7226 8.11621H95.2323V12.1325H99.7226V8.11621Z" fill="#F8CBC5"/>
<path d="M99.7226 4.01636H95.2323V8.03268H99.7226V4.01636Z" fill="#EB8B8B"/>
<path d="M99.7226 0H95.2323V4.01633H99.7226V0Z" fill="black"/>
<path d="M95.1388 36.4817H90.6484V40.498H95.1388V36.4817Z" fill="black"/>
<path d="M95.1388 32.4653H90.6484V36.4817H95.1388V32.4653Z" fill="#EB8B8B"/>
<path d="M95.1388 28.3652H90.6484V32.3816H95.1388V28.3652Z" fill="#EFA2A2"/>
<path d="M95.1388 24.3489H90.6484V28.3652H95.1388V24.3489Z" fill="#F1AEAE"/>
<path d="M95.1388 20.249H90.6484V24.2653H95.1388V20.249Z" fill="#F1AEAE"/>
<path d="M95.1388 16.2327H90.6484V20.249H95.1388V16.2327Z" fill="#F1AEAE"/>
<path d="M95.1388 12.1326H90.6484V16.1489H95.1388V12.1326Z" fill="#F1AEAE"/>
<path d="M95.1388 8.11621H90.6484V12.1325H95.1388V8.11621Z" fill="#F8CBC5"/>
<path d="M95.1388 4.01636H90.6484V8.03268H95.1388V4.01636Z" fill="#EB8B8B"/>
<path d="M95.1388 0H90.6484V4.01633H95.1388V0Z" fill="black"/>
<path d="M90.6483 36.4817H86.0645V40.498H90.5548L90.6483 36.4817Z" fill="black"/>
<path d="M90.6483 32.4653H86.0645V36.4817H90.5548L90.6483 32.4653Z" fill="#EB8B8B"/>
<path d="M90.6483 28.3652H86.0645V32.3816H90.5548L90.6483 28.3652Z" fill="#EFA2A2"/>
<path d="M90.6483 24.3489H86.0645V28.3652H90.5548L90.6483 24.3489Z" fill="#F1AEAE"/>
<path d="M90.6483 20.249H86.0645V24.2653H90.5548L90.6483 20.249Z" fill="#F1AEAE"/>
<path d="M90.6483 16.2327H86.0645V20.249H90.5548L90.6483 16.2327Z" fill="#F1AEAE"/>
<path d="M90.6483 12.1326H86.0645V16.1489H90.5548L90.6483 12.1326Z" fill="#F1AEAE"/>
<path d="M90.6483 8.11621H86.0645V12.1325H90.5548L90.6483 8.11621Z" fill="#F8CBC5"/>
<path d="M90.6483 4.01636H86.0645V8.03268H90.5548L90.6483 4.01636Z" fill="#EB8B8B"/>
<path d="M90.6483 0H86.0645V4.01633H90.5548L90.6483 0Z" fill="black"/>
<path d="M86.0645 36.4817H81.5742V40.498H86.0645V36.4817Z" fill="black"/>
<path d="M86.0645 32.4653H81.5742V36.4817H86.0645V32.4653Z" fill="#EB8B8B"/>
<path d="M86.0645 28.3652H81.5742V32.3816H86.0645V28.3652Z" fill="#EFA2A2"/>
<path d="M86.0645 24.3489H81.5742V28.3652H86.0645V24.3489Z" fill="#F1AEAE"/>
<path d="M86.0645 20.249H81.5742V24.2653H86.0645V20.249Z" fill="#F1AEAE"/>
<path d="M86.0645 16.2327H81.5742V20.249H86.0645V16.2327Z" fill="#F1AEAE"/>
<path d="M86.0645 12.1326H81.5742V16.1489H86.0645V12.1326Z" fill="#F1AEAE"/>
<path d="M86.0645 8.11621H81.5742V12.1325H86.0645V8.11621Z" fill="#F8CBC5"/>
<path d="M86.0645 4.01636H81.5742V8.03268H86.0645V4.01636Z" fill="#EB8B8B"/>
<path d="M86.0645 0H81.5742V4.01633H86.0645V0Z" fill="black"/>
<path d="M81.5742 36.4817H77.0839V40.498H81.5742V36.4817Z" fill="black"/>
<path d="M81.5742 32.4653H77.0839V36.4817H81.5742V32.4653Z" fill="#EB8B8B"/>
<path d="M81.5742 28.3652H77.0839V32.3816H81.5742V28.3652Z" fill="#EFA2A2"/>
<path d="M81.5742 24.3489H77.0839V28.3652H81.5742V24.3489Z" fill="#F1AEAE"/>
<path d="M81.5742 20.249H77.0839V24.2653H81.5742V20.249Z" fill="#F1AEAE"/>
<path d="M81.5742 16.2327H77.0839V20.249H81.5742V16.2327Z" fill="#F1AEAE"/>
<path d="M81.5742 12.1326H77.0839V16.1489H81.5742V12.1326Z" fill="#F1AEAE"/>
<path d="M81.5742 8.11621H77.0839V12.1325H81.5742V8.11621Z" fill="#F8CBC5"/>
<path d="M81.5742 4.01636H77.0839V8.03268H81.5742V4.01636Z" fill="#EB8B8B"/>
<path d="M81.5742 0H77.0839V4.01633H81.5742V0Z" fill="black"/>
<path d="M76.9903 36.4817H72.5V40.498H76.9903V36.4817Z" fill="black"/>
<path d="M76.9903 32.4653H72.5V36.4817H76.9903V32.4653Z" fill="#EB8B8B"/>
<path d="M76.9903 28.3652H72.5V32.3816H76.9903V28.3652Z" fill="#EFA2A2"/>
<path d="M76.9903 24.3489H72.5V28.3652H76.9903V24.3489Z" fill="#F1AEAE"/>
<path d="M76.9903 20.249H72.5V24.2653H76.9903V20.249Z" fill="#F1AEAE"/>
<path d="M76.9903 16.2327H72.5V20.249H76.9903V16.2327Z" fill="#F1AEAE"/>
<path d="M76.9903 12.1326H72.5V16.1489H76.9903V12.1326Z" fill="#F1AEAE"/>
<path d="M76.9903 8.11621H72.5V12.1325H76.9903V8.11621Z" fill="#F8CBC5"/>
<path d="M76.9903 4.01636H72.5V8.03268H76.9903V4.01636Z" fill="#EB8B8B"/>
<path d="M76.9903 0H72.5V4.01633H76.9903V0Z" fill="black"/>
<path d="M72.5 36.4817H68.0096V40.498H72.5V36.4817Z" fill="black"/>
<path d="M72.5 32.4653H68.0096V36.4817H72.5V32.4653Z" fill="#EB8B8B"/>
<path d="M72.5 28.3652H68.0096V32.3816H72.5V28.3652Z" fill="#EFA2A2"/>
<path d="M72.5 24.3489H68.0096V28.3652H72.5V24.3489Z" fill="#F1AEAE"/>
<path d="M72.5 20.249H68.0096V24.2653H72.5V20.249Z" fill="#F1AEAE"/>
<path d="M72.5 16.2327H68.0096V20.249H72.5V16.2327Z" fill="#F1AEAE"/>
<path d="M72.5 12.1326H68.0096V16.1489H72.5V12.1326Z" fill="#F1AEAE"/>
<path d="M72.5 8.11621H68.0096V12.1325H72.5V8.11621Z" fill="#F8CBC5"/>
<path d="M72.5 4.01636H68.0096V8.03268H72.5V4.01636Z" fill="#EB8B8B"/>
<path d="M72.5 0H68.0096V4.01633H72.5V0Z" fill="black"/>
<path d="M68.0097 36.4817H63.5194V40.498H68.0097V36.4817Z" fill="black"/>
<path d="M68.0097 32.4653H63.5194V36.4817H68.0097V32.4653Z" fill="#EB8B8B"/>
<path d="M68.0097 28.3652H63.5194V32.3816H68.0097V28.3652Z" fill="#EFA2A2"/>
<path d="M68.0097 24.3489H63.5194V28.3652H68.0097V24.3489Z" fill="#F1AEAE"/>
<path d="M68.0097 20.249H63.5194V24.2653H68.0097V20.249Z" fill="#F1AEAE"/>
<path d="M68.0097 16.2327H63.5194V20.249H68.0097V16.2327Z" fill="#F1AEAE"/>
<path d="M68.0097 12.1326H63.5194V16.1489H68.0097V12.1326Z" fill="#F1AEAE"/>
<path d="M68.0097 8.11621H63.5194V12.1325H68.0097V8.11621Z" fill="#F8CBC5"/>
<path d="M68.0097 4.01636H63.5194V8.03268H68.0097V4.01636Z" fill="#EB8B8B"/>
<path d="M68.0097 0H63.5194V4.01633H68.0097V0Z" fill="black"/>
<path d="M63.4259 36.4817H58.9355V40.498H63.4259V36.4817Z" fill="black"/>
<path d="M63.4259 32.4653H58.9355V36.4817H63.4259V32.4653Z" fill="#EB8B8B"/>
<path d="M63.4259 28.3652H58.9355V32.3816H63.4259V28.3652Z" fill="#EFA2A2"/>
<path d="M63.4259 24.3489H58.9355V28.3652H63.4259V24.3489Z" fill="#F1AEAE"/>
<path d="M63.4259 20.249H58.9355V24.2653H63.4259V20.249Z" fill="#F1AEAE"/>
<path d="M63.4259 16.2327H58.9355V20.249H63.4259V16.2327Z" fill="#F1AEAE"/>
<path d="M63.4259 12.1326H58.9355V16.1489H63.4259V12.1326Z" fill="#F1AEAE"/>
<path d="M63.4259 8.11621H58.9355V12.1325H63.4259V8.11621Z" fill="#F8CBC5"/>
<path d="M63.4259 4.01636H58.9355V8.03268H63.4259V4.01636Z" fill="#EB8B8B"/>
<path d="M63.4259 0H58.9355V4.01633H63.4259V0Z" fill="black"/>
<path d="M58.9355 36.4817H54.4452V40.498H58.9355V36.4817Z" fill="black"/>
<path d="M58.9355 32.4653H54.4452V36.4817H58.9355V32.4653Z" fill="#EB8B8B"/>
<path d="M58.9355 28.3652H54.4452V32.3816H58.9355V28.3652Z" fill="#EFA2A2"/>
<path d="M58.9355 24.3489H54.4452V28.3652H58.9355V24.3489Z" fill="#F1AEAE"/>
<path d="M58.9355 20.249H54.4452V24.2653H58.9355V20.249Z" fill="#F1AEAE"/>
<path d="M58.9355 16.2327H54.4452V20.249H58.9355V16.2327Z" fill="#F1AEAE"/>
<path d="M58.9355 12.1326H54.4452V16.1489H58.9355V12.1326Z" fill="#F1AEAE"/>
<path d="M58.9355 8.11621H54.4452V12.1325H58.9355V8.11621Z" fill="#F8CBC5"/>
<path d="M58.9355 4.01636H54.4452V8.03268H58.9355V4.01636Z" fill="#EB8B8B"/>
<path d="M58.9355 0H54.4452V4.01633H58.9355V0Z" fill="black"/>
<path d="M54.3517 36.4817H49.8613V40.498H54.3517V36.4817Z" fill="black"/>
<path d="M54.3517 32.4653H49.8613V36.4817H54.3517V32.4653Z" fill="#EB8B8B"/>
<path d="M54.3517 28.3652H49.8613V32.3816H54.3517V28.3652Z" fill="#EFA2A2"/>
<path d="M54.3517 24.3489H49.8613V28.3652H54.3517V24.3489Z" fill="#F1AEAE"/>
<path d="M54.3517 20.249H49.8613V24.2653H54.3517V20.249Z" fill="#F1AEAE"/>
<path d="M54.3517 16.2327H49.8613V20.249H54.3517V16.2327Z" fill="#F1AEAE"/>
<path d="M54.3517 12.1326H49.8613V16.1489H54.3517V12.1326Z" fill="#F1AEAE"/>
<path d="M54.3517 8.11621H49.8613V12.1325H54.3517V8.11621Z" fill="#F8CBC5"/>
<path d="M54.3517 4.01636H49.8613V8.03268H54.3517V4.01636Z" fill="#EB8B8B"/>
<path d="M54.3517 0H49.8613V4.01633H54.3517V0Z" fill="black"/>
<path d="M49.8613 36.4817H45.371V40.498H49.8613V36.4817Z" fill="black"/>
<path d="M49.8613 32.4653H45.371V36.4817H49.8613V32.4653Z" fill="#EB8B8B"/>
<path d="M49.8613 28.3652H45.371V32.3816H49.8613V28.3652Z" fill="#EFA2A2"/>
<path d="M49.8613 24.3489H45.371V28.3652H49.8613V24.3489Z" fill="#F1AEAE"/>
<path d="M49.8613 20.249H45.371V24.2653H49.8613V20.249Z" fill="#F1AEAE"/>
<path d="M49.8613 16.2327H45.371V20.249H49.8613V16.2327Z" fill="#F1AEAE"/>
<path d="M49.8613 12.1326H45.371V16.1489H49.8613V12.1326Z" fill="#F1AEAE"/>
<path d="M49.8613 8.11621H45.371V12.1325H49.8613V8.11621Z" fill="#F8CBC5"/>
<path d="M49.8613 4.01636H45.371V8.03268H49.8613V4.01636Z" fill="#EB8B8B"/>
<path d="M49.8613 0H45.371V4.01633H49.8613V0Z" fill="black"/>
<path d="M45.2774 36.4817H40.7871V40.498H45.2774V36.4817Z" fill="black"/>
<path d="M45.2774 32.4653H40.7871V36.4817H45.2774V32.4653Z" fill="#EB8B8B"/>
<path d="M45.2774 28.3652H40.7871V32.3816H45.2774V28.3652Z" fill="#EFA2A2"/>
<path d="M45.2774 24.3489H40.7871V28.3652H45.2774V24.3489Z" fill="#F1AEAE"/>
<path d="M45.2774 20.249H40.7871V24.2653H45.2774V20.249Z" fill="#F1AEAE"/>
<path d="M45.2774 16.2327H40.7871V20.249H45.2774V16.2327Z" fill="#F1AEAE"/>
<path d="M45.2774 12.1326H40.7871V16.1489H45.2774V12.1326Z" fill="#F1AEAE"/>
<path d="M45.2774 8.11621H40.7871V12.1325H45.2774V8.11621Z" fill="#F8CBC5"/>
<path d="M45.2774 4.01636H40.7871V8.03268H45.2774V4.01636Z" fill="#EB8B8B"/>
<path d="M45.2774 0H40.7871V4.01633H45.2774V0Z" fill="black"/>
<path d="M40.7871 36.4817H36.2968V40.498H40.7871V36.4817Z" fill="black"/>
<path d="M40.7871 32.4653H36.2968V36.4817H40.7871V32.4653Z" fill="#EB8B8B"/>
<path d="M40.7871 28.3652H36.2968V32.3816H40.7871V28.3652Z" fill="#EFA2A2"/>
<path d="M40.7871 24.3489H36.2968V28.3652H40.7871V24.3489Z" fill="#F1AEAE"/>
<path d="M40.7871 20.249H36.2968V24.2653H40.7871V20.249Z" fill="#F1AEAE"/>
<path d="M40.7871 16.2327H36.2968V20.249H40.7871V16.2327Z" fill="#F1AEAE"/>
<path d="M40.7871 12.1326H36.2968V16.1489H40.7871V12.1326Z" fill="#F1AEAE"/>
<path d="M40.7871 8.11621H36.2968V12.1325H40.7871V8.11621Z" fill="#F8CBC5"/>
<path d="M40.7871 4.01636H36.2968V8.03268H40.7871V4.01636Z" fill="#EB8B8B"/>
<path d="M40.7871 0H36.2968V4.01633H40.7871V0Z" fill="black"/>
<path d="M36.2967 36.4817H31.8064V40.498H36.2967V36.4817Z" fill="black"/>
<path d="M36.2967 32.4653H31.8064V36.4817H36.2967V32.4653Z" fill="#EB8B8B"/>
<path d="M36.2967 28.3652H31.8064V32.3816H36.2967V28.3652Z" fill="#EFA2A2"/>
<path d="M36.2967 24.3489H31.8064V28.3652H36.2967V24.3489Z" fill="#F1AEAE"/>
<path d="M36.2967 20.249H31.8064V24.2653H36.2967V20.249Z" fill="#F1AEAE"/>
<path d="M36.2967 16.2327H31.8064V20.249H36.2967V16.2327Z" fill="#F1AEAE"/>
<path d="M36.2967 12.1326H31.8064V16.1489H36.2967V12.1326Z" fill="#F1AEAE"/>
<path d="M36.2967 8.11621H31.8064V12.1325H36.2967V8.11621Z" fill="#F8CBC5"/>
<path d="M36.2967 4.01636H31.8064V8.03268H36.2967V4.01636Z" fill="#EB8B8B"/>
<path d="M36.2967 0H31.8064V4.01633H36.2967V0Z" fill="black"/>
<path d="M31.7129 36.4817H27.2225V40.498H31.7129V36.4817Z" fill="black"/>
<path d="M31.7129 32.4653H27.2225V36.4817H31.7129V32.4653Z" fill="#EB8B8B"/>
<path d="M31.7129 28.3652H27.2225V32.3816H31.7129V28.3652Z" fill="#EFA2A2"/>
<path d="M31.7129 24.3489H27.2225V28.3652H31.7129V24.3489Z" fill="#F1AEAE"/>
<path d="M31.7129 20.249H27.2225V24.2653H31.7129V20.249Z" fill="#F1AEAE"/>
<path d="M31.7129 16.2327H27.2225V20.249H31.7129V16.2327Z" fill="#F1AEAE"/>
<path d="M31.7129 12.1326H27.2225V16.1489H31.7129V12.1326Z" fill="#F1AEAE"/>
<path d="M31.7129 8.11621H27.2225V12.1325H31.7129V8.11621Z" fill="#F8CBC5"/>
<path d="M31.7129 4.01636H27.2225V8.03268H31.7129V4.01636Z" fill="#EB8B8B"/>
<path d="M31.7129 0H27.2225V4.01633H31.7129V0Z" fill="black"/>
<path d="M27.2226 36.4817H22.7323V40.498H27.2226V36.4817Z" fill="black"/>
<path d="M27.2226 32.4653H22.7323V36.4817H27.2226V32.4653Z" fill="#EB8B8B"/>
<path d="M27.2226 28.3652H22.7323V32.3816H27.2226V28.3652Z" fill="#EFA2A2"/>
<path d="M27.2226 24.3489H22.7323V28.3652H27.2226V24.3489Z" fill="#F1AEAE"/>
<path d="M27.2226 20.249H22.7323V24.2653H27.2226V20.249Z" fill="#F1AEAE"/>
<path d="M27.2226 16.2327H22.7323V20.249H27.2226V16.2327Z" fill="#F1AEAE"/>
<path d="M27.2226 12.1326H22.7323V16.1489H27.2226V12.1326Z" fill="#F1AEAE"/>
<path d="M27.2226 8.11621H22.7323V12.1325H27.2226V8.11621Z" fill="#F8CBC5"/>
<path d="M27.2226 4.01636H22.7323V8.03268H27.2226V4.01636Z" fill="#EB8B8B"/>
<path d="M27.2226 0H22.7323V4.01633H27.2226V0Z" fill="black"/>
<path d="M22.6388 36.4817H18.1484V40.498H22.6388V36.4817Z" fill="black"/>
<path d="M22.6388 32.4653H18.1484V36.4817H22.6388V32.4653Z" fill="#EB8B8B"/>
<path d="M22.6388 28.3652H18.1484V32.3816H22.6388V28.3652Z" fill="#EFA2A2"/>
<path d="M22.6388 24.3489H18.1484V28.3652H22.6388V24.3489Z" fill="#F1AEAE"/>
<path d="M22.6388 20.249H18.1484V24.2653H22.6388V20.249Z" fill="#F1AEAE"/>
<path d="M22.6388 16.2327H18.1484V20.249H22.6388V16.2327Z" fill="#F1AEAE"/>
<path d="M22.6388 12.1326H18.1484V16.1489H22.6388V12.1326Z" fill="#F1AEAE"/>
<path d="M22.6388 8.11621H18.1484V12.1325H22.6388V8.11621Z" fill="#F8CBC5"/>
<path d="M22.6388 4.01636H18.1484V8.03268H22.6388V4.01636Z" fill="#EB8B8B"/>
<path d="M22.6388 0H18.1484V4.01633H22.6388V0Z" fill="black"/>
<path d="M18.1484 36.4817H13.6581V40.498H18.1484V36.4817Z" fill="black"/>
<path d="M18.1484 32.4653H13.6581V36.4817H18.1484V32.4653Z" fill="#EB8B8B"/>
<path d="M18.1484 28.3652H13.6581V32.3816H18.1484V28.3652Z" fill="#EFA2A2"/>
<path d="M18.1484 24.3489H13.6581V28.3652H18.1484V24.3489Z" fill="#F1AEAE"/>
<path d="M18.1484 20.249H13.6581V24.2653H18.1484V20.249Z" fill="#F1AEAE"/>
<path d="M18.1484 16.2327H13.6581V20.249H18.1484V16.2327Z" fill="#F1AEAE"/>
<path d="M18.1484 12.1326H13.6581V16.1489H18.1484V12.1326Z" fill="#F1AEAE"/>
<path d="M18.1484 8.11621H13.6581V12.1325H18.1484V8.11621Z" fill="#F8CBC5"/>
<path d="M18.1484 4.01636H13.6581V8.03268H18.1484V4.01636Z" fill="#EB8B8B"/>
<path d="M18.1484 0H13.6581V4.01633H18.1484V0Z" fill="black"/>
<path d="M13.5645 36.4817H9.07422V40.498H13.5645V36.4817Z" fill="black"/>
<path d="M13.5645 32.4653H9.07422V36.4817H13.5645V32.4653Z" fill="#EB8B8B"/>
<path d="M13.5645 28.3652H9.07422V32.3816H13.5645V28.3652Z" fill="#EB8B8B"/>
<path d="M13.5645 24.3489H9.07422V28.3652H13.5645V24.3489Z" fill="#EFA2A2"/>
<path d="M13.5645 20.249H9.07422V24.2653H13.5645V20.249Z" fill="#EFA2A2"/>
<path d="M13.5645 16.2327H9.07422V20.249H13.5645V16.2327Z" fill="#EFA2A2"/>
<path d="M13.5645 12.1326H9.07422V16.1489H13.5645V12.1326Z" fill="#F8CBC5"/>
<path d="M13.5645 8.11621H9.07422V12.1325H13.5645V8.11621Z" fill="#EB8B8B"/>
<path d="M13.5645 4.01636H9.07422V8.03268H13.5645V4.01636Z" fill="#EB8B8B"/>
<path d="M13.5645 0H9.07422V4.01633H13.5645V0Z" fill="black"/>
<path d="M9.07423 32.4653H4.49036V36.4817H8.98068L9.07423 32.4653Z" fill="black"/>
<path d="M9.07423 28.3652H4.49036V32.3816H8.98068L9.07423 28.3652Z" fill="#EB8B8B"/>
<path d="M9.07423 24.3489H4.49036V28.3652H8.98068L9.07423 24.3489Z" fill="#EB8B8B"/>
<path d="M9.07423 20.249H4.49036V24.2653H8.98068L9.07423 20.249Z" fill="#EB8B8B"/>
<path d="M9.07423 16.2327H4.49036V20.249H8.98068L9.07423 16.2327Z" fill="#EB8B8B"/>
<path d="M9.07423 12.1326H4.49036V16.1489H8.98068L9.07423 12.1326Z" fill="#EB8B8B"/>
<path d="M9.07423 8.11621H4.49036V12.1325H8.98068L9.07423 8.11621Z" fill="#EB8B8B"/>
<path d="M9.07423 4.01636H4.49036V8.03268H8.98068L9.07423 4.01636Z" fill="black"/>
<path d="M4.49032 28.3652H0V32.3816H4.49032V28.3652Z" fill="black"/>
<path d="M4.49032 24.3489H0V28.3652H4.49032V24.3489Z" fill="black"/>
<path d="M4.49032 20.249H0V24.2653H4.49032V20.249Z" fill="black"/>
<path d="M4.49032 16.2327H0V20.249H4.49032V16.2327Z" fill="black"/>
<path d="M4.49032 12.1326H0V16.1489H4.49032V12.1326Z" fill="black"/>
<path d="M4.49032 8.11621H0V12.1325H4.49032V8.11621Z" fill="black"/>
</g>
<path d="M19.2694 24.4444H23.9361V26H17.7139V15.1111H23.9361V16.6667H19.2694V19.7778H23.9361V21.3333H19.2694V24.4444ZM25.4916 24.4444H23.9361V21.3333H25.4916V24.4444ZM25.4916 19.7778H23.9361V16.6667H25.4916V19.7778ZM28.6073 24.4444H27.0518V19.7778H28.6073V24.4444ZM33.274 21.3333H31.7184V19.7778H33.274V18.2222H34.8295V26H33.274V24.4444H31.7184V22.8889H33.274V21.3333ZM31.7184 26H28.6073V24.4444H31.7184V26ZM31.7184 19.7778H28.6073V18.2222H31.7184V19.7778ZM37.9452 24.4444H36.3896V19.7778H37.9452V24.4444ZM44.1674 19.7778H37.9452V18.2222H44.1674V19.7778ZM44.1674 26H37.9452V24.4444H44.1674V26ZM51.9498 26H50.3942V24.4444H51.9498V26ZM47.2831 22.8889V26H45.7275V15.1111H47.2831V21.3333H48.8387V22.8889H47.2831ZM50.3942 21.3333H48.8387V19.7778H50.3942V21.3333ZM51.9498 19.7778H50.3942V18.2222H51.9498V19.7778ZM50.3942 24.4444H48.8387V22.8889H50.3942V24.4444ZM61.2801 18.2222H62.8356V19.7778H61.2801V24.4444H62.8356V26H59.7245V19.7778H58.1689V18.2222H59.7245V15.1111H61.2801V18.2222ZM65.9452 24.4444H64.3896V19.7778H65.9452V24.4444ZM70.6119 19.7778H65.9452V18.2222H70.6119V19.7778ZM72.1674 24.4444H70.6119V19.7778H72.1674V24.4444ZM70.6119 26H65.9452V24.4444H70.6119V26ZM79.9452 18.2222V26H78.3896V15.1111H79.9452V16.6667H81.5008V18.2222H79.9452ZM87.723 18.2222H86.1674V16.6667H87.723V15.1111H89.2785V26H87.723V18.2222ZM86.1674 19.7778H84.6119V18.2222H86.1674V19.7778ZM84.6119 21.3333H83.0563V19.7778H84.6119V21.3333ZM83.0563 19.7778H81.5008V18.2222H83.0563V19.7778ZM92.3866 24.4444H90.8311V19.7778H92.3866V24.4444ZM97.0533 21.3333H95.4977V19.7778H97.0533V18.2222H98.6088V26H97.0533V24.4444H95.4977V22.8889H97.0533V21.3333ZM95.4977 26H92.3866V24.4444H95.4977V26ZM95.4977 19.7778H92.3866V18.2222H95.4977V19.7778ZM104.836 21.3333H103.28V19.7778H104.836V21.3333ZM106.391 19.7778H104.836V18.2222H106.391V19.7778ZM101.725 22.8889V26H100.169V18.2222H101.725V21.3333H103.28V22.8889H101.725ZM114.17 26H112.615V24.4444H114.17V26ZM109.504 22.8889V26H107.948V15.1111H109.504V21.3333H111.059V22.8889H109.504ZM112.615 21.3333H111.059V19.7778H112.615V21.3333ZM114.17 19.7778H112.615V18.2222H114.17V19.7778ZM112.615 24.4444H111.059V22.8889H112.615V24.4444ZM121.95 19.7778H117.283V18.2222H121.95V19.7778ZM117.283 22.8889V24.4444H115.728V19.7778H117.283V21.3333H121.95V19.7778H123.505V22.8889H117.283ZM123.505 26H117.283V24.4444H123.505V26ZM128.177 18.2222H129.732V19.7778H128.177V24.4444H129.732V26H126.621V19.7778H125.065V18.2222H126.621V15.1111H128.177V18.2222Z" fill="black"/>
<defs>
<clipPath id="clip0_474_13273">
<rect width="145" height="41" fill="white"/>
</clipPath>
</defs>
</svg>
