<svg width="195" height="76" viewBox="0 0 195 76" fill="none" xmlns="http://www.w3.org/2000/svg">
<g clip-path="url(#clip0_535_12842)">
<path d="M169 48.7429H164.045V54.2286H169V48.7429Z" fill="black"/>
<path d="M169 43.2572H164.045V48.7429H169V43.2572Z" fill="black"/>
<path d="M169 37.6571H164.045V43.1428H169V37.6571Z" fill="black"/>
<path d="M169 32.1715H164.045V37.6572H169V32.1715Z" fill="black"/>
<path d="M169 26.5714H164.045V32.0571H169V26.5714Z" fill="black"/>
<path d="M169 21.0858H164.045V26.5715H169V21.0858Z" fill="black"/>
<path d="M164.045 54.3429H159.091V59.8286H164.045V54.3429Z" fill="black"/>
<path d="M164.045 48.7429H159.091V54.2286H164.045V48.7429Z" fill="#EB8B8B"/>
<path d="M164.045 43.2572H159.091V48.7429H164.045V43.2572Z" fill="#EB8B8B"/>
<path d="M164.045 37.6571H159.091V43.1428H164.045V37.6571Z" fill="#EB8B8B"/>
<path d="M164.045 32.1715H159.091V37.6572H164.045V32.1715Z" fill="#EB8B8B"/>
<path d="M164.045 26.5714H159.091V32.0571H164.045V26.5714Z" fill="#EB8B8B"/>
<path d="M164.045 21.0858H159.091V26.5715H164.045V21.0858Z" fill="#EB8B8B"/>
<path d="M164.045 15.4856H159.091V20.9713H164.045V15.4856Z" fill="black"/>
<path d="M158.987 59.8285H154.032V65.3142H158.987V59.8285Z" fill="black"/>
<path d="M158.987 54.3429H154.032V59.8286H158.987V54.3429Z" fill="#EB8B8B"/>
<path d="M158.987 48.7429H154.032V54.2286H158.987V48.7429Z" fill="#EB8B8B"/>
<path d="M158.987 43.2572H154.032V48.7429H158.987V43.2572Z" fill="#EFA2A2"/>
<path d="M158.987 37.6571H154.032V43.1428H158.987V37.6571Z" fill="#EFA2A2"/>
<path d="M158.987 32.1715H154.032V37.6572H158.987V32.1715Z" fill="#EFA2A2"/>
<path d="M158.987 26.5714H154.032V32.0571H158.987V26.5714Z" fill="#F8CBC5"/>
<path d="M158.987 21.0858H154.032V26.5715H158.987V21.0858Z" fill="#EB8B8B"/>
<path d="M158.987 15.4856H154.032V20.9713H158.987V15.4856Z" fill="#EB8B8B"/>
<path d="M158.987 10H154.032V15.4857H158.987V10Z" fill="black"/>
<path d="M154.032 59.8285H149.077V65.3142H154.032V59.8285Z" fill="black"/>
<path d="M154.032 54.3429H149.077V59.8286H154.032V54.3429Z" fill="#EB8B8B"/>
<path d="M154.032 48.7429H149.077V54.2286H154.032V48.7429Z" fill="#EFA2A2"/>
<path d="M154.032 43.2572H149.077V48.7429H154.032V43.2572Z" fill="#F1AEAE"/>
<path d="M154.032 37.6571H149.077V43.1428H154.032V37.6571Z" fill="#F1AEAE"/>
<path d="M154.032 32.1715H149.077V37.6572H154.032V32.1715Z" fill="#F1AEAE"/>
<path d="M154.032 26.5714H149.077V32.0571H154.032V26.5714Z" fill="#F1AEAE"/>
<path d="M154.032 21.0858H149.077V26.5715H154.032V21.0858Z" fill="#F8CBC5"/>
<path d="M154.032 15.4856H149.077V20.9713H154.032V15.4856Z" fill="#EB8B8B"/>
<path d="M154.032 10H149.077V15.4857H154.032V10Z" fill="black"/>
<path d="M148.974 59.8285H144.02V65.3142H148.974V59.8285Z" fill="black"/>
<path d="M148.974 54.3429H144.02V59.8286H148.974V54.3429Z" fill="#EB8B8B"/>
<path d="M148.974 48.7429H144.02V54.2286H148.974V48.7429Z" fill="#EFA2A2"/>
<path d="M148.974 43.2572H144.02V48.7429H148.974V43.2572Z" fill="#F1AEAE"/>
<path d="M148.974 37.6571H144.02V43.1428H148.974V37.6571Z" fill="#F1AEAE"/>
<path d="M148.974 32.1715H144.02V37.6572H148.974V32.1715Z" fill="#F1AEAE"/>
<path d="M148.974 26.5714H144.02V32.0571H148.974V26.5714Z" fill="#F1AEAE"/>
<path d="M148.974 21.0858H144.02V26.5715H148.974V21.0858Z" fill="#F8CBC5"/>
<path d="M148.974 15.4856H144.02V20.9713H148.974V15.4856Z" fill="#EB8B8B"/>
<path d="M148.974 10H144.02V15.4857H148.974V10Z" fill="black"/>
<path d="M144.019 59.8285H139.064V65.3142H144.019V59.8285Z" fill="black"/>
<path d="M144.019 54.3429H139.064V59.8286H144.019V54.3429Z" fill="#EB8B8B"/>
<path d="M144.019 48.7429H139.064V54.2286H144.019V48.7429Z" fill="#EFA2A2"/>
<path d="M144.019 43.2572H139.064V48.7429H144.019V43.2572Z" fill="#F1AEAE"/>
<path d="M144.019 37.6571H139.064V43.1428H144.019V37.6571Z" fill="#F1AEAE"/>
<path d="M144.019 32.1715H139.064V37.6572H144.019V32.1715Z" fill="#F1AEAE"/>
<path d="M144.019 26.5714H139.064V32.0571H144.019V26.5714Z" fill="#F1AEAE"/>
<path d="M144.019 21.0858H139.064V26.5715H144.019V21.0858Z" fill="#F8CBC5"/>
<path d="M144.019 15.4856H139.064V20.9713H144.019V15.4856Z" fill="#EB8B8B"/>
<path d="M144.019 10H139.064V15.4857H144.019V10Z" fill="black"/>
<path d="M138.961 59.8285H134.007V65.3142H138.961V59.8285Z" fill="black"/>
<path d="M138.961 54.3429H134.007V59.8286H138.961V54.3429Z" fill="#EB8B8B"/>
<path d="M138.961 48.7429H134.007V54.2286H138.961V48.7429Z" fill="#EFA2A2"/>
<path d="M138.961 43.2572H134.007V48.7429H138.961V43.2572Z" fill="#F1AEAE"/>
<path d="M138.961 37.6571H134.007V43.1428H138.961V37.6571Z" fill="#F1AEAE"/>
<path d="M138.961 32.1715H134.007V37.6572H138.961V32.1715Z" fill="#F1AEAE"/>
<path d="M138.961 26.5714H134.007V32.0571H138.961V26.5714Z" fill="#F1AEAE"/>
<path d="M138.961 21.0858H134.007V26.5715H138.961V21.0858Z" fill="#F8CBC5"/>
<path d="M138.961 15.4856H134.007V20.9713H138.961V15.4856Z" fill="#EB8B8B"/>
<path d="M138.961 10H134.007V15.4857H138.961V10Z" fill="black"/>
<path d="M134.007 59.8285H129.052V65.3142H134.007V59.8285Z" fill="black"/>
<path d="M134.007 54.3429H129.052V59.8286H134.007V54.3429Z" fill="#EB8B8B"/>
<path d="M134.007 48.7429H129.052V54.2286H134.007V48.7429Z" fill="#EFA2A2"/>
<path d="M134.007 43.2572H129.052V48.7429H134.007V43.2572Z" fill="#F1AEAE"/>
<path d="M134.007 37.6571H129.052V43.1428H134.007V37.6571Z" fill="#F1AEAE"/>
<path d="M134.007 32.1715H129.052V37.6572H134.007V32.1715Z" fill="#F1AEAE"/>
<path d="M134.007 26.5714H129.052V32.0571H134.007V26.5714Z" fill="#F1AEAE"/>
<path d="M134.007 21.0858H129.052V26.5715H134.007V21.0858Z" fill="#F8CBC5"/>
<path d="M134.007 15.4856H129.052V20.9713H134.007V15.4856Z" fill="#EB8B8B"/>
<path d="M134.007 10H129.052V15.4857H134.007V10Z" fill="black"/>
<path d="M128.948 59.8285H123.993V65.3142H128.948V59.8285Z" fill="black"/>
<path d="M128.948 54.3429H123.993V59.8286H128.948V54.3429Z" fill="#EB8B8B"/>
<path d="M128.948 48.7429H123.993V54.2286H128.948V48.7429Z" fill="#EFA2A2"/>
<path d="M128.948 43.2572H123.993V48.7429H128.948V43.2572Z" fill="#F1AEAE"/>
<path d="M128.948 37.6571H123.993V43.1428H128.948V37.6571Z" fill="#F1AEAE"/>
<path d="M128.948 32.1715H123.993V37.6572H128.948V32.1715Z" fill="#F1AEAE"/>
<path d="M128.948 26.5714H123.993V32.0571H128.948V26.5714Z" fill="#F1AEAE"/>
<path d="M128.948 21.0858H123.993V26.5715H128.948V21.0858Z" fill="#F8CBC5"/>
<path d="M128.948 15.4856H123.993V20.9713H128.948V15.4856Z" fill="#EB8B8B"/>
<path d="M128.948 10H123.993V15.4857H128.948V10Z" fill="black"/>
<path d="M123.994 59.8285H119.039V65.3142H123.994V59.8285Z" fill="black"/>
<path d="M123.994 54.3429H119.039V59.8286H123.994V54.3429Z" fill="#EB8B8B"/>
<path d="M123.994 48.7429H119.039V54.2286H123.994V48.7429Z" fill="#EFA2A2"/>
<path d="M123.994 43.2572H119.039V48.7429H123.994V43.2572Z" fill="#F1AEAE"/>
<path d="M123.994 37.6571H119.039V43.1428H123.994V37.6571Z" fill="#F1AEAE"/>
<path d="M123.994 32.1715H119.039V37.6572H123.994V32.1715Z" fill="#F1AEAE"/>
<path d="M123.994 26.5714H119.039V32.0571H123.994V26.5714Z" fill="#F1AEAE"/>
<path d="M123.994 21.0858H119.039V26.5715H123.994V21.0858Z" fill="#F8CBC5"/>
<path d="M123.994 15.4856H119.039V20.9713H123.994V15.4856Z" fill="#EB8B8B"/>
<path d="M123.994 10H119.039V15.4857H123.994V10Z" fill="black"/>
<path d="M119.039 59.8285H114.084V65.3142H119.039V59.8285Z" fill="black"/>
<path d="M119.039 54.3429H114.084V59.8286H119.039V54.3429Z" fill="#EB8B8B"/>
<path d="M119.039 48.7429H114.084V54.2286H119.039V48.7429Z" fill="#EFA2A2"/>
<path d="M119.039 43.2572H114.084V48.7429H119.039V43.2572Z" fill="#F1AEAE"/>
<path d="M119.039 37.6571H114.084V43.1428H119.039V37.6571Z" fill="#F1AEAE"/>
<path d="M119.039 32.1715H114.084V37.6572H119.039V32.1715Z" fill="#F1AEAE"/>
<path d="M119.039 26.5714H114.084V32.0571H119.039V26.5714Z" fill="#F1AEAE"/>
<path d="M119.039 21.0858H114.084V26.5715H119.039V21.0858Z" fill="#F8CBC5"/>
<path d="M119.039 15.4856H114.084V20.9713H119.039V15.4856Z" fill="#EB8B8B"/>
<path d="M119.039 10H114.084V15.4857H119.039V10Z" fill="black"/>
<path d="M113.981 59.8285H109.026V65.3142H113.981V59.8285Z" fill="black"/>
<path d="M113.981 54.3429H109.026V59.8286H113.981V54.3429Z" fill="#EB8B8B"/>
<path d="M113.981 48.7429H109.026V54.2286H113.981V48.7429Z" fill="#EFA2A2"/>
<path d="M113.981 43.2572H109.026V48.7429H113.981V43.2572Z" fill="#F1AEAE"/>
<path d="M113.981 37.6571H109.026V43.1428H113.981V37.6571Z" fill="#F1AEAE"/>
<path d="M113.981 32.1715H109.026V37.6572H113.981V32.1715Z" fill="#F1AEAE"/>
<path d="M113.981 26.5714H109.026V32.0571H113.981V26.5714Z" fill="#F1AEAE"/>
<path d="M113.981 21.0858H109.026V26.5715H113.981V21.0858Z" fill="#F8CBC5"/>
<path d="M113.981 15.4856H109.026V20.9713H113.981V15.4856Z" fill="#EB8B8B"/>
<path d="M113.981 10H109.026V15.4857H113.981V10Z" fill="black"/>
<path d="M109.026 59.8285H103.968V65.3142H108.923L109.026 59.8285Z" fill="black"/>
<path d="M109.026 54.3429H103.968V59.8286H108.923L109.026 54.3429Z" fill="#EB8B8B"/>
<path d="M109.026 48.7429H103.968V54.2286H108.923L109.026 48.7429Z" fill="#EFA2A2"/>
<path d="M109.026 43.2572H103.968V48.7429H108.923L109.026 43.2572Z" fill="#F1AEAE"/>
<path d="M109.026 37.6571H103.968V43.1428H108.923L109.026 37.6571Z" fill="#F1AEAE"/>
<path d="M109.026 32.1715H103.968V37.6572H108.923L109.026 32.1715Z" fill="#F1AEAE"/>
<path d="M109.026 26.5714H103.968V32.0571H108.923L109.026 26.5714Z" fill="#F1AEAE"/>
<path d="M109.026 21.0858H103.968V26.5715H108.923L109.026 21.0858Z" fill="#F8CBC5"/>
<path d="M109.026 15.4856H103.968V20.9713H108.923L109.026 15.4856Z" fill="#EB8B8B"/>
<path d="M109.026 10H103.968V15.4857H108.923L109.026 10Z" fill="black"/>
<path d="M103.968 59.8285H99.0129V65.3142H103.968V59.8285Z" fill="black"/>
<path d="M103.968 54.3429H99.0129V59.8286H103.968V54.3429Z" fill="#EB8B8B"/>
<path d="M103.968 48.7429H99.0129V54.2286H103.968V48.7429Z" fill="#EFA2A2"/>
<path d="M103.968 43.2572H99.0129V48.7429H103.968V43.2572Z" fill="#F1AEAE"/>
<path d="M103.968 37.6571H99.0129V43.1428H103.968V37.6571Z" fill="#F1AEAE"/>
<path d="M103.968 32.1715H99.0129V37.6572H103.968V32.1715Z" fill="#F1AEAE"/>
<path d="M103.968 26.5714H99.0129V32.0571H103.968V26.5714Z" fill="#F1AEAE"/>
<path d="M103.968 21.0858H99.0129V26.5715H103.968V21.0858Z" fill="#F8CBC5"/>
<path d="M103.968 15.4856H99.0129V20.9713H103.968V15.4856Z" fill="#EB8B8B"/>
<path d="M103.968 10H99.0129V15.4857H103.968V10Z" fill="black"/>
<path d="M99.0129 59.8285H94.0581V65.3142H99.0129V59.8285Z" fill="black"/>
<path d="M99.0129 54.3429H94.0581V59.8286H99.0129V54.3429Z" fill="#EB8B8B"/>
<path d="M99.0129 48.7429H94.0581V54.2286H99.0129V48.7429Z" fill="#EFA2A2"/>
<path d="M99.0129 43.2572H94.0581V48.7429H99.0129V43.2572Z" fill="#F1AEAE"/>
<path d="M99.0129 37.6571H94.0581V43.1428H99.0129V37.6571Z" fill="#F1AEAE"/>
<path d="M99.0129 32.1715H94.0581V37.6572H99.0129V32.1715Z" fill="#F1AEAE"/>
<path d="M99.0129 26.5714H94.0581V32.0571H99.0129V26.5714Z" fill="#F1AEAE"/>
<path d="M99.0129 21.0858H94.0581V26.5715H99.0129V21.0858Z" fill="#F8CBC5"/>
<path d="M99.0129 15.4856H94.0581V20.9713H99.0129V15.4856Z" fill="#EB8B8B"/>
<path d="M99.0129 10H94.0581V15.4857H99.0129V10Z" fill="black"/>
<path d="M93.9548 59.8285H89V65.3142H93.9548V59.8285Z" fill="black"/>
<path d="M93.9548 54.3429H89V59.8286H93.9548V54.3429Z" fill="#EB8B8B"/>
<path d="M93.9548 48.7429H89V54.2286H93.9548V48.7429Z" fill="#EFA2A2"/>
<path d="M93.9548 43.2572H89V48.7429H93.9548V43.2572Z" fill="#F1AEAE"/>
<path d="M93.9548 37.6571H89V43.1428H93.9548V37.6571Z" fill="#F1AEAE"/>
<path d="M93.9548 32.1715H89V37.6572H93.9548V32.1715Z" fill="#F1AEAE"/>
<path d="M93.9548 26.5714H89V32.0571H93.9548V26.5714Z" fill="#F1AEAE"/>
<path d="M93.9548 21.0858H89V26.5715H93.9548V21.0858Z" fill="#F8CBC5"/>
<path d="M93.9548 15.4856H89V20.9713H93.9548V15.4856Z" fill="#EB8B8B"/>
<path d="M93.9548 10H89V15.4857H93.9548V10Z" fill="black"/>
<path d="M89 59.8285H84.0452V65.3142H89V59.8285Z" fill="black"/>
<path d="M89 54.3429H84.0452V59.8286H89V54.3429Z" fill="#EB8B8B"/>
<path d="M89 48.7429H84.0452V54.2286H89V48.7429Z" fill="#EFA2A2"/>
<path d="M89 43.2572H84.0452V48.7429H89V43.2572Z" fill="#F1AEAE"/>
<path d="M89 37.6571H84.0452V43.1428H89V37.6571Z" fill="#F1AEAE"/>
<path d="M89 32.1715H84.0452V37.6572H89V32.1715Z" fill="#F1AEAE"/>
<path d="M89 26.5714H84.0452V32.0571H89V26.5714Z" fill="#F1AEAE"/>
<path d="M89 21.0858H84.0452V26.5715H89V21.0858Z" fill="#F8CBC5"/>
<path d="M89 15.4856H84.0452V20.9713H89V15.4856Z" fill="#EB8B8B"/>
<path d="M89 10H84.0452V15.4857H89V10Z" fill="black"/>
<path d="M84.0454 59.8285H79.0906V65.3142H84.0454V59.8285Z" fill="black"/>
<path d="M84.0454 54.3429H79.0906V59.8286H84.0454V54.3429Z" fill="#EB8B8B"/>
<path d="M84.0454 48.7429H79.0906V54.2286H84.0454V48.7429Z" fill="#EFA2A2"/>
<path d="M84.0454 43.2572H79.0906V48.7429H84.0454V43.2572Z" fill="#F1AEAE"/>
<path d="M84.0454 37.6571H79.0906V43.1428H84.0454V37.6571Z" fill="#F1AEAE"/>
<path d="M84.0454 32.1715H79.0906V37.6572H84.0454V32.1715Z" fill="#F1AEAE"/>
<path d="M84.0454 26.5714H79.0906V32.0571H84.0454V26.5714Z" fill="#F1AEAE"/>
<path d="M84.0454 21.0858H79.0906V26.5715H84.0454V21.0858Z" fill="#F8CBC5"/>
<path d="M84.0454 15.4856H79.0906V20.9713H84.0454V15.4856Z" fill="#EB8B8B"/>
<path d="M84.0454 10H79.0906V15.4857H84.0454V10Z" fill="black"/>
<path d="M78.9871 59.8285H74.0322V65.3142H78.9871V59.8285Z" fill="black"/>
<path d="M78.9871 54.3429H74.0322V59.8286H78.9871V54.3429Z" fill="#EB8B8B"/>
<path d="M78.9871 48.7429H74.0322V54.2286H78.9871V48.7429Z" fill="#EFA2A2"/>
<path d="M78.9871 43.2572H74.0322V48.7429H78.9871V43.2572Z" fill="#F1AEAE"/>
<path d="M78.9871 37.6571H74.0322V43.1428H78.9871V37.6571Z" fill="#F1AEAE"/>
<path d="M78.9871 32.1715H74.0322V37.6572H78.9871V32.1715Z" fill="#F1AEAE"/>
<path d="M78.9871 26.5714H74.0322V32.0571H78.9871V26.5714Z" fill="#F1AEAE"/>
<path d="M78.9871 21.0858H74.0322V26.5715H78.9871V21.0858Z" fill="#F8CBC5"/>
<path d="M78.9871 15.4856H74.0322V20.9713H78.9871V15.4856Z" fill="#EB8B8B"/>
<path d="M78.9871 10H74.0322V15.4857H78.9871V10Z" fill="black"/>
<path d="M74.0322 59.8285H69.0774V65.3142H74.0322V59.8285Z" fill="black"/>
<path d="M74.0322 54.3429H69.0774V59.8286H74.0322V54.3429Z" fill="#EB8B8B"/>
<path d="M74.0322 48.7429H69.0774V54.2286H74.0322V48.7429Z" fill="#EFA2A2"/>
<path d="M74.0322 43.2572H69.0774V48.7429H74.0322V43.2572Z" fill="#F1AEAE"/>
<path d="M74.0322 37.6571H69.0774V43.1428H74.0322V37.6571Z" fill="#F1AEAE"/>
<path d="M74.0322 32.1715H69.0774V37.6572H74.0322V32.1715Z" fill="#F1AEAE"/>
<path d="M74.0322 26.5714H69.0774V32.0571H74.0322V26.5714Z" fill="#F1AEAE"/>
<path d="M74.0322 21.0858H69.0774V26.5715H74.0322V21.0858Z" fill="#F8CBC5"/>
<path d="M74.0322 15.4856H69.0774V20.9713H74.0322V15.4856Z" fill="#EB8B8B"/>
<path d="M74.0322 10H69.0774V15.4857H74.0322V10Z" fill="black"/>
<path d="M68.9741 59.8285H64.0193V65.3142H68.9741V59.8285Z" fill="black"/>
<path d="M68.9741 54.3429H64.0193V59.8286H68.9741V54.3429Z" fill="#EB8B8B"/>
<path d="M68.9741 48.7429H64.0193V54.2286H68.9741V48.7429Z" fill="#EFA2A2"/>
<path d="M68.9741 43.2572H64.0193V48.7429H68.9741V43.2572Z" fill="#F1AEAE"/>
<path d="M68.9741 37.6571H64.0193V43.1428H68.9741V37.6571Z" fill="#F1AEAE"/>
<path d="M68.9741 32.1715H64.0193V37.6572H68.9741V32.1715Z" fill="#F1AEAE"/>
<path d="M68.9741 26.5714H64.0193V32.0571H68.9741V26.5714Z" fill="#F1AEAE"/>
<path d="M68.9741 21.0858H64.0193V26.5715H68.9741V21.0858Z" fill="#F8CBC5"/>
<path d="M68.9741 15.4856H64.0193V20.9713H68.9741V15.4856Z" fill="#EB8B8B"/>
<path d="M68.9741 10H64.0193V15.4857H68.9741V10Z" fill="black"/>
<path d="M64.0193 59.8285H59.0645V65.3142H64.0193V59.8285Z" fill="black"/>
<path d="M64.0193 54.3429H59.0645V59.8286H64.0193V54.3429Z" fill="#EB8B8B"/>
<path d="M64.0193 48.7429H59.0645V54.2286H64.0193V48.7429Z" fill="#EFA2A2"/>
<path d="M64.0193 43.2572H59.0645V48.7429H64.0193V43.2572Z" fill="#F1AEAE"/>
<path d="M64.0193 37.6571H59.0645V43.1428H64.0193V37.6571Z" fill="#F1AEAE"/>
<path d="M64.0193 32.1715H59.0645V37.6572H64.0193V32.1715Z" fill="#F1AEAE"/>
<path d="M64.0193 26.5714H59.0645V32.0571H64.0193V26.5714Z" fill="#F1AEAE"/>
<path d="M64.0193 21.0858H59.0645V26.5715H64.0193V21.0858Z" fill="#F8CBC5"/>
<path d="M64.0193 15.4856H59.0645V20.9713H64.0193V15.4856Z" fill="#EB8B8B"/>
<path d="M64.0193 10H59.0645V15.4857H64.0193V10Z" fill="black"/>
<path d="M58.9614 59.8285H54.0066V65.3142H58.9614V59.8285Z" fill="black"/>
<path d="M58.9614 54.3429H54.0066V59.8286H58.9614V54.3429Z" fill="#EB8B8B"/>
<path d="M58.9614 48.7429H54.0066V54.2286H58.9614V48.7429Z" fill="#EFA2A2"/>
<path d="M58.9614 43.2572H54.0066V48.7429H58.9614V43.2572Z" fill="#F1AEAE"/>
<path d="M58.9614 37.6571H54.0066V43.1428H58.9614V37.6571Z" fill="#F1AEAE"/>
<path d="M58.9614 32.1715H54.0066V37.6572H58.9614V32.1715Z" fill="#F1AEAE"/>
<path d="M58.9614 26.5714H54.0066V32.0571H58.9614V26.5714Z" fill="#F1AEAE"/>
<path d="M58.9614 21.0858H54.0066V26.5715H58.9614V21.0858Z" fill="#F8CBC5"/>
<path d="M58.9614 15.4856H54.0066V20.9713H58.9614V15.4856Z" fill="#EB8B8B"/>
<path d="M58.9614 10H54.0066V15.4857H58.9614V10Z" fill="black"/>
<path d="M54.0066 59.8285H49.0518V65.3142H54.0066V59.8285Z" fill="black"/>
<path d="M54.0066 54.3429H49.0518V59.8286H54.0066V54.3429Z" fill="#EB8B8B"/>
<path d="M54.0066 48.7429H49.0518V54.2286H54.0066V48.7429Z" fill="#EFA2A2"/>
<path d="M54.0066 43.2572H49.0518V48.7429H54.0066V43.2572Z" fill="#F1AEAE"/>
<path d="M54.0066 37.6571H49.0518V43.1428H54.0066V37.6571Z" fill="#F1AEAE"/>
<path d="M54.0066 32.1715H49.0518V37.6572H54.0066V32.1715Z" fill="#F1AEAE"/>
<path d="M54.0066 26.5714H49.0518V32.0571H54.0066V26.5714Z" fill="#F1AEAE"/>
<path d="M54.0066 21.0858H49.0518V26.5715H54.0066V21.0858Z" fill="#F8CBC5"/>
<path d="M54.0066 15.4856H49.0518V20.9713H54.0066V15.4856Z" fill="#EB8B8B"/>
<path d="M54.0066 10H49.0518V15.4857H54.0066V10Z" fill="black"/>
<path d="M49.0515 59.8285H44.0967V65.3142H49.0515V59.8285Z" fill="black"/>
<path d="M49.0515 54.3429H44.0967V59.8286H49.0515V54.3429Z" fill="#EB8B8B"/>
<path d="M49.0515 48.7429H44.0967V54.2286H49.0515V48.7429Z" fill="#EFA2A2"/>
<path d="M49.0515 43.2572H44.0967V48.7429H49.0515V43.2572Z" fill="#F1AEAE"/>
<path d="M49.0515 37.6571H44.0967V43.1428H49.0515V37.6571Z" fill="#F1AEAE"/>
<path d="M49.0515 32.1715H44.0967V37.6572H49.0515V32.1715Z" fill="#F1AEAE"/>
<path d="M49.0515 26.5714H44.0967V32.0571H49.0515V26.5714Z" fill="#F1AEAE"/>
<path d="M49.0515 21.0858H44.0967V26.5715H49.0515V21.0858Z" fill="#F8CBC5"/>
<path d="M49.0515 15.4856H44.0967V20.9713H49.0515V15.4856Z" fill="#EB8B8B"/>
<path d="M49.0515 10H44.0967V15.4857H49.0515V10Z" fill="black"/>
<path d="M43.9937 59.8285H39.0388V65.3142H43.9937V59.8285Z" fill="black"/>
<path d="M43.9937 54.3429H39.0388V59.8286H43.9937V54.3429Z" fill="#EB8B8B"/>
<path d="M43.9937 48.7429H39.0388V54.2286H43.9937V48.7429Z" fill="#EFA2A2"/>
<path d="M43.9937 43.2572H39.0388V48.7429H43.9937V43.2572Z" fill="#F1AEAE"/>
<path d="M43.9937 37.6571H39.0388V43.1428H43.9937V37.6571Z" fill="#F1AEAE"/>
<path d="M43.9937 32.1715H39.0388V37.6572H43.9937V32.1715Z" fill="#F1AEAE"/>
<path d="M43.9937 26.5714H39.0388V32.0571H43.9937V26.5714Z" fill="#F1AEAE"/>
<path d="M43.9937 21.0858H39.0388V26.5715H43.9937V21.0858Z" fill="#F8CBC5"/>
<path d="M43.9937 15.4856H39.0388V20.9713H43.9937V15.4856Z" fill="#EB8B8B"/>
<path d="M43.9937 10H39.0388V15.4857H43.9937V10Z" fill="black"/>
<path d="M39.0388 59.8285H34.084V65.3142H39.0388V59.8285Z" fill="black"/>
<path d="M39.0388 54.3429H34.084V59.8286H39.0388V54.3429Z" fill="#EB8B8B"/>
<path d="M39.0388 48.7429H34.084V54.2286H39.0388V48.7429Z" fill="#EFA2A2"/>
<path d="M39.0388 43.2572H34.084V48.7429H39.0388V43.2572Z" fill="#F1AEAE"/>
<path d="M39.0388 37.6571H34.084V43.1428H39.0388V37.6571Z" fill="#F1AEAE"/>
<path d="M39.0388 32.1715H34.084V37.6572H39.0388V32.1715Z" fill="#F1AEAE"/>
<path d="M39.0388 26.5714H34.084V32.0571H39.0388V26.5714Z" fill="#F1AEAE"/>
<path d="M39.0388 21.0858H34.084V26.5715H39.0388V21.0858Z" fill="#F8CBC5"/>
<path d="M39.0388 15.4856H34.084V20.9713H39.0388V15.4856Z" fill="#EB8B8B"/>
<path d="M39.0388 10H34.084V15.4857H39.0388V10Z" fill="black"/>
<path d="M33.9807 59.8285H29.0259V65.3142H33.9807V59.8285Z" fill="black"/>
<path d="M33.9807 54.3429H29.0259V59.8286H33.9807V54.3429Z" fill="#EB8B8B"/>
<path d="M33.9807 48.7429H29.0259V54.2286H33.9807V48.7429Z" fill="#EFA2A2"/>
<path d="M33.9807 43.2572H29.0259V48.7429H33.9807V43.2572Z" fill="#F1AEAE"/>
<path d="M33.9807 37.6571H29.0259V43.1428H33.9807V37.6571Z" fill="#F1AEAE"/>
<path d="M33.9807 32.1715H29.0259V37.6572H33.9807V32.1715Z" fill="#F1AEAE"/>
<path d="M33.9807 26.5714H29.0259V32.0571H33.9807V26.5714Z" fill="#F1AEAE"/>
<path d="M33.9807 21.0858H29.0259V26.5715H33.9807V21.0858Z" fill="#F8CBC5"/>
<path d="M33.9807 15.4856H29.0259V20.9713H33.9807V15.4856Z" fill="#EB8B8B"/>
<path d="M33.9807 10H29.0259V15.4857H33.9807V10Z" fill="black"/>
<path d="M29.0259 59.8285H24.071V65.3142H29.0259V59.8285Z" fill="black"/>
<path d="M29.0259 54.3429H24.071V59.8286H29.0259V54.3429Z" fill="#EB8B8B"/>
<path d="M29.0259 48.7429H24.071V54.2286H29.0259V48.7429Z" fill="#EFA2A2"/>
<path d="M29.0259 43.2572H24.071V48.7429H29.0259V43.2572Z" fill="#F1AEAE"/>
<path d="M29.0259 37.6571H24.071V43.1428H29.0259V37.6571Z" fill="#F1AEAE"/>
<path d="M29.0259 32.1715H24.071V37.6572H29.0259V32.1715Z" fill="#F1AEAE"/>
<path d="M29.0259 26.5714H24.071V32.0571H29.0259V26.5714Z" fill="#F1AEAE"/>
<path d="M29.0259 21.0858H24.071V26.5715H29.0259V21.0858Z" fill="#F8CBC5"/>
<path d="M29.0259 15.4856H24.071V20.9713H29.0259V15.4856Z" fill="#EB8B8B"/>
<path d="M29.0259 10H24.071V15.4857H29.0259V10Z" fill="black"/>
<path d="M23.9678 59.8285H19.0129V65.3142H23.9678V59.8285Z" fill="black"/>
<path d="M23.9678 54.3429H19.0129V59.8286H23.9678V54.3429Z" fill="#EB8B8B"/>
<path d="M23.9678 48.7429H19.0129V54.2286H23.9678V48.7429Z" fill="#EB8B8B"/>
<path d="M23.9678 43.2572H19.0129V48.7429H23.9678V43.2572Z" fill="#EFA2A2"/>
<path d="M23.9678 37.6571H19.0129V43.1428H23.9678V37.6571Z" fill="#EFA2A2"/>
<path d="M23.9678 32.1715H19.0129V37.6572H23.9678V32.1715Z" fill="#EFA2A2"/>
<path d="M23.9678 26.5714H19.0129V32.0571H23.9678V26.5714Z" fill="#F8CBC5"/>
<path d="M23.9678 21.0858H19.0129V26.5715H23.9678V21.0858Z" fill="#EB8B8B"/>
<path d="M23.9678 15.4856H19.0129V20.9713H23.9678V15.4856Z" fill="#EB8B8B"/>
<path d="M23.9678 10H19.0129V15.4857H23.9678V10Z" fill="black"/>
<path d="M19.0129 54.3429H13.9548V59.8286H18.9097L19.0129 54.3429Z" fill="black"/>
<path d="M19.0129 48.7429H13.9548V54.2286H18.9097L19.0129 48.7429Z" fill="#EB8B8B"/>
<path d="M19.0129 43.2572H13.9548V48.7429H18.9097L19.0129 43.2572Z" fill="#EB8B8B"/>
<path d="M19.0129 37.6571H13.9548V43.1428H18.9097L19.0129 37.6571Z" fill="#EB8B8B"/>
<path d="M19.0129 32.1715H13.9548V37.6572H18.9097L19.0129 32.1715Z" fill="#EB8B8B"/>
<path d="M19.0129 26.5714H13.9548V32.0571H18.9097L19.0129 26.5714Z" fill="#EB8B8B"/>
<path d="M19.0129 21.0858H13.9548V26.5715H18.9097L19.0129 21.0858Z" fill="#EB8B8B"/>
<path d="M19.0129 15.4856H13.9548V20.9713H18.9097L19.0129 15.4856Z" fill="black"/>
<path d="M13.9548 48.7429H9V54.2286H13.9548V48.7429Z" fill="black"/>
<path d="M13.9548 43.2572H9V48.7429H13.9548V43.2572Z" fill="black"/>
<path d="M13.9548 37.6571H9V43.1428H13.9548V37.6571Z" fill="black"/>
<path d="M13.9548 32.1715H9V37.6572H13.9548V32.1715Z" fill="black"/>
<path d="M13.9548 26.5714H9V32.0571H13.9548V26.5714Z" fill="black"/>
<path d="M13.9548 21.0858H9V26.5715H13.9548V21.0858Z" fill="black"/>
</g>
<path d="M34.9887 43.2222H40.3221V45H33.2109V32.5556H40.3221V34.3333H34.9887V37.8889H40.3221V39.6667H34.9887V43.2222ZM42.0998 43.2222H40.3221V39.6667H42.0998V43.2222ZM42.0998 37.8889H40.3221V34.3333H42.0998V37.8889ZM45.6606 43.2222H43.8828V37.8889H45.6606V43.2222ZM50.9939 39.6667H49.2161V37.8889H50.9939V36.1111H52.7717V45H50.9939V43.2222H49.2161V41.4444H50.9939V39.6667ZM49.2161 45H45.6606V43.2222H49.2161V45ZM49.2161 37.8889H45.6606V36.1111H49.2161V37.8889ZM56.3325 43.2222H54.5547V37.8889H56.3325V43.2222ZM63.4436 37.8889H56.3325V36.1111H63.4436V37.8889ZM63.4436 45H56.3325V43.2222H63.4436V45ZM72.3377 45H70.5599V43.2222H72.3377V45ZM67.0043 41.4444V45H65.2266V32.5556H67.0043V39.6667H68.7821V41.4444H67.0043ZM70.5599 39.6667H68.7821V37.8889H70.5599V39.6667ZM72.3377 37.8889H70.5599V36.1111H72.3377V37.8889ZM70.5599 43.2222H68.7821V41.4444H70.5599V43.2222ZM83.0009 36.1111H84.7786V37.8889H83.0009V43.2222H84.7786V45H81.2231V37.8889H79.4453V36.1111H81.2231V32.5556H83.0009V36.1111ZM88.3325 43.2222H86.5547V37.8889H88.3325V43.2222ZM93.6658 37.8889H88.3325V36.1111H93.6658V37.8889ZM95.4436 43.2222H93.6658V37.8889H95.4436V43.2222ZM93.6658 45H88.3325V43.2222H93.6658V45ZM104.332 43.2222H102.555V34.3333H104.332V43.2222ZM109.666 43.2222V39.6667H106.11V37.8889H111.444V45H104.332V43.2222H109.666ZM109.666 34.3333H104.332V32.5556H109.666V34.3333ZM115.004 43.2222H113.227V37.8889H115.004V43.2222ZM120.338 39.6667H118.56V37.8889H120.338V36.1111H122.115V45H120.338V43.2222H118.56V41.4444H120.338V39.6667ZM118.56 45H115.004V43.2222H118.56V45ZM118.56 37.8889H115.004V36.1111H118.56V37.8889ZM131.01 45H129.232V37.8889H131.01V45ZM129.232 36.1111V37.8889H125.676V45H123.898V36.1111H129.232ZM134.565 37.8889H131.01V36.1111H134.565V37.8889ZM136.343 45H134.565V37.8889H136.343V45ZM145.228 37.8889H139.895V36.1111H145.228V37.8889ZM139.895 41.4444V43.2222H138.117V37.8889H139.895V39.6667H145.228V37.8889H147.006V41.4444H139.895ZM147.006 45H139.895V43.2222H147.006V45Z" fill="black"/>
<defs>
<clipPath id="clip0_535_12842">
<rect width="160" height="56" fill="white" transform="translate(9 10)"/>
</clipPath>
</defs>
</svg>
