<svg width="50" height="50" viewBox="0 0 50 50" fill="none" xmlns="http://www.w3.org/2000/svg">
<path d="M50 19.0469H47.625V30.9531H50V19.0469Z" fill="#6DBDE5"/>
<path d="M47.625 30.9531H45.2344V35.7188H47.625V30.9531Z" fill="#6DBDE5"/>
<path d="M47.625 14.2812H45.2344V19.0469H47.625V14.2812Z" fill="#6DBDE5"/>
<path d="M45.2344 35.7188H42.8594V40.4687H45.2344V35.7188Z" fill="#6DBDE5"/>
<path d="M45.2344 9.51562H42.8594V14.2813H45.2344V9.51562Z" fill="#6DBDE5"/>
<path d="M42.8594 40.4688H40.4688V42.8594H42.8594V40.4688Z" fill="#6DBDE5"/>
<path d="M42.8594 7.14062H40.4688V9.51562H42.8594V7.14062Z" fill="#6DBDE5"/>
<path d="M40.4687 42.8594H35.7188V45.2344H40.4687V42.8594Z" fill="#6DBDE5"/>
<path d="M38.0937 19.0469H35.7188V16.6719H21.4219V11.9062H19.0469V14.2813H16.6719V16.6719H14.2813V19.0469H11.9062V21.4219H9.51562V23.8125H11.9062V26.1875H14.2813V28.5781H16.6719V30.9531H19.0469V33.3281H21.4219V28.5781H30.9531V30.9531H33.3281V33.3281H30.9531V35.7188H28.5781V38.0937H33.3281V35.7188H38.0937V33.3281H40.4688V21.4219H38.0937V19.0469Z" fill="#6DBDE5"/>
<path d="M40.4687 4.76562H35.7188V7.14063H40.4687V4.76562Z" fill="#6DBDE5"/>
<path d="M35.7188 45.2344H30.9531V47.625H35.7188V45.2344Z" fill="#6DBDE5"/>
<path d="M35.7188 2.375H30.9531V4.76563H35.7188V2.375Z" fill="#6DBDE5"/>
<path d="M30.9531 47.625H19.0469V50H30.9531V47.625Z" fill="#6DBDE5"/>
<path d="M30.9531 0H19.0469V2.375H30.9531V0Z" fill="#6DBDE5"/>
<path d="M19.0469 45.2344H14.2812V47.625H19.0469V45.2344Z" fill="#6DBDE5"/>
<path d="M19.0469 2.375H14.2812V4.76563H19.0469V2.375Z" fill="#6DBDE5"/>
<path d="M14.2813 42.8594H9.51562V45.2344H14.2813V42.8594Z" fill="#6DBDE5"/>
<path d="M14.2813 4.76562H9.51562V7.14063H14.2813V4.76562Z" fill="#6DBDE5"/>
<path d="M9.51562 40.4688H7.14062V42.8594H9.51562V40.4688Z" fill="#6DBDE5"/>
<path d="M9.51562 7.14062H7.14062V9.51562H9.51562V7.14062Z" fill="#6DBDE5"/>
<path d="M7.14063 35.7188H4.76562V40.4687H7.14063V35.7188Z" fill="#6DBDE5"/>
<path d="M7.14063 9.51562H4.76562V14.2813H7.14063V9.51562Z" fill="#6DBDE5"/>
<path d="M4.76563 30.9531H2.375V35.7188H4.76563V30.9531Z" fill="#6DBDE5"/>
<path d="M4.76563 14.2812H2.375V19.0469H4.76563V14.2812Z" fill="#6DBDE5"/>
<path d="M2.375 19.0469H0V30.9531H2.375V19.0469Z" fill="#6DBDE5"/>
</svg>
