<svg width="89" height="28" viewBox="0 0 89 28" fill="none" xmlns="http://www.w3.org/2000/svg">
<g clip-path="url(#clip0_309_5515)">
<path d="M88.5715 19.3715H85.8286V22.1143H88.5715V19.3715Z" fill="black"/>
<path d="M88.5715 16.6286H85.8286V19.3715H88.5715V16.6286Z" fill="black"/>
<path d="M88.5715 13.8286H85.8286V16.5714H88.5715V13.8286Z" fill="black"/>
<path d="M88.5715 11.0857H85.8286V13.8286H88.5715V11.0857Z" fill="black"/>
<path d="M88.5715 8.28571H85.8286V11.0286H88.5715V8.28571Z" fill="black"/>
<path d="M88.5715 5.54285H85.8286V8.2857H88.5715V5.54285Z" fill="black"/>
<path d="M85.8286 22.1714H83.0857V24.9143H85.8286V22.1714Z" fill="black"/>
<path d="M85.8286 19.3715H83.0857V22.1143H85.8286V19.3715Z" fill="#EB8B8B"/>
<path d="M85.8286 16.6286H83.0857V19.3715H85.8286V16.6286Z" fill="#EB8B8B"/>
<path d="M85.8286 13.8286H83.0857V16.5714H85.8286V13.8286Z" fill="#EB8B8B"/>
<path d="M85.8286 11.0857H83.0857V13.8286H85.8286V11.0857Z" fill="#EB8B8B"/>
<path d="M85.8286 8.28571H83.0857V11.0286H85.8286V8.28571Z" fill="#EB8B8B"/>
<path d="M85.8286 5.54285H83.0857V8.2857H85.8286V5.54285Z" fill="#EB8B8B"/>
<path d="M85.8286 2.74286H83.0857V5.48572H85.8286V2.74286Z" fill="black"/>
<path d="M83.0286 24.9143H80.2858V27.6572H83.0286V24.9143Z" fill="black"/>
<path d="M83.0286 22.1714H80.2858V24.9143H83.0286V22.1714Z" fill="#EB8B8B"/>
<path d="M83.0286 19.3715H80.2858V22.1143H83.0286V19.3715Z" fill="#EB8B8B"/>
<path d="M83.0286 16.6286H80.2858V19.3715H83.0286V16.6286Z" fill="#EFA2A2"/>
<path d="M83.0286 13.8286H80.2858V16.5714H83.0286V13.8286Z" fill="#EFA2A2"/>
<path d="M83.0286 11.0857H80.2858V13.8286H83.0286V11.0857Z" fill="#EFA2A2"/>
<path d="M83.0286 8.28571H80.2858V11.0286H83.0286V8.28571Z" fill="#F8CBC5"/>
<path d="M83.0286 5.54285H80.2858V8.2857H83.0286V5.54285Z" fill="#EB8B8B"/>
<path d="M83.0286 2.74286H80.2858V5.48572H83.0286V2.74286Z" fill="#EB8B8B"/>
<path d="M83.0286 0H80.2858V2.74286H83.0286V0Z" fill="black"/>
<path d="M80.2857 24.9143H77.5428V27.6572H80.2857V24.9143Z" fill="black"/>
<path d="M80.2857 22.1714H77.5428V24.9143H80.2857V22.1714Z" fill="#EB8B8B"/>
<path d="M80.2857 19.3715H77.5428V22.1143H80.2857V19.3715Z" fill="#EFA2A2"/>
<path d="M80.2857 16.6286H77.5428V19.3715H80.2857V16.6286Z" fill="#F1AEAE"/>
<path d="M80.2857 13.8286H77.5428V16.5714H80.2857V13.8286Z" fill="#F1AEAE"/>
<path d="M80.2857 11.0857H77.5428V13.8286H80.2857V11.0857Z" fill="#F1AEAE"/>
<path d="M80.2857 8.28571H77.5428V11.0286H80.2857V8.28571Z" fill="#F1AEAE"/>
<path d="M80.2857 5.54285H77.5428V8.2857H80.2857V5.54285Z" fill="#F8CBC5"/>
<path d="M80.2857 2.74286H77.5428V5.48572H80.2857V2.74286Z" fill="#EB8B8B"/>
<path d="M80.2857 0H77.5428V2.74286H80.2857V0Z" fill="black"/>
<path d="M77.4858 24.9143H74.7429V27.6572H77.4858V24.9143Z" fill="black"/>
<path d="M77.4858 22.1714H74.7429V24.9143H77.4858V22.1714Z" fill="#EB8B8B"/>
<path d="M77.4858 19.3715H74.7429V22.1143H77.4858V19.3715Z" fill="#EFA2A2"/>
<path d="M77.4858 16.6286H74.7429V19.3715H77.4858V16.6286Z" fill="#F1AEAE"/>
<path d="M77.4858 13.8286H74.7429V16.5714H77.4858V13.8286Z" fill="#F1AEAE"/>
<path d="M77.4858 11.0857H74.7429V13.8286H77.4858V11.0857Z" fill="#F1AEAE"/>
<path d="M77.4858 8.28571H74.7429V11.0286H77.4858V8.28571Z" fill="#F1AEAE"/>
<path d="M77.4858 5.54285H74.7429V8.2857H77.4858V5.54285Z" fill="#F8CBC5"/>
<path d="M77.4858 2.74286H74.7429V5.48572H77.4858V2.74286Z" fill="#EB8B8B"/>
<path d="M77.4858 0H74.7429V2.74286H77.4858V0Z" fill="black"/>
<path d="M74.7429 24.9143H72V27.6572H74.7429V24.9143Z" fill="black"/>
<path d="M74.7429 22.1714H72V24.9143H74.7429V22.1714Z" fill="#EB8B8B"/>
<path d="M74.7429 19.3715H72V22.1143H74.7429V19.3715Z" fill="#EFA2A2"/>
<path d="M74.7429 16.6286H72V19.3715H74.7429V16.6286Z" fill="#F1AEAE"/>
<path d="M74.7429 13.8286H72V16.5714H74.7429V13.8286Z" fill="#F1AEAE"/>
<path d="M74.7429 11.0857H72V13.8286H74.7429V11.0857Z" fill="#F1AEAE"/>
<path d="M74.7429 8.28571H72V11.0286H74.7429V8.28571Z" fill="#F1AEAE"/>
<path d="M74.7429 5.54285H72V8.2857H74.7429V5.54285Z" fill="#F8CBC5"/>
<path d="M74.7429 2.74286H72V5.48572H74.7429V2.74286Z" fill="#EB8B8B"/>
<path d="M74.7429 0H72V2.74286H74.7429V0Z" fill="black"/>
<path d="M71.9428 24.9143H69.2V27.6572H71.9428V24.9143Z" fill="black"/>
<path d="M71.9428 22.1714H69.2V24.9143H71.9428V22.1714Z" fill="#EB8B8B"/>
<path d="M71.9428 19.3715H69.2V22.1143H71.9428V19.3715Z" fill="#EFA2A2"/>
<path d="M71.9428 16.6286H69.2V19.3715H71.9428V16.6286Z" fill="#F1AEAE"/>
<path d="M71.9428 13.8286H69.2V16.5714H71.9428V13.8286Z" fill="#F1AEAE"/>
<path d="M71.9428 11.0857H69.2V13.8286H71.9428V11.0857Z" fill="#F1AEAE"/>
<path d="M71.9428 8.28571H69.2V11.0286H71.9428V8.28571Z" fill="#F1AEAE"/>
<path d="M71.9428 5.54285H69.2V8.2857H71.9428V5.54285Z" fill="#F8CBC5"/>
<path d="M71.9428 2.74286H69.2V5.48572H71.9428V2.74286Z" fill="#EB8B8B"/>
<path d="M71.9428 0H69.2V2.74286H71.9428V0Z" fill="black"/>
<path d="M69.2 24.9143H66.4572V27.6572H69.2V24.9143Z" fill="black"/>
<path d="M69.2 22.1714H66.4572V24.9143H69.2V22.1714Z" fill="#EB8B8B"/>
<path d="M69.2 19.3715H66.4572V22.1143H69.2V19.3715Z" fill="#EFA2A2"/>
<path d="M69.2 16.6286H66.4572V19.3715H69.2V16.6286Z" fill="#F1AEAE"/>
<path d="M69.2 13.8286H66.4572V16.5714H69.2V13.8286Z" fill="#F1AEAE"/>
<path d="M69.2 11.0857H66.4572V13.8286H69.2V11.0857Z" fill="#F1AEAE"/>
<path d="M69.2 8.28571H66.4572V11.0286H69.2V8.28571Z" fill="#F1AEAE"/>
<path d="M69.2 5.54285H66.4572V8.2857H69.2V5.54285Z" fill="#F8CBC5"/>
<path d="M69.2 2.74286H66.4572V5.48572H69.2V2.74286Z" fill="#EB8B8B"/>
<path d="M69.2 0H66.4572V2.74286H69.2V0Z" fill="black"/>
<path d="M66.4 24.9143H63.6571V27.6572H66.4V24.9143Z" fill="black"/>
<path d="M66.4 22.1714H63.6571V24.9143H66.4V22.1714Z" fill="#EB8B8B"/>
<path d="M66.4 19.3715H63.6571V22.1143H66.4V19.3715Z" fill="#EFA2A2"/>
<path d="M66.4 16.6286H63.6571V19.3715H66.4V16.6286Z" fill="#F1AEAE"/>
<path d="M66.4 13.8286H63.6571V16.5714H66.4V13.8286Z" fill="#F1AEAE"/>
<path d="M66.4 11.0857H63.6571V13.8286H66.4V11.0857Z" fill="#F1AEAE"/>
<path d="M66.4 8.28571H63.6571V11.0286H66.4V8.28571Z" fill="#F1AEAE"/>
<path d="M66.4 5.54285H63.6571V8.2857H66.4V5.54285Z" fill="#F8CBC5"/>
<path d="M66.4 2.74286H63.6571V5.48572H66.4V2.74286Z" fill="#EB8B8B"/>
<path d="M66.4 0H63.6571V2.74286H66.4V0Z" fill="black"/>
<path d="M63.6572 24.9143H60.9143V27.6572H63.6572V24.9143Z" fill="black"/>
<path d="M63.6572 22.1714H60.9143V24.9143H63.6572V22.1714Z" fill="#EB8B8B"/>
<path d="M63.6572 19.3715H60.9143V22.1143H63.6572V19.3715Z" fill="#EFA2A2"/>
<path d="M63.6572 16.6286H60.9143V19.3715H63.6572V16.6286Z" fill="#F1AEAE"/>
<path d="M63.6572 13.8286H60.9143V16.5714H63.6572V13.8286Z" fill="#F1AEAE"/>
<path d="M63.6572 11.0857H60.9143V13.8286H63.6572V11.0857Z" fill="#F1AEAE"/>
<path d="M63.6572 8.28571H60.9143V11.0286H63.6572V8.28571Z" fill="#F1AEAE"/>
<path d="M63.6572 5.54285H60.9143V8.2857H63.6572V5.54285Z" fill="#F8CBC5"/>
<path d="M63.6572 2.74286H60.9143V5.48572H63.6572V2.74286Z" fill="#EB8B8B"/>
<path d="M63.6572 0H60.9143V2.74286H63.6572V0Z" fill="black"/>
<path d="M60.9142 24.9143H58.1714V27.6572H60.9142V24.9143Z" fill="black"/>
<path d="M60.9142 22.1714H58.1714V24.9143H60.9142V22.1714Z" fill="#EB8B8B"/>
<path d="M60.9142 19.3715H58.1714V22.1143H60.9142V19.3715Z" fill="#EFA2A2"/>
<path d="M60.9142 16.6286H58.1714V19.3715H60.9142V16.6286Z" fill="#F1AEAE"/>
<path d="M60.9142 13.8286H58.1714V16.5714H60.9142V13.8286Z" fill="#F1AEAE"/>
<path d="M60.9142 11.0857H58.1714V13.8286H60.9142V11.0857Z" fill="#F1AEAE"/>
<path d="M60.9142 8.28571H58.1714V11.0286H60.9142V8.28571Z" fill="#F1AEAE"/>
<path d="M60.9142 5.54285H58.1714V8.2857H60.9142V5.54285Z" fill="#F8CBC5"/>
<path d="M60.9142 2.74286H58.1714V5.48572H60.9142V2.74286Z" fill="#EB8B8B"/>
<path d="M60.9142 0H58.1714V2.74286H60.9142V0Z" fill="black"/>
<path d="M58.1143 24.9143H55.3715V27.6572H58.1143V24.9143Z" fill="black"/>
<path d="M58.1143 22.1714H55.3715V24.9143H58.1143V22.1714Z" fill="#EB8B8B"/>
<path d="M58.1143 19.3715H55.3715V22.1143H58.1143V19.3715Z" fill="#EFA2A2"/>
<path d="M58.1143 16.6286H55.3715V19.3715H58.1143V16.6286Z" fill="#F1AEAE"/>
<path d="M58.1143 13.8286H55.3715V16.5714H58.1143V13.8286Z" fill="#F1AEAE"/>
<path d="M58.1143 11.0857H55.3715V13.8286H58.1143V11.0857Z" fill="#F1AEAE"/>
<path d="M58.1143 8.28571H55.3715V11.0286H58.1143V8.28571Z" fill="#F1AEAE"/>
<path d="M58.1143 5.54285H55.3715V8.2857H58.1143V5.54285Z" fill="#F8CBC5"/>
<path d="M58.1143 2.74286H55.3715V5.48572H58.1143V2.74286Z" fill="#EB8B8B"/>
<path d="M58.1143 0H55.3715V2.74286H58.1143V0Z" fill="black"/>
<path d="M55.3714 24.9143H52.5714V27.6572H55.3143L55.3714 24.9143Z" fill="black"/>
<path d="M55.3714 22.1714H52.5714V24.9143H55.3143L55.3714 22.1714Z" fill="#EB8B8B"/>
<path d="M55.3714 19.3715H52.5714V22.1143H55.3143L55.3714 19.3715Z" fill="#EFA2A2"/>
<path d="M55.3714 16.6286H52.5714V19.3715H55.3143L55.3714 16.6286Z" fill="#F1AEAE"/>
<path d="M55.3714 13.8286H52.5714V16.5714H55.3143L55.3714 13.8286Z" fill="#F1AEAE"/>
<path d="M55.3714 11.0857H52.5714V13.8286H55.3143L55.3714 11.0857Z" fill="#F1AEAE"/>
<path d="M55.3714 8.28571H52.5714V11.0286H55.3143L55.3714 8.28571Z" fill="#F1AEAE"/>
<path d="M55.3714 5.54285H52.5714V8.2857H55.3143L55.3714 5.54285Z" fill="#F8CBC5"/>
<path d="M55.3714 2.74286H52.5714V5.48572H55.3143L55.3714 2.74286Z" fill="#EB8B8B"/>
<path d="M55.3714 0H52.5714V2.74286H55.3143L55.3714 0Z" fill="black"/>
<path d="M52.5715 24.9143H49.8286V27.6572H52.5715V24.9143Z" fill="black"/>
<path d="M52.5715 22.1714H49.8286V24.9143H52.5715V22.1714Z" fill="#EB8B8B"/>
<path d="M52.5715 19.3715H49.8286V22.1143H52.5715V19.3715Z" fill="#EFA2A2"/>
<path d="M52.5715 16.6286H49.8286V19.3715H52.5715V16.6286Z" fill="#F1AEAE"/>
<path d="M52.5715 13.8286H49.8286V16.5714H52.5715V13.8286Z" fill="#F1AEAE"/>
<path d="M52.5715 11.0857H49.8286V13.8286H52.5715V11.0857Z" fill="#F1AEAE"/>
<path d="M52.5715 8.28571H49.8286V11.0286H52.5715V8.28571Z" fill="#F1AEAE"/>
<path d="M52.5715 5.54285H49.8286V8.2857H52.5715V5.54285Z" fill="#F8CBC5"/>
<path d="M52.5715 2.74286H49.8286V5.48572H52.5715V2.74286Z" fill="#EB8B8B"/>
<path d="M52.5715 0H49.8286V2.74286H52.5715V0Z" fill="black"/>
<path d="M49.8285 24.9143H47.0857V27.6572H49.8285V24.9143Z" fill="black"/>
<path d="M49.8285 22.1714H47.0857V24.9143H49.8285V22.1714Z" fill="#EB8B8B"/>
<path d="M49.8285 19.3715H47.0857V22.1143H49.8285V19.3715Z" fill="#EFA2A2"/>
<path d="M49.8285 16.6286H47.0857V19.3715H49.8285V16.6286Z" fill="#F1AEAE"/>
<path d="M49.8285 13.8286H47.0857V16.5714H49.8285V13.8286Z" fill="#F1AEAE"/>
<path d="M49.8285 11.0857H47.0857V13.8286H49.8285V11.0857Z" fill="#F1AEAE"/>
<path d="M49.8285 8.28571H47.0857V11.0286H49.8285V8.28571Z" fill="#F1AEAE"/>
<path d="M49.8285 5.54285H47.0857V8.2857H49.8285V5.54285Z" fill="#F8CBC5"/>
<path d="M49.8285 2.74286H47.0857V5.48572H49.8285V2.74286Z" fill="#EB8B8B"/>
<path d="M49.8285 0H47.0857V2.74286H49.8285V0Z" fill="black"/>
<path d="M47.0286 24.9143H44.2858V27.6572H47.0286V24.9143Z" fill="black"/>
<path d="M47.0286 22.1714H44.2858V24.9143H47.0286V22.1714Z" fill="#EB8B8B"/>
<path d="M47.0286 19.3715H44.2858V22.1143H47.0286V19.3715Z" fill="#EFA2A2"/>
<path d="M47.0286 16.6286H44.2858V19.3715H47.0286V16.6286Z" fill="#F1AEAE"/>
<path d="M47.0286 13.8286H44.2858V16.5714H47.0286V13.8286Z" fill="#F1AEAE"/>
<path d="M47.0286 11.0857H44.2858V13.8286H47.0286V11.0857Z" fill="#F1AEAE"/>
<path d="M47.0286 8.28571H44.2858V11.0286H47.0286V8.28571Z" fill="#F1AEAE"/>
<path d="M47.0286 5.54285H44.2858V8.2857H47.0286V5.54285Z" fill="#F8CBC5"/>
<path d="M47.0286 2.74286H44.2858V5.48572H47.0286V2.74286Z" fill="#EB8B8B"/>
<path d="M47.0286 0H44.2858V2.74286H47.0286V0Z" fill="black"/>
<path d="M44.2857 24.9143H41.5428V27.6572H44.2857V24.9143Z" fill="black"/>
<path d="M44.2857 22.1714H41.5428V24.9143H44.2857V22.1714Z" fill="#EB8B8B"/>
<path d="M44.2857 19.3715H41.5428V22.1143H44.2857V19.3715Z" fill="#EFA2A2"/>
<path d="M44.2857 16.6286H41.5428V19.3715H44.2857V16.6286Z" fill="#F1AEAE"/>
<path d="M44.2857 13.8286H41.5428V16.5714H44.2857V13.8286Z" fill="#F1AEAE"/>
<path d="M44.2857 11.0857H41.5428V13.8286H44.2857V11.0857Z" fill="#F1AEAE"/>
<path d="M44.2857 8.28571H41.5428V11.0286H44.2857V8.28571Z" fill="#F1AEAE"/>
<path d="M44.2857 5.54285H41.5428V8.2857H44.2857V5.54285Z" fill="#F8CBC5"/>
<path d="M44.2857 2.74286H41.5428V5.48572H44.2857V2.74286Z" fill="#EB8B8B"/>
<path d="M44.2857 0H41.5428V2.74286H44.2857V0Z" fill="black"/>
<path d="M41.5429 24.9143H38.8V27.6572H41.5429V24.9143Z" fill="black"/>
<path d="M41.5429 22.1714H38.8V24.9143H41.5429V22.1714Z" fill="#EB8B8B"/>
<path d="M41.5429 19.3715H38.8V22.1143H41.5429V19.3715Z" fill="#EFA2A2"/>
<path d="M41.5429 16.6286H38.8V19.3715H41.5429V16.6286Z" fill="#F1AEAE"/>
<path d="M41.5429 13.8286H38.8V16.5714H41.5429V13.8286Z" fill="#F1AEAE"/>
<path d="M41.5429 11.0857H38.8V13.8286H41.5429V11.0857Z" fill="#F1AEAE"/>
<path d="M41.5429 8.28571H38.8V11.0286H41.5429V8.28571Z" fill="#F1AEAE"/>
<path d="M41.5429 5.54285H38.8V8.2857H41.5429V5.54285Z" fill="#F8CBC5"/>
<path d="M41.5429 2.74286H38.8V5.48572H41.5429V2.74286Z" fill="#EB8B8B"/>
<path d="M41.5429 0H38.8V2.74286H41.5429V0Z" fill="black"/>
<path d="M38.7429 24.9143H36V27.6572H38.7429V24.9143Z" fill="black"/>
<path d="M38.7429 22.1714H36V24.9143H38.7429V22.1714Z" fill="#EB8B8B"/>
<path d="M38.7429 19.3715H36V22.1143H38.7429V19.3715Z" fill="#EFA2A2"/>
<path d="M38.7429 16.6286H36V19.3715H38.7429V16.6286Z" fill="#F1AEAE"/>
<path d="M38.7429 13.8286H36V16.5714H38.7429V13.8286Z" fill="#F1AEAE"/>
<path d="M38.7429 11.0857H36V13.8286H38.7429V11.0857Z" fill="#F1AEAE"/>
<path d="M38.7429 8.28571H36V11.0286H38.7429V8.28571Z" fill="#F1AEAE"/>
<path d="M38.7429 5.54285H36V8.2857H38.7429V5.54285Z" fill="#F8CBC5"/>
<path d="M38.7429 2.74286H36V5.48572H38.7429V2.74286Z" fill="#EB8B8B"/>
<path d="M38.7429 0H36V2.74286H38.7429V0Z" fill="black"/>
<path d="M35.9999 24.9143H33.2571V27.6572H35.9999V24.9143Z" fill="black"/>
<path d="M35.9999 22.1714H33.2571V24.9143H35.9999V22.1714Z" fill="#EB8B8B"/>
<path d="M35.9999 19.3715H33.2571V22.1143H35.9999V19.3715Z" fill="#EFA2A2"/>
<path d="M35.9999 16.6286H33.2571V19.3715H35.9999V16.6286Z" fill="#F1AEAE"/>
<path d="M35.9999 13.8286H33.2571V16.5714H35.9999V13.8286Z" fill="#F1AEAE"/>
<path d="M35.9999 11.0857H33.2571V13.8286H35.9999V11.0857Z" fill="#F1AEAE"/>
<path d="M35.9999 8.28571H33.2571V11.0286H35.9999V8.28571Z" fill="#F1AEAE"/>
<path d="M35.9999 5.54285H33.2571V8.2857H35.9999V5.54285Z" fill="#F8CBC5"/>
<path d="M35.9999 2.74286H33.2571V5.48572H35.9999V2.74286Z" fill="#EB8B8B"/>
<path d="M35.9999 0H33.2571V2.74286H35.9999V0Z" fill="black"/>
<path d="M33.2 24.9143H30.4572V27.6572H33.2V24.9143Z" fill="black"/>
<path d="M33.2 22.1714H30.4572V24.9143H33.2V22.1714Z" fill="#EB8B8B"/>
<path d="M33.2 19.3715H30.4572V22.1143H33.2V19.3715Z" fill="#EFA2A2"/>
<path d="M33.2 16.6286H30.4572V19.3715H33.2V16.6286Z" fill="#F1AEAE"/>
<path d="M33.2 13.8286H30.4572V16.5714H33.2V13.8286Z" fill="#F1AEAE"/>
<path d="M33.2 11.0857H30.4572V13.8286H33.2V11.0857Z" fill="#F1AEAE"/>
<path d="M33.2 8.28571H30.4572V11.0286H33.2V8.28571Z" fill="#F1AEAE"/>
<path d="M33.2 5.54285H30.4572V8.2857H33.2V5.54285Z" fill="#F8CBC5"/>
<path d="M33.2 2.74286H30.4572V5.48572H33.2V2.74286Z" fill="#EB8B8B"/>
<path d="M33.2 0H30.4572V2.74286H33.2V0Z" fill="black"/>
<path d="M30.4571 24.9143H27.7142V27.6572H30.4571V24.9143Z" fill="black"/>
<path d="M30.4571 22.1714H27.7142V24.9143H30.4571V22.1714Z" fill="#EB8B8B"/>
<path d="M30.4571 19.3715H27.7142V22.1143H30.4571V19.3715Z" fill="#EFA2A2"/>
<path d="M30.4571 16.6286H27.7142V19.3715H30.4571V16.6286Z" fill="#F1AEAE"/>
<path d="M30.4571 13.8286H27.7142V16.5714H30.4571V13.8286Z" fill="#F1AEAE"/>
<path d="M30.4571 11.0857H27.7142V13.8286H30.4571V11.0857Z" fill="#F1AEAE"/>
<path d="M30.4571 8.28571H27.7142V11.0286H30.4571V8.28571Z" fill="#F1AEAE"/>
<path d="M30.4571 5.54285H27.7142V8.2857H30.4571V5.54285Z" fill="#F8CBC5"/>
<path d="M30.4571 2.74286H27.7142V5.48572H30.4571V2.74286Z" fill="#EB8B8B"/>
<path d="M30.4571 0H27.7142V2.74286H30.4571V0Z" fill="black"/>
<path d="M27.6572 24.9143H24.9143V27.6572H27.6572V24.9143Z" fill="black"/>
<path d="M27.6572 22.1714H24.9143V24.9143H27.6572V22.1714Z" fill="#EB8B8B"/>
<path d="M27.6572 19.3715H24.9143V22.1143H27.6572V19.3715Z" fill="#EFA2A2"/>
<path d="M27.6572 16.6286H24.9143V19.3715H27.6572V16.6286Z" fill="#F1AEAE"/>
<path d="M27.6572 13.8286H24.9143V16.5714H27.6572V13.8286Z" fill="#F1AEAE"/>
<path d="M27.6572 11.0857H24.9143V13.8286H27.6572V11.0857Z" fill="#F1AEAE"/>
<path d="M27.6572 8.28571H24.9143V11.0286H27.6572V8.28571Z" fill="#F1AEAE"/>
<path d="M27.6572 5.54285H24.9143V8.2857H27.6572V5.54285Z" fill="#F8CBC5"/>
<path d="M27.6572 2.74286H24.9143V5.48572H27.6572V2.74286Z" fill="#EB8B8B"/>
<path d="M27.6572 0H24.9143V2.74286H27.6572V0Z" fill="black"/>
<path d="M24.9142 24.9143H22.1714V27.6572H24.9142V24.9143Z" fill="black"/>
<path d="M24.9142 22.1714H22.1714V24.9143H24.9142V22.1714Z" fill="#EB8B8B"/>
<path d="M24.9142 19.3715H22.1714V22.1143H24.9142V19.3715Z" fill="#EFA2A2"/>
<path d="M24.9142 16.6286H22.1714V19.3715H24.9142V16.6286Z" fill="#F1AEAE"/>
<path d="M24.9142 13.8286H22.1714V16.5714H24.9142V13.8286Z" fill="#F1AEAE"/>
<path d="M24.9142 11.0857H22.1714V13.8286H24.9142V11.0857Z" fill="#F1AEAE"/>
<path d="M24.9142 8.28571H22.1714V11.0286H24.9142V8.28571Z" fill="#F1AEAE"/>
<path d="M24.9142 5.54285H22.1714V8.2857H24.9142V5.54285Z" fill="#F8CBC5"/>
<path d="M24.9142 2.74286H22.1714V5.48572H24.9142V2.74286Z" fill="#EB8B8B"/>
<path d="M24.9142 0H22.1714V2.74286H24.9142V0Z" fill="black"/>
<path d="M22.1714 24.9143H19.4286V27.6572H22.1714V24.9143Z" fill="black"/>
<path d="M22.1714 22.1714H19.4286V24.9143H22.1714V22.1714Z" fill="#EB8B8B"/>
<path d="M22.1714 19.3715H19.4286V22.1143H22.1714V19.3715Z" fill="#EFA2A2"/>
<path d="M22.1714 16.6286H19.4286V19.3715H22.1714V16.6286Z" fill="#F1AEAE"/>
<path d="M22.1714 13.8286H19.4286V16.5714H22.1714V13.8286Z" fill="#F1AEAE"/>
<path d="M22.1714 11.0857H19.4286V13.8286H22.1714V11.0857Z" fill="#F1AEAE"/>
<path d="M22.1714 8.28571H19.4286V11.0286H22.1714V8.28571Z" fill="#F1AEAE"/>
<path d="M22.1714 5.54285H19.4286V8.2857H22.1714V5.54285Z" fill="#F8CBC5"/>
<path d="M22.1714 2.74286H19.4286V5.48572H22.1714V2.74286Z" fill="#EB8B8B"/>
<path d="M22.1714 0H19.4286V2.74286H22.1714V0Z" fill="black"/>
<path d="M19.3714 24.9143H16.6285V27.6572H19.3714V24.9143Z" fill="black"/>
<path d="M19.3714 22.1714H16.6285V24.9143H19.3714V22.1714Z" fill="#EB8B8B"/>
<path d="M19.3714 19.3715H16.6285V22.1143H19.3714V19.3715Z" fill="#EFA2A2"/>
<path d="M19.3714 16.6286H16.6285V19.3715H19.3714V16.6286Z" fill="#F1AEAE"/>
<path d="M19.3714 13.8286H16.6285V16.5714H19.3714V13.8286Z" fill="#F1AEAE"/>
<path d="M19.3714 11.0857H16.6285V13.8286H19.3714V11.0857Z" fill="#F1AEAE"/>
<path d="M19.3714 8.28571H16.6285V11.0286H19.3714V8.28571Z" fill="#F1AEAE"/>
<path d="M19.3714 5.54285H16.6285V8.2857H19.3714V5.54285Z" fill="#F8CBC5"/>
<path d="M19.3714 2.74286H16.6285V5.48572H19.3714V2.74286Z" fill="#EB8B8B"/>
<path d="M19.3714 0H16.6285V2.74286H19.3714V0Z" fill="black"/>
<path d="M16.6286 24.9143H13.8857V27.6572H16.6286V24.9143Z" fill="black"/>
<path d="M16.6286 22.1714H13.8857V24.9143H16.6286V22.1714Z" fill="#EB8B8B"/>
<path d="M16.6286 19.3715H13.8857V22.1143H16.6286V19.3715Z" fill="#EFA2A2"/>
<path d="M16.6286 16.6286H13.8857V19.3715H16.6286V16.6286Z" fill="#F1AEAE"/>
<path d="M16.6286 13.8286H13.8857V16.5714H16.6286V13.8286Z" fill="#F1AEAE"/>
<path d="M16.6286 11.0857H13.8857V13.8286H16.6286V11.0857Z" fill="#F1AEAE"/>
<path d="M16.6286 8.28571H13.8857V11.0286H16.6286V8.28571Z" fill="#F1AEAE"/>
<path d="M16.6286 5.54285H13.8857V8.2857H16.6286V5.54285Z" fill="#F8CBC5"/>
<path d="M16.6286 2.74286H13.8857V5.48572H16.6286V2.74286Z" fill="#EB8B8B"/>
<path d="M16.6286 0H13.8857V2.74286H16.6286V0Z" fill="black"/>
<path d="M13.8286 24.9143H11.0857V27.6572H13.8286V24.9143Z" fill="black"/>
<path d="M13.8286 22.1714H11.0857V24.9143H13.8286V22.1714Z" fill="#EB8B8B"/>
<path d="M13.8286 19.3715H11.0857V22.1143H13.8286V19.3715Z" fill="#EFA2A2"/>
<path d="M13.8286 16.6286H11.0857V19.3715H13.8286V16.6286Z" fill="#F1AEAE"/>
<path d="M13.8286 13.8286H11.0857V16.5714H13.8286V13.8286Z" fill="#F1AEAE"/>
<path d="M13.8286 11.0857H11.0857V13.8286H13.8286V11.0857Z" fill="#F1AEAE"/>
<path d="M13.8286 8.28571H11.0857V11.0286H13.8286V8.28571Z" fill="#F1AEAE"/>
<path d="M13.8286 5.54285H11.0857V8.2857H13.8286V5.54285Z" fill="#F8CBC5"/>
<path d="M13.8286 2.74286H11.0857V5.48572H13.8286V2.74286Z" fill="#EB8B8B"/>
<path d="M13.8286 0H11.0857V2.74286H13.8286V0Z" fill="black"/>
<path d="M11.0858 24.9143H8.3429V27.6572H11.0858V24.9143Z" fill="black"/>
<path d="M11.0858 22.1714H8.3429V24.9143H11.0858V22.1714Z" fill="#EB8B8B"/>
<path d="M11.0858 19.3715H8.3429V22.1143H11.0858V19.3715Z" fill="#EFA2A2"/>
<path d="M11.0858 16.6286H8.3429V19.3715H11.0858V16.6286Z" fill="#F1AEAE"/>
<path d="M11.0858 13.8286H8.3429V16.5714H11.0858V13.8286Z" fill="#F1AEAE"/>
<path d="M11.0858 11.0857H8.3429V13.8286H11.0858V11.0857Z" fill="#F1AEAE"/>
<path d="M11.0858 8.28571H8.3429V11.0286H11.0858V8.28571Z" fill="#F1AEAE"/>
<path d="M11.0858 5.54285H8.3429V8.2857H11.0858V5.54285Z" fill="#F8CBC5"/>
<path d="M11.0858 2.74286H8.3429V5.48572H11.0858V2.74286Z" fill="#EB8B8B"/>
<path d="M11.0858 0H8.3429V2.74286H11.0858V0Z" fill="black"/>
<path d="M8.2857 24.9143H5.54285V27.6572H8.2857V24.9143Z" fill="black"/>
<path d="M8.2857 22.1714H5.54285V24.9143H8.2857V22.1714Z" fill="#EB8B8B"/>
<path d="M8.2857 19.3715H5.54285V22.1143H8.2857V19.3715Z" fill="#EB8B8B"/>
<path d="M8.2857 16.6286H5.54285V19.3715H8.2857V16.6286Z" fill="#EFA2A2"/>
<path d="M8.2857 13.8286H5.54285V16.5714H8.2857V13.8286Z" fill="#EFA2A2"/>
<path d="M8.2857 11.0857H5.54285V13.8286H8.2857V11.0857Z" fill="#EFA2A2"/>
<path d="M8.2857 8.28571H5.54285V11.0286H8.2857V8.28571Z" fill="#F8CBC5"/>
<path d="M8.2857 5.54285H5.54285V8.2857H8.2857V5.54285Z" fill="#EB8B8B"/>
<path d="M8.2857 2.74286H5.54285V5.48572H8.2857V2.74286Z" fill="#EB8B8B"/>
<path d="M8.2857 0H5.54285V2.74286H8.2857V0Z" fill="black"/>
<path d="M5.5428 22.1714H2.7428V24.9143H5.48565L5.5428 22.1714Z" fill="black"/>
<path d="M5.5428 19.3715H2.7428V22.1143H5.48565L5.5428 19.3715Z" fill="#EB8B8B"/>
<path d="M5.5428 16.6286H2.7428V19.3715H5.48565L5.5428 16.6286Z" fill="#EB8B8B"/>
<path d="M5.5428 13.8286H2.7428V16.5714H5.48565L5.5428 13.8286Z" fill="#EB8B8B"/>
<path d="M5.5428 11.0857H2.7428V13.8286H5.48565L5.5428 11.0857Z" fill="#EB8B8B"/>
<path d="M5.5428 8.28571H2.7428V11.0286H5.48565L5.5428 8.28571Z" fill="#EB8B8B"/>
<path d="M5.5428 5.54285H2.7428V8.2857H5.48565L5.5428 5.54285Z" fill="#EB8B8B"/>
<path d="M5.5428 2.74286H2.7428V5.48572H5.48565L5.5428 2.74286Z" fill="black"/>
<path d="M2.74286 19.3715H0V22.1143H2.74286V19.3715Z" fill="black"/>
<path d="M2.74286 16.6286H0V19.3715H2.74286V16.6286Z" fill="black"/>
<path d="M2.74286 13.8286H0V16.5714H2.74286V13.8286Z" fill="black"/>
<path d="M2.74286 11.0857H0V13.8286H2.74286V11.0857Z" fill="black"/>
<path d="M2.74286 8.28571H0V11.0286H2.74286V8.28571Z" fill="black"/>
<path d="M2.74286 5.54285H0V8.2857H2.74286V5.54285Z" fill="black"/>
</g>
<path d="M34.0169 15.7778H37.6835V17H32.7946V8.44444H37.6835V9.66667H34.0169V12.1111H37.6835V13.3333H34.0169V15.7778ZM38.9057 15.7778H37.6835V13.3333H38.9057V15.7778ZM38.9057 12.1111H37.6835V9.66667H38.9057V12.1111ZM41.3538 15.7778H40.1315V10.8889H41.3538V15.7778ZM46.2427 15.7778H45.0204V10.8889H46.2427V15.7778ZM45.0204 17H41.3538V15.7778H45.0204V17ZM53.5796 13.3333H52.3573V10.8889H53.5796V13.3333ZM48.6907 13.3333H47.4685V10.8889H48.6907V13.3333ZM51.1351 18.2222H49.9129V15.7778H51.1351V18.2222ZM49.9129 19.4444H47.4685V18.2222H49.9129V19.4444ZM49.9129 15.7778H48.6907V13.3333H49.9129V15.7778ZM52.3573 15.7778H51.1351V13.3333H52.3573V15.7778Z" fill="black"/>
<defs>
<clipPath id="clip0_309_5515">
<rect width="88.5714" height="28" fill="white"/>
</clipPath>
</defs>
</svg>
