<svg width="155" height="49" viewBox="0 0 155 49" fill="none" xmlns="http://www.w3.org/2000/svg">
<g clip-path="url(#clip0_296_5850)">
<path d="M155 33.9H150.2V38.7H155V33.9Z" fill="black"/>
<path d="M155 29.1H150.2V33.9H155V29.1Z" fill="black"/>
<path d="M155 24.2H150.2V29H155V24.2Z" fill="black"/>
<path d="M155 19.4H150.2V24.2H155V19.4Z" fill="black"/>
<path d="M155 14.5H150.2V19.3H155V14.5Z" fill="black"/>
<path d="M155 9.7H150.2V14.5H155V9.7Z" fill="black"/>
<path d="M150.2 38.8H145.4V43.6H150.2V38.8Z" fill="black"/>
<path d="M150.2 33.9H145.4V38.7H150.2V33.9Z" fill="#EB8B8B"/>
<path d="M150.2 29.1H145.4V33.9H150.2V29.1Z" fill="#EB8B8B"/>
<path d="M150.2 24.2H145.4V29H150.2V24.2Z" fill="#EB8B8B"/>
<path d="M150.2 19.4H145.4V24.2H150.2V19.4Z" fill="#EB8B8B"/>
<path d="M150.2 14.5H145.4V19.3H150.2V14.5Z" fill="#EB8B8B"/>
<path d="M150.2 9.7H145.4V14.5H150.2V9.7Z" fill="#EB8B8B"/>
<path d="M150.2 4.8H145.4V9.6H150.2V4.8Z" fill="black"/>
<path d="M145.3 43.6H140.5V48.4H145.3V43.6Z" fill="black"/>
<path d="M145.3 38.8H140.5V43.6H145.3V38.8Z" fill="#EB8B8B"/>
<path d="M145.3 33.9H140.5V38.7H145.3V33.9Z" fill="#EB8B8B"/>
<path d="M145.3 29.1H140.5V33.9H145.3V29.1Z" fill="#EFA2A2"/>
<path d="M145.3 24.2H140.5V29H145.3V24.2Z" fill="#EFA2A2"/>
<path d="M145.3 19.4H140.5V24.2H145.3V19.4Z" fill="#EFA2A2"/>
<path d="M145.3 14.5H140.5V19.3H145.3V14.5Z" fill="#F8CBC5"/>
<path d="M145.3 9.7H140.5V14.5H145.3V9.7Z" fill="#EB8B8B"/>
<path d="M145.3 4.8H140.5V9.6H145.3V4.8Z" fill="#EB8B8B"/>
<path d="M145.3 0H140.5V4.8H145.3V0Z" fill="black"/>
<path d="M140.5 43.6H135.7V48.4H140.5V43.6Z" fill="black"/>
<path d="M140.5 38.8H135.7V43.6H140.5V38.8Z" fill="#EB8B8B"/>
<path d="M140.5 33.9H135.7V38.7H140.5V33.9Z" fill="#EFA2A2"/>
<path d="M140.5 29.1H135.7V33.9H140.5V29.1Z" fill="#F1AEAE"/>
<path d="M140.5 24.2H135.7V29H140.5V24.2Z" fill="#F1AEAE"/>
<path d="M140.5 19.4H135.7V24.2H140.5V19.4Z" fill="#F1AEAE"/>
<path d="M140.5 14.5H135.7V19.3H140.5V14.5Z" fill="#F1AEAE"/>
<path d="M140.5 9.7H135.7V14.5H140.5V9.7Z" fill="#F8CBC5"/>
<path d="M140.5 4.8H135.7V9.6H140.5V4.8Z" fill="#EB8B8B"/>
<path d="M140.5 0H135.7V4.8H140.5V0Z" fill="black"/>
<path d="M135.6 43.6H130.8V48.4H135.6V43.6Z" fill="black"/>
<path d="M135.6 38.8H130.8V43.6H135.6V38.8Z" fill="#EB8B8B"/>
<path d="M135.6 33.9H130.8V38.7H135.6V33.9Z" fill="#EFA2A2"/>
<path d="M135.6 29.1H130.8V33.9H135.6V29.1Z" fill="#F1AEAE"/>
<path d="M135.6 24.2H130.8V29H135.6V24.2Z" fill="#F1AEAE"/>
<path d="M135.6 19.4H130.8V24.2H135.6V19.4Z" fill="#F1AEAE"/>
<path d="M135.6 14.5H130.8V19.3H135.6V14.5Z" fill="#F1AEAE"/>
<path d="M135.6 9.7H130.8V14.5H135.6V9.7Z" fill="#F8CBC5"/>
<path d="M135.6 4.8H130.8V9.6H135.6V4.8Z" fill="#EB8B8B"/>
<path d="M135.6 0H130.8V4.8H135.6V0Z" fill="black"/>
<path d="M130.8 43.6H126V48.4H130.8V43.6Z" fill="black"/>
<path d="M130.8 38.8H126V43.6H130.8V38.8Z" fill="#EB8B8B"/>
<path d="M130.8 33.9H126V38.7H130.8V33.9Z" fill="#EFA2A2"/>
<path d="M130.8 29.1H126V33.9H130.8V29.1Z" fill="#F1AEAE"/>
<path d="M130.8 24.2H126V29H130.8V24.2Z" fill="#F1AEAE"/>
<path d="M130.8 19.4H126V24.2H130.8V19.4Z" fill="#F1AEAE"/>
<path d="M130.8 14.5H126V19.3H130.8V14.5Z" fill="#F1AEAE"/>
<path d="M130.8 9.7H126V14.5H130.8V9.7Z" fill="#F8CBC5"/>
<path d="M130.8 4.8H126V9.6H130.8V4.8Z" fill="#EB8B8B"/>
<path d="M130.8 0H126V4.8H130.8V0Z" fill="black"/>
<path d="M125.9 43.6H121.1V48.4H125.9V43.6Z" fill="black"/>
<path d="M125.9 38.8H121.1V43.6H125.9V38.8Z" fill="#EB8B8B"/>
<path d="M125.9 33.9H121.1V38.7H125.9V33.9Z" fill="#EFA2A2"/>
<path d="M125.9 29.1H121.1V33.9H125.9V29.1Z" fill="#F1AEAE"/>
<path d="M125.9 24.2H121.1V29H125.9V24.2Z" fill="#F1AEAE"/>
<path d="M125.9 19.4H121.1V24.2H125.9V19.4Z" fill="#F1AEAE"/>
<path d="M125.9 14.5H121.1V19.3H125.9V14.5Z" fill="#F1AEAE"/>
<path d="M125.9 9.7H121.1V14.5H125.9V9.7Z" fill="#F8CBC5"/>
<path d="M125.9 4.8H121.1V9.6H125.9V4.8Z" fill="#EB8B8B"/>
<path d="M125.9 0H121.1V4.8H125.9V0Z" fill="black"/>
<path d="M121.1 43.6H116.3V48.4H121.1V43.6Z" fill="black"/>
<path d="M121.1 38.8H116.3V43.6H121.1V38.8Z" fill="#EB8B8B"/>
<path d="M121.1 33.9H116.3V38.7H121.1V33.9Z" fill="#EFA2A2"/>
<path d="M121.1 29.1H116.3V33.9H121.1V29.1Z" fill="#F1AEAE"/>
<path d="M121.1 24.2H116.3V29H121.1V24.2Z" fill="#F1AEAE"/>
<path d="M121.1 19.4H116.3V24.2H121.1V19.4Z" fill="#F1AEAE"/>
<path d="M121.1 14.5H116.3V19.3H121.1V14.5Z" fill="#F1AEAE"/>
<path d="M121.1 9.7H116.3V14.5H121.1V9.7Z" fill="#F8CBC5"/>
<path d="M121.1 4.8H116.3V9.6H121.1V4.8Z" fill="#EB8B8B"/>
<path d="M121.1 0H116.3V4.8H121.1V0Z" fill="black"/>
<path d="M116.2 43.6H111.4V48.4H116.2V43.6Z" fill="black"/>
<path d="M116.2 38.8H111.4V43.6H116.2V38.8Z" fill="#EB8B8B"/>
<path d="M116.2 33.9H111.4V38.7H116.2V33.9Z" fill="#EFA2A2"/>
<path d="M116.2 29.1H111.4V33.9H116.2V29.1Z" fill="#F1AEAE"/>
<path d="M116.2 24.2H111.4V29H116.2V24.2Z" fill="#F1AEAE"/>
<path d="M116.2 19.4H111.4V24.2H116.2V19.4Z" fill="#F1AEAE"/>
<path d="M116.2 14.5H111.4V19.3H116.2V14.5Z" fill="#F1AEAE"/>
<path d="M116.2 9.7H111.4V14.5H116.2V9.7Z" fill="#F8CBC5"/>
<path d="M116.2 4.8H111.4V9.6H116.2V4.8Z" fill="#EB8B8B"/>
<path d="M116.2 0H111.4V4.8H116.2V0Z" fill="black"/>
<path d="M111.4 43.6H106.6V48.4H111.4V43.6Z" fill="black"/>
<path d="M111.4 38.8H106.6V43.6H111.4V38.8Z" fill="#EB8B8B"/>
<path d="M111.4 33.9H106.6V38.7H111.4V33.9Z" fill="#EFA2A2"/>
<path d="M111.4 29.1H106.6V33.9H111.4V29.1Z" fill="#F1AEAE"/>
<path d="M111.4 24.2H106.6V29H111.4V24.2Z" fill="#F1AEAE"/>
<path d="M111.4 19.4H106.6V24.2H111.4V19.4Z" fill="#F1AEAE"/>
<path d="M111.4 14.5H106.6V19.3H111.4V14.5Z" fill="#F1AEAE"/>
<path d="M111.4 9.7H106.6V14.5H111.4V9.7Z" fill="#F8CBC5"/>
<path d="M111.4 4.8H106.6V9.6H111.4V4.8Z" fill="#EB8B8B"/>
<path d="M111.4 0H106.6V4.8H111.4V0Z" fill="black"/>
<path d="M106.6 43.6H101.8V48.4H106.6V43.6Z" fill="black"/>
<path d="M106.6 38.8H101.8V43.6H106.6V38.8Z" fill="#EB8B8B"/>
<path d="M106.6 33.9H101.8V38.7H106.6V33.9Z" fill="#EFA2A2"/>
<path d="M106.6 29.1H101.8V33.9H106.6V29.1Z" fill="#F1AEAE"/>
<path d="M106.6 24.2H101.8V29H106.6V24.2Z" fill="#F1AEAE"/>
<path d="M106.6 19.4H101.8V24.2H106.6V19.4Z" fill="#F1AEAE"/>
<path d="M106.6 14.5H101.8V19.3H106.6V14.5Z" fill="#F1AEAE"/>
<path d="M106.6 9.7H101.8V14.5H106.6V9.7Z" fill="#F8CBC5"/>
<path d="M106.6 4.8H101.8V9.6H106.6V4.8Z" fill="#EB8B8B"/>
<path d="M106.6 0H101.8V4.8H106.6V0Z" fill="black"/>
<path d="M101.7 43.6H96.9V48.4H101.7V43.6Z" fill="black"/>
<path d="M101.7 38.8H96.9V43.6H101.7V38.8Z" fill="#EB8B8B"/>
<path d="M101.7 33.9H96.9V38.7H101.7V33.9Z" fill="#EFA2A2"/>
<path d="M101.7 29.1H96.9V33.9H101.7V29.1Z" fill="#F1AEAE"/>
<path d="M101.7 24.2H96.9V29H101.7V24.2Z" fill="#F1AEAE"/>
<path d="M101.7 19.4H96.9V24.2H101.7V19.4Z" fill="#F1AEAE"/>
<path d="M101.7 14.5H96.9V19.3H101.7V14.5Z" fill="#F1AEAE"/>
<path d="M101.7 9.7H96.9V14.5H101.7V9.7Z" fill="#F8CBC5"/>
<path d="M101.7 4.8H96.9V9.6H101.7V4.8Z" fill="#EB8B8B"/>
<path d="M101.7 0H96.9V4.8H101.7V0Z" fill="black"/>
<path d="M96.9 43.6H92V48.4H96.8L96.9 43.6Z" fill="black"/>
<path d="M96.9 38.8H92V43.6H96.8L96.9 38.8Z" fill="#EB8B8B"/>
<path d="M96.9 33.9H92V38.7H96.8L96.9 33.9Z" fill="#EFA2A2"/>
<path d="M96.9 29.1H92V33.9H96.8L96.9 29.1Z" fill="#F1AEAE"/>
<path d="M96.9 24.2H92V29H96.8L96.9 24.2Z" fill="#F1AEAE"/>
<path d="M96.9 19.4H92V24.2H96.8L96.9 19.4Z" fill="#F1AEAE"/>
<path d="M96.9 14.5H92V19.3H96.8L96.9 14.5Z" fill="#F1AEAE"/>
<path d="M96.9 9.7H92V14.5H96.8L96.9 9.7Z" fill="#F8CBC5"/>
<path d="M96.9 4.8H92V9.6H96.8L96.9 4.8Z" fill="#EB8B8B"/>
<path d="M96.9 0H92V4.8H96.8L96.9 0Z" fill="black"/>
<path d="M92 43.6H87.2V48.4H92V43.6Z" fill="black"/>
<path d="M92 38.8H87.2V43.6H92V38.8Z" fill="#EB8B8B"/>
<path d="M92 33.9H87.2V38.7H92V33.9Z" fill="#EFA2A2"/>
<path d="M92 29.1H87.2V33.9H92V29.1Z" fill="#F1AEAE"/>
<path d="M92 24.2H87.2V29H92V24.2Z" fill="#F1AEAE"/>
<path d="M92 19.4H87.2V24.2H92V19.4Z" fill="#F1AEAE"/>
<path d="M92 14.5H87.2V19.3H92V14.5Z" fill="#F1AEAE"/>
<path d="M92 9.7H87.2V14.5H92V9.7Z" fill="#F8CBC5"/>
<path d="M92 4.8H87.2V9.6H92V4.8Z" fill="#EB8B8B"/>
<path d="M92 0H87.2V4.8H92V0Z" fill="black"/>
<path d="M87.2 43.6H82.4V48.4H87.2V43.6Z" fill="black"/>
<path d="M87.2 38.8H82.4V43.6H87.2V38.8Z" fill="#EB8B8B"/>
<path d="M87.2 33.9H82.4V38.7H87.2V33.9Z" fill="#EFA2A2"/>
<path d="M87.2 29.1H82.4V33.9H87.2V29.1Z" fill="#F1AEAE"/>
<path d="M87.2 24.2H82.4V29H87.2V24.2Z" fill="#F1AEAE"/>
<path d="M87.2 19.4H82.4V24.2H87.2V19.4Z" fill="#F1AEAE"/>
<path d="M87.2 14.5H82.4V19.3H87.2V14.5Z" fill="#F1AEAE"/>
<path d="M87.2 9.7H82.4V14.5H87.2V9.7Z" fill="#F8CBC5"/>
<path d="M87.2 4.8H82.4V9.6H87.2V4.8Z" fill="#EB8B8B"/>
<path d="M87.2 0H82.4V4.8H87.2V0Z" fill="black"/>
<path d="M82.3 43.6H77.5V48.4H82.3V43.6Z" fill="black"/>
<path d="M82.3 38.8H77.5V43.6H82.3V38.8Z" fill="#EB8B8B"/>
<path d="M82.3 33.9H77.5V38.7H82.3V33.9Z" fill="#EFA2A2"/>
<path d="M82.3 29.1H77.5V33.9H82.3V29.1Z" fill="#F1AEAE"/>
<path d="M82.3 24.2H77.5V29H82.3V24.2Z" fill="#F1AEAE"/>
<path d="M82.3 19.4H77.5V24.2H82.3V19.4Z" fill="#F1AEAE"/>
<path d="M82.3 14.5H77.5V19.3H82.3V14.5Z" fill="#F1AEAE"/>
<path d="M82.3 9.7H77.5V14.5H82.3V9.7Z" fill="#F8CBC5"/>
<path d="M82.3 4.8H77.5V9.6H82.3V4.8Z" fill="#EB8B8B"/>
<path d="M82.3 0H77.5V4.8H82.3V0Z" fill="black"/>
<path d="M77.5 43.6H72.7V48.4H77.5V43.6Z" fill="black"/>
<path d="M77.5 38.8H72.7V43.6H77.5V38.8Z" fill="#EB8B8B"/>
<path d="M77.5 33.9H72.7V38.7H77.5V33.9Z" fill="#EFA2A2"/>
<path d="M77.5 29.1H72.7V33.9H77.5V29.1Z" fill="#F1AEAE"/>
<path d="M77.5 24.2H72.7V29H77.5V24.2Z" fill="#F1AEAE"/>
<path d="M77.5 19.4H72.7V24.2H77.5V19.4Z" fill="#F1AEAE"/>
<path d="M77.5 14.5H72.7V19.3H77.5V14.5Z" fill="#F1AEAE"/>
<path d="M77.5 9.7H72.7V14.5H77.5V9.7Z" fill="#F8CBC5"/>
<path d="M77.5 4.8H72.7V9.6H77.5V4.8Z" fill="#EB8B8B"/>
<path d="M77.5 0H72.7V4.8H77.5V0Z" fill="black"/>
<path d="M72.7 43.6H67.9V48.4H72.7V43.6Z" fill="black"/>
<path d="M72.7 38.8H67.9V43.6H72.7V38.8Z" fill="#EB8B8B"/>
<path d="M72.7 33.9H67.9V38.7H72.7V33.9Z" fill="#EFA2A2"/>
<path d="M72.7 29.1H67.9V33.9H72.7V29.1Z" fill="#F1AEAE"/>
<path d="M72.7 24.2H67.9V29H72.7V24.2Z" fill="#F1AEAE"/>
<path d="M72.7 19.4H67.9V24.2H72.7V19.4Z" fill="#F1AEAE"/>
<path d="M72.7 14.5H67.9V19.3H72.7V14.5Z" fill="#F1AEAE"/>
<path d="M72.7 9.7H67.9V14.5H72.7V9.7Z" fill="#F8CBC5"/>
<path d="M72.7 4.8H67.9V9.6H72.7V4.8Z" fill="#EB8B8B"/>
<path d="M72.7 0H67.9V4.8H72.7V0Z" fill="black"/>
<path d="M67.8 43.6H63V48.4H67.8V43.6Z" fill="black"/>
<path d="M67.8 38.8H63V43.6H67.8V38.8Z" fill="#EB8B8B"/>
<path d="M67.8 33.9H63V38.7H67.8V33.9Z" fill="#EFA2A2"/>
<path d="M67.8 29.1H63V33.9H67.8V29.1Z" fill="#F1AEAE"/>
<path d="M67.8 24.2H63V29H67.8V24.2Z" fill="#F1AEAE"/>
<path d="M67.8 19.4H63V24.2H67.8V19.4Z" fill="#F1AEAE"/>
<path d="M67.8 14.5H63V19.3H67.8V14.5Z" fill="#F1AEAE"/>
<path d="M67.8 9.7H63V14.5H67.8V9.7Z" fill="#F8CBC5"/>
<path d="M67.8 4.8H63V9.6H67.8V4.8Z" fill="#EB8B8B"/>
<path d="M67.8 0H63V4.8H67.8V0Z" fill="black"/>
<path d="M63 43.6H58.2V48.4H63V43.6Z" fill="black"/>
<path d="M63 38.8H58.2V43.6H63V38.8Z" fill="#EB8B8B"/>
<path d="M63 33.9H58.2V38.7H63V33.9Z" fill="#EFA2A2"/>
<path d="M63 29.1H58.2V33.9H63V29.1Z" fill="#F1AEAE"/>
<path d="M63 24.2H58.2V29H63V24.2Z" fill="#F1AEAE"/>
<path d="M63 19.4H58.2V24.2H63V19.4Z" fill="#F1AEAE"/>
<path d="M63 14.5H58.2V19.3H63V14.5Z" fill="#F1AEAE"/>
<path d="M63 9.7H58.2V14.5H63V9.7Z" fill="#F8CBC5"/>
<path d="M63 4.8H58.2V9.6H63V4.8Z" fill="#EB8B8B"/>
<path d="M63 0H58.2V4.8H63V0Z" fill="black"/>
<path d="M58.1 43.6H53.3V48.4H58.1V43.6Z" fill="black"/>
<path d="M58.1 38.8H53.3V43.6H58.1V38.8Z" fill="#EB8B8B"/>
<path d="M58.1 33.9H53.3V38.7H58.1V33.9Z" fill="#EFA2A2"/>
<path d="M58.1 29.1H53.3V33.9H58.1V29.1Z" fill="#F1AEAE"/>
<path d="M58.1 24.2H53.3V29H58.1V24.2Z" fill="#F1AEAE"/>
<path d="M58.1 19.4H53.3V24.2H58.1V19.4Z" fill="#F1AEAE"/>
<path d="M58.1 14.5H53.3V19.3H58.1V14.5Z" fill="#F1AEAE"/>
<path d="M58.1 9.7H53.3V14.5H58.1V9.7Z" fill="#F8CBC5"/>
<path d="M58.1 4.8H53.3V9.6H58.1V4.8Z" fill="#EB8B8B"/>
<path d="M58.1 0H53.3V4.8H58.1V0Z" fill="black"/>
<path d="M53.3 43.6H48.5V48.4H53.3V43.6Z" fill="black"/>
<path d="M53.3 38.8H48.5V43.6H53.3V38.8Z" fill="#EB8B8B"/>
<path d="M53.3 33.9H48.5V38.7H53.3V33.9Z" fill="#EFA2A2"/>
<path d="M53.3 29.1H48.5V33.9H53.3V29.1Z" fill="#F1AEAE"/>
<path d="M53.3 24.2H48.5V29H53.3V24.2Z" fill="#F1AEAE"/>
<path d="M53.3 19.4H48.5V24.2H53.3V19.4Z" fill="#F1AEAE"/>
<path d="M53.3 14.5H48.5V19.3H53.3V14.5Z" fill="#F1AEAE"/>
<path d="M53.3 9.7H48.5V14.5H53.3V9.7Z" fill="#F8CBC5"/>
<path d="M53.3 4.8H48.5V9.6H53.3V4.8Z" fill="#EB8B8B"/>
<path d="M53.3 0H48.5V4.8H53.3V0Z" fill="black"/>
<path d="M48.4 43.6H43.6V48.4H48.4V43.6Z" fill="black"/>
<path d="M48.4 38.8H43.6V43.6H48.4V38.8Z" fill="#EB8B8B"/>
<path d="M48.4 33.9H43.6V38.7H48.4V33.9Z" fill="#EFA2A2"/>
<path d="M48.4 29.1H43.6V33.9H48.4V29.1Z" fill="#F1AEAE"/>
<path d="M48.4 24.2H43.6V29H48.4V24.2Z" fill="#F1AEAE"/>
<path d="M48.4 19.4H43.6V24.2H48.4V19.4Z" fill="#F1AEAE"/>
<path d="M48.4 14.5H43.6V19.3H48.4V14.5Z" fill="#F1AEAE"/>
<path d="M48.4 9.7H43.6V14.5H48.4V9.7Z" fill="#F8CBC5"/>
<path d="M48.4 4.8H43.6V9.6H48.4V4.8Z" fill="#EB8B8B"/>
<path d="M48.4 0H43.6V4.8H48.4V0Z" fill="black"/>
<path d="M43.6 43.6H38.8V48.4H43.6V43.6Z" fill="black"/>
<path d="M43.6 38.8H38.8V43.6H43.6V38.8Z" fill="#EB8B8B"/>
<path d="M43.6 33.9H38.8V38.7H43.6V33.9Z" fill="#EFA2A2"/>
<path d="M43.6 29.1H38.8V33.9H43.6V29.1Z" fill="#F1AEAE"/>
<path d="M43.6 24.2H38.8V29H43.6V24.2Z" fill="#F1AEAE"/>
<path d="M43.6 19.4H38.8V24.2H43.6V19.4Z" fill="#F1AEAE"/>
<path d="M43.6 14.5H38.8V19.3H43.6V14.5Z" fill="#F1AEAE"/>
<path d="M43.6 9.7H38.8V14.5H43.6V9.7Z" fill="#F8CBC5"/>
<path d="M43.6 4.8H38.8V9.6H43.6V4.8Z" fill="#EB8B8B"/>
<path d="M43.6 0H38.8V4.8H43.6V0Z" fill="black"/>
<path d="M38.8 43.6H34V48.4H38.8V43.6Z" fill="black"/>
<path d="M38.8 38.8H34V43.6H38.8V38.8Z" fill="#EB8B8B"/>
<path d="M38.8 33.9H34V38.7H38.8V33.9Z" fill="#EFA2A2"/>
<path d="M38.8 29.1H34V33.9H38.8V29.1Z" fill="#F1AEAE"/>
<path d="M38.8 24.2H34V29H38.8V24.2Z" fill="#F1AEAE"/>
<path d="M38.8 19.4H34V24.2H38.8V19.4Z" fill="#F1AEAE"/>
<path d="M38.8 14.5H34V19.3H38.8V14.5Z" fill="#F1AEAE"/>
<path d="M38.8 9.7H34V14.5H38.8V9.7Z" fill="#F8CBC5"/>
<path d="M38.8 4.8H34V9.6H38.8V4.8Z" fill="#EB8B8B"/>
<path d="M38.8 0H34V4.8H38.8V0Z" fill="black"/>
<path d="M33.9 43.6H29.1V48.4H33.9V43.6Z" fill="black"/>
<path d="M33.9 38.8H29.1V43.6H33.9V38.8Z" fill="#EB8B8B"/>
<path d="M33.9 33.9H29.1V38.7H33.9V33.9Z" fill="#EFA2A2"/>
<path d="M33.9 29.1H29.1V33.9H33.9V29.1Z" fill="#F1AEAE"/>
<path d="M33.9 24.2H29.1V29H33.9V24.2Z" fill="#F1AEAE"/>
<path d="M33.9 19.4H29.1V24.2H33.9V19.4Z" fill="#F1AEAE"/>
<path d="M33.9 14.5H29.1V19.3H33.9V14.5Z" fill="#F1AEAE"/>
<path d="M33.9 9.7H29.1V14.5H33.9V9.7Z" fill="#F8CBC5"/>
<path d="M33.9 4.8H29.1V9.6H33.9V4.8Z" fill="#EB8B8B"/>
<path d="M33.9 0H29.1V4.8H33.9V0Z" fill="black"/>
<path d="M29.1 43.6H24.3V48.4H29.1V43.6Z" fill="black"/>
<path d="M29.1 38.8H24.3V43.6H29.1V38.8Z" fill="#EB8B8B"/>
<path d="M29.1 33.9H24.3V38.7H29.1V33.9Z" fill="#EFA2A2"/>
<path d="M29.1 29.1H24.3V33.9H29.1V29.1Z" fill="#F1AEAE"/>
<path d="M29.1 24.2H24.3V29H29.1V24.2Z" fill="#F1AEAE"/>
<path d="M29.1 19.4H24.3V24.2H29.1V19.4Z" fill="#F1AEAE"/>
<path d="M29.1 14.5H24.3V19.3H29.1V14.5Z" fill="#F1AEAE"/>
<path d="M29.1 9.7H24.3V14.5H29.1V9.7Z" fill="#F8CBC5"/>
<path d="M29.1 4.8H24.3V9.6H29.1V4.8Z" fill="#EB8B8B"/>
<path d="M29.1 0H24.3V4.8H29.1V0Z" fill="black"/>
<path d="M24.2 43.6H19.4V48.4H24.2V43.6Z" fill="black"/>
<path d="M24.2 38.8H19.4V43.6H24.2V38.8Z" fill="#EB8B8B"/>
<path d="M24.2 33.9H19.4V38.7H24.2V33.9Z" fill="#EFA2A2"/>
<path d="M24.2 29.1H19.4V33.9H24.2V29.1Z" fill="#F1AEAE"/>
<path d="M24.2 24.2H19.4V29H24.2V24.2Z" fill="#F1AEAE"/>
<path d="M24.2 19.4H19.4V24.2H24.2V19.4Z" fill="#F1AEAE"/>
<path d="M24.2 14.5H19.4V19.3H24.2V14.5Z" fill="#F1AEAE"/>
<path d="M24.2 9.7H19.4V14.5H24.2V9.7Z" fill="#F8CBC5"/>
<path d="M24.2 4.8H19.4V9.6H24.2V4.8Z" fill="#EB8B8B"/>
<path d="M24.2 0H19.4V4.8H24.2V0Z" fill="black"/>
<path d="M19.4 43.6H14.6V48.4H19.4V43.6Z" fill="black"/>
<path d="M19.4 38.8H14.6V43.6H19.4V38.8Z" fill="#EB8B8B"/>
<path d="M19.4 33.9H14.6V38.7H19.4V33.9Z" fill="#EFA2A2"/>
<path d="M19.4 29.1H14.6V33.9H19.4V29.1Z" fill="#F1AEAE"/>
<path d="M19.4 24.2H14.6V29H19.4V24.2Z" fill="#F1AEAE"/>
<path d="M19.4 19.4H14.6V24.2H19.4V19.4Z" fill="#F1AEAE"/>
<path d="M19.4 14.5H14.6V19.3H19.4V14.5Z" fill="#F1AEAE"/>
<path d="M19.4 9.7H14.6V14.5H19.4V9.7Z" fill="#F8CBC5"/>
<path d="M19.4 4.8H14.6V9.6H19.4V4.8Z" fill="#EB8B8B"/>
<path d="M19.4 0H14.6V4.8H19.4V0Z" fill="black"/>
<path d="M14.5 43.6H9.69995V48.4H14.5V43.6Z" fill="black"/>
<path d="M14.5 38.8H9.69995V43.6H14.5V38.8Z" fill="#EB8B8B"/>
<path d="M14.5 33.9H9.69995V38.7H14.5V33.9Z" fill="#EB8B8B"/>
<path d="M14.5 29.1H9.69995V33.9H14.5V29.1Z" fill="#EFA2A2"/>
<path d="M14.5 24.2H9.69995V29H14.5V24.2Z" fill="#EFA2A2"/>
<path d="M14.5 19.4H9.69995V24.2H14.5V19.4Z" fill="#EFA2A2"/>
<path d="M14.5 14.5H9.69995V19.3H14.5V14.5Z" fill="#F8CBC5"/>
<path d="M14.5 9.7H9.69995V14.5H14.5V9.7Z" fill="#EB8B8B"/>
<path d="M14.5 4.8H9.69995V9.6H14.5V4.8Z" fill="#EB8B8B"/>
<path d="M14.5 0H9.69995V4.8H14.5V0Z" fill="black"/>
<path d="M9.70005 38.8H4.80005V43.6H9.60005L9.70005 38.8Z" fill="black"/>
<path d="M9.70005 33.9H4.80005V38.7H9.60005L9.70005 33.9Z" fill="#EB8B8B"/>
<path d="M9.70005 29.1H4.80005V33.9H9.60005L9.70005 29.1Z" fill="#EB8B8B"/>
<path d="M9.70005 24.2H4.80005V29H9.60005L9.70005 24.2Z" fill="#EB8B8B"/>
<path d="M9.70005 19.4H4.80005V24.2H9.60005L9.70005 19.4Z" fill="#EB8B8B"/>
<path d="M9.70005 14.5H4.80005V19.3H9.60005L9.70005 14.5Z" fill="#EB8B8B"/>
<path d="M9.70005 9.7H4.80005V14.5H9.60005L9.70005 9.7Z" fill="#EB8B8B"/>
<path d="M9.70005 4.8H4.80005V9.6H9.60005L9.70005 4.8Z" fill="black"/>
<path d="M4.8 33.9H0V38.7H4.8V33.9Z" fill="black"/>
<path d="M4.8 29.1H0V33.9H4.8V29.1Z" fill="black"/>
<path d="M4.8 24.2H0V29H4.8V24.2Z" fill="black"/>
<path d="M4.8 19.4H0V24.2H4.8V19.4Z" fill="black"/>
<path d="M4.8 14.5H0V19.3H4.8V14.5Z" fill="black"/>
<path d="M4.8 9.7H0V14.5H4.8V9.7Z" fill="black"/>
</g>
<path d="M52.1918 29.2222H50.4141V20.3333H52.1918V29.2222ZM59.303 29.2222H57.5252V27.4444H59.303V29.2222ZM59.303 22.1111H57.5252V20.3333H59.303V22.1111ZM57.5252 31H52.1918V29.2222H57.5252V31ZM57.5252 20.3333H52.1918V18.5556H57.5252V20.3333ZM62.8637 29.2222H61.0859V23.8889H62.8637V29.2222ZM68.197 23.8889H62.8637V22.1111H68.197V23.8889ZM69.9748 29.2222H68.197V23.8889H69.9748V29.2222ZM68.197 31H62.8637V29.2222H68.197V31ZM73.5356 25.6667V31H71.7578V22.1111H73.5356V23.8889H75.3134V25.6667H73.5356ZM80.6467 31H78.8689V23.8889H80.6467V31ZM78.8689 23.8889H75.3134V22.1111H78.8689V23.8889ZM85.9852 22.1111H87.763V23.8889H85.9852V29.2222H87.763V31H84.2075V23.8889H82.4297V22.1111H84.2075V18.5556H85.9852V22.1111ZM91.3168 31H89.5391V22.1111H91.3168V31ZM91.3168 20.3333H89.5391V18.5556H91.3168V20.3333ZM94.8793 25.6667V31H93.1016V22.1111H94.8793V23.8889H96.6571V25.6667H94.8793ZM101.99 31H100.213V23.8889H101.99V31ZM100.213 23.8889H96.6571V22.1111H100.213V23.8889ZM105.551 29.2222H103.773V22.1111H105.551V29.2222ZM112.662 29.2222H110.885V22.1111H112.662V29.2222ZM110.885 31H105.551V29.2222H110.885V31ZM121.556 23.8889H116.223V22.1111H121.556V23.8889ZM116.223 27.4444V29.2222H114.445V23.8889H116.223V25.6667H121.556V23.8889H123.334V27.4444H116.223ZM123.334 31H116.223V29.2222H123.334V31Z" fill="black"/>
<g clip-path="url(#clip1_296_5850)">
<path d="M44.0166 21.1576H43.1679V22.0209H41.4647V22.8786H39.7616V27.1785H41.4647V28.0362H43.1679V28.8995H44.0166V27.1785H43.1679V24.5997H44.0166V27.1785H44.871V22.8786H44.0166V21.1576Z" fill="black"/>
<path d="M43.167 28.8995H42.3182V30.6149H43.167V28.8995Z" fill="black"/>
<path d="M43.167 19.4421H42.3182V21.1576H43.167V19.4421Z" fill="black"/>
<path d="M42.3181 30.615H41.4637V31.4783H42.3181V30.615Z" fill="black"/>
<path d="M42.3181 18.5788H41.4637V19.4422H42.3181V18.5788Z" fill="black"/>
<path d="M41.4647 31.4783H39.7616V32.336H41.4647V31.4783Z" fill="black"/>
<path d="M41.4647 17.7211H39.7616V18.5788H41.4647V17.7211Z" fill="black"/>
<path d="M39.7615 27.1785H38.9127V28.0362H39.7615V27.1785Z" fill="black"/>
<path d="M39.7615 22.0209H38.9127V22.8786H39.7615V22.0209Z" fill="black"/>
<path d="M38.9118 30.6149H38.063V28.8995H33.808V30.6149H32.9536V32.336H32.1049V33.1994H33.808V34.0571H38.063V33.1994H39.7606V32.336H38.9118V30.6149Z" fill="black"/>
<path d="M38.9125 28.0362H38.0637V28.8995H38.9125V28.0362Z" fill="black"/>
<path d="M38.9125 21.1576H38.0637V22.0209H38.9125V21.1576Z" fill="black"/>
<path d="M33.8081 28.0362H32.9537V28.8995H33.8081V28.0362Z" fill="black"/>
<path d="M33.8081 21.1576H32.9537V22.0209H33.8081V21.1576Z" fill="black"/>
<path d="M32.9536 19.4422H33.808V21.1576H38.063V19.4422H38.9118V17.7211H39.7606V16.8577H38.063V16H33.808V16.8577H32.1049V17.7211H32.9536V19.4422Z" fill="black"/>
<path d="M32.9536 27.1785H32.1049V28.0362H32.9536V27.1785Z" fill="black"/>
<path d="M32.9536 22.0209H32.1049V22.8786H32.9536V22.0209Z" fill="black"/>
<path d="M32.1058 31.4783H30.4027V32.336H32.1058V31.4783Z" fill="black"/>
<path d="M32.1058 17.7211H30.4027V18.5788H32.1058V17.7211Z" fill="black"/>
<path d="M30.4026 30.615H29.5538V31.4783H30.4026V30.615Z" fill="black"/>
<path d="M30.4026 18.5788H29.5538V19.4422H30.4026V18.5788Z" fill="black"/>
<path d="M29.5537 28.8995H28.705V30.6149H29.5537V28.8995Z" fill="black"/>
<path d="M30.4023 28.0362V27.1785H32.1054V22.8786H30.4023V22.0209H28.7047V21.1576H27.8504V22.8786H27.0016V27.1785H27.8504V28.8995H28.7047V28.0362H30.4023Z" fill="black"/>
<path d="M29.5537 19.4421H28.705V21.1576H29.5537V19.4421Z" fill="black"/>
</g>
<defs>
<clipPath id="clip0_296_5850">
<rect width="155" height="49" fill="white"/>
</clipPath>
<clipPath id="clip1_296_5850">
<rect width="17.869" height="18.0571" fill="white" transform="translate(27 16)"/>
</clipPath>
</defs>
</svg>
