<svg width="155" height="50" viewBox="0 0 155 50" fill="none" xmlns="http://www.w3.org/2000/svg">
<g clip-path="url(#clip0_385_10819)">
<path d="M155 33.937H150.156V38.7807H155V33.937Z" fill="black"/>
<path d="M155 29.0933H150.156V33.937H155V29.0933Z" fill="black"/>
<path d="M155 24.2495H150.156V29.0933H155V24.2495Z" fill="black"/>
<path d="M155 19.4058H150.156V24.2496H155V19.4058Z" fill="black"/>
<path d="M155 14.562H150.156V19.4057H155V14.562Z" fill="black"/>
<path d="M155 9.71826H150.156V14.562H155V9.71826Z" fill="black"/>
<path d="M150.156 38.7808H145.312V43.6246H150.156V38.7808Z" fill="black"/>
<path d="M150.156 33.937H145.312V38.7807H150.156V33.937Z" fill="#EB8B8B"/>
<path d="M150.156 29.0933H145.312V33.937H150.156V29.0933Z" fill="#EB8B8B"/>
<path d="M150.156 24.2495H145.312V29.0933H150.156V24.2495Z" fill="#EB8B8B"/>
<path d="M150.156 19.4058H145.312V24.2496H150.156V19.4058Z" fill="#EB8B8B"/>
<path d="M150.156 14.562H145.312V19.4057H150.156V14.562Z" fill="#EB8B8B"/>
<path d="M150.156 9.71826H145.312V14.562H150.156V9.71826Z" fill="#EB8B8B"/>
<path d="M150.156 4.87451H145.312V9.71825H150.156V4.87451Z" fill="black"/>
<path d="M145.312 43.6243H140.469V48.4681H145.312V43.6243Z" fill="black"/>
<path d="M145.312 38.7808H140.469V43.6246H145.312V38.7808Z" fill="#EB8B8B"/>
<path d="M145.312 33.937H140.469V38.7807H145.312V33.937Z" fill="#EB8B8B"/>
<path d="M145.312 29.0933H140.469V33.937H145.312V29.0933Z" fill="#EFA2A2"/>
<path d="M145.312 24.2495H140.469V29.0933H145.312V24.2495Z" fill="#EFA2A2"/>
<path d="M145.312 19.4058H140.469V24.2496H145.312V19.4058Z" fill="#EFA2A2"/>
<path d="M145.312 14.562H140.469V19.4057H145.312V14.562Z" fill="#F8CBC5"/>
<path d="M145.312 9.71826H140.469V14.562H145.312V9.71826Z" fill="#EB8B8B"/>
<path d="M145.312 4.87451H140.469V9.71825H145.312V4.87451Z" fill="#EB8B8B"/>
<path d="M145.312 0.0307617H140.469V4.87451H145.312V0.0307617Z" fill="black"/>
<path d="M140.469 43.6243H135.625V48.4681H140.469V43.6243Z" fill="black"/>
<path d="M140.469 38.7808H135.625V43.6246H140.469V38.7808Z" fill="#EB8B8B"/>
<path d="M140.469 33.937H135.625V38.7807H140.469V33.937Z" fill="#EFA2A2"/>
<path d="M140.469 29.0933H135.625V33.937H140.469V29.0933Z" fill="#F1AEAE"/>
<path d="M140.469 24.2495H135.625V29.0933H140.469V24.2495Z" fill="#F1AEAE"/>
<path d="M140.469 19.4058H135.625V24.2496H140.469V19.4058Z" fill="#F1AEAE"/>
<path d="M140.469 14.562H135.625V19.4057H140.469V14.562Z" fill="#F1AEAE"/>
<path d="M140.469 9.71826H135.625V14.562H140.469V9.71826Z" fill="#F8CBC5"/>
<path d="M140.469 4.87451H135.625V9.71825H140.469V4.87451Z" fill="#EB8B8B"/>
<path d="M140.469 0.0307617H135.625V4.87451H140.469V0.0307617Z" fill="black"/>
<path d="M135.625 43.6243H130.781V48.4681H135.625V43.6243Z" fill="black"/>
<path d="M135.625 38.7808H130.781V43.6246H135.625V38.7808Z" fill="#EB8B8B"/>
<path d="M135.625 33.937H130.781V38.7807H135.625V33.937Z" fill="#EFA2A2"/>
<path d="M135.625 29.0933H130.781V33.937H135.625V29.0933Z" fill="#F1AEAE"/>
<path d="M135.625 24.2495H130.781V29.0933H135.625V24.2495Z" fill="#F1AEAE"/>
<path d="M135.625 19.4058H130.781V24.2496H135.625V19.4058Z" fill="#F1AEAE"/>
<path d="M135.625 14.562H130.781V19.4057H135.625V14.562Z" fill="#F1AEAE"/>
<path d="M135.625 9.71826H130.781V14.562H135.625V9.71826Z" fill="#F8CBC5"/>
<path d="M135.625 4.87451H130.781V9.71825H135.625V4.87451Z" fill="#EB8B8B"/>
<path d="M135.625 0.0307617H130.781V4.87451H135.625V0.0307617Z" fill="black"/>
<path d="M130.781 43.6243H125.938V48.4681H130.781V43.6243Z" fill="black"/>
<path d="M130.781 38.7808H125.938V43.6246H130.781V38.7808Z" fill="#EB8B8B"/>
<path d="M130.781 33.937H125.938V38.7807H130.781V33.937Z" fill="#EFA2A2"/>
<path d="M130.781 29.0933H125.938V33.937H130.781V29.0933Z" fill="#F1AEAE"/>
<path d="M130.781 24.2495H125.938V29.0933H130.781V24.2495Z" fill="#F1AEAE"/>
<path d="M130.781 19.4058H125.938V24.2496H130.781V19.4058Z" fill="#F1AEAE"/>
<path d="M130.781 14.562H125.938V19.4057H130.781V14.562Z" fill="#F1AEAE"/>
<path d="M130.781 9.71826H125.938V14.562H130.781V9.71826Z" fill="#F8CBC5"/>
<path d="M130.781 4.87451H125.938V9.71825H130.781V4.87451Z" fill="#EB8B8B"/>
<path d="M130.781 0.0307617H125.938V4.87451H130.781V0.0307617Z" fill="black"/>
<path d="M125.937 43.6243H121.094V48.4681H125.937V43.6243Z" fill="black"/>
<path d="M125.937 38.7808H121.094V43.6246H125.937V38.7808Z" fill="#EB8B8B"/>
<path d="M125.937 33.937H121.094V38.7807H125.937V33.937Z" fill="#EFA2A2"/>
<path d="M125.937 29.0933H121.094V33.937H125.937V29.0933Z" fill="#F1AEAE"/>
<path d="M125.937 24.2495H121.094V29.0933H125.937V24.2495Z" fill="#F1AEAE"/>
<path d="M125.937 19.4058H121.094V24.2496H125.937V19.4058Z" fill="#F1AEAE"/>
<path d="M125.937 14.562H121.094V19.4057H125.937V14.562Z" fill="#F1AEAE"/>
<path d="M125.937 9.71826H121.094V14.562H125.937V9.71826Z" fill="#F8CBC5"/>
<path d="M125.937 4.87451H121.094V9.71825H125.937V4.87451Z" fill="#EB8B8B"/>
<path d="M125.937 0.0307617H121.094V4.87451H125.937V0.0307617Z" fill="black"/>
<path d="M121.094 43.6243H116.25V48.4681H121.094V43.6243Z" fill="black"/>
<path d="M121.094 38.7808H116.25V43.6246H121.094V38.7808Z" fill="#EB8B8B"/>
<path d="M121.094 33.937H116.25V38.7807H121.094V33.937Z" fill="#EFA2A2"/>
<path d="M121.094 29.0933H116.25V33.937H121.094V29.0933Z" fill="#F1AEAE"/>
<path d="M121.094 24.2495H116.25V29.0933H121.094V24.2495Z" fill="#F1AEAE"/>
<path d="M121.094 19.4058H116.25V24.2496H121.094V19.4058Z" fill="#F1AEAE"/>
<path d="M121.094 14.562H116.25V19.4057H121.094V14.562Z" fill="#F1AEAE"/>
<path d="M121.094 9.71826H116.25V14.562H121.094V9.71826Z" fill="#F8CBC5"/>
<path d="M121.094 4.87451H116.25V9.71825H121.094V4.87451Z" fill="#EB8B8B"/>
<path d="M121.094 0.0307617H116.25V4.87451H121.094V0.0307617Z" fill="black"/>
<path d="M116.25 43.6243H111.406V48.4681H116.25V43.6243Z" fill="black"/>
<path d="M116.25 38.7808H111.406V43.6246H116.25V38.7808Z" fill="#EB8B8B"/>
<path d="M116.25 33.937H111.406V38.7807H116.25V33.937Z" fill="#EFA2A2"/>
<path d="M116.25 29.0933H111.406V33.937H116.25V29.0933Z" fill="#F1AEAE"/>
<path d="M116.25 24.2495H111.406V29.0933H116.25V24.2495Z" fill="#F1AEAE"/>
<path d="M116.25 19.4058H111.406V24.2496H116.25V19.4058Z" fill="#F1AEAE"/>
<path d="M116.25 14.562H111.406V19.4057H116.25V14.562Z" fill="#F1AEAE"/>
<path d="M116.25 9.71826H111.406V14.562H116.25V9.71826Z" fill="#F8CBC5"/>
<path d="M116.25 4.87451H111.406V9.71825H116.25V4.87451Z" fill="#EB8B8B"/>
<path d="M116.25 0.0307617H111.406V4.87451H116.25V0.0307617Z" fill="black"/>
<path d="M111.406 43.6243H106.563V48.4681H111.406V43.6243Z" fill="black"/>
<path d="M111.406 38.7808H106.563V43.6246H111.406V38.7808Z" fill="#EB8B8B"/>
<path d="M111.406 33.937H106.563V38.7807H111.406V33.937Z" fill="#EFA2A2"/>
<path d="M111.406 29.0933H106.563V33.937H111.406V29.0933Z" fill="#F1AEAE"/>
<path d="M111.406 24.2495H106.563V29.0933H111.406V24.2495Z" fill="#F1AEAE"/>
<path d="M111.406 19.4058H106.563V24.2496H111.406V19.4058Z" fill="#F1AEAE"/>
<path d="M111.406 14.562H106.563V19.4057H111.406V14.562Z" fill="#F1AEAE"/>
<path d="M111.406 9.71826H106.563V14.562H111.406V9.71826Z" fill="#F8CBC5"/>
<path d="M111.406 4.87451H106.563V9.71825H111.406V4.87451Z" fill="#EB8B8B"/>
<path d="M111.406 0.0307617H106.563V4.87451H111.406V0.0307617Z" fill="black"/>
<path d="M106.562 43.6243H101.719V48.4681H106.562V43.6243Z" fill="black"/>
<path d="M106.562 38.7808H101.719V43.6246H106.562V38.7808Z" fill="#EB8B8B"/>
<path d="M106.562 33.937H101.719V38.7807H106.562V33.937Z" fill="#EFA2A2"/>
<path d="M106.562 29.0933H101.719V33.937H106.562V29.0933Z" fill="#F1AEAE"/>
<path d="M106.562 24.2495H101.719V29.0933H106.562V24.2495Z" fill="#F1AEAE"/>
<path d="M106.562 19.4058H101.719V24.2496H106.562V19.4058Z" fill="#F1AEAE"/>
<path d="M106.562 14.562H101.719V19.4057H106.562V14.562Z" fill="#F1AEAE"/>
<path d="M106.562 9.71826H101.719V14.562H106.562V9.71826Z" fill="#F8CBC5"/>
<path d="M106.562 4.87451H101.719V9.71825H106.562V4.87451Z" fill="#EB8B8B"/>
<path d="M106.562 0.0307617H101.719V4.87451H106.562V0.0307617Z" fill="black"/>
<path d="M101.719 43.6243H96.8749V48.4681H101.719V43.6243Z" fill="black"/>
<path d="M101.719 38.7808H96.8749V43.6246H101.719V38.7808Z" fill="#EB8B8B"/>
<path d="M101.719 33.937H96.8749V38.7807H101.719V33.937Z" fill="#EFA2A2"/>
<path d="M101.719 29.0933H96.8749V33.937H101.719V29.0933Z" fill="#F1AEAE"/>
<path d="M101.719 24.2495H96.8749V29.0933H101.719V24.2495Z" fill="#F1AEAE"/>
<path d="M101.719 19.4058H96.8749V24.2496H101.719V19.4058Z" fill="#F1AEAE"/>
<path d="M101.719 14.562H96.8749V19.4057H101.719V14.562Z" fill="#F1AEAE"/>
<path d="M101.719 9.71826H96.8749V14.562H101.719V9.71826Z" fill="#F8CBC5"/>
<path d="M101.719 4.87451H96.8749V9.71825H101.719V4.87451Z" fill="#EB8B8B"/>
<path d="M101.719 0.0307617H96.8749V4.87451H101.719V0.0307617Z" fill="black"/>
<path d="M96.8749 43.6243H92.0311V48.4681H96.8749V43.6243Z" fill="black"/>
<path d="M96.8749 38.7808H92.0311V43.6246H96.8749V38.7808Z" fill="#EB8B8B"/>
<path d="M96.8749 33.937H92.0311V38.7807H96.8749V33.937Z" fill="#EFA2A2"/>
<path d="M96.8749 29.0933H92.0311V33.937H96.8749V29.0933Z" fill="#F1AEAE"/>
<path d="M96.8749 24.2495H92.0311V29.0933H96.8749V24.2495Z" fill="#F1AEAE"/>
<path d="M96.8749 19.4058H92.0311V24.2496H96.8749V19.4058Z" fill="#F1AEAE"/>
<path d="M96.8749 14.562H92.0311V19.4057H96.8749V14.562Z" fill="#F1AEAE"/>
<path d="M96.8749 9.71826H92.0311V14.562H96.8749V9.71826Z" fill="#F8CBC5"/>
<path d="M96.8749 4.87451H92.0311V9.71825H96.8749V4.87451Z" fill="#EB8B8B"/>
<path d="M96.8749 0.0307617H92.0311V4.87451H96.8749V0.0307617Z" fill="black"/>
<path d="M92.0314 43.6243H87.1877V48.4681H92.0314V43.6243Z" fill="black"/>
<path d="M92.0314 38.7808H87.1877V43.6246H92.0314V38.7808Z" fill="#EB8B8B"/>
<path d="M92.0314 33.937H87.1877V38.7807H92.0314V33.937Z" fill="#EFA2A2"/>
<path d="M92.0314 29.0933H87.1877V33.937H92.0314V29.0933Z" fill="#F1AEAE"/>
<path d="M92.0314 24.2495H87.1877V29.0933H92.0314V24.2495Z" fill="#F1AEAE"/>
<path d="M92.0314 19.4058H87.1877V24.2496H92.0314V19.4058Z" fill="#F1AEAE"/>
<path d="M92.0314 14.562H87.1877V19.4057H92.0314V14.562Z" fill="#F1AEAE"/>
<path d="M92.0314 9.71826H87.1877V14.562H92.0314V9.71826Z" fill="#F8CBC5"/>
<path d="M92.0314 4.87451H87.1877V9.71825H92.0314V4.87451Z" fill="#EB8B8B"/>
<path d="M92.0314 0.0307617H87.1877V4.87451H92.0314V0.0307617Z" fill="black"/>
<path d="M87.1876 43.6243H82.3439V48.4681H87.1876V43.6243Z" fill="black"/>
<path d="M87.1876 38.7808H82.3439V43.6246H87.1876V38.7808Z" fill="#EB8B8B"/>
<path d="M87.1876 33.937H82.3439V38.7807H87.1876V33.937Z" fill="#EFA2A2"/>
<path d="M87.1876 29.0933H82.3439V33.937H87.1876V29.0933Z" fill="#F1AEAE"/>
<path d="M87.1876 24.2495H82.3439V29.0933H87.1876V24.2495Z" fill="#F1AEAE"/>
<path d="M87.1876 19.4058H82.3439V24.2496H87.1876V19.4058Z" fill="#F1AEAE"/>
<path d="M87.1876 14.562H82.3439V19.4057H87.1876V14.562Z" fill="#F1AEAE"/>
<path d="M87.1876 9.71826H82.3439V14.562H87.1876V9.71826Z" fill="#F8CBC5"/>
<path d="M87.1876 4.87451H82.3439V9.71825H87.1876V4.87451Z" fill="#EB8B8B"/>
<path d="M87.1876 0.0307617H82.3439V4.87451H87.1876V0.0307617Z" fill="black"/>
<path d="M82.3438 43.6243H77.5001V48.4681H82.3438V43.6243Z" fill="black"/>
<path d="M82.3438 38.7808H77.5001V43.6246H82.3438V38.7808Z" fill="#EB8B8B"/>
<path d="M82.3438 33.937H77.5001V38.7807H82.3438V33.937Z" fill="#EFA2A2"/>
<path d="M82.3438 29.0933H77.5001V33.937H82.3438V29.0933Z" fill="#F1AEAE"/>
<path d="M82.3438 24.2495H77.5001V29.0933H82.3438V24.2495Z" fill="#F1AEAE"/>
<path d="M82.3438 19.4058H77.5001V24.2496H82.3438V19.4058Z" fill="#F1AEAE"/>
<path d="M82.3438 14.562H77.5001V19.4057H82.3438V14.562Z" fill="#F1AEAE"/>
<path d="M82.3438 9.71826H77.5001V14.562H82.3438V9.71826Z" fill="#F8CBC5"/>
<path d="M82.3438 4.87451H77.5001V9.71825H82.3438V4.87451Z" fill="#EB8B8B"/>
<path d="M82.3438 0.0307617H77.5001V4.87451H82.3438V0.0307617Z" fill="black"/>
<path d="M77.5001 43.6243H72.6562V48.4681H77.5001V43.6243Z" fill="black"/>
<path d="M77.5001 38.7808H72.6562V43.6246H77.5001V38.7808Z" fill="#EB8B8B"/>
<path d="M77.5001 33.937H72.6562V38.7807H77.5001V33.937Z" fill="#EFA2A2"/>
<path d="M77.5001 29.0933H72.6562V33.937H77.5001V29.0933Z" fill="#F1AEAE"/>
<path d="M77.5001 24.2495H72.6562V29.0933H77.5001V24.2495Z" fill="#F1AEAE"/>
<path d="M77.5001 19.4058H72.6562V24.2496H77.5001V19.4058Z" fill="#F1AEAE"/>
<path d="M77.5001 14.562H72.6562V19.4057H77.5001V14.562Z" fill="#F1AEAE"/>
<path d="M77.5001 9.71826H72.6562V14.562H77.5001V9.71826Z" fill="#F8CBC5"/>
<path d="M77.5001 4.87451H72.6562V9.71825H77.5001V4.87451Z" fill="#EB8B8B"/>
<path d="M77.5001 0.0307617H72.6562V4.87451H77.5001V0.0307617Z" fill="black"/>
<path d="M72.6562 43.6243H67.8124V48.4681H72.6562V43.6243Z" fill="black"/>
<path d="M72.6562 38.7808H67.8124V43.6246H72.6562V38.7808Z" fill="#EB8B8B"/>
<path d="M72.6562 33.937H67.8124V38.7807H72.6562V33.937Z" fill="#EFA2A2"/>
<path d="M72.6562 29.0933H67.8124V33.937H72.6562V29.0933Z" fill="#F1AEAE"/>
<path d="M72.6562 24.2495H67.8124V29.0933H72.6562V24.2495Z" fill="#F1AEAE"/>
<path d="M72.6562 19.4058H67.8124V24.2496H72.6562V19.4058Z" fill="#F1AEAE"/>
<path d="M72.6562 14.562H67.8124V19.4057H72.6562V14.562Z" fill="#F1AEAE"/>
<path d="M72.6562 9.71826H67.8124V14.562H72.6562V9.71826Z" fill="#F8CBC5"/>
<path d="M72.6562 4.87451H67.8124V9.71825H72.6562V4.87451Z" fill="#EB8B8B"/>
<path d="M72.6562 0.0307617H67.8124V4.87451H72.6562V0.0307617Z" fill="black"/>
<path d="M67.8127 43.6243H62.969V48.4681H67.8127V43.6243Z" fill="black"/>
<path d="M67.8127 38.7808H62.969V43.6246H67.8127V38.7808Z" fill="#EB8B8B"/>
<path d="M67.8127 33.937H62.969V38.7807H67.8127V33.937Z" fill="#EFA2A2"/>
<path d="M67.8127 29.0933H62.969V33.937H67.8127V29.0933Z" fill="#F1AEAE"/>
<path d="M67.8127 24.2495H62.969V29.0933H67.8127V24.2495Z" fill="#F1AEAE"/>
<path d="M67.8127 19.4058H62.969V24.2496H67.8127V19.4058Z" fill="#F1AEAE"/>
<path d="M67.8127 14.562H62.969V19.4057H67.8127V14.562Z" fill="#F1AEAE"/>
<path d="M67.8127 9.71826H62.969V14.562H67.8127V9.71826Z" fill="#F8CBC5"/>
<path d="M67.8127 4.87451H62.969V9.71825H67.8127V4.87451Z" fill="#EB8B8B"/>
<path d="M67.8127 0.0307617H62.969V4.87451H67.8127V0.0307617Z" fill="black"/>
<path d="M62.9689 43.6243H58.1251V48.4681H62.9689V43.6243Z" fill="black"/>
<path d="M62.9689 38.7808H58.1251V43.6246H62.9689V38.7808Z" fill="#EB8B8B"/>
<path d="M62.9689 33.937H58.1251V38.7807H62.9689V33.937Z" fill="#EFA2A2"/>
<path d="M62.9689 29.0933H58.1251V33.937H62.9689V29.0933Z" fill="#F1AEAE"/>
<path d="M62.9689 24.2495H58.1251V29.0933H62.9689V24.2495Z" fill="#F1AEAE"/>
<path d="M62.9689 19.4058H58.1251V24.2496H62.9689V19.4058Z" fill="#F1AEAE"/>
<path d="M62.9689 14.562H58.1251V19.4057H62.9689V14.562Z" fill="#F1AEAE"/>
<path d="M62.9689 9.71826H58.1251V14.562H62.9689V9.71826Z" fill="#F8CBC5"/>
<path d="M62.9689 4.87451H58.1251V9.71825H62.9689V4.87451Z" fill="#EB8B8B"/>
<path d="M62.9689 0.0307617H58.1251V4.87451H62.9689V0.0307617Z" fill="black"/>
<path d="M58.125 43.6243H53.2812V48.4681H58.125V43.6243Z" fill="black"/>
<path d="M58.125 38.7808H53.2812V43.6246H58.125V38.7808Z" fill="#EB8B8B"/>
<path d="M58.125 33.937H53.2812V38.7807H58.125V33.937Z" fill="#EFA2A2"/>
<path d="M58.125 29.0933H53.2812V33.937H58.125V29.0933Z" fill="#F1AEAE"/>
<path d="M58.125 24.2495H53.2812V29.0933H58.125V24.2495Z" fill="#F1AEAE"/>
<path d="M58.125 19.4058H53.2812V24.2496H58.125V19.4058Z" fill="#F1AEAE"/>
<path d="M58.125 14.562H53.2812V19.4057H58.125V14.562Z" fill="#F1AEAE"/>
<path d="M58.125 9.71826H53.2812V14.562H58.125V9.71826Z" fill="#F8CBC5"/>
<path d="M58.125 4.87451H53.2812V9.71825H58.125V4.87451Z" fill="#EB8B8B"/>
<path d="M58.125 0.0307617H53.2812V4.87451H58.125V0.0307617Z" fill="black"/>
<path d="M53.2812 43.6243H48.4375V48.4681H53.2812V43.6243Z" fill="black"/>
<path d="M53.2812 38.7808H48.4375V43.6246H53.2812V38.7808Z" fill="#EB8B8B"/>
<path d="M53.2812 33.937H48.4375V38.7807H53.2812V33.937Z" fill="#EFA2A2"/>
<path d="M53.2812 29.0933H48.4375V33.937H53.2812V29.0933Z" fill="#F1AEAE"/>
<path d="M53.2812 24.2495H48.4375V29.0933H53.2812V24.2495Z" fill="#F1AEAE"/>
<path d="M53.2812 19.4058H48.4375V24.2496H53.2812V19.4058Z" fill="#F1AEAE"/>
<path d="M53.2812 14.562H48.4375V19.4057H53.2812V14.562Z" fill="#F1AEAE"/>
<path d="M53.2812 9.71826H48.4375V14.562H53.2812V9.71826Z" fill="#F8CBC5"/>
<path d="M53.2812 4.87451H48.4375V9.71825H53.2812V4.87451Z" fill="#EB8B8B"/>
<path d="M53.2812 0.0307617H48.4375V4.87451H53.2812V0.0307617Z" fill="black"/>
<path d="M48.4374 43.6243H43.5936V48.4681H48.4374V43.6243Z" fill="black"/>
<path d="M48.4374 38.7808H43.5936V43.6246H48.4374V38.7808Z" fill="#EB8B8B"/>
<path d="M48.4374 33.937H43.5936V38.7807H48.4374V33.937Z" fill="#EFA2A2"/>
<path d="M48.4374 29.0933H43.5936V33.937H48.4374V29.0933Z" fill="#F1AEAE"/>
<path d="M48.4374 24.2495H43.5936V29.0933H48.4374V24.2495Z" fill="#F1AEAE"/>
<path d="M48.4374 19.4058H43.5936V24.2496H48.4374V19.4058Z" fill="#F1AEAE"/>
<path d="M48.4374 14.562H43.5936V19.4057H48.4374V14.562Z" fill="#F1AEAE"/>
<path d="M48.4374 9.71826H43.5936V14.562H48.4374V9.71826Z" fill="#F8CBC5"/>
<path d="M48.4374 4.87451H43.5936V9.71825H48.4374V4.87451Z" fill="#EB8B8B"/>
<path d="M48.4374 0.0307617H43.5936V4.87451H48.4374V0.0307617Z" fill="black"/>
<path d="M43.594 43.6243H38.7502V48.4681H43.594V43.6243Z" fill="black"/>
<path d="M43.594 38.7808H38.7502V43.6246H43.594V38.7808Z" fill="#EB8B8B"/>
<path d="M43.594 33.937H38.7502V38.7807H43.594V33.937Z" fill="#EFA2A2"/>
<path d="M43.594 29.0933H38.7502V33.937H43.594V29.0933Z" fill="#F1AEAE"/>
<path d="M43.594 24.2495H38.7502V29.0933H43.594V24.2495Z" fill="#F1AEAE"/>
<path d="M43.594 19.4058H38.7502V24.2496H43.594V19.4058Z" fill="#F1AEAE"/>
<path d="M43.594 14.562H38.7502V19.4057H43.594V14.562Z" fill="#F1AEAE"/>
<path d="M43.594 9.71826H38.7502V14.562H43.594V9.71826Z" fill="#F8CBC5"/>
<path d="M43.594 4.87451H38.7502V9.71825H43.594V4.87451Z" fill="#EB8B8B"/>
<path d="M43.594 0.0307617H38.7502V4.87451H43.594V0.0307617Z" fill="black"/>
<path d="M38.7502 43.6243H33.9064V48.4681H38.7502V43.6243Z" fill="black"/>
<path d="M38.7502 38.7808H33.9064V43.6246H38.7502V38.7808Z" fill="#EB8B8B"/>
<path d="M38.7502 33.937H33.9064V38.7807H38.7502V33.937Z" fill="#EFA2A2"/>
<path d="M38.7502 29.0933H33.9064V33.937H38.7502V29.0933Z" fill="#F1AEAE"/>
<path d="M38.7502 24.2495H33.9064V29.0933H38.7502V24.2495Z" fill="#F1AEAE"/>
<path d="M38.7502 19.4058H33.9064V24.2496H38.7502V19.4058Z" fill="#F1AEAE"/>
<path d="M38.7502 14.562H33.9064V19.4057H38.7502V14.562Z" fill="#F1AEAE"/>
<path d="M38.7502 9.71826H33.9064V14.562H38.7502V9.71826Z" fill="#F8CBC5"/>
<path d="M38.7502 4.87451H33.9064V9.71825H38.7502V4.87451Z" fill="#EB8B8B"/>
<path d="M38.7502 0.0307617H33.9064V4.87451H38.7502V0.0307617Z" fill="black"/>
<path d="M33.9064 43.6243H29.0626V48.4681H33.9064V43.6243Z" fill="black"/>
<path d="M33.9064 38.7808H29.0626V43.6246H33.9064V38.7808Z" fill="#EB8B8B"/>
<path d="M33.9064 33.937H29.0626V38.7807H33.9064V33.937Z" fill="#EFA2A2"/>
<path d="M33.9064 29.0933H29.0626V33.937H33.9064V29.0933Z" fill="#F1AEAE"/>
<path d="M33.9064 24.2495H29.0626V29.0933H33.9064V24.2495Z" fill="#F1AEAE"/>
<path d="M33.9064 19.4058H29.0626V24.2496H33.9064V19.4058Z" fill="#F1AEAE"/>
<path d="M33.9064 14.562H29.0626V19.4057H33.9064V14.562Z" fill="#F1AEAE"/>
<path d="M33.9064 9.71826H29.0626V14.562H33.9064V9.71826Z" fill="#F8CBC5"/>
<path d="M33.9064 4.87451H29.0626V9.71825H33.9064V4.87451Z" fill="#EB8B8B"/>
<path d="M33.9064 0.0307617H29.0626V4.87451H33.9064V0.0307617Z" fill="black"/>
<path d="M29.0625 43.6243H24.2188V48.4681H29.0625V43.6243Z" fill="black"/>
<path d="M29.0625 38.7808H24.2188V43.6246H29.0625V38.7808Z" fill="#EB8B8B"/>
<path d="M29.0625 33.937H24.2188V38.7807H29.0625V33.937Z" fill="#EFA2A2"/>
<path d="M29.0625 29.0933H24.2188V33.937H29.0625V29.0933Z" fill="#F1AEAE"/>
<path d="M29.0625 24.2495H24.2188V29.0933H29.0625V24.2495Z" fill="#F1AEAE"/>
<path d="M29.0625 19.4058H24.2188V24.2496H29.0625V19.4058Z" fill="#F1AEAE"/>
<path d="M29.0625 14.562H24.2188V19.4057H29.0625V14.562Z" fill="#F1AEAE"/>
<path d="M29.0625 9.71826H24.2188V14.562H29.0625V9.71826Z" fill="#F8CBC5"/>
<path d="M29.0625 4.87451H24.2188V9.71825H29.0625V4.87451Z" fill="#EB8B8B"/>
<path d="M29.0625 0.0307617H24.2188V4.87451H29.0625V0.0307617Z" fill="black"/>
<path d="M24.2186 43.6243H19.3749V48.4681H24.2186V43.6243Z" fill="black"/>
<path d="M24.2186 38.7808H19.3749V43.6246H24.2186V38.7808Z" fill="#EB8B8B"/>
<path d="M24.2186 33.937H19.3749V38.7807H24.2186V33.937Z" fill="#EFA2A2"/>
<path d="M24.2186 29.0933H19.3749V33.937H24.2186V29.0933Z" fill="#F1AEAE"/>
<path d="M24.2186 24.2495H19.3749V29.0933H24.2186V24.2495Z" fill="#F1AEAE"/>
<path d="M24.2186 19.4058H19.3749V24.2496H24.2186V19.4058Z" fill="#F1AEAE"/>
<path d="M24.2186 14.562H19.3749V19.4057H24.2186V14.562Z" fill="#F1AEAE"/>
<path d="M24.2186 9.71826H19.3749V14.562H24.2186V9.71826Z" fill="#F8CBC5"/>
<path d="M24.2186 4.87451H19.3749V9.71825H24.2186V4.87451Z" fill="#EB8B8B"/>
<path d="M24.2186 0.0307617H19.3749V4.87451H24.2186V0.0307617Z" fill="black"/>
<path d="M19.3753 43.6243H14.5316V48.4681H19.3753V43.6243Z" fill="black"/>
<path d="M19.3753 38.7808H14.5316V43.6246H19.3753V38.7808Z" fill="#EB8B8B"/>
<path d="M19.3753 33.937H14.5316V38.7807H19.3753V33.937Z" fill="#EFA2A2"/>
<path d="M19.3753 29.0933H14.5316V33.937H19.3753V29.0933Z" fill="#F1AEAE"/>
<path d="M19.3753 24.2495H14.5316V29.0933H19.3753V24.2495Z" fill="#F1AEAE"/>
<path d="M19.3753 19.4058H14.5316V24.2496H19.3753V19.4058Z" fill="#F1AEAE"/>
<path d="M19.3753 14.562H14.5316V19.4057H19.3753V14.562Z" fill="#F1AEAE"/>
<path d="M19.3753 9.71826H14.5316V14.562H19.3753V9.71826Z" fill="#F8CBC5"/>
<path d="M19.3753 4.87451H14.5316V9.71825H19.3753V4.87451Z" fill="#EB8B8B"/>
<path d="M19.3753 0.0307617H14.5316V4.87451H19.3753V0.0307617Z" fill="black"/>
<path d="M14.5314 43.6243H9.68762V48.4681H14.5314V43.6243Z" fill="black"/>
<path d="M14.5314 38.7808H9.68762V43.6246H14.5314V38.7808Z" fill="#EB8B8B"/>
<path d="M14.5314 33.937H9.68762V38.7807H14.5314V33.937Z" fill="#EB8B8B"/>
<path d="M14.5314 29.0933H9.68762V33.937H14.5314V29.0933Z" fill="#EFA2A2"/>
<path d="M14.5314 24.2495H9.68762V29.0933H14.5314V24.2495Z" fill="#EFA2A2"/>
<path d="M14.5314 19.4058H9.68762V24.2496H14.5314V19.4058Z" fill="#EFA2A2"/>
<path d="M14.5314 14.562H9.68762V19.4057H14.5314V14.562Z" fill="#F8CBC5"/>
<path d="M14.5314 9.71826H9.68762V14.562H14.5314V9.71826Z" fill="#EB8B8B"/>
<path d="M14.5314 4.87451H9.68762V9.71825H14.5314V4.87451Z" fill="#EB8B8B"/>
<path d="M14.5314 0.0307617H9.68762V4.87451H14.5314V0.0307617Z" fill="black"/>
<path d="M9.6875 38.7808H4.84375V43.6246H9.6875V38.7808Z" fill="black"/>
<path d="M9.6875 33.937H4.84375V38.7807H9.6875V33.937Z" fill="#EB8B8B"/>
<path d="M9.6875 29.0933H4.84375V33.937H9.6875V29.0933Z" fill="#EB8B8B"/>
<path d="M9.6875 24.2495H4.84375V29.0933H9.6875V24.2495Z" fill="#EB8B8B"/>
<path d="M9.6875 19.4058H4.84375V24.2496H9.6875V19.4058Z" fill="#EB8B8B"/>
<path d="M9.6875 14.562H4.84375V19.4057H9.6875V14.562Z" fill="#EB8B8B"/>
<path d="M9.6875 9.71826H4.84375V14.562H9.6875V9.71826Z" fill="#EB8B8B"/>
<path d="M9.6875 4.87451H4.84375V9.71825H9.6875V4.87451Z" fill="black"/>
<path d="M4.84375 33.937H0V38.7807H4.84375V33.937Z" fill="black"/>
<path d="M4.84375 29.0933H0V33.937H4.84375V29.0933Z" fill="black"/>
<path d="M4.84375 24.2495H0V29.0933H4.84375V24.2495Z" fill="black"/>
<path d="M4.84375 19.4058H0V24.2496H4.84375V19.4058Z" fill="black"/>
<path d="M4.84375 14.562H0V19.4057H4.84375V14.562Z" fill="black"/>
<path d="M4.84375 9.71826H0V14.562H4.84375V9.71826Z" fill="black"/>
<path d="M41 31.0308V18.5863H42.7778V29.253H49.8889V31.0308H41ZM58.783 23.9197H53.4497V22.1419H58.783V23.9197ZM53.4497 27.4752V29.253H51.6719V23.9197H53.4497V25.6974H58.783V23.9197H60.5608V27.4752H53.4497ZM60.5608 31.0308H53.4497V29.253H60.5608V31.0308ZM65.8993 22.1419H67.6771V23.9197H65.8993V29.253H67.6771V31.0308H64.1215V23.9197H62.3438V22.1419H64.1215V18.5863H65.8993V22.1419ZM73.0087 20.3641H71.2309V18.5863H73.0087V20.3641ZM71.2309 18.5863H69.4531V16.8085H71.2309V18.5863ZM81.8924 31.0308H74.7812V29.253H81.8924V31.0308ZM83.6701 29.253H81.8924V27.4752H83.6701V29.253ZM81.8924 27.4752H76.559V25.6974H81.8924V27.4752ZM76.559 25.6974H74.7812V23.9197H76.559V25.6974ZM83.6701 23.9197H76.559V22.1419H83.6701V23.9197ZM92.559 29.253H90.7812V23.9197H92.559V29.253ZM97.8924 29.253H96.1146V27.4752H97.8924V25.6974H96.1146V23.9197H97.8924V22.1419H99.6701V32.8085H97.8924V29.253ZM96.1146 23.9197H92.559V22.1419H96.1146V23.9197ZM96.1146 31.0308H92.559V29.253H96.1146V31.0308ZM97.8924 34.5863H92.559V32.8085H97.8924V34.5863ZM103.231 29.253H101.453V23.9197H103.231V29.253ZM108.564 23.9197H103.231V22.1419H108.564V23.9197ZM110.342 29.253H108.564V23.9197H110.342V29.253ZM108.564 31.0308H103.231V29.253H108.564V31.0308ZM113.903 31.0308H112.125V29.253H113.903V31.0308ZM113.903 27.4752H112.125V18.5863H113.903V27.4752Z" fill="black"/>
</g>
<defs>
<clipPath id="clip0_385_10819">
<rect width="155" height="49" fill="white" transform="translate(0 0.0307617)"/>
</clipPath>
</defs>
</svg>
