<svg width="213" height="60" viewBox="0 0 213 60" fill="none" xmlns="http://www.w3.org/2000/svg">
<path d="M27.0286 37.0926L27.0402 35.0926L25.0402 35.081L25.0286 37.081L27.0286 37.0926ZM23.0519 33.0694L23.0402 35.0694L25.0402 35.081L25.0518 33.081L23.0519 33.0694ZM21.0635 31.0579L21.0519 33.0578L23.0519 33.0694L23.0635 31.0695L21.0635 31.0579ZM21.0751 29.0579L19.0751 29.0463L19.0635 31.0463L21.0635 31.0579L21.0751 29.0579ZM23.0867 27.0695L23.0751 29.0695L21.0751 29.0579L21.0867 27.0579L23.0867 27.0695ZM23.0867 27.0695L25.0866 27.0811L25.0983 25.0812L23.0983 25.0696L23.0867 27.0695ZM27.1098 23.0928L27.0982 25.0928L25.0983 25.0812L25.1099 23.0812L27.1098 23.0928Z" fill="black"/>
<path d="M35.0981 37.162L35.1098 35.1621L33.1098 35.1505L33.0982 37.1504L35.0981 37.162ZM31.1214 33.1389L31.1098 35.1389L33.1098 35.1505L33.1214 33.1505L31.1214 33.1389ZM29.1331 31.1273L29.1215 33.1273L31.1214 33.1389L31.133 31.1389L29.1331 31.1273ZM29.1447 29.1274L27.1447 29.1157L27.1331 31.1157L29.1331 31.1273L29.1447 29.1274ZM31.1563 27.139L31.1447 29.139L29.1447 29.1274L29.1563 27.1274L31.1563 27.139ZM31.1563 27.139L33.1562 27.1506L33.1678 25.1506L31.1679 25.139L31.1563 27.139ZM35.1794 23.1623L35.1678 25.1623L33.1678 25.1506L33.1794 23.1507L35.1794 23.1623Z" fill="black"/>
<path d="M182.058 23.0245L182.052 25.0245L184.052 25.0306L184.058 23.0306L182.058 23.0245ZM186.046 27.0367L186.052 25.0367L184.052 25.0306L184.046 27.0306L186.046 27.0367ZM188.04 29.0428L188.046 27.0428L186.046 27.0367L186.04 29.0367L188.04 29.0428ZM188.034 31.0428L190.034 31.0489L190.04 29.049L188.04 29.0428L188.034 31.0428ZM186.027 33.0367L186.034 31.0367L188.034 31.0428L188.027 33.0428L186.027 33.0367ZM186.027 33.0367L184.027 33.0306L184.021 35.0305L186.021 35.0367L186.027 33.0367ZM182.015 37.0244L182.021 35.0244L184.021 35.0305L184.015 37.0305L182.015 37.0244Z" fill="black"/>
<path d="M190.058 23.0245L190.052 25.0245L192.052 25.0306L192.058 23.0306L190.058 23.0245ZM194.046 27.0367L194.052 25.0367L192.052 25.0306L192.046 27.0306L194.046 27.0367ZM196.04 29.0428L196.046 27.0428L194.046 27.0367L194.04 29.0367L196.04 29.0428ZM196.034 31.0428L198.034 31.0489L198.04 29.049L196.04 29.0428L196.034 31.0428ZM194.027 33.0367L194.034 31.0367L196.034 31.0428L196.027 33.0428L194.027 33.0367ZM194.027 33.0367L192.027 33.0306L192.021 35.0305L194.021 35.0367L194.027 33.0367ZM190.015 37.0244L190.021 35.0244L192.021 35.0305L192.015 37.0305L190.015 37.0244Z" fill="black"/>
<g clip-path="url(#clip0_431_12236)">
<path d="M175.857 38.0571H171.743V42.1714H175.857V38.0571Z" fill="black"/>
<path d="M175.857 33.943H171.743V38.0573H175.857V33.943Z" fill="black"/>
<path d="M175.857 29.7429H171.743V33.8571H175.857V29.7429Z" fill="black"/>
<path d="M175.857 25.6285H171.743V29.7428H175.857V25.6285Z" fill="black"/>
<path d="M175.857 21.4285H171.743V25.5428H175.857V21.4285Z" fill="black"/>
<path d="M175.857 17.3142H171.743V21.4285H175.857V17.3142Z" fill="black"/>
<path d="M171.743 42.2572H167.629V46.3715H171.743V42.2572Z" fill="black"/>
<path d="M171.743 38.0571H167.629V42.1714H171.743V38.0571Z" fill="#EB8B8B"/>
<path d="M171.743 33.943H167.629V38.0573H171.743V33.943Z" fill="#EB8B8B"/>
<path d="M171.743 29.7429H167.629V33.8571H171.743V29.7429Z" fill="#EB8B8B"/>
<path d="M171.743 25.6285H167.629V29.7428H171.743V25.6285Z" fill="#EB8B8B"/>
<path d="M171.743 21.4285H167.629V25.5428H171.743V21.4285Z" fill="#EB8B8B"/>
<path d="M171.743 17.3142H167.629V21.4285H171.743V17.3142Z" fill="#EB8B8B"/>
<path d="M171.743 13.1143H167.629V17.2286H171.743V13.1143Z" fill="black"/>
<path d="M167.543 46.3715H163.429V50.4858H167.543V46.3715Z" fill="black"/>
<path d="M167.543 42.2572H163.429V46.3715H167.543V42.2572Z" fill="#EB8B8B"/>
<path d="M167.543 38.0571H163.429V42.1714H167.543V38.0571Z" fill="#EB8B8B"/>
<path d="M167.543 33.943H163.429V38.0573H167.543V33.943Z" fill="#EFA2A2"/>
<path d="M167.543 29.7429H163.429V33.8571H167.543V29.7429Z" fill="#EFA2A2"/>
<path d="M167.543 25.6285H163.429V29.7428H167.543V25.6285Z" fill="#EFA2A2"/>
<path d="M167.543 21.4285H163.429V25.5428H167.543V21.4285Z" fill="#F8CBC5"/>
<path d="M167.543 17.3142H163.429V21.4285H167.543V17.3142Z" fill="#EB8B8B"/>
<path d="M167.543 13.1143H163.429V17.2286H167.543V13.1143Z" fill="#EB8B8B"/>
<path d="M167.543 9H163.429V13.1143H167.543V9Z" fill="black"/>
<path d="M163.428 46.3715H159.314V50.4858H163.428V46.3715Z" fill="black"/>
<path d="M163.428 42.2572H159.314V46.3715H163.428V42.2572Z" fill="#EB8B8B"/>
<path d="M163.428 38.0571H159.314V42.1714H163.428V38.0571Z" fill="#EFA2A2"/>
<path d="M163.428 33.943H159.314V38.0573H163.428V33.943Z" fill="#F1AEAE"/>
<path d="M163.428 29.7429H159.314V33.8571H163.428V29.7429Z" fill="#F1AEAE"/>
<path d="M163.428 25.6285H159.314V29.7428H163.428V25.6285Z" fill="#F1AEAE"/>
<path d="M163.428 21.4285H159.314V25.5428H163.428V21.4285Z" fill="#F1AEAE"/>
<path d="M163.428 17.3142H159.314V21.4285H163.428V17.3142Z" fill="#F8CBC5"/>
<path d="M163.428 13.1143H159.314V17.2286H163.428V13.1143Z" fill="#EB8B8B"/>
<path d="M163.428 9H159.314V13.1143H163.428V9Z" fill="black"/>
<path d="M159.229 46.3715H155.114V50.4858H159.229V46.3715Z" fill="black"/>
<path d="M159.229 42.2572H155.114V46.3715H159.229V42.2572Z" fill="#EB8B8B"/>
<path d="M159.229 38.0571H155.114V42.1714H159.229V38.0571Z" fill="#EFA2A2"/>
<path d="M159.229 33.943H155.114V38.0573H159.229V33.943Z" fill="#F1AEAE"/>
<path d="M159.229 29.7429H155.114V33.8571H159.229V29.7429Z" fill="#F1AEAE"/>
<path d="M159.229 25.6285H155.114V29.7428H159.229V25.6285Z" fill="#F1AEAE"/>
<path d="M159.229 21.4285H155.114V25.5428H159.229V21.4285Z" fill="#F1AEAE"/>
<path d="M159.229 17.3142H155.114V21.4285H159.229V17.3142Z" fill="#F8CBC5"/>
<path d="M159.229 13.1143H155.114V17.2286H159.229V13.1143Z" fill="#EB8B8B"/>
<path d="M159.229 9H155.114V13.1143H159.229V9Z" fill="black"/>
<path d="M155.114 46.3715H151V50.4858H155.114V46.3715Z" fill="black"/>
<path d="M155.114 42.2572H151V46.3715H155.114V42.2572Z" fill="#EB8B8B"/>
<path d="M155.114 38.0571H151V42.1714H155.114V38.0571Z" fill="#EFA2A2"/>
<path d="M155.114 33.943H151V38.0573H155.114V33.943Z" fill="#F1AEAE"/>
<path d="M155.114 29.7429H151V33.8571H155.114V29.7429Z" fill="#F1AEAE"/>
<path d="M155.114 25.6285H151V29.7428H155.114V25.6285Z" fill="#F1AEAE"/>
<path d="M155.114 21.4285H151V25.5428H155.114V21.4285Z" fill="#F1AEAE"/>
<path d="M155.114 17.3142H151V21.4285H155.114V17.3142Z" fill="#F8CBC5"/>
<path d="M155.114 13.1143H151V17.2286H155.114V13.1143Z" fill="#EB8B8B"/>
<path d="M155.114 9H151V13.1143H155.114V9Z" fill="black"/>
<path d="M150.914 46.3715H146.8V50.4858H150.914V46.3715Z" fill="black"/>
<path d="M150.914 42.2572H146.8V46.3715H150.914V42.2572Z" fill="#EB8B8B"/>
<path d="M150.914 38.0571H146.8V42.1714H150.914V38.0571Z" fill="#EFA2A2"/>
<path d="M150.914 33.943H146.8V38.0573H150.914V33.943Z" fill="#F1AEAE"/>
<path d="M150.914 29.7429H146.8V33.8571H150.914V29.7429Z" fill="#F1AEAE"/>
<path d="M150.914 25.6285H146.8V29.7428H150.914V25.6285Z" fill="#F1AEAE"/>
<path d="M150.914 21.4285H146.8V25.5428H150.914V21.4285Z" fill="#F1AEAE"/>
<path d="M150.914 17.3142H146.8V21.4285H150.914V17.3142Z" fill="#F8CBC5"/>
<path d="M150.914 13.1143H146.8V17.2286H150.914V13.1143Z" fill="#EB8B8B"/>
<path d="M150.914 9H146.8V13.1143H150.914V9Z" fill="black"/>
<path d="M146.8 46.3715H142.686V50.4858H146.8V46.3715Z" fill="black"/>
<path d="M146.8 42.2572H142.686V46.3715H146.8V42.2572Z" fill="#EB8B8B"/>
<path d="M146.8 38.0571H142.686V42.1714H146.8V38.0571Z" fill="#EFA2A2"/>
<path d="M146.8 33.943H142.686V38.0573H146.8V33.943Z" fill="#F1AEAE"/>
<path d="M146.8 29.7429H142.686V33.8571H146.8V29.7429Z" fill="#F1AEAE"/>
<path d="M146.8 25.6285H142.686V29.7428H146.8V25.6285Z" fill="#F1AEAE"/>
<path d="M146.8 21.4285H142.686V25.5428H146.8V21.4285Z" fill="#F1AEAE"/>
<path d="M146.8 17.3142H142.686V21.4285H146.8V17.3142Z" fill="#F8CBC5"/>
<path d="M146.8 13.1143H142.686V17.2286H146.8V13.1143Z" fill="#EB8B8B"/>
<path d="M146.8 9H142.686V13.1143H146.8V9Z" fill="black"/>
<path d="M142.6 46.3715H138.486V50.4858H142.6V46.3715Z" fill="black"/>
<path d="M142.6 42.2572H138.486V46.3715H142.6V42.2572Z" fill="#EB8B8B"/>
<path d="M142.6 38.0571H138.486V42.1714H142.6V38.0571Z" fill="#EFA2A2"/>
<path d="M142.6 33.943H138.486V38.0573H142.6V33.943Z" fill="#F1AEAE"/>
<path d="M142.6 29.7429H138.486V33.8571H142.6V29.7429Z" fill="#F1AEAE"/>
<path d="M142.6 25.6285H138.486V29.7428H142.6V25.6285Z" fill="#F1AEAE"/>
<path d="M142.6 21.4285H138.486V25.5428H142.6V21.4285Z" fill="#F1AEAE"/>
<path d="M142.6 17.3142H138.486V21.4285H142.6V17.3142Z" fill="#F8CBC5"/>
<path d="M142.6 13.1143H138.486V17.2286H142.6V13.1143Z" fill="#EB8B8B"/>
<path d="M142.6 9H138.486V13.1143H142.6V9Z" fill="black"/>
<path d="M138.486 46.3715H134.372V50.4858H138.486V46.3715Z" fill="black"/>
<path d="M138.486 42.2572H134.372V46.3715H138.486V42.2572Z" fill="#EB8B8B"/>
<path d="M138.486 38.0571H134.372V42.1714H138.486V38.0571Z" fill="#EFA2A2"/>
<path d="M138.486 33.943H134.372V38.0573H138.486V33.943Z" fill="#F1AEAE"/>
<path d="M138.486 29.7429H134.372V33.8571H138.486V29.7429Z" fill="#F1AEAE"/>
<path d="M138.486 25.6285H134.372V29.7428H138.486V25.6285Z" fill="#F1AEAE"/>
<path d="M138.486 21.4285H134.372V25.5428H138.486V21.4285Z" fill="#F1AEAE"/>
<path d="M138.486 17.3142H134.372V21.4285H138.486V17.3142Z" fill="#F8CBC5"/>
<path d="M138.486 13.1143H134.372V17.2286H138.486V13.1143Z" fill="#EB8B8B"/>
<path d="M138.486 9H134.372V13.1143H138.486V9Z" fill="black"/>
<path d="M134.372 46.3715H130.257V50.4858H134.372V46.3715Z" fill="black"/>
<path d="M134.372 42.2572H130.257V46.3715H134.372V42.2572Z" fill="#EB8B8B"/>
<path d="M134.372 38.0571H130.257V42.1714H134.372V38.0571Z" fill="#EFA2A2"/>
<path d="M134.372 33.943H130.257V38.0573H134.372V33.943Z" fill="#F1AEAE"/>
<path d="M134.372 29.7429H130.257V33.8571H134.372V29.7429Z" fill="#F1AEAE"/>
<path d="M134.372 25.6285H130.257V29.7428H134.372V25.6285Z" fill="#F1AEAE"/>
<path d="M134.372 21.4285H130.257V25.5428H134.372V21.4285Z" fill="#F1AEAE"/>
<path d="M134.372 17.3142H130.257V21.4285H134.372V17.3142Z" fill="#F8CBC5"/>
<path d="M134.372 13.1143H130.257V17.2286H134.372V13.1143Z" fill="#EB8B8B"/>
<path d="M134.372 9H130.257V13.1143H134.372V9Z" fill="black"/>
<path d="M130.171 46.3715H126.057V50.4858H130.171V46.3715Z" fill="black"/>
<path d="M130.171 42.2572H126.057V46.3715H130.171V42.2572Z" fill="#EB8B8B"/>
<path d="M130.171 38.0571H126.057V42.1714H130.171V38.0571Z" fill="#EFA2A2"/>
<path d="M130.171 33.943H126.057V38.0573H130.171V33.943Z" fill="#F1AEAE"/>
<path d="M130.171 29.7429H126.057V33.8571H130.171V29.7429Z" fill="#F1AEAE"/>
<path d="M130.171 25.6285H126.057V29.7428H130.171V25.6285Z" fill="#F1AEAE"/>
<path d="M130.171 21.4285H126.057V25.5428H130.171V21.4285Z" fill="#F1AEAE"/>
<path d="M130.171 17.3142H126.057V21.4285H130.171V17.3142Z" fill="#F8CBC5"/>
<path d="M130.171 13.1143H126.057V17.2286H130.171V13.1143Z" fill="#EB8B8B"/>
<path d="M130.171 9H126.057V13.1143H130.171V9Z" fill="black"/>
<path d="M126.057 46.3715H121.857V50.4858H125.971L126.057 46.3715Z" fill="black"/>
<path d="M126.057 42.2572H121.857V46.3715H125.971L126.057 42.2572Z" fill="#EB8B8B"/>
<path d="M126.057 38.0571H121.857V42.1714H125.971L126.057 38.0571Z" fill="#EFA2A2"/>
<path d="M126.057 33.943H121.857V38.0573H125.971L126.057 33.943Z" fill="#F1AEAE"/>
<path d="M126.057 29.7429H121.857V33.8571H125.971L126.057 29.7429Z" fill="#F1AEAE"/>
<path d="M126.057 25.6285H121.857V29.7428H125.971L126.057 25.6285Z" fill="#F1AEAE"/>
<path d="M126.057 21.4285H121.857V25.5428H125.971L126.057 21.4285Z" fill="#F1AEAE"/>
<path d="M126.057 17.3142H121.857V21.4285H125.971L126.057 17.3142Z" fill="#F8CBC5"/>
<path d="M126.057 13.1143H121.857V17.2286H125.971L126.057 13.1143Z" fill="#EB8B8B"/>
<path d="M126.057 9H121.857V13.1143H125.971L126.057 9Z" fill="black"/>
<path d="M121.857 46.3715H117.743V50.4858H121.857V46.3715Z" fill="black"/>
<path d="M121.857 42.2572H117.743V46.3715H121.857V42.2572Z" fill="#EB8B8B"/>
<path d="M121.857 38.0571H117.743V42.1714H121.857V38.0571Z" fill="#EFA2A2"/>
<path d="M121.857 33.943H117.743V38.0573H121.857V33.943Z" fill="#F1AEAE"/>
<path d="M121.857 29.7429H117.743V33.8571H121.857V29.7429Z" fill="#F1AEAE"/>
<path d="M121.857 25.6285H117.743V29.7428H121.857V25.6285Z" fill="#F1AEAE"/>
<path d="M121.857 21.4285H117.743V25.5428H121.857V21.4285Z" fill="#F1AEAE"/>
<path d="M121.857 17.3142H117.743V21.4285H121.857V17.3142Z" fill="#F8CBC5"/>
<path d="M121.857 13.1143H117.743V17.2286H121.857V13.1143Z" fill="#EB8B8B"/>
<path d="M121.857 9H117.743V13.1143H121.857V9Z" fill="black"/>
<path d="M117.743 46.3715H113.629V50.4858H117.743V46.3715Z" fill="black"/>
<path d="M117.743 42.2572H113.629V46.3715H117.743V42.2572Z" fill="#EB8B8B"/>
<path d="M117.743 38.0571H113.629V42.1714H117.743V38.0571Z" fill="#EFA2A2"/>
<path d="M117.743 33.943H113.629V38.0573H117.743V33.943Z" fill="#F1AEAE"/>
<path d="M117.743 29.7429H113.629V33.8571H117.743V29.7429Z" fill="#F1AEAE"/>
<path d="M117.743 25.6285H113.629V29.7428H117.743V25.6285Z" fill="#F1AEAE"/>
<path d="M117.743 21.4285H113.629V25.5428H117.743V21.4285Z" fill="#F1AEAE"/>
<path d="M117.743 17.3142H113.629V21.4285H117.743V17.3142Z" fill="#F8CBC5"/>
<path d="M117.743 13.1143H113.629V17.2286H117.743V13.1143Z" fill="#EB8B8B"/>
<path d="M117.743 9H113.629V13.1143H117.743V9Z" fill="black"/>
<path d="M113.543 46.3715H109.428V50.4858H113.543V46.3715Z" fill="black"/>
<path d="M113.543 42.2572H109.428V46.3715H113.543V42.2572Z" fill="#EB8B8B"/>
<path d="M113.543 38.0571H109.428V42.1714H113.543V38.0571Z" fill="#EFA2A2"/>
<path d="M113.543 33.943H109.428V38.0573H113.543V33.943Z" fill="#F1AEAE"/>
<path d="M113.543 29.7429H109.428V33.8571H113.543V29.7429Z" fill="#F1AEAE"/>
<path d="M113.543 25.6285H109.428V29.7428H113.543V25.6285Z" fill="#F1AEAE"/>
<path d="M113.543 21.4285H109.428V25.5428H113.543V21.4285Z" fill="#F1AEAE"/>
<path d="M113.543 17.3142H109.428V21.4285H113.543V17.3142Z" fill="#F8CBC5"/>
<path d="M113.543 13.1143H109.428V17.2286H113.543V13.1143Z" fill="#EB8B8B"/>
<path d="M113.543 9H109.428V13.1143H113.543V9Z" fill="black"/>
<path d="M109.428 46.3715H105.314V50.4858H109.428V46.3715Z" fill="black"/>
<path d="M109.428 42.2572H105.314V46.3715H109.428V42.2572Z" fill="#EB8B8B"/>
<path d="M109.428 38.0571H105.314V42.1714H109.428V38.0571Z" fill="#EFA2A2"/>
<path d="M109.428 33.943H105.314V38.0573H109.428V33.943Z" fill="#F1AEAE"/>
<path d="M109.428 29.7429H105.314V33.8571H109.428V29.7429Z" fill="#F1AEAE"/>
<path d="M109.428 25.6285H105.314V29.7428H109.428V25.6285Z" fill="#F1AEAE"/>
<path d="M109.428 21.4285H105.314V25.5428H109.428V21.4285Z" fill="#F1AEAE"/>
<path d="M109.428 17.3142H105.314V21.4285H109.428V17.3142Z" fill="#F8CBC5"/>
<path d="M109.428 13.1143H105.314V17.2286H109.428V13.1143Z" fill="#EB8B8B"/>
<path d="M109.428 9H105.314V13.1143H109.428V9Z" fill="black"/>
<path d="M105.314 46.3715H101.2V50.4858H105.314V46.3715Z" fill="black"/>
<path d="M105.314 42.2572H101.2V46.3715H105.314V42.2572Z" fill="#EB8B8B"/>
<path d="M105.314 38.0571H101.2V42.1714H105.314V38.0571Z" fill="#EFA2A2"/>
<path d="M105.314 33.943H101.2V38.0573H105.314V33.943Z" fill="#F1AEAE"/>
<path d="M105.314 29.7429H101.2V33.8571H105.314V29.7429Z" fill="#F1AEAE"/>
<path d="M105.314 25.6285H101.2V29.7428H105.314V25.6285Z" fill="#F1AEAE"/>
<path d="M105.314 21.4285H101.2V25.5428H105.314V21.4285Z" fill="#F1AEAE"/>
<path d="M105.314 17.3142H101.2V21.4285H105.314V17.3142Z" fill="#F8CBC5"/>
<path d="M105.314 13.1143H101.2V17.2286H105.314V13.1143Z" fill="#EB8B8B"/>
<path d="M105.314 9H101.2V13.1143H105.314V9Z" fill="black"/>
<path d="M101.114 46.3715H97V50.4858H101.114V46.3715Z" fill="black"/>
<path d="M101.114 42.2572H97V46.3715H101.114V42.2572Z" fill="#EB8B8B"/>
<path d="M101.114 38.0571H97V42.1714H101.114V38.0571Z" fill="#EFA2A2"/>
<path d="M101.114 33.943H97V38.0573H101.114V33.943Z" fill="#F1AEAE"/>
<path d="M101.114 29.7429H97V33.8571H101.114V29.7429Z" fill="#F1AEAE"/>
<path d="M101.114 25.6285H97V29.7428H101.114V25.6285Z" fill="#F1AEAE"/>
<path d="M101.114 21.4285H97V25.5428H101.114V21.4285Z" fill="#F1AEAE"/>
<path d="M101.114 17.3142H97V21.4285H101.114V17.3142Z" fill="#F8CBC5"/>
<path d="M101.114 13.1143H97V17.2286H101.114V13.1143Z" fill="#EB8B8B"/>
<path d="M101.114 9H97V13.1143H101.114V9Z" fill="black"/>
<path d="M97 46.3715H92.8857V50.4858H97V46.3715Z" fill="black"/>
<path d="M97 42.2572H92.8857V46.3715H97V42.2572Z" fill="#EB8B8B"/>
<path d="M97 38.0571H92.8857V42.1714H97V38.0571Z" fill="#EFA2A2"/>
<path d="M97 33.943H92.8857V38.0573H97V33.943Z" fill="#F1AEAE"/>
<path d="M97 29.7429H92.8857V33.8571H97V29.7429Z" fill="#F1AEAE"/>
<path d="M97 25.6285H92.8857V29.7428H97V25.6285Z" fill="#F1AEAE"/>
<path d="M97 21.4285H92.8857V25.5428H97V21.4285Z" fill="#F1AEAE"/>
<path d="M97 17.3142H92.8857V21.4285H97V17.3142Z" fill="#F8CBC5"/>
<path d="M97 13.1143H92.8857V17.2286H97V13.1143Z" fill="#EB8B8B"/>
<path d="M97 9H92.8857V13.1143H97V9Z" fill="black"/>
<path d="M92.8001 46.3715H88.6858V50.4858H92.8001V46.3715Z" fill="black"/>
<path d="M92.8001 42.2572H88.6858V46.3715H92.8001V42.2572Z" fill="#EB8B8B"/>
<path d="M92.8001 38.0571H88.6858V42.1714H92.8001V38.0571Z" fill="#EFA2A2"/>
<path d="M92.8001 33.943H88.6858V38.0573H92.8001V33.943Z" fill="#F1AEAE"/>
<path d="M92.8001 29.7429H88.6858V33.8571H92.8001V29.7429Z" fill="#F1AEAE"/>
<path d="M92.8001 25.6285H88.6858V29.7428H92.8001V25.6285Z" fill="#F1AEAE"/>
<path d="M92.8001 21.4285H88.6858V25.5428H92.8001V21.4285Z" fill="#F1AEAE"/>
<path d="M92.8001 17.3142H88.6858V21.4285H92.8001V17.3142Z" fill="#F8CBC5"/>
<path d="M92.8001 13.1143H88.6858V17.2286H92.8001V13.1143Z" fill="#EB8B8B"/>
<path d="M92.8001 9H88.6858V13.1143H92.8001V9Z" fill="black"/>
<path d="M88.6858 46.3715H84.5715V50.4858H88.6858V46.3715Z" fill="black"/>
<path d="M88.6858 42.2572H84.5715V46.3715H88.6858V42.2572Z" fill="#EB8B8B"/>
<path d="M88.6858 38.0571H84.5715V42.1714H88.6858V38.0571Z" fill="#EFA2A2"/>
<path d="M88.6858 33.943H84.5715V38.0573H88.6858V33.943Z" fill="#F1AEAE"/>
<path d="M88.6858 29.7429H84.5715V33.8571H88.6858V29.7429Z" fill="#F1AEAE"/>
<path d="M88.6858 25.6285H84.5715V29.7428H88.6858V25.6285Z" fill="#F1AEAE"/>
<path d="M88.6858 21.4285H84.5715V25.5428H88.6858V21.4285Z" fill="#F1AEAE"/>
<path d="M88.6858 17.3142H84.5715V21.4285H88.6858V17.3142Z" fill="#F8CBC5"/>
<path d="M88.6858 13.1143H84.5715V17.2286H88.6858V13.1143Z" fill="#EB8B8B"/>
<path d="M88.6858 9H84.5715V13.1143H88.6858V9Z" fill="black"/>
<path d="M84.4856 46.3715H80.3713V50.4858H84.4856V46.3715Z" fill="black"/>
<path d="M84.4856 42.2572H80.3713V46.3715H84.4856V42.2572Z" fill="#EB8B8B"/>
<path d="M84.4856 38.0571H80.3713V42.1714H84.4856V38.0571Z" fill="#EFA2A2"/>
<path d="M84.4856 33.943H80.3713V38.0573H84.4856V33.943Z" fill="#F1AEAE"/>
<path d="M84.4856 29.7429H80.3713V33.8571H84.4856V29.7429Z" fill="#F1AEAE"/>
<path d="M84.4856 25.6285H80.3713V29.7428H84.4856V25.6285Z" fill="#F1AEAE"/>
<path d="M84.4856 21.4285H80.3713V25.5428H84.4856V21.4285Z" fill="#F1AEAE"/>
<path d="M84.4856 17.3142H80.3713V21.4285H84.4856V17.3142Z" fill="#F8CBC5"/>
<path d="M84.4856 13.1143H80.3713V17.2286H84.4856V13.1143Z" fill="#EB8B8B"/>
<path d="M84.4856 9H80.3713V13.1143H84.4856V9Z" fill="black"/>
<path d="M80.3714 46.3715H76.2571V50.4858H80.3714V46.3715Z" fill="black"/>
<path d="M80.3714 42.2572H76.2571V46.3715H80.3714V42.2572Z" fill="#EB8B8B"/>
<path d="M80.3714 38.0571H76.2571V42.1714H80.3714V38.0571Z" fill="#EFA2A2"/>
<path d="M80.3714 33.943H76.2571V38.0573H80.3714V33.943Z" fill="#F1AEAE"/>
<path d="M80.3714 29.7429H76.2571V33.8571H80.3714V29.7429Z" fill="#F1AEAE"/>
<path d="M80.3714 25.6285H76.2571V29.7428H80.3714V25.6285Z" fill="#F1AEAE"/>
<path d="M80.3714 21.4285H76.2571V25.5428H80.3714V21.4285Z" fill="#F1AEAE"/>
<path d="M80.3714 17.3142H76.2571V21.4285H80.3714V17.3142Z" fill="#F8CBC5"/>
<path d="M80.3714 13.1143H76.2571V17.2286H80.3714V13.1143Z" fill="#EB8B8B"/>
<path d="M80.3714 9H76.2571V13.1143H80.3714V9Z" fill="black"/>
<path d="M76.2571 46.3715H72.1428V50.4858H76.2571V46.3715Z" fill="black"/>
<path d="M76.2571 42.2572H72.1428V46.3715H76.2571V42.2572Z" fill="#EB8B8B"/>
<path d="M76.2571 38.0571H72.1428V42.1714H76.2571V38.0571Z" fill="#EFA2A2"/>
<path d="M76.2571 33.943H72.1428V38.0573H76.2571V33.943Z" fill="#F1AEAE"/>
<path d="M76.2571 29.7429H72.1428V33.8571H76.2571V29.7429Z" fill="#F1AEAE"/>
<path d="M76.2571 25.6285H72.1428V29.7428H76.2571V25.6285Z" fill="#F1AEAE"/>
<path d="M76.2571 21.4285H72.1428V25.5428H76.2571V21.4285Z" fill="#F1AEAE"/>
<path d="M76.2571 17.3142H72.1428V21.4285H76.2571V17.3142Z" fill="#F8CBC5"/>
<path d="M76.2571 13.1143H72.1428V17.2286H76.2571V13.1143Z" fill="#EB8B8B"/>
<path d="M76.2571 9H72.1428V13.1143H76.2571V9Z" fill="black"/>
<path d="M72.0572 46.3715H67.9429V50.4858H72.0572V46.3715Z" fill="black"/>
<path d="M72.0572 42.2572H67.9429V46.3715H72.0572V42.2572Z" fill="#EB8B8B"/>
<path d="M72.0572 38.0571H67.9429V42.1714H72.0572V38.0571Z" fill="#EFA2A2"/>
<path d="M72.0572 33.943H67.9429V38.0573H72.0572V33.943Z" fill="#F1AEAE"/>
<path d="M72.0572 29.7429H67.9429V33.8571H72.0572V29.7429Z" fill="#F1AEAE"/>
<path d="M72.0572 25.6285H67.9429V29.7428H72.0572V25.6285Z" fill="#F1AEAE"/>
<path d="M72.0572 21.4285H67.9429V25.5428H72.0572V21.4285Z" fill="#F1AEAE"/>
<path d="M72.0572 17.3142H67.9429V21.4285H72.0572V17.3142Z" fill="#F8CBC5"/>
<path d="M72.0572 13.1143H67.9429V17.2286H72.0572V13.1143Z" fill="#EB8B8B"/>
<path d="M72.0572 9H67.9429V13.1143H72.0572V9Z" fill="black"/>
<path d="M67.9429 46.3715H63.8286V50.4858H67.9429V46.3715Z" fill="black"/>
<path d="M67.9429 42.2572H63.8286V46.3715H67.9429V42.2572Z" fill="#EB8B8B"/>
<path d="M67.9429 38.0571H63.8286V42.1714H67.9429V38.0571Z" fill="#EFA2A2"/>
<path d="M67.9429 33.943H63.8286V38.0573H67.9429V33.943Z" fill="#F1AEAE"/>
<path d="M67.9429 29.7429H63.8286V33.8571H67.9429V29.7429Z" fill="#F1AEAE"/>
<path d="M67.9429 25.6285H63.8286V29.7428H67.9429V25.6285Z" fill="#F1AEAE"/>
<path d="M67.9429 21.4285H63.8286V25.5428H67.9429V21.4285Z" fill="#F1AEAE"/>
<path d="M67.9429 17.3142H63.8286V21.4285H67.9429V17.3142Z" fill="#F8CBC5"/>
<path d="M67.9429 13.1143H63.8286V17.2286H67.9429V13.1143Z" fill="#EB8B8B"/>
<path d="M67.9429 9H63.8286V13.1143H67.9429V9Z" fill="black"/>
<path d="M63.7429 46.3715H59.6287V50.4858H63.7429V46.3715Z" fill="black"/>
<path d="M63.7429 42.2572H59.6287V46.3715H63.7429V42.2572Z" fill="#EB8B8B"/>
<path d="M63.7429 38.0571H59.6287V42.1714H63.7429V38.0571Z" fill="#EFA2A2"/>
<path d="M63.7429 33.943H59.6287V38.0573H63.7429V33.943Z" fill="#F1AEAE"/>
<path d="M63.7429 29.7429H59.6287V33.8571H63.7429V29.7429Z" fill="#F1AEAE"/>
<path d="M63.7429 25.6285H59.6287V29.7428H63.7429V25.6285Z" fill="#F1AEAE"/>
<path d="M63.7429 21.4285H59.6287V25.5428H63.7429V21.4285Z" fill="#F1AEAE"/>
<path d="M63.7429 17.3142H59.6287V21.4285H63.7429V17.3142Z" fill="#F8CBC5"/>
<path d="M63.7429 13.1143H59.6287V17.2286H63.7429V13.1143Z" fill="#EB8B8B"/>
<path d="M63.7429 9H59.6287V13.1143H63.7429V9Z" fill="black"/>
<path d="M59.6287 46.3715H55.5144V50.4858H59.6287V46.3715Z" fill="black"/>
<path d="M59.6287 42.2572H55.5144V46.3715H59.6287V42.2572Z" fill="#EB8B8B"/>
<path d="M59.6287 38.0571H55.5144V42.1714H59.6287V38.0571Z" fill="#EFA2A2"/>
<path d="M59.6287 33.943H55.5144V38.0573H59.6287V33.943Z" fill="#F1AEAE"/>
<path d="M59.6287 29.7429H55.5144V33.8571H59.6287V29.7429Z" fill="#F1AEAE"/>
<path d="M59.6287 25.6285H55.5144V29.7428H59.6287V25.6285Z" fill="#F1AEAE"/>
<path d="M59.6287 21.4285H55.5144V25.5428H59.6287V21.4285Z" fill="#F1AEAE"/>
<path d="M59.6287 17.3142H55.5144V21.4285H59.6287V17.3142Z" fill="#F8CBC5"/>
<path d="M59.6287 13.1143H55.5144V17.2286H59.6287V13.1143Z" fill="#EB8B8B"/>
<path d="M59.6287 9H55.5144V13.1143H59.6287V9Z" fill="black"/>
<path d="M55.4285 46.3715H51.3142V50.4858H55.4285V46.3715Z" fill="black"/>
<path d="M55.4285 42.2572H51.3142V46.3715H55.4285V42.2572Z" fill="#EB8B8B"/>
<path d="M55.4285 38.0571H51.3142V42.1714H55.4285V38.0571Z" fill="#EB8B8B"/>
<path d="M55.4285 33.943H51.3142V38.0573H55.4285V33.943Z" fill="#EFA2A2"/>
<path d="M55.4285 29.7429H51.3142V33.8571H55.4285V29.7429Z" fill="#EFA2A2"/>
<path d="M55.4285 25.6285H51.3142V29.7428H55.4285V25.6285Z" fill="#EFA2A2"/>
<path d="M55.4285 21.4285H51.3142V25.5428H55.4285V21.4285Z" fill="#F8CBC5"/>
<path d="M55.4285 17.3142H51.3142V21.4285H55.4285V17.3142Z" fill="#EB8B8B"/>
<path d="M55.4285 13.1143H51.3142V17.2286H55.4285V13.1143Z" fill="#EB8B8B"/>
<path d="M55.4285 9H51.3142V13.1143H55.4285V9Z" fill="black"/>
<path d="M51.3143 42.2572H47.1143V46.3715H51.2285L51.3143 42.2572Z" fill="black"/>
<path d="M51.3143 38.0571H47.1143V42.1714H51.2285L51.3143 38.0571Z" fill="#EB8B8B"/>
<path d="M51.3143 33.943H47.1143V38.0573H51.2285L51.3143 33.943Z" fill="#EB8B8B"/>
<path d="M51.3143 29.7429H47.1143V33.8571H51.2285L51.3143 29.7429Z" fill="#EB8B8B"/>
<path d="M51.3143 25.6285H47.1143V29.7428H51.2285L51.3143 25.6285Z" fill="#EB8B8B"/>
<path d="M51.3143 21.4285H47.1143V25.5428H51.2285L51.3143 21.4285Z" fill="#EB8B8B"/>
<path d="M51.3143 17.3142H47.1143V21.4285H51.2285L51.3143 17.3142Z" fill="#EB8B8B"/>
<path d="M51.3143 13.1143H47.1143V17.2286H51.2285L51.3143 13.1143Z" fill="black"/>
<path d="M47.1143 38.0571H43V42.1714H47.1143V38.0571Z" fill="black"/>
<path d="M47.1143 33.943H43V38.0573H47.1143V33.943Z" fill="black"/>
<path d="M47.1143 29.7429H43V33.8571H47.1143V29.7429Z" fill="black"/>
<path d="M47.1143 25.6285H43V29.7428H47.1143V25.6285Z" fill="black"/>
<path d="M47.1143 21.4285H43V25.5428H47.1143V21.4285Z" fill="black"/>
<path d="M47.1143 17.3142H43V21.4285H47.1143V17.3142Z" fill="black"/>
<path d="M92.3242 35V24.1111H93.8798V33.4444H100.102V35H92.3242ZM103.218 35H101.662V27.2222H103.218V35ZM103.218 25.6667H101.662V24.1111H103.218V25.6667ZM106.335 33.4444H104.779V28.7778H106.335V33.4444ZM111.002 33.4444H109.446V31.8889H111.002V30.3333H109.446V28.7778H111.002V27.2222H112.557V36.5556H111.002V33.4444ZM109.446 28.7778H106.335V27.2222H109.446V28.7778ZM109.446 35H106.335V33.4444H109.446V35ZM111.002 38.1111H106.335V36.5556H111.002V38.1111ZM115.673 30.3333V35H114.117V24.1111H115.673V28.7778H117.228V30.3333H115.673ZM121.895 35H120.339V28.7778H121.895V35ZM120.339 28.7778H117.228V27.2222H120.339V28.7778ZM126.566 27.2222H128.122V28.7778H126.566V33.4444H128.122V35H125.011V28.7778H123.455V27.2222H125.011V24.1111H126.566V27.2222Z" fill="black"/>
</g>
<defs>
<clipPath id="clip0_431_12236">
<rect width="132.857" height="42" fill="white" transform="translate(43 9)"/>
</clipPath>
</defs>
</svg>
