<svg width="28" height="24" viewBox="0 0 28 24" fill="none" xmlns="http://www.w3.org/2000/svg">
<path d="M23.4938 4.2875H22.1638V20.285H23.4938V4.2875Z" fill="#EB8B8B"/>
<path d="M22.1637 20.285H20.8337V21.425H22.1637V20.285Z" fill="#EB8B8B"/>
<path d="M22.1637 3.14H20.8337V4.2875H22.1637V3.14Z" fill="#EB8B8B"/>
<path d="M20.8337 21.425H16.835V22.5725H20.8337V21.425Z" fill="#EB8B8B"/>
<path d="M19.495 16.8575H18.165V17.9975H19.495V16.8575Z" fill="#EB8B8B"/>
<path d="M19.495 6.5675H18.165V7.715H19.495V6.5675Z" fill="#EB8B8B"/>
<path d="M20.8337 2H16.835V3.14H20.8337V2Z" fill="#EB8B8B"/>
<path d="M18.165 7.715H16.835V16.8575H18.165V7.715Z" fill="#EB8B8B"/>
<path d="M16.8351 20.285H15.4963V21.425H16.8351V20.285Z" fill="#EB8B8B"/>
<path d="M16.8351 3.14H15.4963V4.2875H16.8351V3.14Z" fill="#EB8B8B"/>
<path d="M15.4963 19.1375H14.1663V20.285H15.4963V19.1375Z" fill="#EB8B8B"/>
<path d="M15.4963 4.2875H14.1663V5.4275H15.4963V4.2875Z" fill="#EB8B8B"/>
<path d="M14.1661 17.9975H12.8274V19.1375H14.1661V17.9975Z" fill="#EB8B8B"/>
<path d="M14.1661 5.42751H12.8274V6.56751H14.1661V5.42751Z" fill="#EB8B8B"/>
<path d="M12.8276 16.8575H11.4976V17.9975H12.8276V16.8575Z" fill="#EB8B8B"/>
<path d="M12.8276 6.5675H11.4976V7.715H12.8276V6.5675Z" fill="#EB8B8B"/>
<path d="M11.4975 15.71H10.1675V16.8575H11.4975V15.71Z" fill="#EB8B8B"/>
<path d="M11.4975 7.715H10.1675V8.855H11.4975V7.715Z" fill="#EB8B8B"/>
<path d="M10.1675 8.855H4.83V9.995H3.5V14.57H4.83V15.71H10.1675V8.855ZM7.49875 11.1425H6.16875V13.43H4.83V11.1425H6.16875V9.995H7.49875V11.1425Z" fill="#EB8B8B"/>
</svg>
