<svg width="195" height="76" viewBox="0 0 195 76" fill="none" xmlns="http://www.w3.org/2000/svg">
<g clip-path="url(#clip0_535_13170)">
<path d="M179 46.9H174.2V51.7H179V46.9Z" fill="black"/>
<path d="M179 42.1H174.2V46.9H179V42.1Z" fill="black"/>
<path d="M179 37.2H174.2V42H179V37.2Z" fill="black"/>
<path d="M179 32.4H174.2V37.2H179V32.4Z" fill="black"/>
<path d="M179 27.4999H174.2V32.2999H179V27.4999Z" fill="black"/>
<path d="M179 22.7H174.2V27.5H179V22.7Z" fill="black"/>
<path d="M174.2 51.8H169.4V56.6H174.2V51.8Z" fill="black"/>
<path d="M174.2 46.9H169.4V51.7H174.2V46.9Z" fill="#EB8B8B"/>
<path d="M174.2 42.1H169.4V46.9H174.2V42.1Z" fill="#EB8B8B"/>
<path d="M174.2 37.2H169.4V42H174.2V37.2Z" fill="#EB8B8B"/>
<path d="M174.2 32.4H169.4V37.2H174.2V32.4Z" fill="#EB8B8B"/>
<path d="M174.2 27.4999H169.4V32.2999H174.2V27.4999Z" fill="#EB8B8B"/>
<path d="M174.2 22.7H169.4V27.5H174.2V22.7Z" fill="#EB8B8B"/>
<path d="M174.2 17.7999H169.4V22.5999H174.2V17.7999Z" fill="black"/>
<path d="M169.3 56.6H164.5V61.4H169.3V56.6Z" fill="black"/>
<path d="M169.3 51.8H164.5V56.6H169.3V51.8Z" fill="#EB8B8B"/>
<path d="M169.3 46.9H164.5V51.7H169.3V46.9Z" fill="#EB8B8B"/>
<path d="M169.3 42.1H164.5V46.9H169.3V42.1Z" fill="#EFA2A2"/>
<path d="M169.3 37.2H164.5V42H169.3V37.2Z" fill="#EFA2A2"/>
<path d="M169.3 32.4H164.5V37.2H169.3V32.4Z" fill="#EFA2A2"/>
<path d="M169.3 27.4999H164.5V32.2999H169.3V27.4999Z" fill="#F8CBC5"/>
<path d="M169.3 22.7H164.5V27.5H169.3V22.7Z" fill="#EB8B8B"/>
<path d="M169.3 17.7999H164.5V22.5999H169.3V17.7999Z" fill="#EB8B8B"/>
<path d="M169.3 13H164.5V17.8H169.3V13Z" fill="black"/>
<path d="M164.5 56.6H159.7V61.4H164.5V56.6Z" fill="black"/>
<path d="M164.5 51.8H159.7V56.6H164.5V51.8Z" fill="#EB8B8B"/>
<path d="M164.5 46.9H159.7V51.7H164.5V46.9Z" fill="#EFA2A2"/>
<path d="M164.5 42.1H159.7V46.9H164.5V42.1Z" fill="#F1AEAE"/>
<path d="M164.5 37.2H159.7V42H164.5V37.2Z" fill="#F1AEAE"/>
<path d="M164.5 32.4H159.7V37.2H164.5V32.4Z" fill="#F1AEAE"/>
<path d="M164.5 27.4999H159.7V32.2999H164.5V27.4999Z" fill="#F1AEAE"/>
<path d="M164.5 22.7H159.7V27.5H164.5V22.7Z" fill="#F8CBC5"/>
<path d="M164.5 17.7999H159.7V22.5999H164.5V17.7999Z" fill="#EB8B8B"/>
<path d="M164.5 13H159.7V17.8H164.5V13Z" fill="black"/>
<path d="M159.6 56.6H154.8V61.4H159.6V56.6Z" fill="black"/>
<path d="M159.6 51.8H154.8V56.6H159.6V51.8Z" fill="#EB8B8B"/>
<path d="M159.6 46.9H154.8V51.7H159.6V46.9Z" fill="#EFA2A2"/>
<path d="M159.6 42.1H154.8V46.9H159.6V42.1Z" fill="#F1AEAE"/>
<path d="M159.6 37.2H154.8V42H159.6V37.2Z" fill="#F1AEAE"/>
<path d="M159.6 32.4H154.8V37.2H159.6V32.4Z" fill="#F1AEAE"/>
<path d="M159.6 27.4999H154.8V32.2999H159.6V27.4999Z" fill="#F1AEAE"/>
<path d="M159.6 22.7H154.8V27.5H159.6V22.7Z" fill="#F8CBC5"/>
<path d="M159.6 17.7999H154.8V22.5999H159.6V17.7999Z" fill="#EB8B8B"/>
<path d="M159.6 13H154.8V17.8H159.6V13Z" fill="black"/>
<path d="M154.8 56.6H150V61.4H154.8V56.6Z" fill="black"/>
<path d="M154.8 51.8H150V56.6H154.8V51.8Z" fill="#EB8B8B"/>
<path d="M154.8 46.9H150V51.7H154.8V46.9Z" fill="#EFA2A2"/>
<path d="M154.8 42.1H150V46.9H154.8V42.1Z" fill="#F1AEAE"/>
<path d="M154.8 37.2H150V42H154.8V37.2Z" fill="#F1AEAE"/>
<path d="M154.8 32.4H150V37.2H154.8V32.4Z" fill="#F1AEAE"/>
<path d="M154.8 27.4999H150V32.2999H154.8V27.4999Z" fill="#F1AEAE"/>
<path d="M154.8 22.7H150V27.5H154.8V22.7Z" fill="#F8CBC5"/>
<path d="M154.8 17.7999H150V22.5999H154.8V17.7999Z" fill="#EB8B8B"/>
<path d="M154.8 13H150V17.8H154.8V13Z" fill="black"/>
<path d="M149.9 56.6H145.1V61.4H149.9V56.6Z" fill="black"/>
<path d="M149.9 51.8H145.1V56.6H149.9V51.8Z" fill="#EB8B8B"/>
<path d="M149.9 46.9H145.1V51.7H149.9V46.9Z" fill="#EFA2A2"/>
<path d="M149.9 42.1H145.1V46.9H149.9V42.1Z" fill="#F1AEAE"/>
<path d="M149.9 37.2H145.1V42H149.9V37.2Z" fill="#F1AEAE"/>
<path d="M149.9 32.4H145.1V37.2H149.9V32.4Z" fill="#F1AEAE"/>
<path d="M149.9 27.4999H145.1V32.2999H149.9V27.4999Z" fill="#F1AEAE"/>
<path d="M149.9 22.7H145.1V27.5H149.9V22.7Z" fill="#F8CBC5"/>
<path d="M149.9 17.7999H145.1V22.5999H149.9V17.7999Z" fill="#EB8B8B"/>
<path d="M149.9 13H145.1V17.8H149.9V13Z" fill="black"/>
<path d="M145.1 56.6H140.3V61.4H145.1V56.6Z" fill="black"/>
<path d="M145.1 51.8H140.3V56.6H145.1V51.8Z" fill="#EB8B8B"/>
<path d="M145.1 46.9H140.3V51.7H145.1V46.9Z" fill="#EFA2A2"/>
<path d="M145.1 42.1H140.3V46.9H145.1V42.1Z" fill="#F1AEAE"/>
<path d="M145.1 37.2H140.3V42H145.1V37.2Z" fill="#F1AEAE"/>
<path d="M145.1 32.4H140.3V37.2H145.1V32.4Z" fill="#F1AEAE"/>
<path d="M145.1 27.4999H140.3V32.2999H145.1V27.4999Z" fill="#F1AEAE"/>
<path d="M145.1 22.7H140.3V27.5H145.1V22.7Z" fill="#F8CBC5"/>
<path d="M145.1 17.7999H140.3V22.5999H145.1V17.7999Z" fill="#EB8B8B"/>
<path d="M145.1 13H140.3V17.8H145.1V13Z" fill="black"/>
<path d="M140.2 56.6H135.4V61.4H140.2V56.6Z" fill="black"/>
<path d="M140.2 51.8H135.4V56.6H140.2V51.8Z" fill="#EB8B8B"/>
<path d="M140.2 46.9H135.4V51.7H140.2V46.9Z" fill="#EFA2A2"/>
<path d="M140.2 42.1H135.4V46.9H140.2V42.1Z" fill="#F1AEAE"/>
<path d="M140.2 37.2H135.4V42H140.2V37.2Z" fill="#F1AEAE"/>
<path d="M140.2 32.4H135.4V37.2H140.2V32.4Z" fill="#F1AEAE"/>
<path d="M140.2 27.4999H135.4V32.2999H140.2V27.4999Z" fill="#F1AEAE"/>
<path d="M140.2 22.7H135.4V27.5H140.2V22.7Z" fill="#F8CBC5"/>
<path d="M140.2 17.7999H135.4V22.5999H140.2V17.7999Z" fill="#EB8B8B"/>
<path d="M140.2 13H135.4V17.8H140.2V13Z" fill="black"/>
<path d="M135.4 56.6H130.6V61.4H135.4V56.6Z" fill="black"/>
<path d="M135.4 51.8H130.6V56.6H135.4V51.8Z" fill="#EB8B8B"/>
<path d="M135.4 46.9H130.6V51.7H135.4V46.9Z" fill="#EFA2A2"/>
<path d="M135.4 42.1H130.6V46.9H135.4V42.1Z" fill="#F1AEAE"/>
<path d="M135.4 37.2H130.6V42H135.4V37.2Z" fill="#F1AEAE"/>
<path d="M135.4 32.4H130.6V37.2H135.4V32.4Z" fill="#F1AEAE"/>
<path d="M135.4 27.4999H130.6V32.2999H135.4V27.4999Z" fill="#F1AEAE"/>
<path d="M135.4 22.7H130.6V27.5H135.4V22.7Z" fill="#F8CBC5"/>
<path d="M135.4 17.7999H130.6V22.5999H135.4V17.7999Z" fill="#EB8B8B"/>
<path d="M135.4 13H130.6V17.8H135.4V13Z" fill="black"/>
<path d="M130.6 56.6H125.8V61.4H130.6V56.6Z" fill="black"/>
<path d="M130.6 51.8H125.8V56.6H130.6V51.8Z" fill="#EB8B8B"/>
<path d="M130.6 46.9H125.8V51.7H130.6V46.9Z" fill="#EFA2A2"/>
<path d="M130.6 42.1H125.8V46.9H130.6V42.1Z" fill="#F1AEAE"/>
<path d="M130.6 37.2H125.8V42H130.6V37.2Z" fill="#F1AEAE"/>
<path d="M130.6 32.4H125.8V37.2H130.6V32.4Z" fill="#F1AEAE"/>
<path d="M130.6 27.4999H125.8V32.2999H130.6V27.4999Z" fill="#F1AEAE"/>
<path d="M130.6 22.7H125.8V27.5H130.6V22.7Z" fill="#F8CBC5"/>
<path d="M130.6 17.7999H125.8V22.5999H130.6V17.7999Z" fill="#EB8B8B"/>
<path d="M130.6 13H125.8V17.8H130.6V13Z" fill="black"/>
<path d="M125.7 56.6H120.9V61.4H125.7V56.6Z" fill="black"/>
<path d="M125.7 51.8H120.9V56.6H125.7V51.8Z" fill="#EB8B8B"/>
<path d="M125.7 46.9H120.9V51.7H125.7V46.9Z" fill="#EFA2A2"/>
<path d="M125.7 42.1H120.9V46.9H125.7V42.1Z" fill="#F1AEAE"/>
<path d="M125.7 37.2H120.9V42H125.7V37.2Z" fill="#F1AEAE"/>
<path d="M125.7 32.4H120.9V37.2H125.7V32.4Z" fill="#F1AEAE"/>
<path d="M125.7 27.4999H120.9V32.2999H125.7V27.4999Z" fill="#F1AEAE"/>
<path d="M125.7 22.7H120.9V27.5H125.7V22.7Z" fill="#F8CBC5"/>
<path d="M125.7 17.7999H120.9V22.5999H125.7V17.7999Z" fill="#EB8B8B"/>
<path d="M125.7 13H120.9V17.8H125.7V13Z" fill="black"/>
<path d="M120.9 56.6H116V61.4H120.8L120.9 56.6Z" fill="black"/>
<path d="M120.9 51.8H116V56.6H120.8L120.9 51.8Z" fill="#EB8B8B"/>
<path d="M120.9 46.9H116V51.7H120.8L120.9 46.9Z" fill="#EFA2A2"/>
<path d="M120.9 42.1H116V46.9H120.8L120.9 42.1Z" fill="#F1AEAE"/>
<path d="M120.9 37.2H116V42H120.8L120.9 37.2Z" fill="#F1AEAE"/>
<path d="M120.9 32.4H116V37.2H120.8L120.9 32.4Z" fill="#F1AEAE"/>
<path d="M120.9 27.4999H116V32.2999H120.8L120.9 27.4999Z" fill="#F1AEAE"/>
<path d="M120.9 22.7H116V27.5H120.8L120.9 22.7Z" fill="#F8CBC5"/>
<path d="M120.9 17.7999H116V22.5999H120.8L120.9 17.7999Z" fill="#EB8B8B"/>
<path d="M120.9 13H116V17.8H120.8L120.9 13Z" fill="black"/>
<path d="M116 56.6H111.2V61.4H116V56.6Z" fill="black"/>
<path d="M116 51.8H111.2V56.6H116V51.8Z" fill="#EB8B8B"/>
<path d="M116 46.9H111.2V51.7H116V46.9Z" fill="#EFA2A2"/>
<path d="M116 42.1H111.2V46.9H116V42.1Z" fill="#F1AEAE"/>
<path d="M116 37.2H111.2V42H116V37.2Z" fill="#F1AEAE"/>
<path d="M116 32.4H111.2V37.2H116V32.4Z" fill="#F1AEAE"/>
<path d="M116 27.4999H111.2V32.2999H116V27.4999Z" fill="#F1AEAE"/>
<path d="M116 22.7H111.2V27.5H116V22.7Z" fill="#F8CBC5"/>
<path d="M116 17.7999H111.2V22.5999H116V17.7999Z" fill="#EB8B8B"/>
<path d="M116 13H111.2V17.8H116V13Z" fill="black"/>
<path d="M111.2 56.6H106.4V61.4H111.2V56.6Z" fill="black"/>
<path d="M111.2 51.8H106.4V56.6H111.2V51.8Z" fill="#EB8B8B"/>
<path d="M111.2 46.9H106.4V51.7H111.2V46.9Z" fill="#EFA2A2"/>
<path d="M111.2 42.1H106.4V46.9H111.2V42.1Z" fill="#F1AEAE"/>
<path d="M111.2 37.2H106.4V42H111.2V37.2Z" fill="#F1AEAE"/>
<path d="M111.2 32.4H106.4V37.2H111.2V32.4Z" fill="#F1AEAE"/>
<path d="M111.2 27.4999H106.4V32.2999H111.2V27.4999Z" fill="#F1AEAE"/>
<path d="M111.2 22.7H106.4V27.5H111.2V22.7Z" fill="#F8CBC5"/>
<path d="M111.2 17.7999H106.4V22.5999H111.2V17.7999Z" fill="#EB8B8B"/>
<path d="M111.2 13H106.4V17.8H111.2V13Z" fill="black"/>
<path d="M106.3 56.6H101.5V61.4H106.3V56.6Z" fill="black"/>
<path d="M106.3 51.8H101.5V56.6H106.3V51.8Z" fill="#EB8B8B"/>
<path d="M106.3 46.9H101.5V51.7H106.3V46.9Z" fill="#EFA2A2"/>
<path d="M106.3 42.1H101.5V46.9H106.3V42.1Z" fill="#F1AEAE"/>
<path d="M106.3 37.2H101.5V42H106.3V37.2Z" fill="#F1AEAE"/>
<path d="M106.3 32.4H101.5V37.2H106.3V32.4Z" fill="#F1AEAE"/>
<path d="M106.3 27.4999H101.5V32.2999H106.3V27.4999Z" fill="#F1AEAE"/>
<path d="M106.3 22.7H101.5V27.5H106.3V22.7Z" fill="#F8CBC5"/>
<path d="M106.3 17.7999H101.5V22.5999H106.3V17.7999Z" fill="#EB8B8B"/>
<path d="M106.3 13H101.5V17.8H106.3V13Z" fill="black"/>
<path d="M101.5 56.6H96.7V61.4H101.5V56.6Z" fill="black"/>
<path d="M101.5 51.8H96.7V56.6H101.5V51.8Z" fill="#EB8B8B"/>
<path d="M101.5 46.9H96.7V51.7H101.5V46.9Z" fill="#EFA2A2"/>
<path d="M101.5 42.1H96.7V46.9H101.5V42.1Z" fill="#F1AEAE"/>
<path d="M101.5 37.2H96.7V42H101.5V37.2Z" fill="#F1AEAE"/>
<path d="M101.5 32.4H96.7V37.2H101.5V32.4Z" fill="#F1AEAE"/>
<path d="M101.5 27.4999H96.7V32.2999H101.5V27.4999Z" fill="#F1AEAE"/>
<path d="M101.5 22.7H96.7V27.5H101.5V22.7Z" fill="#F8CBC5"/>
<path d="M101.5 17.7999H96.7V22.5999H101.5V17.7999Z" fill="#EB8B8B"/>
<path d="M101.5 13H96.7V17.8H101.5V13Z" fill="black"/>
<path d="M96.7001 56.6H91.9001V61.4H96.7001V56.6Z" fill="black"/>
<path d="M96.7001 51.8H91.9001V56.6H96.7001V51.8Z" fill="#EB8B8B"/>
<path d="M96.7001 46.9H91.9001V51.7H96.7001V46.9Z" fill="#EFA2A2"/>
<path d="M96.7001 42.1H91.9001V46.9H96.7001V42.1Z" fill="#F1AEAE"/>
<path d="M96.7001 37.2H91.9001V42H96.7001V37.2Z" fill="#F1AEAE"/>
<path d="M96.7001 32.4H91.9001V37.2H96.7001V32.4Z" fill="#F1AEAE"/>
<path d="M96.7001 27.4999H91.9001V32.2999H96.7001V27.4999Z" fill="#F1AEAE"/>
<path d="M96.7001 22.7H91.9001V27.5H96.7001V22.7Z" fill="#F8CBC5"/>
<path d="M96.7001 17.7999H91.9001V22.5999H96.7001V17.7999Z" fill="#EB8B8B"/>
<path d="M96.7001 13H91.9001V17.8H96.7001V13Z" fill="black"/>
<path d="M91.8 56.6H87V61.4H91.8V56.6Z" fill="black"/>
<path d="M91.8 51.8H87V56.6H91.8V51.8Z" fill="#EB8B8B"/>
<path d="M91.8 46.9H87V51.7H91.8V46.9Z" fill="#EFA2A2"/>
<path d="M91.8 42.1H87V46.9H91.8V42.1Z" fill="#F1AEAE"/>
<path d="M91.8 37.2H87V42H91.8V37.2Z" fill="#F1AEAE"/>
<path d="M91.8 32.4H87V37.2H91.8V32.4Z" fill="#F1AEAE"/>
<path d="M91.8 27.4999H87V32.2999H91.8V27.4999Z" fill="#F1AEAE"/>
<path d="M91.8 22.7H87V27.5H91.8V22.7Z" fill="#F8CBC5"/>
<path d="M91.8 17.7999H87V22.5999H91.8V17.7999Z" fill="#EB8B8B"/>
<path d="M91.8 13H87V17.8H91.8V13Z" fill="black"/>
<path d="M87 56.6H82.2V61.4H87V56.6Z" fill="black"/>
<path d="M87 51.8H82.2V56.6H87V51.8Z" fill="#EB8B8B"/>
<path d="M87 46.9H82.2V51.7H87V46.9Z" fill="#EFA2A2"/>
<path d="M87 42.1H82.2V46.9H87V42.1Z" fill="#F1AEAE"/>
<path d="M87 37.2H82.2V42H87V37.2Z" fill="#F1AEAE"/>
<path d="M87 32.4H82.2V37.2H87V32.4Z" fill="#F1AEAE"/>
<path d="M87 27.4999H82.2V32.2999H87V27.4999Z" fill="#F1AEAE"/>
<path d="M87 22.7H82.2V27.5H87V22.7Z" fill="#F8CBC5"/>
<path d="M87 17.7999H82.2V22.5999H87V17.7999Z" fill="#EB8B8B"/>
<path d="M87 13H82.2V17.8H87V13Z" fill="black"/>
<path d="M82.1 56.6H77.3V61.4H82.1V56.6Z" fill="black"/>
<path d="M82.1 51.8H77.3V56.6H82.1V51.8Z" fill="#EB8B8B"/>
<path d="M82.1 46.9H77.3V51.7H82.1V46.9Z" fill="#EFA2A2"/>
<path d="M82.1 42.1H77.3V46.9H82.1V42.1Z" fill="#F1AEAE"/>
<path d="M82.1 37.2H77.3V42H82.1V37.2Z" fill="#F1AEAE"/>
<path d="M82.1 32.4H77.3V37.2H82.1V32.4Z" fill="#F1AEAE"/>
<path d="M82.1 27.4999H77.3V32.2999H82.1V27.4999Z" fill="#F1AEAE"/>
<path d="M82.1 22.7H77.3V27.5H82.1V22.7Z" fill="#F8CBC5"/>
<path d="M82.1 17.7999H77.3V22.5999H82.1V17.7999Z" fill="#EB8B8B"/>
<path d="M82.1 13H77.3V17.8H82.1V13Z" fill="black"/>
<path d="M77.3 56.6H72.5V61.4H77.3V56.6Z" fill="black"/>
<path d="M77.3 51.8H72.5V56.6H77.3V51.8Z" fill="#EB8B8B"/>
<path d="M77.3 46.9H72.5V51.7H77.3V46.9Z" fill="#EFA2A2"/>
<path d="M77.3 42.1H72.5V46.9H77.3V42.1Z" fill="#F1AEAE"/>
<path d="M77.3 37.2H72.5V42H77.3V37.2Z" fill="#F1AEAE"/>
<path d="M77.3 32.4H72.5V37.2H77.3V32.4Z" fill="#F1AEAE"/>
<path d="M77.3 27.4999H72.5V32.2999H77.3V27.4999Z" fill="#F1AEAE"/>
<path d="M77.3 22.7H72.5V27.5H77.3V22.7Z" fill="#F8CBC5"/>
<path d="M77.3 17.7999H72.5V22.5999H77.3V17.7999Z" fill="#EB8B8B"/>
<path d="M77.3 13H72.5V17.8H77.3V13Z" fill="black"/>
<path d="M72.4001 56.6H67.6001V61.4H72.4001V56.6Z" fill="black"/>
<path d="M72.4001 51.8H67.6001V56.6H72.4001V51.8Z" fill="#EB8B8B"/>
<path d="M72.4001 46.9H67.6001V51.7H72.4001V46.9Z" fill="#EFA2A2"/>
<path d="M72.4001 42.1H67.6001V46.9H72.4001V42.1Z" fill="#F1AEAE"/>
<path d="M72.4001 37.2H67.6001V42H72.4001V37.2Z" fill="#F1AEAE"/>
<path d="M72.4001 32.4H67.6001V37.2H72.4001V32.4Z" fill="#F1AEAE"/>
<path d="M72.4001 27.4999H67.6001V32.2999H72.4001V27.4999Z" fill="#F1AEAE"/>
<path d="M72.4001 22.7H67.6001V27.5H72.4001V22.7Z" fill="#F8CBC5"/>
<path d="M72.4001 17.7999H67.6001V22.5999H72.4001V17.7999Z" fill="#EB8B8B"/>
<path d="M72.4001 13H67.6001V17.8H72.4001V13Z" fill="black"/>
<path d="M67.6 56.6H62.8V61.4H67.6V56.6Z" fill="black"/>
<path d="M67.6 51.8H62.8V56.6H67.6V51.8Z" fill="#EB8B8B"/>
<path d="M67.6 46.9H62.8V51.7H67.6V46.9Z" fill="#EFA2A2"/>
<path d="M67.6 42.1H62.8V46.9H67.6V42.1Z" fill="#F1AEAE"/>
<path d="M67.6 37.2H62.8V42H67.6V37.2Z" fill="#F1AEAE"/>
<path d="M67.6 32.4H62.8V37.2H67.6V32.4Z" fill="#F1AEAE"/>
<path d="M67.6 27.4999H62.8V32.2999H67.6V27.4999Z" fill="#F1AEAE"/>
<path d="M67.6 22.7H62.8V27.5H67.6V22.7Z" fill="#F8CBC5"/>
<path d="M67.6 17.7999H62.8V22.5999H67.6V17.7999Z" fill="#EB8B8B"/>
<path d="M67.6 13H62.8V17.8H67.6V13Z" fill="black"/>
<path d="M62.8 56.6H58V61.4H62.8V56.6Z" fill="black"/>
<path d="M62.8 51.8H58V56.6H62.8V51.8Z" fill="#EB8B8B"/>
<path d="M62.8 46.9H58V51.7H62.8V46.9Z" fill="#EFA2A2"/>
<path d="M62.8 42.1H58V46.9H62.8V42.1Z" fill="#F1AEAE"/>
<path d="M62.8 37.2H58V42H62.8V37.2Z" fill="#F1AEAE"/>
<path d="M62.8 32.4H58V37.2H62.8V32.4Z" fill="#F1AEAE"/>
<path d="M62.8 27.4999H58V32.2999H62.8V27.4999Z" fill="#F1AEAE"/>
<path d="M62.8 22.7H58V27.5H62.8V22.7Z" fill="#F8CBC5"/>
<path d="M62.8 17.7999H58V22.5999H62.8V17.7999Z" fill="#EB8B8B"/>
<path d="M62.8 13H58V17.8H62.8V13Z" fill="black"/>
<path d="M57.9001 56.6H53.1001V61.4H57.9001V56.6Z" fill="black"/>
<path d="M57.9001 51.8H53.1001V56.6H57.9001V51.8Z" fill="#EB8B8B"/>
<path d="M57.9001 46.9H53.1001V51.7H57.9001V46.9Z" fill="#EFA2A2"/>
<path d="M57.9001 42.1H53.1001V46.9H57.9001V42.1Z" fill="#F1AEAE"/>
<path d="M57.9001 37.2H53.1001V42H57.9001V37.2Z" fill="#F1AEAE"/>
<path d="M57.9001 32.4H53.1001V37.2H57.9001V32.4Z" fill="#F1AEAE"/>
<path d="M57.9001 27.4999H53.1001V32.2999H57.9001V27.4999Z" fill="#F1AEAE"/>
<path d="M57.9001 22.7H53.1001V27.5H57.9001V22.7Z" fill="#F8CBC5"/>
<path d="M57.9001 17.7999H53.1001V22.5999H57.9001V17.7999Z" fill="#EB8B8B"/>
<path d="M57.9001 13H53.1001V17.8H57.9001V13Z" fill="black"/>
<path d="M53.1001 56.6H48.3V61.4H53.1001V56.6Z" fill="black"/>
<path d="M53.1001 51.8H48.3V56.6H53.1001V51.8Z" fill="#EB8B8B"/>
<path d="M53.1001 46.9H48.3V51.7H53.1001V46.9Z" fill="#EFA2A2"/>
<path d="M53.1001 42.1H48.3V46.9H53.1001V42.1Z" fill="#F1AEAE"/>
<path d="M53.1001 37.2H48.3V42H53.1001V37.2Z" fill="#F1AEAE"/>
<path d="M53.1001 32.4H48.3V37.2H53.1001V32.4Z" fill="#F1AEAE"/>
<path d="M53.1001 27.4999H48.3V32.2999H53.1001V27.4999Z" fill="#F1AEAE"/>
<path d="M53.1001 22.7H48.3V27.5H53.1001V22.7Z" fill="#F8CBC5"/>
<path d="M53.1001 17.7999H48.3V22.5999H53.1001V17.7999Z" fill="#EB8B8B"/>
<path d="M53.1001 13H48.3V17.8H53.1001V13Z" fill="black"/>
<path d="M48.2001 56.6H43.4001V61.4H48.2001V56.6Z" fill="black"/>
<path d="M48.2001 51.8H43.4001V56.6H48.2001V51.8Z" fill="#EB8B8B"/>
<path d="M48.2001 46.9H43.4001V51.7H48.2001V46.9Z" fill="#EFA2A2"/>
<path d="M48.2001 42.1H43.4001V46.9H48.2001V42.1Z" fill="#F1AEAE"/>
<path d="M48.2001 37.2H43.4001V42H48.2001V37.2Z" fill="#F1AEAE"/>
<path d="M48.2001 32.4H43.4001V37.2H48.2001V32.4Z" fill="#F1AEAE"/>
<path d="M48.2001 27.4999H43.4001V32.2999H48.2001V27.4999Z" fill="#F1AEAE"/>
<path d="M48.2001 22.7H43.4001V27.5H48.2001V22.7Z" fill="#F8CBC5"/>
<path d="M48.2001 17.7999H43.4001V22.5999H48.2001V17.7999Z" fill="#EB8B8B"/>
<path d="M48.2001 13H43.4001V17.8H48.2001V13Z" fill="black"/>
<path d="M43.4001 56.6H38.6001V61.4H43.4001V56.6Z" fill="black"/>
<path d="M43.4001 51.8H38.6001V56.6H43.4001V51.8Z" fill="#EB8B8B"/>
<path d="M43.4001 46.9H38.6001V51.7H43.4001V46.9Z" fill="#EFA2A2"/>
<path d="M43.4001 42.1H38.6001V46.9H43.4001V42.1Z" fill="#F1AEAE"/>
<path d="M43.4001 37.2H38.6001V42H43.4001V37.2Z" fill="#F1AEAE"/>
<path d="M43.4001 32.4H38.6001V37.2H43.4001V32.4Z" fill="#F1AEAE"/>
<path d="M43.4001 27.4999H38.6001V32.2999H43.4001V27.4999Z" fill="#F1AEAE"/>
<path d="M43.4001 22.7H38.6001V27.5H43.4001V22.7Z" fill="#F8CBC5"/>
<path d="M43.4001 17.7999H38.6001V22.5999H43.4001V17.7999Z" fill="#EB8B8B"/>
<path d="M43.4001 13H38.6001V17.8H43.4001V13Z" fill="black"/>
<path d="M38.5 56.6H33.7V61.4H38.5V56.6Z" fill="black"/>
<path d="M38.5 51.8H33.7V56.6H38.5V51.8Z" fill="#EB8B8B"/>
<path d="M38.5 46.9H33.7V51.7H38.5V46.9Z" fill="#EB8B8B"/>
<path d="M38.5 42.1H33.7V46.9H38.5V42.1Z" fill="#EFA2A2"/>
<path d="M38.5 37.2H33.7V42H38.5V37.2Z" fill="#EFA2A2"/>
<path d="M38.5 32.4H33.7V37.2H38.5V32.4Z" fill="#EFA2A2"/>
<path d="M38.5 27.4999H33.7V32.2999H38.5V27.4999Z" fill="#F8CBC5"/>
<path d="M38.5 22.7H33.7V27.5H38.5V22.7Z" fill="#EB8B8B"/>
<path d="M38.5 17.7999H33.7V22.5999H38.5V17.7999Z" fill="#EB8B8B"/>
<path d="M38.5 13H33.7V17.8H38.5V13Z" fill="black"/>
<path d="M33.7 51.8H28.8V56.6H33.6L33.7 51.8Z" fill="black"/>
<path d="M33.7 46.9H28.8V51.7H33.6L33.7 46.9Z" fill="#EB8B8B"/>
<path d="M33.7 42.1H28.8V46.9H33.6L33.7 42.1Z" fill="#EB8B8B"/>
<path d="M33.7 37.2H28.8V42H33.6L33.7 37.2Z" fill="#EB8B8B"/>
<path d="M33.7 32.4H28.8V37.2H33.6L33.7 32.4Z" fill="#EB8B8B"/>
<path d="M33.7 27.4999H28.8V32.2999H33.6L33.7 27.4999Z" fill="#EB8B8B"/>
<path d="M33.7 22.7H28.8V27.5H33.6L33.7 22.7Z" fill="#EB8B8B"/>
<path d="M33.7 17.7999H28.8V22.5999H33.6L33.7 17.7999Z" fill="black"/>
<path d="M28.8 46.9H24V51.7H28.8V46.9Z" fill="black"/>
<path d="M28.8 42.1H24V46.9H28.8V42.1Z" fill="black"/>
<path d="M28.8 37.2H24V42H28.8V37.2Z" fill="black"/>
<path d="M28.8 32.4H24V37.2H28.8V32.4Z" fill="black"/>
<path d="M28.8 27.4999H24V32.2999H28.8V27.4999Z" fill="black"/>
<path d="M28.8 22.7H24V27.5H28.8V22.7Z" fill="black"/>
</g>
<path d="M93.7177 42.4444H92.1621V34.6667H93.7177V42.4444ZM99.9399 42.4444H98.3843V34.6667H99.9399V42.4444ZM98.3843 34.6667H93.7177V33.1111H98.3843V34.6667ZM98.3843 44H93.7177V42.4444H98.3843V44ZM103.056 39.3333V44H101.5V33.1111H103.056V37.7778H104.611V39.3333H103.056ZM109.278 34.6667H107.722V33.1111H109.278V34.6667ZM107.722 36.2222H106.167V34.6667H107.722V36.2222ZM106.167 37.7778H104.611V36.2222H106.167V37.7778ZM109.278 44H107.722V42.4444H109.278V44ZM107.722 42.4444H106.167V40.8889H107.722V42.4444ZM106.167 40.8889H104.611V39.3333H106.167V40.8889Z" fill="black"/>
<defs>
<clipPath id="clip0_535_13170">
<rect width="155" height="49" fill="white" transform="translate(24 13)"/>
</clipPath>
</defs>
</svg>
