<svg width="155" height="49" viewBox="0 0 155 49" fill="none" xmlns="http://www.w3.org/2000/svg">
<g clip-path="url(#clip0_296_6977)">
<path d="M155 33.9H150.2V38.7H155V33.9Z" fill="black"/>
<path d="M155 29.1H150.2V33.9H155V29.1Z" fill="black"/>
<path d="M155 24.2H150.2V29H155V24.2Z" fill="black"/>
<path d="M155 19.4H150.2V24.2H155V19.4Z" fill="black"/>
<path d="M155 14.5H150.2V19.3H155V14.5Z" fill="black"/>
<path d="M155 9.70001H150.2V14.5H155V9.70001Z" fill="black"/>
<path d="M150.2 38.8H145.4V43.6H150.2V38.8Z" fill="black"/>
<path d="M150.2 33.9H145.4V38.7H150.2V33.9Z" fill="#EB8B8B"/>
<path d="M150.2 29.1H145.4V33.9H150.2V29.1Z" fill="#EB8B8B"/>
<path d="M150.2 24.2H145.4V29H150.2V24.2Z" fill="#EB8B8B"/>
<path d="M150.2 19.4H145.4V24.2H150.2V19.4Z" fill="#EB8B8B"/>
<path d="M150.2 14.5H145.4V19.3H150.2V14.5Z" fill="#EB8B8B"/>
<path d="M150.2 9.70001H145.4V14.5H150.2V9.70001Z" fill="#EB8B8B"/>
<path d="M150.2 4.79999H145.4V9.59999H150.2V4.79999Z" fill="black"/>
<path d="M145.3 43.6H140.5V48.4H145.3V43.6Z" fill="black"/>
<path d="M145.3 38.8H140.5V43.6H145.3V38.8Z" fill="#EB8B8B"/>
<path d="M145.3 33.9H140.5V38.7H145.3V33.9Z" fill="#EB8B8B"/>
<path d="M145.3 29.1H140.5V33.9H145.3V29.1Z" fill="#EFA2A2"/>
<path d="M145.3 24.2H140.5V29H145.3V24.2Z" fill="#EFA2A2"/>
<path d="M145.3 19.4H140.5V24.2H145.3V19.4Z" fill="#EFA2A2"/>
<path d="M145.3 14.5H140.5V19.3H145.3V14.5Z" fill="#F8CBC5"/>
<path d="M145.3 9.70001H140.5V14.5H145.3V9.70001Z" fill="#EB8B8B"/>
<path d="M145.3 4.79999H140.5V9.59999H145.3V4.79999Z" fill="#EB8B8B"/>
<path d="M145.3 0H140.5V4.8H145.3V0Z" fill="black"/>
<path d="M140.5 43.6H135.7V48.4H140.5V43.6Z" fill="black"/>
<path d="M140.5 38.8H135.7V43.6H140.5V38.8Z" fill="#EB8B8B"/>
<path d="M140.5 33.9H135.7V38.7H140.5V33.9Z" fill="#EFA2A2"/>
<path d="M140.5 29.1H135.7V33.9H140.5V29.1Z" fill="#F1AEAE"/>
<path d="M140.5 24.2H135.7V29H140.5V24.2Z" fill="#F1AEAE"/>
<path d="M140.5 19.4H135.7V24.2H140.5V19.4Z" fill="#F1AEAE"/>
<path d="M140.5 14.5H135.7V19.3H140.5V14.5Z" fill="#F1AEAE"/>
<path d="M140.5 9.70001H135.7V14.5H140.5V9.70001Z" fill="#F8CBC5"/>
<path d="M140.5 4.79999H135.7V9.59999H140.5V4.79999Z" fill="#EB8B8B"/>
<path d="M140.5 0H135.7V4.8H140.5V0Z" fill="black"/>
<path d="M135.6 43.6H130.8V48.4H135.6V43.6Z" fill="black"/>
<path d="M135.6 38.8H130.8V43.6H135.6V38.8Z" fill="#EB8B8B"/>
<path d="M135.6 33.9H130.8V38.7H135.6V33.9Z" fill="#EFA2A2"/>
<path d="M135.6 29.1H130.8V33.9H135.6V29.1Z" fill="#F1AEAE"/>
<path d="M135.6 24.2H130.8V29H135.6V24.2Z" fill="#F1AEAE"/>
<path d="M135.6 19.4H130.8V24.2H135.6V19.4Z" fill="#F1AEAE"/>
<path d="M135.6 14.5H130.8V19.3H135.6V14.5Z" fill="#F1AEAE"/>
<path d="M135.6 9.70001H130.8V14.5H135.6V9.70001Z" fill="#F8CBC5"/>
<path d="M135.6 4.79999H130.8V9.59999H135.6V4.79999Z" fill="#EB8B8B"/>
<path d="M135.6 0H130.8V4.8H135.6V0Z" fill="black"/>
<path d="M130.8 43.6H126V48.4H130.8V43.6Z" fill="black"/>
<path d="M130.8 38.8H126V43.6H130.8V38.8Z" fill="#EB8B8B"/>
<path d="M130.8 33.9H126V38.7H130.8V33.9Z" fill="#EFA2A2"/>
<path d="M130.8 29.1H126V33.9H130.8V29.1Z" fill="#F1AEAE"/>
<path d="M130.8 24.2H126V29H130.8V24.2Z" fill="#F1AEAE"/>
<path d="M130.8 19.4H126V24.2H130.8V19.4Z" fill="#F1AEAE"/>
<path d="M130.8 14.5H126V19.3H130.8V14.5Z" fill="#F1AEAE"/>
<path d="M130.8 9.70001H126V14.5H130.8V9.70001Z" fill="#F8CBC5"/>
<path d="M130.8 4.79999H126V9.59999H130.8V4.79999Z" fill="#EB8B8B"/>
<path d="M130.8 0H126V4.8H130.8V0Z" fill="black"/>
<path d="M125.9 43.6H121.1V48.4H125.9V43.6Z" fill="black"/>
<path d="M125.9 38.8H121.1V43.6H125.9V38.8Z" fill="#EB8B8B"/>
<path d="M125.9 33.9H121.1V38.7H125.9V33.9Z" fill="#EFA2A2"/>
<path d="M125.9 29.1H121.1V33.9H125.9V29.1Z" fill="#F1AEAE"/>
<path d="M125.9 24.2H121.1V29H125.9V24.2Z" fill="#F1AEAE"/>
<path d="M125.9 19.4H121.1V24.2H125.9V19.4Z" fill="#F1AEAE"/>
<path d="M125.9 14.5H121.1V19.3H125.9V14.5Z" fill="#F1AEAE"/>
<path d="M125.9 9.70001H121.1V14.5H125.9V9.70001Z" fill="#F8CBC5"/>
<path d="M125.9 4.79999H121.1V9.59999H125.9V4.79999Z" fill="#EB8B8B"/>
<path d="M125.9 0H121.1V4.8H125.9V0Z" fill="black"/>
<path d="M121.1 43.6H116.3V48.4H121.1V43.6Z" fill="black"/>
<path d="M121.1 38.8H116.3V43.6H121.1V38.8Z" fill="#EB8B8B"/>
<path d="M121.1 33.9H116.3V38.7H121.1V33.9Z" fill="#EFA2A2"/>
<path d="M121.1 29.1H116.3V33.9H121.1V29.1Z" fill="#F1AEAE"/>
<path d="M121.1 24.2H116.3V29H121.1V24.2Z" fill="#F1AEAE"/>
<path d="M121.1 19.4H116.3V24.2H121.1V19.4Z" fill="#F1AEAE"/>
<path d="M121.1 14.5H116.3V19.3H121.1V14.5Z" fill="#F1AEAE"/>
<path d="M121.1 9.70001H116.3V14.5H121.1V9.70001Z" fill="#F8CBC5"/>
<path d="M121.1 4.79999H116.3V9.59999H121.1V4.79999Z" fill="#EB8B8B"/>
<path d="M121.1 0H116.3V4.8H121.1V0Z" fill="black"/>
<path d="M116.2 43.6H111.4V48.4H116.2V43.6Z" fill="black"/>
<path d="M116.2 38.8H111.4V43.6H116.2V38.8Z" fill="#EB8B8B"/>
<path d="M116.2 33.9H111.4V38.7H116.2V33.9Z" fill="#EFA2A2"/>
<path d="M116.2 29.1H111.4V33.9H116.2V29.1Z" fill="#F1AEAE"/>
<path d="M116.2 24.2H111.4V29H116.2V24.2Z" fill="#F1AEAE"/>
<path d="M116.2 19.4H111.4V24.2H116.2V19.4Z" fill="#F1AEAE"/>
<path d="M116.2 14.5H111.4V19.3H116.2V14.5Z" fill="#F1AEAE"/>
<path d="M116.2 9.70001H111.4V14.5H116.2V9.70001Z" fill="#F8CBC5"/>
<path d="M116.2 4.79999H111.4V9.59999H116.2V4.79999Z" fill="#EB8B8B"/>
<path d="M116.2 0H111.4V4.8H116.2V0Z" fill="black"/>
<path d="M111.4 43.6H106.6V48.4H111.4V43.6Z" fill="black"/>
<path d="M111.4 38.8H106.6V43.6H111.4V38.8Z" fill="#EB8B8B"/>
<path d="M111.4 33.9H106.6V38.7H111.4V33.9Z" fill="#EFA2A2"/>
<path d="M111.4 29.1H106.6V33.9H111.4V29.1Z" fill="#F1AEAE"/>
<path d="M111.4 24.2H106.6V29H111.4V24.2Z" fill="#F1AEAE"/>
<path d="M111.4 19.4H106.6V24.2H111.4V19.4Z" fill="#F1AEAE"/>
<path d="M111.4 14.5H106.6V19.3H111.4V14.5Z" fill="#F1AEAE"/>
<path d="M111.4 9.70001H106.6V14.5H111.4V9.70001Z" fill="#F8CBC5"/>
<path d="M111.4 4.79999H106.6V9.59999H111.4V4.79999Z" fill="#EB8B8B"/>
<path d="M111.4 0H106.6V4.8H111.4V0Z" fill="black"/>
<path d="M106.6 43.6H101.8V48.4H106.6V43.6Z" fill="black"/>
<path d="M106.6 38.8H101.8V43.6H106.6V38.8Z" fill="#EB8B8B"/>
<path d="M106.6 33.9H101.8V38.7H106.6V33.9Z" fill="#EFA2A2"/>
<path d="M106.6 29.1H101.8V33.9H106.6V29.1Z" fill="#F1AEAE"/>
<path d="M106.6 24.2H101.8V29H106.6V24.2Z" fill="#F1AEAE"/>
<path d="M106.6 19.4H101.8V24.2H106.6V19.4Z" fill="#F1AEAE"/>
<path d="M106.6 14.5H101.8V19.3H106.6V14.5Z" fill="#F1AEAE"/>
<path d="M106.6 9.70001H101.8V14.5H106.6V9.70001Z" fill="#F8CBC5"/>
<path d="M106.6 4.79999H101.8V9.59999H106.6V4.79999Z" fill="#EB8B8B"/>
<path d="M106.6 0H101.8V4.8H106.6V0Z" fill="black"/>
<path d="M101.7 43.6H96.9V48.4H101.7V43.6Z" fill="black"/>
<path d="M101.7 38.8H96.9V43.6H101.7V38.8Z" fill="#EB8B8B"/>
<path d="M101.7 33.9H96.9V38.7H101.7V33.9Z" fill="#EFA2A2"/>
<path d="M101.7 29.1H96.9V33.9H101.7V29.1Z" fill="#F1AEAE"/>
<path d="M101.7 24.2H96.9V29H101.7V24.2Z" fill="#F1AEAE"/>
<path d="M101.7 19.4H96.9V24.2H101.7V19.4Z" fill="#F1AEAE"/>
<path d="M101.7 14.5H96.9V19.3H101.7V14.5Z" fill="#F1AEAE"/>
<path d="M101.7 9.70001H96.9V14.5H101.7V9.70001Z" fill="#F8CBC5"/>
<path d="M101.7 4.79999H96.9V9.59999H101.7V4.79999Z" fill="#EB8B8B"/>
<path d="M101.7 0H96.9V4.8H101.7V0Z" fill="black"/>
<path d="M96.9 43.6H92V48.4H96.8L96.9 43.6Z" fill="black"/>
<path d="M96.9 38.8H92V43.6H96.8L96.9 38.8Z" fill="#EB8B8B"/>
<path d="M96.9 33.9H92V38.7H96.8L96.9 33.9Z" fill="#EFA2A2"/>
<path d="M96.9 29.1H92V33.9H96.8L96.9 29.1Z" fill="#F1AEAE"/>
<path d="M96.9 24.2H92V29H96.8L96.9 24.2Z" fill="#F1AEAE"/>
<path d="M96.9 19.4H92V24.2H96.8L96.9 19.4Z" fill="#F1AEAE"/>
<path d="M96.9 14.5H92V19.3H96.8L96.9 14.5Z" fill="#F1AEAE"/>
<path d="M96.9 9.70001H92V14.5H96.8L96.9 9.70001Z" fill="#F8CBC5"/>
<path d="M96.9 4.79999H92V9.59999H96.8L96.9 4.79999Z" fill="#EB8B8B"/>
<path d="M96.9 0H92V4.8H96.8L96.9 0Z" fill="black"/>
<path d="M92 43.6H87.2V48.4H92V43.6Z" fill="black"/>
<path d="M92 38.8H87.2V43.6H92V38.8Z" fill="#EB8B8B"/>
<path d="M92 33.9H87.2V38.7H92V33.9Z" fill="#EFA2A2"/>
<path d="M92 29.1H87.2V33.9H92V29.1Z" fill="#F1AEAE"/>
<path d="M92 24.2H87.2V29H92V24.2Z" fill="#F1AEAE"/>
<path d="M92 19.4H87.2V24.2H92V19.4Z" fill="#F1AEAE"/>
<path d="M92 14.5H87.2V19.3H92V14.5Z" fill="#F1AEAE"/>
<path d="M92 9.70001H87.2V14.5H92V9.70001Z" fill="#F8CBC5"/>
<path d="M92 4.79999H87.2V9.59999H92V4.79999Z" fill="#EB8B8B"/>
<path d="M92 0H87.2V4.8H92V0Z" fill="black"/>
<path d="M87.2 43.6H82.4V48.4H87.2V43.6Z" fill="black"/>
<path d="M87.2 38.8H82.4V43.6H87.2V38.8Z" fill="#EB8B8B"/>
<path d="M87.2 33.9H82.4V38.7H87.2V33.9Z" fill="#EFA2A2"/>
<path d="M87.2 29.1H82.4V33.9H87.2V29.1Z" fill="#F1AEAE"/>
<path d="M87.2 24.2H82.4V29H87.2V24.2Z" fill="#F1AEAE"/>
<path d="M87.2 19.4H82.4V24.2H87.2V19.4Z" fill="#F1AEAE"/>
<path d="M87.2 14.5H82.4V19.3H87.2V14.5Z" fill="#F1AEAE"/>
<path d="M87.2 9.70001H82.4V14.5H87.2V9.70001Z" fill="#F8CBC5"/>
<path d="M87.2 4.79999H82.4V9.59999H87.2V4.79999Z" fill="#EB8B8B"/>
<path d="M87.2 0H82.4V4.8H87.2V0Z" fill="black"/>
<path d="M82.3 43.6H77.5V48.4H82.3V43.6Z" fill="black"/>
<path d="M82.3 38.8H77.5V43.6H82.3V38.8Z" fill="#EB8B8B"/>
<path d="M82.3 33.9H77.5V38.7H82.3V33.9Z" fill="#EFA2A2"/>
<path d="M82.3 29.1H77.5V33.9H82.3V29.1Z" fill="#F1AEAE"/>
<path d="M82.3 24.2H77.5V29H82.3V24.2Z" fill="#F1AEAE"/>
<path d="M82.3 19.4H77.5V24.2H82.3V19.4Z" fill="#F1AEAE"/>
<path d="M82.3 14.5H77.5V19.3H82.3V14.5Z" fill="#F1AEAE"/>
<path d="M82.3 9.70001H77.5V14.5H82.3V9.70001Z" fill="#F8CBC5"/>
<path d="M82.3 4.79999H77.5V9.59999H82.3V4.79999Z" fill="#EB8B8B"/>
<path d="M82.3 0H77.5V4.8H82.3V0Z" fill="black"/>
<path d="M77.5 43.6H72.7V48.4H77.5V43.6Z" fill="black"/>
<path d="M77.5 38.8H72.7V43.6H77.5V38.8Z" fill="#EB8B8B"/>
<path d="M77.5 33.9H72.7V38.7H77.5V33.9Z" fill="#EFA2A2"/>
<path d="M77.5 29.1H72.7V33.9H77.5V29.1Z" fill="#F1AEAE"/>
<path d="M77.5 24.2H72.7V29H77.5V24.2Z" fill="#F1AEAE"/>
<path d="M77.5 19.4H72.7V24.2H77.5V19.4Z" fill="#F1AEAE"/>
<path d="M77.5 14.5H72.7V19.3H77.5V14.5Z" fill="#F1AEAE"/>
<path d="M77.5 9.70001H72.7V14.5H77.5V9.70001Z" fill="#F8CBC5"/>
<path d="M77.5 4.79999H72.7V9.59999H77.5V4.79999Z" fill="#EB8B8B"/>
<path d="M77.5 0H72.7V4.8H77.5V0Z" fill="black"/>
<path d="M72.7 43.6H67.9V48.4H72.7V43.6Z" fill="black"/>
<path d="M72.7 38.8H67.9V43.6H72.7V38.8Z" fill="#EB8B8B"/>
<path d="M72.7 33.9H67.9V38.7H72.7V33.9Z" fill="#EFA2A2"/>
<path d="M72.7 29.1H67.9V33.9H72.7V29.1Z" fill="#F1AEAE"/>
<path d="M72.7 24.2H67.9V29H72.7V24.2Z" fill="#F1AEAE"/>
<path d="M72.7 19.4H67.9V24.2H72.7V19.4Z" fill="#F1AEAE"/>
<path d="M72.7 14.5H67.9V19.3H72.7V14.5Z" fill="#F1AEAE"/>
<path d="M72.7 9.70001H67.9V14.5H72.7V9.70001Z" fill="#F8CBC5"/>
<path d="M72.7 4.79999H67.9V9.59999H72.7V4.79999Z" fill="#EB8B8B"/>
<path d="M72.7 0H67.9V4.8H72.7V0Z" fill="black"/>
<path d="M67.8 43.6H63V48.4H67.8V43.6Z" fill="black"/>
<path d="M67.8 38.8H63V43.6H67.8V38.8Z" fill="#EB8B8B"/>
<path d="M67.8 33.9H63V38.7H67.8V33.9Z" fill="#EFA2A2"/>
<path d="M67.8 29.1H63V33.9H67.8V29.1Z" fill="#F1AEAE"/>
<path d="M67.8 24.2H63V29H67.8V24.2Z" fill="#F1AEAE"/>
<path d="M67.8 19.4H63V24.2H67.8V19.4Z" fill="#F1AEAE"/>
<path d="M67.8 14.5H63V19.3H67.8V14.5Z" fill="#F1AEAE"/>
<path d="M67.8 9.70001H63V14.5H67.8V9.70001Z" fill="#F8CBC5"/>
<path d="M67.8 4.79999H63V9.59999H67.8V4.79999Z" fill="#EB8B8B"/>
<path d="M67.8 0H63V4.8H67.8V0Z" fill="black"/>
<path d="M63 43.6H58.2V48.4H63V43.6Z" fill="black"/>
<path d="M63 38.8H58.2V43.6H63V38.8Z" fill="#EB8B8B"/>
<path d="M63 33.9H58.2V38.7H63V33.9Z" fill="#EFA2A2"/>
<path d="M63 29.1H58.2V33.9H63V29.1Z" fill="#F1AEAE"/>
<path d="M63 24.2H58.2V29H63V24.2Z" fill="#F1AEAE"/>
<path d="M63 19.4H58.2V24.2H63V19.4Z" fill="#F1AEAE"/>
<path d="M63 14.5H58.2V19.3H63V14.5Z" fill="#F1AEAE"/>
<path d="M63 9.70001H58.2V14.5H63V9.70001Z" fill="#F8CBC5"/>
<path d="M63 4.79999H58.2V9.59999H63V4.79999Z" fill="#EB8B8B"/>
<path d="M63 0H58.2V4.8H63V0Z" fill="black"/>
<path d="M58.1 43.6H53.3V48.4H58.1V43.6Z" fill="black"/>
<path d="M58.1 38.8H53.3V43.6H58.1V38.8Z" fill="#EB8B8B"/>
<path d="M58.1 33.9H53.3V38.7H58.1V33.9Z" fill="#EFA2A2"/>
<path d="M58.1 29.1H53.3V33.9H58.1V29.1Z" fill="#F1AEAE"/>
<path d="M58.1 24.2H53.3V29H58.1V24.2Z" fill="#F1AEAE"/>
<path d="M58.1 19.4H53.3V24.2H58.1V19.4Z" fill="#F1AEAE"/>
<path d="M58.1 14.5H53.3V19.3H58.1V14.5Z" fill="#F1AEAE"/>
<path d="M58.1 9.70001H53.3V14.5H58.1V9.70001Z" fill="#F8CBC5"/>
<path d="M58.1 4.79999H53.3V9.59999H58.1V4.79999Z" fill="#EB8B8B"/>
<path d="M58.1 0H53.3V4.8H58.1V0Z" fill="black"/>
<path d="M53.3 43.6H48.5V48.4H53.3V43.6Z" fill="black"/>
<path d="M53.3 38.8H48.5V43.6H53.3V38.8Z" fill="#EB8B8B"/>
<path d="M53.3 33.9H48.5V38.7H53.3V33.9Z" fill="#EFA2A2"/>
<path d="M53.3 29.1H48.5V33.9H53.3V29.1Z" fill="#F1AEAE"/>
<path d="M53.3 24.2H48.5V29H53.3V24.2Z" fill="#F1AEAE"/>
<path d="M53.3 19.4H48.5V24.2H53.3V19.4Z" fill="#F1AEAE"/>
<path d="M53.3 14.5H48.5V19.3H53.3V14.5Z" fill="#F1AEAE"/>
<path d="M53.3 9.70001H48.5V14.5H53.3V9.70001Z" fill="#F8CBC5"/>
<path d="M53.3 4.79999H48.5V9.59999H53.3V4.79999Z" fill="#EB8B8B"/>
<path d="M53.3 0H48.5V4.8H53.3V0Z" fill="black"/>
<path d="M48.4 43.6H43.6V48.4H48.4V43.6Z" fill="black"/>
<path d="M48.4 38.8H43.6V43.6H48.4V38.8Z" fill="#EB8B8B"/>
<path d="M48.4 33.9H43.6V38.7H48.4V33.9Z" fill="#EFA2A2"/>
<path d="M48.4 29.1H43.6V33.9H48.4V29.1Z" fill="#F1AEAE"/>
<path d="M48.4 24.2H43.6V29H48.4V24.2Z" fill="#F1AEAE"/>
<path d="M48.4 19.4H43.6V24.2H48.4V19.4Z" fill="#F1AEAE"/>
<path d="M48.4 14.5H43.6V19.3H48.4V14.5Z" fill="#F1AEAE"/>
<path d="M48.4 9.70001H43.6V14.5H48.4V9.70001Z" fill="#F8CBC5"/>
<path d="M48.4 4.79999H43.6V9.59999H48.4V4.79999Z" fill="#EB8B8B"/>
<path d="M48.4 0H43.6V4.8H48.4V0Z" fill="black"/>
<path d="M43.6 43.6H38.8V48.4H43.6V43.6Z" fill="black"/>
<path d="M43.6 38.8H38.8V43.6H43.6V38.8Z" fill="#EB8B8B"/>
<path d="M43.6 33.9H38.8V38.7H43.6V33.9Z" fill="#EFA2A2"/>
<path d="M43.6 29.1H38.8V33.9H43.6V29.1Z" fill="#F1AEAE"/>
<path d="M43.6 24.2H38.8V29H43.6V24.2Z" fill="#F1AEAE"/>
<path d="M43.6 19.4H38.8V24.2H43.6V19.4Z" fill="#F1AEAE"/>
<path d="M43.6 14.5H38.8V19.3H43.6V14.5Z" fill="#F1AEAE"/>
<path d="M43.6 9.70001H38.8V14.5H43.6V9.70001Z" fill="#F8CBC5"/>
<path d="M43.6 4.79999H38.8V9.59999H43.6V4.79999Z" fill="#EB8B8B"/>
<path d="M43.6 0H38.8V4.8H43.6V0Z" fill="black"/>
<path d="M38.8 43.6H34V48.4H38.8V43.6Z" fill="black"/>
<path d="M38.8 38.8H34V43.6H38.8V38.8Z" fill="#EB8B8B"/>
<path d="M38.8 33.9H34V38.7H38.8V33.9Z" fill="#EFA2A2"/>
<path d="M38.8 29.1H34V33.9H38.8V29.1Z" fill="#F1AEAE"/>
<path d="M38.8 24.2H34V29H38.8V24.2Z" fill="#F1AEAE"/>
<path d="M38.8 19.4H34V24.2H38.8V19.4Z" fill="#F1AEAE"/>
<path d="M38.8 14.5H34V19.3H38.8V14.5Z" fill="#F1AEAE"/>
<path d="M38.8 9.70001H34V14.5H38.8V9.70001Z" fill="#F8CBC5"/>
<path d="M38.8 4.79999H34V9.59999H38.8V4.79999Z" fill="#EB8B8B"/>
<path d="M38.8 0H34V4.8H38.8V0Z" fill="black"/>
<path d="M33.9 43.6H29.1V48.4H33.9V43.6Z" fill="black"/>
<path d="M33.9 38.8H29.1V43.6H33.9V38.8Z" fill="#EB8B8B"/>
<path d="M33.9 33.9H29.1V38.7H33.9V33.9Z" fill="#EFA2A2"/>
<path d="M33.9 29.1H29.1V33.9H33.9V29.1Z" fill="#F1AEAE"/>
<path d="M33.9 24.2H29.1V29H33.9V24.2Z" fill="#F1AEAE"/>
<path d="M33.9 19.4H29.1V24.2H33.9V19.4Z" fill="#F1AEAE"/>
<path d="M33.9 14.5H29.1V19.3H33.9V14.5Z" fill="#F1AEAE"/>
<path d="M33.9 9.70001H29.1V14.5H33.9V9.70001Z" fill="#F8CBC5"/>
<path d="M33.9 4.79999H29.1V9.59999H33.9V4.79999Z" fill="#EB8B8B"/>
<path d="M33.9 0H29.1V4.8H33.9V0Z" fill="black"/>
<path d="M29.1 43.6H24.3V48.4H29.1V43.6Z" fill="black"/>
<path d="M29.1 38.8H24.3V43.6H29.1V38.8Z" fill="#EB8B8B"/>
<path d="M29.1 33.9H24.3V38.7H29.1V33.9Z" fill="#EFA2A2"/>
<path d="M29.1 29.1H24.3V33.9H29.1V29.1Z" fill="#F1AEAE"/>
<path d="M29.1 24.2H24.3V29H29.1V24.2Z" fill="#F1AEAE"/>
<path d="M29.1 19.4H24.3V24.2H29.1V19.4Z" fill="#F1AEAE"/>
<path d="M29.1 14.5H24.3V19.3H29.1V14.5Z" fill="#F1AEAE"/>
<path d="M29.1 9.70001H24.3V14.5H29.1V9.70001Z" fill="#F8CBC5"/>
<path d="M29.1 4.79999H24.3V9.59999H29.1V4.79999Z" fill="#EB8B8B"/>
<path d="M29.1 0H24.3V4.8H29.1V0Z" fill="black"/>
<path d="M24.2 43.6H19.4V48.4H24.2V43.6Z" fill="black"/>
<path d="M24.2 38.8H19.4V43.6H24.2V38.8Z" fill="#EB8B8B"/>
<path d="M24.2 33.9H19.4V38.7H24.2V33.9Z" fill="#EFA2A2"/>
<path d="M24.2 29.1H19.4V33.9H24.2V29.1Z" fill="#F1AEAE"/>
<path d="M24.2 24.2H19.4V29H24.2V24.2Z" fill="#F1AEAE"/>
<path d="M24.2 19.4H19.4V24.2H24.2V19.4Z" fill="#F1AEAE"/>
<path d="M24.2 14.5H19.4V19.3H24.2V14.5Z" fill="#F1AEAE"/>
<path d="M24.2 9.70001H19.4V14.5H24.2V9.70001Z" fill="#F8CBC5"/>
<path d="M24.2 4.79999H19.4V9.59999H24.2V4.79999Z" fill="#EB8B8B"/>
<path d="M24.2 0H19.4V4.8H24.2V0Z" fill="black"/>
<path d="M19.4 43.6H14.6V48.4H19.4V43.6Z" fill="black"/>
<path d="M19.4 38.8H14.6V43.6H19.4V38.8Z" fill="#EB8B8B"/>
<path d="M19.4 33.9H14.6V38.7H19.4V33.9Z" fill="#EFA2A2"/>
<path d="M19.4 29.1H14.6V33.9H19.4V29.1Z" fill="#F1AEAE"/>
<path d="M19.4 24.2H14.6V29H19.4V24.2Z" fill="#F1AEAE"/>
<path d="M19.4 19.4H14.6V24.2H19.4V19.4Z" fill="#F1AEAE"/>
<path d="M19.4 14.5H14.6V19.3H19.4V14.5Z" fill="#F1AEAE"/>
<path d="M19.4 9.70001H14.6V14.5H19.4V9.70001Z" fill="#F8CBC5"/>
<path d="M19.4 4.79999H14.6V9.59999H19.4V4.79999Z" fill="#EB8B8B"/>
<path d="M19.4 0H14.6V4.8H19.4V0Z" fill="black"/>
<path d="M14.5 43.6H9.69995V48.4H14.5V43.6Z" fill="black"/>
<path d="M14.5 38.8H9.69995V43.6H14.5V38.8Z" fill="#EB8B8B"/>
<path d="M14.5 33.9H9.69995V38.7H14.5V33.9Z" fill="#EB8B8B"/>
<path d="M14.5 29.1H9.69995V33.9H14.5V29.1Z" fill="#EFA2A2"/>
<path d="M14.5 24.2H9.69995V29H14.5V24.2Z" fill="#EFA2A2"/>
<path d="M14.5 19.4H9.69995V24.2H14.5V19.4Z" fill="#EFA2A2"/>
<path d="M14.5 14.5H9.69995V19.3H14.5V14.5Z" fill="#F8CBC5"/>
<path d="M14.5 9.70001H9.69995V14.5H14.5V9.70001Z" fill="#EB8B8B"/>
<path d="M14.5 4.79999H9.69995V9.59999H14.5V4.79999Z" fill="#EB8B8B"/>
<path d="M14.5 0H9.69995V4.8H14.5V0Z" fill="black"/>
<path d="M9.70005 38.8H4.80005V43.6H9.60005L9.70005 38.8Z" fill="black"/>
<path d="M9.70005 33.9H4.80005V38.7H9.60005L9.70005 33.9Z" fill="#EB8B8B"/>
<path d="M9.70005 29.1H4.80005V33.9H9.60005L9.70005 29.1Z" fill="#EB8B8B"/>
<path d="M9.70005 24.2H4.80005V29H9.60005L9.70005 24.2Z" fill="#EB8B8B"/>
<path d="M9.70005 19.4H4.80005V24.2H9.60005L9.70005 19.4Z" fill="#EB8B8B"/>
<path d="M9.70005 14.5H4.80005V19.3H9.60005L9.70005 14.5Z" fill="#EB8B8B"/>
<path d="M9.70005 9.70001H4.80005V14.5H9.60005L9.70005 9.70001Z" fill="#EB8B8B"/>
<path d="M9.70005 4.79999H4.80005V9.59999H9.60005L9.70005 4.79999Z" fill="black"/>
<path d="M4.8 33.9H0V38.7H4.8V33.9Z" fill="black"/>
<path d="M4.8 29.1H0V33.9H4.8V29.1Z" fill="black"/>
<path d="M4.8 24.2H0V29H4.8V24.2Z" fill="black"/>
<path d="M4.8 19.4H0V24.2H4.8V19.4Z" fill="black"/>
<path d="M4.8 14.5H0V19.3H4.8V14.5Z" fill="black"/>
<path d="M4.8 9.70001H0V14.5H4.8V9.70001Z" fill="black"/>
</g>
<path d="M51.4887 29.2222H49.7109V20.3333H51.4887V29.2222ZM56.822 20.3333H51.4887V18.5556H56.822V20.3333ZM55.0443 27.4444H53.2665V25.6667H55.0443V27.4444ZM56.822 29.2222H55.0443V27.4444H56.822V29.2222ZM58.5998 31H56.822V29.2222H58.5998V31ZM58.5998 27.4444H56.822V20.3333H58.5998V27.4444ZM55.0443 31H51.4887V29.2222H55.0443V31ZM62.1606 29.2222H60.3828V22.1111H62.1606V29.2222ZM69.2717 29.2222H67.4939V22.1111H69.2717V29.2222ZM67.4939 31H62.1606V29.2222H67.4939V31ZM72.8325 31H71.0547V22.1111H72.8325V31ZM72.8325 20.3333H71.0547V18.5556H72.8325V20.3333ZM78.1727 22.1111H79.9505V23.8889H78.1727V29.2222H79.9505V31H76.395V23.8889H74.6172V22.1111H76.395V18.5556H78.1727V22.1111ZM88.8325 29.2222H87.0547V20.3333H88.8325V29.2222ZM94.1658 29.2222V25.6667H90.6102V23.8889H95.9436V31H88.8325V29.2222H94.1658ZM94.1658 20.3333H88.8325V18.5556H94.1658V20.3333ZM99.5043 29.2222H97.7266V23.8889H99.5043V29.2222ZM104.838 25.6667H103.06V23.8889H104.838V22.1111H106.615V31H104.838V29.2222H103.06V27.4444H104.838V25.6667ZM103.06 31H99.5043V29.2222H103.06V31ZM103.06 23.8889H99.5043V22.1111H103.06V23.8889ZM115.51 31H113.732V23.8889H115.51V31ZM113.732 22.1111V23.8889H110.176V31H108.398V22.1111H113.732ZM119.065 23.8889H115.51V22.1111H119.065V23.8889ZM120.843 31H119.065V23.8889H120.843V31ZM129.728 23.8889H124.395V22.1111H129.728V23.8889ZM124.395 27.4444V29.2222H122.617V23.8889H124.395V25.6667H129.728V23.8889H131.506V27.4444H124.395ZM131.506 31H124.395V29.2222H131.506V31Z" fill="black"/>
<path d="M38.7576 21.1577V23.7364H35.3154V25.4575H38.7576V28.0363H39.6153V27.1786H40.4786V26.3208H41.3363V25.4575H42.194V23.7364H41.3363V22.8787H40.4786V22.021H39.6153V21.1577H38.7576Z" fill="black"/>
<path d="M37.0365 28.0361H36.1788V31.4782H37.0365V28.0361Z" fill="black"/>
<path d="M37.0365 16.8579H36.1788V21.1577H37.0365V16.8579Z" fill="black"/>
<path d="M32.7363 33.1993V32.336H36.1784V31.4783H32.7363V20.2998H31.8785V33.1993H32.7363Z" fill="black"/>
<path d="M31.8782 33.1993H29.2994V34.057H31.8782V33.1993Z" fill="black"/>
<path d="M31.0149 25.4574H30.1572V27.1785H31.0149V25.4574Z" fill="black"/>
<path d="M31.8783 19.4421H30.1572V20.2998H31.8783V19.4421Z" fill="black"/>
<path d="M29.3004 32.3362H27.5793V33.1995H29.3004V32.3362Z" fill="black"/>
<path d="M30.1582 18.5789H28.4371V19.4422H30.1582V18.5789Z" fill="black"/>
<path d="M27.5791 31.4783H25.858V32.336H27.5791V31.4783Z" fill="black"/>
<path d="M28.4369 17.721H26.7214V18.5787H28.4369V17.721Z" fill="black"/>
<path d="M25.8577 16V16.8577H25V31.4783H25.8577V17.7211H26.7211V16.8577H36.1784V16H25.8577Z" fill="black"/>
<defs>
<clipPath id="clip0_296_6977">
<rect width="155" height="49" fill="white"/>
</clipPath>
</defs>
</svg>
