<svg width="107" height="34" viewBox="0 0 107 34" fill="none" xmlns="http://www.w3.org/2000/svg">
<g clip-path="url(#clip0_535_14461)">
<path d="M106.286 23.2457H102.994V26.5371H106.286V23.2457Z" fill="black"/>
<path d="M106.286 19.9543H102.994V23.2458H106.286V19.9543Z" fill="black"/>
<path d="M106.286 16.5943H102.994V19.8857H106.286V16.5943Z" fill="black"/>
<path d="M106.286 13.3028H102.994V16.5942H106.286V13.3028Z" fill="black"/>
<path d="M106.286 9.94287H102.994V13.2343H106.286V9.94287Z" fill="black"/>
<path d="M106.286 6.65137H102.994V9.9428H106.286V6.65137Z" fill="black"/>
<path d="M102.995 26.6058H99.7031V29.8972H102.995V26.6058Z" fill="black"/>
<path d="M102.995 23.2457H99.7031V26.5371H102.995V23.2457Z" fill="#EB8B8B"/>
<path d="M102.995 19.9543H99.7031V23.2458H102.995V19.9543Z" fill="#EB8B8B"/>
<path d="M102.995 16.5943H99.7031V19.8857H102.995V16.5943Z" fill="#EB8B8B"/>
<path d="M102.995 13.3028H99.7031V16.5942H102.995V13.3028Z" fill="#EB8B8B"/>
<path d="M102.995 9.94287H99.7031V13.2343H102.995V9.94287Z" fill="#EB8B8B"/>
<path d="M102.995 6.65137H99.7031V9.9428H102.995V6.65137Z" fill="#EB8B8B"/>
<path d="M102.995 3.29144H99.7031V6.58287H102.995V3.29144Z" fill="black"/>
<path d="M99.6347 29.8972H96.3433V33.1886H99.6347V29.8972Z" fill="black"/>
<path d="M99.6347 26.6058H96.3433V29.8972H99.6347V26.6058Z" fill="#EB8B8B"/>
<path d="M99.6347 23.2457H96.3433V26.5371H99.6347V23.2457Z" fill="#EB8B8B"/>
<path d="M99.6347 19.9543H96.3433V23.2458H99.6347V19.9543Z" fill="#EFA2A2"/>
<path d="M99.6347 16.5943H96.3433V19.8857H99.6347V16.5943Z" fill="#EFA2A2"/>
<path d="M99.6347 13.3028H96.3433V16.5942H99.6347V13.3028Z" fill="#EFA2A2"/>
<path d="M99.6347 9.94287H96.3433V13.2343H99.6347V9.94287Z" fill="#F8CBC5"/>
<path d="M99.6347 6.65137H96.3433V9.9428H99.6347V6.65137Z" fill="#EB8B8B"/>
<path d="M99.6347 3.29144H96.3433V6.58287H99.6347V3.29144Z" fill="#EB8B8B"/>
<path d="M99.6347 0H96.3433V3.29143H99.6347V0Z" fill="black"/>
<path d="M96.3427 29.8972H93.0513V33.1886H96.3427V29.8972Z" fill="black"/>
<path d="M96.3427 26.6058H93.0513V29.8972H96.3427V26.6058Z" fill="#EB8B8B"/>
<path d="M96.3427 23.2457H93.0513V26.5371H96.3427V23.2457Z" fill="#EFA2A2"/>
<path d="M96.3427 19.9543H93.0513V23.2458H96.3427V19.9543Z" fill="#F1AEAE"/>
<path d="M96.3427 16.5943H93.0513V19.8857H96.3427V16.5943Z" fill="#F1AEAE"/>
<path d="M96.3427 13.3028H93.0513V16.5942H96.3427V13.3028Z" fill="#F1AEAE"/>
<path d="M96.3427 9.94287H93.0513V13.2343H96.3427V9.94287Z" fill="#F1AEAE"/>
<path d="M96.3427 6.65137H93.0513V9.9428H96.3427V6.65137Z" fill="#F8CBC5"/>
<path d="M96.3427 3.29144H93.0513V6.58287H96.3427V3.29144Z" fill="#EB8B8B"/>
<path d="M96.3427 0H93.0513V3.29143H96.3427V0Z" fill="black"/>
<path d="M92.9831 29.8972H89.6917V33.1886H92.9831V29.8972Z" fill="black"/>
<path d="M92.9831 26.6058H89.6917V29.8972H92.9831V26.6058Z" fill="#EB8B8B"/>
<path d="M92.9831 23.2457H89.6917V26.5371H92.9831V23.2457Z" fill="#EFA2A2"/>
<path d="M92.9831 19.9543H89.6917V23.2458H92.9831V19.9543Z" fill="#F1AEAE"/>
<path d="M92.9831 16.5943H89.6917V19.8857H92.9831V16.5943Z" fill="#F1AEAE"/>
<path d="M92.9831 13.3028H89.6917V16.5942H92.9831V13.3028Z" fill="#F1AEAE"/>
<path d="M92.9831 9.94287H89.6917V13.2343H92.9831V9.94287Z" fill="#F1AEAE"/>
<path d="M92.9831 6.65137H89.6917V9.9428H92.9831V6.65137Z" fill="#F8CBC5"/>
<path d="M92.9831 3.29144H89.6917V6.58287H92.9831V3.29144Z" fill="#EB8B8B"/>
<path d="M92.9831 0H89.6917V3.29143H92.9831V0Z" fill="black"/>
<path d="M89.6916 29.8972H86.4001V33.1886H89.6916V29.8972Z" fill="black"/>
<path d="M89.6916 26.6058H86.4001V29.8972H89.6916V26.6058Z" fill="#EB8B8B"/>
<path d="M89.6916 23.2457H86.4001V26.5371H89.6916V23.2457Z" fill="#EFA2A2"/>
<path d="M89.6916 19.9543H86.4001V23.2458H89.6916V19.9543Z" fill="#F1AEAE"/>
<path d="M89.6916 16.5943H86.4001V19.8857H89.6916V16.5943Z" fill="#F1AEAE"/>
<path d="M89.6916 13.3028H86.4001V16.5942H89.6916V13.3028Z" fill="#F1AEAE"/>
<path d="M89.6916 9.94287H86.4001V13.2343H89.6916V9.94287Z" fill="#F1AEAE"/>
<path d="M89.6916 6.65137H86.4001V9.9428H89.6916V6.65137Z" fill="#F8CBC5"/>
<path d="M89.6916 3.29144H86.4001V6.58287H89.6916V3.29144Z" fill="#EB8B8B"/>
<path d="M89.6916 0H86.4001V3.29143H89.6916V0Z" fill="black"/>
<path d="M86.3315 29.8972H83.04V33.1886H86.3315V29.8972Z" fill="black"/>
<path d="M86.3315 26.6058H83.04V29.8972H86.3315V26.6058Z" fill="#EB8B8B"/>
<path d="M86.3315 23.2457H83.04V26.5371H86.3315V23.2457Z" fill="#EFA2A2"/>
<path d="M86.3315 19.9543H83.04V23.2458H86.3315V19.9543Z" fill="#F1AEAE"/>
<path d="M86.3315 16.5943H83.04V19.8857H86.3315V16.5943Z" fill="#F1AEAE"/>
<path d="M86.3315 13.3028H83.04V16.5942H86.3315V13.3028Z" fill="#F1AEAE"/>
<path d="M86.3315 9.94287H83.04V13.2343H86.3315V9.94287Z" fill="#F1AEAE"/>
<path d="M86.3315 6.65137H83.04V9.9428H86.3315V6.65137Z" fill="#F8CBC5"/>
<path d="M86.3315 3.29144H83.04V6.58287H86.3315V3.29144Z" fill="#EB8B8B"/>
<path d="M86.3315 0H83.04V3.29143H86.3315V0Z" fill="black"/>
<path d="M83.04 29.8972H79.7485V33.1886H83.04V29.8972Z" fill="black"/>
<path d="M83.04 26.6058H79.7485V29.8972H83.04V26.6058Z" fill="#EB8B8B"/>
<path d="M83.04 23.2457H79.7485V26.5371H83.04V23.2457Z" fill="#EFA2A2"/>
<path d="M83.04 19.9543H79.7485V23.2458H83.04V19.9543Z" fill="#F1AEAE"/>
<path d="M83.04 16.5943H79.7485V19.8857H83.04V16.5943Z" fill="#F1AEAE"/>
<path d="M83.04 13.3028H79.7485V16.5942H83.04V13.3028Z" fill="#F1AEAE"/>
<path d="M83.04 9.94287H79.7485V13.2343H83.04V9.94287Z" fill="#F1AEAE"/>
<path d="M83.04 6.65137H79.7485V9.9428H83.04V6.65137Z" fill="#F8CBC5"/>
<path d="M83.04 3.29144H79.7485V6.58287H83.04V3.29144Z" fill="#EB8B8B"/>
<path d="M83.04 0H79.7485V3.29143H83.04V0Z" fill="black"/>
<path d="M79.6801 29.8972H76.3887V33.1886H79.6801V29.8972Z" fill="black"/>
<path d="M79.6801 26.6058H76.3887V29.8972H79.6801V26.6058Z" fill="#EB8B8B"/>
<path d="M79.6801 23.2457H76.3887V26.5371H79.6801V23.2457Z" fill="#EFA2A2"/>
<path d="M79.6801 19.9543H76.3887V23.2458H79.6801V19.9543Z" fill="#F1AEAE"/>
<path d="M79.6801 16.5943H76.3887V19.8857H79.6801V16.5943Z" fill="#F1AEAE"/>
<path d="M79.6801 13.3028H76.3887V16.5942H79.6801V13.3028Z" fill="#F1AEAE"/>
<path d="M79.6801 9.94287H76.3887V13.2343H79.6801V9.94287Z" fill="#F1AEAE"/>
<path d="M79.6801 6.65137H76.3887V9.9428H79.6801V6.65137Z" fill="#F8CBC5"/>
<path d="M79.6801 3.29144H76.3887V6.58287H79.6801V3.29144Z" fill="#EB8B8B"/>
<path d="M79.6801 0H76.3887V3.29143H79.6801V0Z" fill="black"/>
<path d="M76.3886 29.8972H73.0972V33.1886H76.3886V29.8972Z" fill="black"/>
<path d="M76.3886 26.6058H73.0972V29.8972H76.3886V26.6058Z" fill="#EB8B8B"/>
<path d="M76.3886 23.2457H73.0972V26.5371H76.3886V23.2457Z" fill="#EFA2A2"/>
<path d="M76.3886 19.9543H73.0972V23.2458H76.3886V19.9543Z" fill="#F1AEAE"/>
<path d="M76.3886 16.5943H73.0972V19.8857H76.3886V16.5943Z" fill="#F1AEAE"/>
<path d="M76.3886 13.3028H73.0972V16.5942H76.3886V13.3028Z" fill="#F1AEAE"/>
<path d="M76.3886 9.94287H73.0972V13.2343H76.3886V9.94287Z" fill="#F1AEAE"/>
<path d="M76.3886 6.65137H73.0972V9.9428H76.3886V6.65137Z" fill="#F8CBC5"/>
<path d="M76.3886 3.29144H73.0972V6.58287H76.3886V3.29144Z" fill="#EB8B8B"/>
<path d="M76.3886 0H73.0972V3.29143H76.3886V0Z" fill="black"/>
<path d="M73.0976 29.8972H69.8062V33.1886H73.0976V29.8972Z" fill="black"/>
<path d="M73.0976 26.6058H69.8062V29.8972H73.0976V26.6058Z" fill="#EB8B8B"/>
<path d="M73.0976 23.2457H69.8062V26.5371H73.0976V23.2457Z" fill="#EFA2A2"/>
<path d="M73.0976 19.9543H69.8062V23.2458H73.0976V19.9543Z" fill="#F1AEAE"/>
<path d="M73.0976 16.5943H69.8062V19.8857H73.0976V16.5943Z" fill="#F1AEAE"/>
<path d="M73.0976 13.3028H69.8062V16.5942H73.0976V13.3028Z" fill="#F1AEAE"/>
<path d="M73.0976 9.94287H69.8062V13.2343H73.0976V9.94287Z" fill="#F1AEAE"/>
<path d="M73.0976 6.65137H69.8062V9.9428H73.0976V6.65137Z" fill="#F8CBC5"/>
<path d="M73.0976 3.29144H69.8062V6.58287H73.0976V3.29144Z" fill="#EB8B8B"/>
<path d="M73.0976 0H69.8062V3.29143H73.0976V0Z" fill="black"/>
<path d="M69.7372 29.8972H66.4458V33.1886H69.7372V29.8972Z" fill="black"/>
<path d="M69.7372 26.6058H66.4458V29.8972H69.7372V26.6058Z" fill="#EB8B8B"/>
<path d="M69.7372 23.2457H66.4458V26.5371H69.7372V23.2457Z" fill="#EFA2A2"/>
<path d="M69.7372 19.9543H66.4458V23.2458H69.7372V19.9543Z" fill="#F1AEAE"/>
<path d="M69.7372 16.5943H66.4458V19.8857H69.7372V16.5943Z" fill="#F1AEAE"/>
<path d="M69.7372 13.3028H66.4458V16.5942H69.7372V13.3028Z" fill="#F1AEAE"/>
<path d="M69.7372 9.94287H66.4458V13.2343H69.7372V9.94287Z" fill="#F1AEAE"/>
<path d="M69.7372 6.65137H66.4458V9.9428H69.7372V6.65137Z" fill="#F8CBC5"/>
<path d="M69.7372 3.29144H66.4458V6.58287H69.7372V3.29144Z" fill="#EB8B8B"/>
<path d="M69.7372 0H66.4458V3.29143H69.7372V0Z" fill="black"/>
<path d="M66.4459 29.8972H63.0859V33.1886H66.3774L66.4459 29.8972Z" fill="black"/>
<path d="M66.4459 26.6058H63.0859V29.8972H66.3774L66.4459 26.6058Z" fill="#EB8B8B"/>
<path d="M66.4459 23.2457H63.0859V26.5371H66.3774L66.4459 23.2457Z" fill="#EFA2A2"/>
<path d="M66.4459 19.9543H63.0859V23.2458H66.3774L66.4459 19.9543Z" fill="#F1AEAE"/>
<path d="M66.4459 16.5943H63.0859V19.8857H66.3774L66.4459 16.5943Z" fill="#F1AEAE"/>
<path d="M66.4459 13.3028H63.0859V16.5942H66.3774L66.4459 13.3028Z" fill="#F1AEAE"/>
<path d="M66.4459 9.94287H63.0859V13.2343H66.3774L66.4459 9.94287Z" fill="#F1AEAE"/>
<path d="M66.4459 6.65137H63.0859V9.9428H66.3774L66.4459 6.65137Z" fill="#F8CBC5"/>
<path d="M66.4459 3.29144H63.0859V6.58287H66.3774L66.4459 3.29144Z" fill="#EB8B8B"/>
<path d="M66.4459 0H63.0859V3.29143H66.3774L66.4459 0Z" fill="black"/>
<path d="M63.0859 29.8972H59.7944V33.1886H63.0859V29.8972Z" fill="black"/>
<path d="M63.0859 26.6058H59.7944V29.8972H63.0859V26.6058Z" fill="#EB8B8B"/>
<path d="M63.0859 23.2457H59.7944V26.5371H63.0859V23.2457Z" fill="#EFA2A2"/>
<path d="M63.0859 19.9543H59.7944V23.2458H63.0859V19.9543Z" fill="#F1AEAE"/>
<path d="M63.0859 16.5943H59.7944V19.8857H63.0859V16.5943Z" fill="#F1AEAE"/>
<path d="M63.0859 13.3028H59.7944V16.5942H63.0859V13.3028Z" fill="#F1AEAE"/>
<path d="M63.0859 9.94287H59.7944V13.2343H63.0859V9.94287Z" fill="#F1AEAE"/>
<path d="M63.0859 6.65137H59.7944V9.9428H63.0859V6.65137Z" fill="#F8CBC5"/>
<path d="M63.0859 3.29144H59.7944V6.58287H63.0859V3.29144Z" fill="#EB8B8B"/>
<path d="M63.0859 0H59.7944V3.29143H63.0859V0Z" fill="black"/>
<path d="M59.7944 29.8972H56.5029V33.1886H59.7944V29.8972Z" fill="black"/>
<path d="M59.7944 26.6058H56.5029V29.8972H59.7944V26.6058Z" fill="#EB8B8B"/>
<path d="M59.7944 23.2457H56.5029V26.5371H59.7944V23.2457Z" fill="#EFA2A2"/>
<path d="M59.7944 19.9543H56.5029V23.2458H59.7944V19.9543Z" fill="#F1AEAE"/>
<path d="M59.7944 16.5943H56.5029V19.8857H59.7944V16.5943Z" fill="#F1AEAE"/>
<path d="M59.7944 13.3028H56.5029V16.5942H59.7944V13.3028Z" fill="#F1AEAE"/>
<path d="M59.7944 9.94287H56.5029V13.2343H59.7944V9.94287Z" fill="#F1AEAE"/>
<path d="M59.7944 6.65137H56.5029V9.9428H59.7944V6.65137Z" fill="#F8CBC5"/>
<path d="M59.7944 3.29144H56.5029V6.58287H59.7944V3.29144Z" fill="#EB8B8B"/>
<path d="M59.7944 0H56.5029V3.29143H59.7944V0Z" fill="black"/>
<path d="M56.4343 29.8972H53.1428V33.1886H56.4343V29.8972Z" fill="black"/>
<path d="M56.4343 26.6058H53.1428V29.8972H56.4343V26.6058Z" fill="#EB8B8B"/>
<path d="M56.4343 23.2457H53.1428V26.5371H56.4343V23.2457Z" fill="#EFA2A2"/>
<path d="M56.4343 19.9543H53.1428V23.2458H56.4343V19.9543Z" fill="#F1AEAE"/>
<path d="M56.4343 16.5943H53.1428V19.8857H56.4343V16.5943Z" fill="#F1AEAE"/>
<path d="M56.4343 13.3028H53.1428V16.5942H56.4343V13.3028Z" fill="#F1AEAE"/>
<path d="M56.4343 9.94287H53.1428V13.2343H56.4343V9.94287Z" fill="#F1AEAE"/>
<path d="M56.4343 6.65137H53.1428V9.9428H56.4343V6.65137Z" fill="#F8CBC5"/>
<path d="M56.4343 3.29144H53.1428V6.58287H56.4343V3.29144Z" fill="#EB8B8B"/>
<path d="M56.4343 0H53.1428V3.29143H56.4343V0Z" fill="black"/>
<path d="M53.1427 29.8972H49.8513V33.1886H53.1427V29.8972Z" fill="black"/>
<path d="M53.1427 26.6058H49.8513V29.8972H53.1427V26.6058Z" fill="#EB8B8B"/>
<path d="M53.1427 23.2457H49.8513V26.5371H53.1427V23.2457Z" fill="#EFA2A2"/>
<path d="M53.1427 19.9543H49.8513V23.2458H53.1427V19.9543Z" fill="#F1AEAE"/>
<path d="M53.1427 16.5943H49.8513V19.8857H53.1427V16.5943Z" fill="#F1AEAE"/>
<path d="M53.1427 13.3028H49.8513V16.5942H53.1427V13.3028Z" fill="#F1AEAE"/>
<path d="M53.1427 9.94287H49.8513V13.2343H53.1427V9.94287Z" fill="#F1AEAE"/>
<path d="M53.1427 6.65137H49.8513V9.9428H53.1427V6.65137Z" fill="#F8CBC5"/>
<path d="M53.1427 3.29144H49.8513V6.58287H53.1427V3.29144Z" fill="#EB8B8B"/>
<path d="M53.1427 0H49.8513V3.29143H53.1427V0Z" fill="black"/>
<path d="M49.8515 29.8972H46.5601V33.1886H49.8515V29.8972Z" fill="black"/>
<path d="M49.8515 26.6058H46.5601V29.8972H49.8515V26.6058Z" fill="#EB8B8B"/>
<path d="M49.8515 23.2457H46.5601V26.5371H49.8515V23.2457Z" fill="#EFA2A2"/>
<path d="M49.8515 19.9543H46.5601V23.2458H49.8515V19.9543Z" fill="#F1AEAE"/>
<path d="M49.8515 16.5943H46.5601V19.8857H49.8515V16.5943Z" fill="#F1AEAE"/>
<path d="M49.8515 13.3028H46.5601V16.5942H49.8515V13.3028Z" fill="#F1AEAE"/>
<path d="M49.8515 9.94287H46.5601V13.2343H49.8515V9.94287Z" fill="#F1AEAE"/>
<path d="M49.8515 6.65137H46.5601V9.9428H49.8515V6.65137Z" fill="#F8CBC5"/>
<path d="M49.8515 3.29144H46.5601V6.58287H49.8515V3.29144Z" fill="#EB8B8B"/>
<path d="M49.8515 0H46.5601V3.29143H49.8515V0Z" fill="black"/>
<path d="M46.4916 29.8972H43.2002V33.1886H46.4916V29.8972Z" fill="black"/>
<path d="M46.4916 26.6058H43.2002V29.8972H46.4916V26.6058Z" fill="#EB8B8B"/>
<path d="M46.4916 23.2457H43.2002V26.5371H46.4916V23.2457Z" fill="#EFA2A2"/>
<path d="M46.4916 19.9543H43.2002V23.2458H46.4916V19.9543Z" fill="#F1AEAE"/>
<path d="M46.4916 16.5943H43.2002V19.8857H46.4916V16.5943Z" fill="#F1AEAE"/>
<path d="M46.4916 13.3028H43.2002V16.5942H46.4916V13.3028Z" fill="#F1AEAE"/>
<path d="M46.4916 9.94287H43.2002V13.2343H46.4916V9.94287Z" fill="#F1AEAE"/>
<path d="M46.4916 6.65137H43.2002V9.9428H46.4916V6.65137Z" fill="#F8CBC5"/>
<path d="M46.4916 3.29144H43.2002V6.58287H46.4916V3.29144Z" fill="#EB8B8B"/>
<path d="M46.4916 0H43.2002V3.29143H46.4916V0Z" fill="black"/>
<path d="M43.2001 29.8972H39.9087V33.1886H43.2001V29.8972Z" fill="black"/>
<path d="M43.2001 26.6058H39.9087V29.8972H43.2001V26.6058Z" fill="#EB8B8B"/>
<path d="M43.2001 23.2457H39.9087V26.5371H43.2001V23.2457Z" fill="#EFA2A2"/>
<path d="M43.2001 19.9543H39.9087V23.2458H43.2001V19.9543Z" fill="#F1AEAE"/>
<path d="M43.2001 16.5943H39.9087V19.8857H43.2001V16.5943Z" fill="#F1AEAE"/>
<path d="M43.2001 13.3028H39.9087V16.5942H43.2001V13.3028Z" fill="#F1AEAE"/>
<path d="M43.2001 9.94287H39.9087V13.2343H43.2001V9.94287Z" fill="#F1AEAE"/>
<path d="M43.2001 6.65137H39.9087V9.9428H43.2001V6.65137Z" fill="#F8CBC5"/>
<path d="M43.2001 3.29144H39.9087V6.58287H43.2001V3.29144Z" fill="#EB8B8B"/>
<path d="M43.2001 0H39.9087V3.29143H43.2001V0Z" fill="black"/>
<path d="M39.8403 29.8972H36.5488V33.1886H39.8403V29.8972Z" fill="black"/>
<path d="M39.8403 26.6058H36.5488V29.8972H39.8403V26.6058Z" fill="#EB8B8B"/>
<path d="M39.8403 23.2457H36.5488V26.5371H39.8403V23.2457Z" fill="#EFA2A2"/>
<path d="M39.8403 19.9543H36.5488V23.2458H39.8403V19.9543Z" fill="#F1AEAE"/>
<path d="M39.8403 16.5943H36.5488V19.8857H39.8403V16.5943Z" fill="#F1AEAE"/>
<path d="M39.8403 13.3028H36.5488V16.5942H39.8403V13.3028Z" fill="#F1AEAE"/>
<path d="M39.8403 9.94287H36.5488V13.2343H39.8403V9.94287Z" fill="#F1AEAE"/>
<path d="M39.8403 6.65137H36.5488V9.9428H39.8403V6.65137Z" fill="#F8CBC5"/>
<path d="M39.8403 3.29144H36.5488V6.58287H39.8403V3.29144Z" fill="#EB8B8B"/>
<path d="M39.8403 0H36.5488V3.29143H39.8403V0Z" fill="black"/>
<path d="M36.5488 29.8972H33.2573V33.1886H36.5488V29.8972Z" fill="black"/>
<path d="M36.5488 26.6058H33.2573V29.8972H36.5488V26.6058Z" fill="#EB8B8B"/>
<path d="M36.5488 23.2457H33.2573V26.5371H36.5488V23.2457Z" fill="#EFA2A2"/>
<path d="M36.5488 19.9543H33.2573V23.2458H36.5488V19.9543Z" fill="#F1AEAE"/>
<path d="M36.5488 16.5943H33.2573V19.8857H36.5488V16.5943Z" fill="#F1AEAE"/>
<path d="M36.5488 13.3028H33.2573V16.5942H36.5488V13.3028Z" fill="#F1AEAE"/>
<path d="M36.5488 9.94287H33.2573V13.2343H36.5488V9.94287Z" fill="#F1AEAE"/>
<path d="M36.5488 6.65137H33.2573V9.9428H36.5488V6.65137Z" fill="#F8CBC5"/>
<path d="M36.5488 3.29144H33.2573V6.58287H36.5488V3.29144Z" fill="#EB8B8B"/>
<path d="M36.5488 0H33.2573V3.29143H36.5488V0Z" fill="black"/>
<path d="M33.1886 29.8972H29.8972V33.1886H33.1886V29.8972Z" fill="black"/>
<path d="M33.1886 26.6058H29.8972V29.8972H33.1886V26.6058Z" fill="#EB8B8B"/>
<path d="M33.1886 23.2457H29.8972V26.5371H33.1886V23.2457Z" fill="#EFA2A2"/>
<path d="M33.1886 19.9543H29.8972V23.2458H33.1886V19.9543Z" fill="#F1AEAE"/>
<path d="M33.1886 16.5943H29.8972V19.8857H33.1886V16.5943Z" fill="#F1AEAE"/>
<path d="M33.1886 13.3028H29.8972V16.5942H33.1886V13.3028Z" fill="#F1AEAE"/>
<path d="M33.1886 9.94287H29.8972V13.2343H33.1886V9.94287Z" fill="#F1AEAE"/>
<path d="M33.1886 6.65137H29.8972V9.9428H33.1886V6.65137Z" fill="#F8CBC5"/>
<path d="M33.1886 3.29144H29.8972V6.58287H33.1886V3.29144Z" fill="#EB8B8B"/>
<path d="M33.1886 0H29.8972V3.29143H33.1886V0Z" fill="black"/>
<path d="M29.8971 29.8972H26.6057V33.1886H29.8971V29.8972Z" fill="black"/>
<path d="M29.8971 26.6058H26.6057V29.8972H29.8971V26.6058Z" fill="#EB8B8B"/>
<path d="M29.8971 23.2457H26.6057V26.5371H29.8971V23.2457Z" fill="#EFA2A2"/>
<path d="M29.8971 19.9543H26.6057V23.2458H29.8971V19.9543Z" fill="#F1AEAE"/>
<path d="M29.8971 16.5943H26.6057V19.8857H29.8971V16.5943Z" fill="#F1AEAE"/>
<path d="M29.8971 13.3028H26.6057V16.5942H29.8971V13.3028Z" fill="#F1AEAE"/>
<path d="M29.8971 9.94287H26.6057V13.2343H29.8971V9.94287Z" fill="#F1AEAE"/>
<path d="M29.8971 6.65137H26.6057V9.9428H29.8971V6.65137Z" fill="#F8CBC5"/>
<path d="M29.8971 3.29144H26.6057V6.58287H29.8971V3.29144Z" fill="#EB8B8B"/>
<path d="M29.8971 0H26.6057V3.29143H29.8971V0Z" fill="black"/>
<path d="M26.6056 29.8972H23.3142V33.1886H26.6056V29.8972Z" fill="black"/>
<path d="M26.6056 26.6058H23.3142V29.8972H26.6056V26.6058Z" fill="#EB8B8B"/>
<path d="M26.6056 23.2457H23.3142V26.5371H26.6056V23.2457Z" fill="#EFA2A2"/>
<path d="M26.6056 19.9543H23.3142V23.2458H26.6056V19.9543Z" fill="#F1AEAE"/>
<path d="M26.6056 16.5943H23.3142V19.8857H26.6056V16.5943Z" fill="#F1AEAE"/>
<path d="M26.6056 13.3028H23.3142V16.5942H26.6056V13.3028Z" fill="#F1AEAE"/>
<path d="M26.6056 9.94287H23.3142V13.2343H26.6056V9.94287Z" fill="#F1AEAE"/>
<path d="M26.6056 6.65137H23.3142V9.9428H26.6056V6.65137Z" fill="#F8CBC5"/>
<path d="M26.6056 3.29144H23.3142V6.58287H26.6056V3.29144Z" fill="#EB8B8B"/>
<path d="M26.6056 0H23.3142V3.29143H26.6056V0Z" fill="black"/>
<path d="M23.2458 29.8972H19.9543V33.1886H23.2458V29.8972Z" fill="black"/>
<path d="M23.2458 26.6058H19.9543V29.8972H23.2458V26.6058Z" fill="#EB8B8B"/>
<path d="M23.2458 23.2457H19.9543V26.5371H23.2458V23.2457Z" fill="#EFA2A2"/>
<path d="M23.2458 19.9543H19.9543V23.2458H23.2458V19.9543Z" fill="#F1AEAE"/>
<path d="M23.2458 16.5943H19.9543V19.8857H23.2458V16.5943Z" fill="#F1AEAE"/>
<path d="M23.2458 13.3028H19.9543V16.5942H23.2458V13.3028Z" fill="#F1AEAE"/>
<path d="M23.2458 9.94287H19.9543V13.2343H23.2458V9.94287Z" fill="#F1AEAE"/>
<path d="M23.2458 6.65137H19.9543V9.9428H23.2458V6.65137Z" fill="#F8CBC5"/>
<path d="M23.2458 3.29144H19.9543V6.58287H23.2458V3.29144Z" fill="#EB8B8B"/>
<path d="M23.2458 0H19.9543V3.29143H23.2458V0Z" fill="black"/>
<path d="M19.9545 29.8972H16.6631V33.1886H19.9545V29.8972Z" fill="black"/>
<path d="M19.9545 26.6058H16.6631V29.8972H19.9545V26.6058Z" fill="#EB8B8B"/>
<path d="M19.9545 23.2457H16.6631V26.5371H19.9545V23.2457Z" fill="#EFA2A2"/>
<path d="M19.9545 19.9543H16.6631V23.2458H19.9545V19.9543Z" fill="#F1AEAE"/>
<path d="M19.9545 16.5943H16.6631V19.8857H19.9545V16.5943Z" fill="#F1AEAE"/>
<path d="M19.9545 13.3028H16.6631V16.5942H19.9545V13.3028Z" fill="#F1AEAE"/>
<path d="M19.9545 9.94287H16.6631V13.2343H19.9545V9.94287Z" fill="#F1AEAE"/>
<path d="M19.9545 6.65137H16.6631V9.9428H19.9545V6.65137Z" fill="#F8CBC5"/>
<path d="M19.9545 3.29144H16.6631V6.58287H19.9545V3.29144Z" fill="#EB8B8B"/>
<path d="M19.9545 0H16.6631V3.29143H19.9545V0Z" fill="black"/>
<path d="M16.5944 29.8972H13.303V33.1886H16.5944V29.8972Z" fill="black"/>
<path d="M16.5944 26.6058H13.303V29.8972H16.5944V26.6058Z" fill="#EB8B8B"/>
<path d="M16.5944 23.2457H13.303V26.5371H16.5944V23.2457Z" fill="#EFA2A2"/>
<path d="M16.5944 19.9543H13.303V23.2458H16.5944V19.9543Z" fill="#F1AEAE"/>
<path d="M16.5944 16.5943H13.303V19.8857H16.5944V16.5943Z" fill="#F1AEAE"/>
<path d="M16.5944 13.3028H13.303V16.5942H16.5944V13.3028Z" fill="#F1AEAE"/>
<path d="M16.5944 9.94287H13.303V13.2343H16.5944V9.94287Z" fill="#F1AEAE"/>
<path d="M16.5944 6.65137H13.303V9.9428H16.5944V6.65137Z" fill="#F8CBC5"/>
<path d="M16.5944 3.29144H13.303V6.58287H16.5944V3.29144Z" fill="#EB8B8B"/>
<path d="M16.5944 0H13.303V3.29143H16.5944V0Z" fill="black"/>
<path d="M13.3031 29.8972H10.0117V33.1886H13.3031V29.8972Z" fill="black"/>
<path d="M13.3031 26.6058H10.0117V29.8972H13.3031V26.6058Z" fill="#EB8B8B"/>
<path d="M13.3031 23.2457H10.0117V26.5371H13.3031V23.2457Z" fill="#EFA2A2"/>
<path d="M13.3031 19.9543H10.0117V23.2458H13.3031V19.9543Z" fill="#F1AEAE"/>
<path d="M13.3031 16.5943H10.0117V19.8857H13.3031V16.5943Z" fill="#F1AEAE"/>
<path d="M13.3031 13.3028H10.0117V16.5942H13.3031V13.3028Z" fill="#F1AEAE"/>
<path d="M13.3031 9.94287H10.0117V13.2343H13.3031V9.94287Z" fill="#F1AEAE"/>
<path d="M13.3031 6.65137H10.0117V9.9428H13.3031V6.65137Z" fill="#F8CBC5"/>
<path d="M13.3031 3.29144H10.0117V6.58287H13.3031V3.29144Z" fill="#EB8B8B"/>
<path d="M13.3031 0H10.0117V3.29143H13.3031V0Z" fill="black"/>
<path d="M9.9428 29.8972H6.65137V33.1886H9.9428V29.8972Z" fill="black"/>
<path d="M9.9428 26.6058H6.65137V29.8972H9.9428V26.6058Z" fill="#EB8B8B"/>
<path d="M9.9428 23.2457H6.65137V26.5371H9.9428V23.2457Z" fill="#EB8B8B"/>
<path d="M9.9428 19.9543H6.65137V23.2458H9.9428V19.9543Z" fill="#EFA2A2"/>
<path d="M9.9428 16.5943H6.65137V19.8857H9.9428V16.5943Z" fill="#EFA2A2"/>
<path d="M9.9428 13.3028H6.65137V16.5942H9.9428V13.3028Z" fill="#EFA2A2"/>
<path d="M9.9428 9.94287H6.65137V13.2343H9.9428V9.94287Z" fill="#F8CBC5"/>
<path d="M9.9428 6.65137H6.65137V9.9428H9.9428V6.65137Z" fill="#EB8B8B"/>
<path d="M9.9428 3.29144H6.65137V6.58287H9.9428V3.29144Z" fill="#EB8B8B"/>
<path d="M9.9428 0H6.65137V3.29143H9.9428V0Z" fill="black"/>
<path d="M6.6515 26.6058H3.2915V29.8972H6.58293L6.6515 26.6058Z" fill="black"/>
<path d="M6.6515 23.2457H3.2915V26.5371H6.58293L6.6515 23.2457Z" fill="#EB8B8B"/>
<path d="M6.6515 19.9543H3.2915V23.2458H6.58293L6.6515 19.9543Z" fill="#EB8B8B"/>
<path d="M6.6515 16.5943H3.2915V19.8857H6.58293L6.6515 16.5943Z" fill="#EB8B8B"/>
<path d="M6.6515 13.3028H3.2915V16.5942H6.58293L6.6515 13.3028Z" fill="#EB8B8B"/>
<path d="M6.6515 9.94287H3.2915V13.2343H6.58293L6.6515 9.94287Z" fill="#EB8B8B"/>
<path d="M6.6515 6.65137H3.2915V9.9428H6.58293L6.6515 6.65137Z" fill="#EB8B8B"/>
<path d="M6.6515 3.29144H3.2915V6.58287H6.58293L6.6515 3.29144Z" fill="black"/>
<path d="M3.29143 23.2457H0V26.5371H3.29143V23.2457Z" fill="black"/>
<path d="M3.29143 19.9543H0V23.2458H3.29143V19.9543Z" fill="black"/>
<path d="M3.29143 16.5943H0V19.8857H3.29143V16.5943Z" fill="black"/>
<path d="M3.29143 13.3028H0V16.5942H3.29143V13.3028Z" fill="black"/>
<path d="M3.29143 9.94287H0V13.2343H3.29143V9.94287Z" fill="black"/>
<path d="M3.29143 6.65137H0V9.9428H3.29143V6.65137Z" fill="black"/>
<path d="M43.9935 15.6223H42.7491V13.1334H43.9935V15.6223ZM43.9935 20.6H42.7491V19.3556H43.9935V20.6ZM42.7491 19.3556H41.5046V18.1111H42.7491V19.3556ZM42.7491 11.8889V13.1334H39.0157V15.6223H42.7491V16.8667H41.5046V18.1111H40.2602V16.8667H39.0157V20.6H37.7713V11.8889H42.7491ZM50.2194 15.6223H46.486V14.3778H50.2194V15.6223ZM46.486 18.1111V19.3556H45.2416V15.6223H46.486V16.8667H50.2194V15.6223H51.4638V18.1111H46.486ZM51.4638 20.6H46.486V19.3556H51.4638V20.6ZM57.6897 20.6H52.7119V19.3556H57.6897V20.6ZM58.9341 19.3556H57.6897V18.1111H58.9341V19.3556ZM57.6897 18.1111H53.9564V16.8667H57.6897V18.1111ZM53.9564 16.8667H52.7119V15.6223H53.9564V16.8667ZM58.9341 15.6223H53.9564V14.3778H58.9341V15.6223ZM65.16 15.6223H61.4267V14.3778H65.16V15.6223ZM61.4267 18.1111V19.3556H60.1822V15.6223H61.4267V16.8667H65.16V15.6223H66.4044V18.1111H61.4267ZM66.4044 20.6H61.4267V19.3556H66.4044V20.6ZM70.1414 14.3778H71.3859V15.6223H70.1414V19.3556H71.3859V20.6H68.897V15.6223H67.6525V14.3778H68.897V11.8889H70.1414V14.3778Z" fill="black"/>
</g>
<defs>
<clipPath id="clip0_535_14461">
<rect width="106.286" height="33.6" fill="white"/>
</clipPath>
</defs>
</svg>
