<svg width="155" height="49" viewBox="0 0 155 49" fill="none" xmlns="http://www.w3.org/2000/svg">
<g clip-path="url(#clip0_370_8806)">
<path d="M155 33.8999H150.2V38.6999H155V33.8999Z" fill="black"/>
<path d="M155 29.1001H150.2V33.9001H155V29.1001Z" fill="black"/>
<path d="M155 24.2H150.2V29H155V24.2Z" fill="black"/>
<path d="M155 19.4001H150.2V24.2001H155V19.4001Z" fill="black"/>
<path d="M155 14.5H150.2V19.3H155V14.5Z" fill="black"/>
<path d="M155 9.69995H150.2V14.5H155V9.69995Z" fill="black"/>
<path d="M150.2 38.8H145.4V43.6H150.2V38.8Z" fill="black"/>
<path d="M150.2 33.8999H145.4V38.6999H150.2V33.8999Z" fill="#EB8B8B"/>
<path d="M150.2 29.1001H145.4V33.9001H150.2V29.1001Z" fill="#EB8B8B"/>
<path d="M150.2 24.2H145.4V29H150.2V24.2Z" fill="#EB8B8B"/>
<path d="M150.2 19.4001H145.4V24.2001H150.2V19.4001Z" fill="#EB8B8B"/>
<path d="M150.2 14.5H145.4V19.3H150.2V14.5Z" fill="#EB8B8B"/>
<path d="M150.2 9.69995H145.4V14.5H150.2V9.69995Z" fill="#EB8B8B"/>
<path d="M150.2 4.80005H145.4V9.60005H150.2V4.80005Z" fill="black"/>
<path d="M145.3 43.6001H140.5V48.4001H145.3V43.6001Z" fill="black"/>
<path d="M145.3 38.8H140.5V43.6H145.3V38.8Z" fill="#EB8B8B"/>
<path d="M145.3 33.8999H140.5V38.6999H145.3V33.8999Z" fill="#EB8B8B"/>
<path d="M145.3 29.1001H140.5V33.9001H145.3V29.1001Z" fill="#EFA2A2"/>
<path d="M145.3 24.2H140.5V29H145.3V24.2Z" fill="#EFA2A2"/>
<path d="M145.3 19.4001H140.5V24.2001H145.3V19.4001Z" fill="#EFA2A2"/>
<path d="M145.3 14.5H140.5V19.3H145.3V14.5Z" fill="#F8CBC5"/>
<path d="M145.3 9.69995H140.5V14.5H145.3V9.69995Z" fill="#EB8B8B"/>
<path d="M145.3 4.80005H140.5V9.60005H145.3V4.80005Z" fill="#EB8B8B"/>
<path d="M145.3 0H140.5V4.8H145.3V0Z" fill="black"/>
<path d="M140.5 43.6001H135.7V48.4001H140.5V43.6001Z" fill="black"/>
<path d="M140.5 38.8H135.7V43.6H140.5V38.8Z" fill="#EB8B8B"/>
<path d="M140.5 33.8999H135.7V38.6999H140.5V33.8999Z" fill="#EFA2A2"/>
<path d="M140.5 29.1001H135.7V33.9001H140.5V29.1001Z" fill="#F1AEAE"/>
<path d="M140.5 24.2H135.7V29H140.5V24.2Z" fill="#F1AEAE"/>
<path d="M140.5 19.4001H135.7V24.2001H140.5V19.4001Z" fill="#F1AEAE"/>
<path d="M140.5 14.5H135.7V19.3H140.5V14.5Z" fill="#F1AEAE"/>
<path d="M140.5 9.69995H135.7V14.5H140.5V9.69995Z" fill="#F8CBC5"/>
<path d="M140.5 4.80005H135.7V9.60005H140.5V4.80005Z" fill="#EB8B8B"/>
<path d="M140.5 0H135.7V4.8H140.5V0Z" fill="black"/>
<path d="M135.6 43.6001H130.8V48.4001H135.6V43.6001Z" fill="black"/>
<path d="M135.6 38.8H130.8V43.6H135.6V38.8Z" fill="#EB8B8B"/>
<path d="M135.6 33.8999H130.8V38.6999H135.6V33.8999Z" fill="#EFA2A2"/>
<path d="M135.6 29.1001H130.8V33.9001H135.6V29.1001Z" fill="#F1AEAE"/>
<path d="M135.6 24.2H130.8V29H135.6V24.2Z" fill="#F1AEAE"/>
<path d="M135.6 19.4001H130.8V24.2001H135.6V19.4001Z" fill="#F1AEAE"/>
<path d="M135.6 14.5H130.8V19.3H135.6V14.5Z" fill="#F1AEAE"/>
<path d="M135.6 9.69995H130.8V14.5H135.6V9.69995Z" fill="#F8CBC5"/>
<path d="M135.6 4.80005H130.8V9.60005H135.6V4.80005Z" fill="#EB8B8B"/>
<path d="M135.6 0H130.8V4.8H135.6V0Z" fill="black"/>
<path d="M130.8 43.6001H126V48.4001H130.8V43.6001Z" fill="black"/>
<path d="M130.8 38.8H126V43.6H130.8V38.8Z" fill="#EB8B8B"/>
<path d="M130.8 33.8999H126V38.6999H130.8V33.8999Z" fill="#EFA2A2"/>
<path d="M130.8 29.1001H126V33.9001H130.8V29.1001Z" fill="#F1AEAE"/>
<path d="M130.8 24.2H126V29H130.8V24.2Z" fill="#F1AEAE"/>
<path d="M130.8 19.4001H126V24.2001H130.8V19.4001Z" fill="#F1AEAE"/>
<path d="M130.8 14.5H126V19.3H130.8V14.5Z" fill="#F1AEAE"/>
<path d="M130.8 9.69995H126V14.5H130.8V9.69995Z" fill="#F8CBC5"/>
<path d="M130.8 4.80005H126V9.60005H130.8V4.80005Z" fill="#EB8B8B"/>
<path d="M130.8 0H126V4.8H130.8V0Z" fill="black"/>
<path d="M125.9 43.6001H121.1V48.4001H125.9V43.6001Z" fill="black"/>
<path d="M125.9 38.8H121.1V43.6H125.9V38.8Z" fill="#EB8B8B"/>
<path d="M125.9 33.8999H121.1V38.6999H125.9V33.8999Z" fill="#EFA2A2"/>
<path d="M125.9 29.1001H121.1V33.9001H125.9V29.1001Z" fill="#F1AEAE"/>
<path d="M125.9 24.2H121.1V29H125.9V24.2Z" fill="#F1AEAE"/>
<path d="M125.9 19.4001H121.1V24.2001H125.9V19.4001Z" fill="#F1AEAE"/>
<path d="M125.9 14.5H121.1V19.3H125.9V14.5Z" fill="#F1AEAE"/>
<path d="M125.9 9.69995H121.1V14.5H125.9V9.69995Z" fill="#F8CBC5"/>
<path d="M125.9 4.80005H121.1V9.60005H125.9V4.80005Z" fill="#EB8B8B"/>
<path d="M125.9 0H121.1V4.8H125.9V0Z" fill="black"/>
<path d="M121.1 43.6001H116.3V48.4001H121.1V43.6001Z" fill="black"/>
<path d="M121.1 38.8H116.3V43.6H121.1V38.8Z" fill="#EB8B8B"/>
<path d="M121.1 33.8999H116.3V38.6999H121.1V33.8999Z" fill="#EFA2A2"/>
<path d="M121.1 29.1001H116.3V33.9001H121.1V29.1001Z" fill="#F1AEAE"/>
<path d="M121.1 24.2H116.3V29H121.1V24.2Z" fill="#F1AEAE"/>
<path d="M121.1 19.4001H116.3V24.2001H121.1V19.4001Z" fill="#F1AEAE"/>
<path d="M121.1 14.5H116.3V19.3H121.1V14.5Z" fill="#F1AEAE"/>
<path d="M121.1 9.69995H116.3V14.5H121.1V9.69995Z" fill="#F8CBC5"/>
<path d="M121.1 4.80005H116.3V9.60005H121.1V4.80005Z" fill="#EB8B8B"/>
<path d="M121.1 0H116.3V4.8H121.1V0Z" fill="black"/>
<path d="M116.2 43.6001H111.4V48.4001H116.2V43.6001Z" fill="black"/>
<path d="M116.2 38.8H111.4V43.6H116.2V38.8Z" fill="#EB8B8B"/>
<path d="M116.2 33.8999H111.4V38.6999H116.2V33.8999Z" fill="#EFA2A2"/>
<path d="M116.2 29.1001H111.4V33.9001H116.2V29.1001Z" fill="#F1AEAE"/>
<path d="M116.2 24.2H111.4V29H116.2V24.2Z" fill="#F1AEAE"/>
<path d="M116.2 19.4001H111.4V24.2001H116.2V19.4001Z" fill="#F1AEAE"/>
<path d="M116.2 14.5H111.4V19.3H116.2V14.5Z" fill="#F1AEAE"/>
<path d="M116.2 9.69995H111.4V14.5H116.2V9.69995Z" fill="#F8CBC5"/>
<path d="M116.2 4.80005H111.4V9.60005H116.2V4.80005Z" fill="#EB8B8B"/>
<path d="M116.2 0H111.4V4.8H116.2V0Z" fill="black"/>
<path d="M111.4 43.6001H106.6V48.4001H111.4V43.6001Z" fill="black"/>
<path d="M111.4 38.8H106.6V43.6H111.4V38.8Z" fill="#EB8B8B"/>
<path d="M111.4 33.8999H106.6V38.6999H111.4V33.8999Z" fill="#EFA2A2"/>
<path d="M111.4 29.1001H106.6V33.9001H111.4V29.1001Z" fill="#F1AEAE"/>
<path d="M111.4 24.2H106.6V29H111.4V24.2Z" fill="#F1AEAE"/>
<path d="M111.4 19.4001H106.6V24.2001H111.4V19.4001Z" fill="#F1AEAE"/>
<path d="M111.4 14.5H106.6V19.3H111.4V14.5Z" fill="#F1AEAE"/>
<path d="M111.4 9.69995H106.6V14.5H111.4V9.69995Z" fill="#F8CBC5"/>
<path d="M111.4 4.80005H106.6V9.60005H111.4V4.80005Z" fill="#EB8B8B"/>
<path d="M111.4 0H106.6V4.8H111.4V0Z" fill="black"/>
<path d="M106.6 43.6001H101.8V48.4001H106.6V43.6001Z" fill="black"/>
<path d="M106.6 38.8H101.8V43.6H106.6V38.8Z" fill="#EB8B8B"/>
<path d="M106.6 33.8999H101.8V38.6999H106.6V33.8999Z" fill="#EFA2A2"/>
<path d="M106.6 29.1001H101.8V33.9001H106.6V29.1001Z" fill="#F1AEAE"/>
<path d="M106.6 24.2H101.8V29H106.6V24.2Z" fill="#F1AEAE"/>
<path d="M106.6 19.4001H101.8V24.2001H106.6V19.4001Z" fill="#F1AEAE"/>
<path d="M106.6 14.5H101.8V19.3H106.6V14.5Z" fill="#F1AEAE"/>
<path d="M106.6 9.69995H101.8V14.5H106.6V9.69995Z" fill="#F8CBC5"/>
<path d="M106.6 4.80005H101.8V9.60005H106.6V4.80005Z" fill="#EB8B8B"/>
<path d="M106.6 0H101.8V4.8H106.6V0Z" fill="black"/>
<path d="M101.7 43.6001H96.9001V48.4001H101.7V43.6001Z" fill="black"/>
<path d="M101.7 38.8H96.9001V43.6H101.7V38.8Z" fill="#EB8B8B"/>
<path d="M101.7 33.8999H96.9001V38.6999H101.7V33.8999Z" fill="#EFA2A2"/>
<path d="M101.7 29.1001H96.9001V33.9001H101.7V29.1001Z" fill="#F1AEAE"/>
<path d="M101.7 24.2H96.9001V29H101.7V24.2Z" fill="#F1AEAE"/>
<path d="M101.7 19.4001H96.9001V24.2001H101.7V19.4001Z" fill="#F1AEAE"/>
<path d="M101.7 14.5H96.9001V19.3H101.7V14.5Z" fill="#F1AEAE"/>
<path d="M101.7 9.69995H96.9001V14.5H101.7V9.69995Z" fill="#F8CBC5"/>
<path d="M101.7 4.80005H96.9001V9.60005H101.7V4.80005Z" fill="#EB8B8B"/>
<path d="M101.7 0H96.9001V4.8H101.7V0Z" fill="black"/>
<path d="M96.9 43.6001H92V48.4001H96.8L96.9 43.6001Z" fill="black"/>
<path d="M96.9 38.8H92V43.6H96.8L96.9 38.8Z" fill="#EB8B8B"/>
<path d="M96.9 33.8999H92V38.6999H96.8L96.9 33.8999Z" fill="#EFA2A2"/>
<path d="M96.9 29.1001H92V33.9001H96.8L96.9 29.1001Z" fill="#F1AEAE"/>
<path d="M96.9 24.2H92V29H96.8L96.9 24.2Z" fill="#F1AEAE"/>
<path d="M96.9 19.4001H92V24.2001H96.8L96.9 19.4001Z" fill="#F1AEAE"/>
<path d="M96.9 14.5H92V19.3H96.8L96.9 14.5Z" fill="#F1AEAE"/>
<path d="M96.9 9.69995H92V14.5H96.8L96.9 9.69995Z" fill="#F8CBC5"/>
<path d="M96.9 4.80005H92V9.60005H96.8L96.9 4.80005Z" fill="#EB8B8B"/>
<path d="M96.9 0H92V4.8H96.8L96.9 0Z" fill="black"/>
<path d="M92 43.6001H87.2V48.4001H92V43.6001Z" fill="black"/>
<path d="M92 38.8H87.2V43.6H92V38.8Z" fill="#EB8B8B"/>
<path d="M92 33.8999H87.2V38.6999H92V33.8999Z" fill="#EFA2A2"/>
<path d="M92 29.1001H87.2V33.9001H92V29.1001Z" fill="#F1AEAE"/>
<path d="M92 24.2H87.2V29H92V24.2Z" fill="#F1AEAE"/>
<path d="M92 19.4001H87.2V24.2001H92V19.4001Z" fill="#F1AEAE"/>
<path d="M92 14.5H87.2V19.3H92V14.5Z" fill="#F1AEAE"/>
<path d="M92 9.69995H87.2V14.5H92V9.69995Z" fill="#F8CBC5"/>
<path d="M92 4.80005H87.2V9.60005H92V4.80005Z" fill="#EB8B8B"/>
<path d="M92 0H87.2V4.8H92V0Z" fill="black"/>
<path d="M87.2001 43.6001H82.4001V48.4001H87.2001V43.6001Z" fill="black"/>
<path d="M87.2001 38.8H82.4001V43.6H87.2001V38.8Z" fill="#EB8B8B"/>
<path d="M87.2001 33.8999H82.4001V38.6999H87.2001V33.8999Z" fill="#EFA2A2"/>
<path d="M87.2001 29.1001H82.4001V33.9001H87.2001V29.1001Z" fill="#F1AEAE"/>
<path d="M87.2001 24.2H82.4001V29H87.2001V24.2Z" fill="#F1AEAE"/>
<path d="M87.2001 19.4001H82.4001V24.2001H87.2001V19.4001Z" fill="#F1AEAE"/>
<path d="M87.2001 14.5H82.4001V19.3H87.2001V14.5Z" fill="#F1AEAE"/>
<path d="M87.2001 9.69995H82.4001V14.5H87.2001V9.69995Z" fill="#F8CBC5"/>
<path d="M87.2001 4.80005H82.4001V9.60005H87.2001V4.80005Z" fill="#EB8B8B"/>
<path d="M87.2001 0H82.4001V4.8H87.2001V0Z" fill="black"/>
<path d="M82.3 43.6001H77.5V48.4001H82.3V43.6001Z" fill="black"/>
<path d="M82.3 38.8H77.5V43.6H82.3V38.8Z" fill="#EB8B8B"/>
<path d="M82.3 33.8999H77.5V38.6999H82.3V33.8999Z" fill="#EFA2A2"/>
<path d="M82.3 29.1001H77.5V33.9001H82.3V29.1001Z" fill="#F1AEAE"/>
<path d="M82.3 24.2H77.5V29H82.3V24.2Z" fill="#F1AEAE"/>
<path d="M82.3 19.4001H77.5V24.2001H82.3V19.4001Z" fill="#F1AEAE"/>
<path d="M82.3 14.5H77.5V19.3H82.3V14.5Z" fill="#F1AEAE"/>
<path d="M82.3 9.69995H77.5V14.5H82.3V9.69995Z" fill="#F8CBC5"/>
<path d="M82.3 4.80005H77.5V9.60005H82.3V4.80005Z" fill="#EB8B8B"/>
<path d="M82.3 0H77.5V4.8H82.3V0Z" fill="black"/>
<path d="M77.5 43.6001H72.7V48.4001H77.5V43.6001Z" fill="black"/>
<path d="M77.5 38.8H72.7V43.6H77.5V38.8Z" fill="#EB8B8B"/>
<path d="M77.5 33.8999H72.7V38.6999H77.5V33.8999Z" fill="#EFA2A2"/>
<path d="M77.5 29.1001H72.7V33.9001H77.5V29.1001Z" fill="#F1AEAE"/>
<path d="M77.5 24.2H72.7V29H77.5V24.2Z" fill="#F1AEAE"/>
<path d="M77.5 19.4001H72.7V24.2001H77.5V19.4001Z" fill="#F1AEAE"/>
<path d="M77.5 14.5H72.7V19.3H77.5V14.5Z" fill="#F1AEAE"/>
<path d="M77.5 9.69995H72.7V14.5H77.5V9.69995Z" fill="#F8CBC5"/>
<path d="M77.5 4.80005H72.7V9.60005H77.5V4.80005Z" fill="#EB8B8B"/>
<path d="M77.5 0H72.7V4.8H77.5V0Z" fill="black"/>
<path d="M72.7001 43.6001H67.9001V48.4001H72.7001V43.6001Z" fill="black"/>
<path d="M72.7001 38.8H67.9001V43.6H72.7001V38.8Z" fill="#EB8B8B"/>
<path d="M72.7001 33.8999H67.9001V38.6999H72.7001V33.8999Z" fill="#EFA2A2"/>
<path d="M72.7001 29.1001H67.9001V33.9001H72.7001V29.1001Z" fill="#F1AEAE"/>
<path d="M72.7001 24.2H67.9001V29H72.7001V24.2Z" fill="#F1AEAE"/>
<path d="M72.7001 19.4001H67.9001V24.2001H72.7001V19.4001Z" fill="#F1AEAE"/>
<path d="M72.7001 14.5H67.9001V19.3H72.7001V14.5Z" fill="#F1AEAE"/>
<path d="M72.7001 9.69995H67.9001V14.5H72.7001V9.69995Z" fill="#F8CBC5"/>
<path d="M72.7001 4.80005H67.9001V9.60005H72.7001V4.80005Z" fill="#EB8B8B"/>
<path d="M72.7001 0H67.9001V4.8H72.7001V0Z" fill="black"/>
<path d="M67.8 43.6001H63V48.4001H67.8V43.6001Z" fill="black"/>
<path d="M67.8 38.8H63V43.6H67.8V38.8Z" fill="#EB8B8B"/>
<path d="M67.8 33.8999H63V38.6999H67.8V33.8999Z" fill="#EFA2A2"/>
<path d="M67.8 29.1001H63V33.9001H67.8V29.1001Z" fill="#F1AEAE"/>
<path d="M67.8 24.2H63V29H67.8V24.2Z" fill="#F1AEAE"/>
<path d="M67.8 19.4001H63V24.2001H67.8V19.4001Z" fill="#F1AEAE"/>
<path d="M67.8 14.5H63V19.3H67.8V14.5Z" fill="#F1AEAE"/>
<path d="M67.8 9.69995H63V14.5H67.8V9.69995Z" fill="#F8CBC5"/>
<path d="M67.8 4.80005H63V9.60005H67.8V4.80005Z" fill="#EB8B8B"/>
<path d="M67.8 0H63V4.8H67.8V0Z" fill="black"/>
<path d="M63 43.6001H58.2V48.4001H63V43.6001Z" fill="black"/>
<path d="M63 38.8H58.2V43.6H63V38.8Z" fill="#EB8B8B"/>
<path d="M63 33.8999H58.2V38.6999H63V33.8999Z" fill="#EFA2A2"/>
<path d="M63 29.1001H58.2V33.9001H63V29.1001Z" fill="#F1AEAE"/>
<path d="M63 24.2H58.2V29H63V24.2Z" fill="#F1AEAE"/>
<path d="M63 19.4001H58.2V24.2001H63V19.4001Z" fill="#F1AEAE"/>
<path d="M63 14.5H58.2V19.3H63V14.5Z" fill="#F1AEAE"/>
<path d="M63 9.69995H58.2V14.5H63V9.69995Z" fill="#F8CBC5"/>
<path d="M63 4.80005H58.2V9.60005H63V4.80005Z" fill="#EB8B8B"/>
<path d="M63 0H58.2V4.8H63V0Z" fill="black"/>
<path d="M58.1 43.6001H53.3V48.4001H58.1V43.6001Z" fill="black"/>
<path d="M58.1 38.8H53.3V43.6H58.1V38.8Z" fill="#EB8B8B"/>
<path d="M58.1 33.8999H53.3V38.6999H58.1V33.8999Z" fill="#EFA2A2"/>
<path d="M58.1 29.1001H53.3V33.9001H58.1V29.1001Z" fill="#F1AEAE"/>
<path d="M58.1 24.2H53.3V29H58.1V24.2Z" fill="#F1AEAE"/>
<path d="M58.1 19.4001H53.3V24.2001H58.1V19.4001Z" fill="#F1AEAE"/>
<path d="M58.1 14.5H53.3V19.3H58.1V14.5Z" fill="#F1AEAE"/>
<path d="M58.1 9.69995H53.3V14.5H58.1V9.69995Z" fill="#F8CBC5"/>
<path d="M58.1 4.80005H53.3V9.60005H58.1V4.80005Z" fill="#EB8B8B"/>
<path d="M58.1 0H53.3V4.8H58.1V0Z" fill="black"/>
<path d="M53.3 43.6001H48.5V48.4001H53.3V43.6001Z" fill="black"/>
<path d="M53.3 38.8H48.5V43.6H53.3V38.8Z" fill="#EB8B8B"/>
<path d="M53.3 33.8999H48.5V38.6999H53.3V33.8999Z" fill="#EFA2A2"/>
<path d="M53.3 29.1001H48.5V33.9001H53.3V29.1001Z" fill="#F1AEAE"/>
<path d="M53.3 24.2H48.5V29H53.3V24.2Z" fill="#F1AEAE"/>
<path d="M53.3 19.4001H48.5V24.2001H53.3V19.4001Z" fill="#F1AEAE"/>
<path d="M53.3 14.5H48.5V19.3H53.3V14.5Z" fill="#F1AEAE"/>
<path d="M53.3 9.69995H48.5V14.5H53.3V9.69995Z" fill="#F8CBC5"/>
<path d="M53.3 4.80005H48.5V9.60005H53.3V4.80005Z" fill="#EB8B8B"/>
<path d="M53.3 0H48.5V4.8H53.3V0Z" fill="black"/>
<path d="M48.4001 43.6001H43.6001V48.4001H48.4001V43.6001Z" fill="black"/>
<path d="M48.4001 38.8H43.6001V43.6H48.4001V38.8Z" fill="#EB8B8B"/>
<path d="M48.4001 33.8999H43.6001V38.6999H48.4001V33.8999Z" fill="#EFA2A2"/>
<path d="M48.4001 29.1001H43.6001V33.9001H48.4001V29.1001Z" fill="#F1AEAE"/>
<path d="M48.4001 24.2H43.6001V29H48.4001V24.2Z" fill="#F1AEAE"/>
<path d="M48.4001 19.4001H43.6001V24.2001H48.4001V19.4001Z" fill="#F1AEAE"/>
<path d="M48.4001 14.5H43.6001V19.3H48.4001V14.5Z" fill="#F1AEAE"/>
<path d="M48.4001 9.69995H43.6001V14.5H48.4001V9.69995Z" fill="#F8CBC5"/>
<path d="M48.4001 4.80005H43.6001V9.60005H48.4001V4.80005Z" fill="#EB8B8B"/>
<path d="M48.4001 0H43.6001V4.8H48.4001V0Z" fill="black"/>
<path d="M43.6 43.6001H38.8V48.4001H43.6V43.6001Z" fill="black"/>
<path d="M43.6 38.8H38.8V43.6H43.6V38.8Z" fill="#EB8B8B"/>
<path d="M43.6 33.8999H38.8V38.6999H43.6V33.8999Z" fill="#EFA2A2"/>
<path d="M43.6 29.1001H38.8V33.9001H43.6V29.1001Z" fill="#F1AEAE"/>
<path d="M43.6 24.2H38.8V29H43.6V24.2Z" fill="#F1AEAE"/>
<path d="M43.6 19.4001H38.8V24.2001H43.6V19.4001Z" fill="#F1AEAE"/>
<path d="M43.6 14.5H38.8V19.3H43.6V14.5Z" fill="#F1AEAE"/>
<path d="M43.6 9.69995H38.8V14.5H43.6V9.69995Z" fill="#F8CBC5"/>
<path d="M43.6 4.80005H38.8V9.60005H43.6V4.80005Z" fill="#EB8B8B"/>
<path d="M43.6 0H38.8V4.8H43.6V0Z" fill="black"/>
<path d="M38.8 43.6001H34V48.4001H38.8V43.6001Z" fill="black"/>
<path d="M38.8 38.8H34V43.6H38.8V38.8Z" fill="#EB8B8B"/>
<path d="M38.8 33.8999H34V38.6999H38.8V33.8999Z" fill="#EFA2A2"/>
<path d="M38.8 29.1001H34V33.9001H38.8V29.1001Z" fill="#F1AEAE"/>
<path d="M38.8 24.2H34V29H38.8V24.2Z" fill="#F1AEAE"/>
<path d="M38.8 19.4001H34V24.2001H38.8V19.4001Z" fill="#F1AEAE"/>
<path d="M38.8 14.5H34V19.3H38.8V14.5Z" fill="#F1AEAE"/>
<path d="M38.8 9.69995H34V14.5H38.8V9.69995Z" fill="#F8CBC5"/>
<path d="M38.8 4.80005H34V9.60005H38.8V4.80005Z" fill="#EB8B8B"/>
<path d="M38.8 0H34V4.8H38.8V0Z" fill="black"/>
<path d="M33.9001 43.6001H29.1001V48.4001H33.9001V43.6001Z" fill="black"/>
<path d="M33.9001 38.8H29.1001V43.6H33.9001V38.8Z" fill="#EB8B8B"/>
<path d="M33.9001 33.8999H29.1001V38.6999H33.9001V33.8999Z" fill="#EFA2A2"/>
<path d="M33.9001 29.1001H29.1001V33.9001H33.9001V29.1001Z" fill="#F1AEAE"/>
<path d="M33.9001 24.2H29.1001V29H33.9001V24.2Z" fill="#F1AEAE"/>
<path d="M33.9001 19.4001H29.1001V24.2001H33.9001V19.4001Z" fill="#F1AEAE"/>
<path d="M33.9001 14.5H29.1001V19.3H33.9001V14.5Z" fill="#F1AEAE"/>
<path d="M33.9001 9.69995H29.1001V14.5H33.9001V9.69995Z" fill="#F8CBC5"/>
<path d="M33.9001 4.80005H29.1001V9.60005H33.9001V4.80005Z" fill="#EB8B8B"/>
<path d="M33.9001 0H29.1001V4.8H33.9001V0Z" fill="black"/>
<path d="M29.1001 43.6001H24.3V48.4001H29.1001V43.6001Z" fill="black"/>
<path d="M29.1001 38.8H24.3V43.6H29.1001V38.8Z" fill="#EB8B8B"/>
<path d="M29.1001 33.8999H24.3V38.6999H29.1001V33.8999Z" fill="#EFA2A2"/>
<path d="M29.1001 29.1001H24.3V33.9001H29.1001V29.1001Z" fill="#F1AEAE"/>
<path d="M29.1001 24.2H24.3V29H29.1001V24.2Z" fill="#F1AEAE"/>
<path d="M29.1001 19.4001H24.3V24.2001H29.1001V19.4001Z" fill="#F1AEAE"/>
<path d="M29.1001 14.5H24.3V19.3H29.1001V14.5Z" fill="#F1AEAE"/>
<path d="M29.1001 9.69995H24.3V14.5H29.1001V9.69995Z" fill="#F8CBC5"/>
<path d="M29.1001 4.80005H24.3V9.60005H29.1001V4.80005Z" fill="#EB8B8B"/>
<path d="M29.1001 0H24.3V4.8H29.1001V0Z" fill="black"/>
<path d="M24.2001 43.6001H19.4001V48.4001H24.2001V43.6001Z" fill="black"/>
<path d="M24.2001 38.8H19.4001V43.6H24.2001V38.8Z" fill="#EB8B8B"/>
<path d="M24.2001 33.8999H19.4001V38.6999H24.2001V33.8999Z" fill="#EFA2A2"/>
<path d="M24.2001 29.1001H19.4001V33.9001H24.2001V29.1001Z" fill="#F1AEAE"/>
<path d="M24.2001 24.2H19.4001V29H24.2001V24.2Z" fill="#F1AEAE"/>
<path d="M24.2001 19.4001H19.4001V24.2001H24.2001V19.4001Z" fill="#F1AEAE"/>
<path d="M24.2001 14.5H19.4001V19.3H24.2001V14.5Z" fill="#F1AEAE"/>
<path d="M24.2001 9.69995H19.4001V14.5H24.2001V9.69995Z" fill="#F8CBC5"/>
<path d="M24.2001 4.80005H19.4001V9.60005H24.2001V4.80005Z" fill="#EB8B8B"/>
<path d="M24.2001 0H19.4001V4.8H24.2001V0Z" fill="black"/>
<path d="M19.4001 43.6001H14.6001V48.4001H19.4001V43.6001Z" fill="black"/>
<path d="M19.4001 38.8H14.6001V43.6H19.4001V38.8Z" fill="#EB8B8B"/>
<path d="M19.4001 33.8999H14.6001V38.6999H19.4001V33.8999Z" fill="#EFA2A2"/>
<path d="M19.4001 29.1001H14.6001V33.9001H19.4001V29.1001Z" fill="#F1AEAE"/>
<path d="M19.4001 24.2H14.6001V29H19.4001V24.2Z" fill="#F1AEAE"/>
<path d="M19.4001 19.4001H14.6001V24.2001H19.4001V19.4001Z" fill="#F1AEAE"/>
<path d="M19.4001 14.5H14.6001V19.3H19.4001V14.5Z" fill="#F1AEAE"/>
<path d="M19.4001 9.69995H14.6001V14.5H19.4001V9.69995Z" fill="#F8CBC5"/>
<path d="M19.4001 4.80005H14.6001V9.60005H19.4001V4.80005Z" fill="#EB8B8B"/>
<path d="M19.4001 0H14.6001V4.8H19.4001V0Z" fill="black"/>
<path d="M14.5 43.6001H9.69995V48.4001H14.5V43.6001Z" fill="black"/>
<path d="M14.5 38.8H9.69995V43.6H14.5V38.8Z" fill="#EB8B8B"/>
<path d="M14.5 33.8999H9.69995V38.6999H14.5V33.8999Z" fill="#EB8B8B"/>
<path d="M14.5 29.1001H9.69995V33.9001H14.5V29.1001Z" fill="#EFA2A2"/>
<path d="M14.5 24.2H9.69995V29H14.5V24.2Z" fill="#EFA2A2"/>
<path d="M14.5 19.4001H9.69995V24.2001H14.5V19.4001Z" fill="#EFA2A2"/>
<path d="M14.5 14.5H9.69995V19.3H14.5V14.5Z" fill="#F8CBC5"/>
<path d="M14.5 9.69995H9.69995V14.5H14.5V9.69995Z" fill="#EB8B8B"/>
<path d="M14.5 4.80005H9.69995V9.60005H14.5V4.80005Z" fill="#EB8B8B"/>
<path d="M14.5 0H9.69995V4.8H14.5V0Z" fill="black"/>
<path d="M9.70005 38.8H4.80005V43.6H9.60005L9.70005 38.8Z" fill="black"/>
<path d="M9.70005 33.8999H4.80005V38.6999H9.60005L9.70005 33.8999Z" fill="#EB8B8B"/>
<path d="M9.70005 29.1001H4.80005V33.9001H9.60005L9.70005 29.1001Z" fill="#EB8B8B"/>
<path d="M9.70005 24.2H4.80005V29H9.60005L9.70005 24.2Z" fill="#EB8B8B"/>
<path d="M9.70005 19.4001H4.80005V24.2001H9.60005L9.70005 19.4001Z" fill="#EB8B8B"/>
<path d="M9.70005 14.5H4.80005V19.3H9.60005L9.70005 14.5Z" fill="#EB8B8B"/>
<path d="M9.70005 9.69995H4.80005V14.5H9.60005L9.70005 9.69995Z" fill="#EB8B8B"/>
<path d="M9.70005 4.80005H4.80005V9.60005H9.60005L9.70005 4.80005Z" fill="black"/>
<path d="M4.8 33.8999H0V38.6999H4.8V33.8999Z" fill="black"/>
<path d="M4.8 29.1001H0V33.9001H4.8V29.1001Z" fill="black"/>
<path d="M4.8 24.2H0V29H4.8V24.2Z" fill="black"/>
<path d="M4.8 19.4001H0V24.2001H4.8V19.4001Z" fill="black"/>
<path d="M4.8 14.5H0V19.3H4.8V14.5Z" fill="black"/>
<path d="M4.8 9.69995H0V14.5H4.8V9.69995Z" fill="black"/>
</g>
<path d="M58.7059 27.3575H57.1504V25.802H58.7059V27.3575ZM63.3726 28.9131H58.7059V27.3575H63.3726V28.9131ZM64.9282 27.3575H63.3726V24.2464H64.9282V27.3575ZM63.3726 19.5798H58.7059V18.0242H63.3726V19.5798ZM64.9282 21.1353H63.3726V19.5798H64.9282V21.1353ZM58.7059 22.6909H57.1504V19.5798H58.7059V22.6909ZM63.3726 24.2464H58.7059V22.6909H63.3726V24.2464ZM68.0438 27.3575H66.4883V22.6909H68.0438V27.3575ZM72.7105 24.2464H71.1549V22.6909H72.7105V21.1353H74.2661V28.9131H72.7105V27.3575H71.1549V25.802H72.7105V24.2464ZM71.1549 28.9131H68.0438V27.3575H71.1549V28.9131ZM71.1549 22.6909H68.0438V21.1353H71.1549V22.6909ZM80.4928 28.9131H78.9373V27.3575H80.4928V28.9131ZM78.9373 27.3575H77.3817V25.802H78.9373V27.3575ZM82.0484 27.3575H80.4928V25.802H82.0484V27.3575ZM77.3817 25.802H75.8262V21.1353H77.3817V25.802ZM83.604 25.802H82.0484V21.1353H83.604V25.802ZM91.3863 22.6909H86.7196V21.1353H91.3863V22.6909ZM86.7196 25.802V27.3575H85.1641V22.6909H86.7196V24.2464H91.3863V22.6909H92.9418V25.802H86.7196ZM92.9418 28.9131H86.7196V27.3575H92.9418V28.9131Z" fill="black"/>
<defs>
<clipPath id="clip0_370_8806">
<rect width="155" height="49" fill="white"/>
</clipPath>
</defs>
</svg>
