<svg width="155" height="49" viewBox="0 0 155 49" fill="none" xmlns="http://www.w3.org/2000/svg">
<g clip-path="url(#clip0_296_6204)">
<path d="M155 33.9H150.2V38.7H155V33.9Z" fill="black"/>
<path d="M155 29.1H150.2V33.9H155V29.1Z" fill="black"/>
<path d="M155 24.2H150.2V29H155V24.2Z" fill="black"/>
<path d="M155 19.4H150.2V24.2H155V19.4Z" fill="black"/>
<path d="M155 14.5H150.2V19.3H155V14.5Z" fill="black"/>
<path d="M155 9.7H150.2V14.5H155V9.7Z" fill="black"/>
<path d="M150.2 38.8H145.4V43.6H150.2V38.8Z" fill="black"/>
<path d="M150.2 33.9H145.4V38.7H150.2V33.9Z" fill="#EB8B8B"/>
<path d="M150.2 29.1H145.4V33.9H150.2V29.1Z" fill="#EB8B8B"/>
<path d="M150.2 24.2H145.4V29H150.2V24.2Z" fill="#EB8B8B"/>
<path d="M150.2 19.4H145.4V24.2H150.2V19.4Z" fill="#EB8B8B"/>
<path d="M150.2 14.5H145.4V19.3H150.2V14.5Z" fill="#EB8B8B"/>
<path d="M150.2 9.7H145.4V14.5H150.2V9.7Z" fill="#EB8B8B"/>
<path d="M150.2 4.8H145.4V9.6H150.2V4.8Z" fill="black"/>
<path d="M145.3 43.6H140.5V48.4H145.3V43.6Z" fill="black"/>
<path d="M145.3 38.8H140.5V43.6H145.3V38.8Z" fill="#EB8B8B"/>
<path d="M145.3 33.9H140.5V38.7H145.3V33.9Z" fill="#EB8B8B"/>
<path d="M145.3 29.1H140.5V33.9H145.3V29.1Z" fill="#EFA2A2"/>
<path d="M145.3 24.2H140.5V29H145.3V24.2Z" fill="#EFA2A2"/>
<path d="M145.3 19.4H140.5V24.2H145.3V19.4Z" fill="#EFA2A2"/>
<path d="M145.3 14.5H140.5V19.3H145.3V14.5Z" fill="#F8CBC5"/>
<path d="M145.3 9.7H140.5V14.5H145.3V9.7Z" fill="#EB8B8B"/>
<path d="M145.3 4.8H140.5V9.6H145.3V4.8Z" fill="#EB8B8B"/>
<path d="M145.3 0H140.5V4.8H145.3V0Z" fill="black"/>
<path d="M140.5 43.6H135.7V48.4H140.5V43.6Z" fill="black"/>
<path d="M140.5 38.8H135.7V43.6H140.5V38.8Z" fill="#EB8B8B"/>
<path d="M140.5 33.9H135.7V38.7H140.5V33.9Z" fill="#EFA2A2"/>
<path d="M140.5 29.1H135.7V33.9H140.5V29.1Z" fill="#F1AEAE"/>
<path d="M140.5 24.2H135.7V29H140.5V24.2Z" fill="#F1AEAE"/>
<path d="M140.5 19.4H135.7V24.2H140.5V19.4Z" fill="#F1AEAE"/>
<path d="M140.5 14.5H135.7V19.3H140.5V14.5Z" fill="#F1AEAE"/>
<path d="M140.5 9.7H135.7V14.5H140.5V9.7Z" fill="#F8CBC5"/>
<path d="M140.5 4.8H135.7V9.6H140.5V4.8Z" fill="#EB8B8B"/>
<path d="M140.5 0H135.7V4.8H140.5V0Z" fill="black"/>
<path d="M135.6 43.6H130.8V48.4H135.6V43.6Z" fill="black"/>
<path d="M135.6 38.8H130.8V43.6H135.6V38.8Z" fill="#EB8B8B"/>
<path d="M135.6 33.9H130.8V38.7H135.6V33.9Z" fill="#EFA2A2"/>
<path d="M135.6 29.1H130.8V33.9H135.6V29.1Z" fill="#F1AEAE"/>
<path d="M135.6 24.2H130.8V29H135.6V24.2Z" fill="#F1AEAE"/>
<path d="M135.6 19.4H130.8V24.2H135.6V19.4Z" fill="#F1AEAE"/>
<path d="M135.6 14.5H130.8V19.3H135.6V14.5Z" fill="#F1AEAE"/>
<path d="M135.6 9.7H130.8V14.5H135.6V9.7Z" fill="#F8CBC5"/>
<path d="M135.6 4.8H130.8V9.6H135.6V4.8Z" fill="#EB8B8B"/>
<path d="M135.6 0H130.8V4.8H135.6V0Z" fill="black"/>
<path d="M130.8 43.6H126V48.4H130.8V43.6Z" fill="black"/>
<path d="M130.8 38.8H126V43.6H130.8V38.8Z" fill="#EB8B8B"/>
<path d="M130.8 33.9H126V38.7H130.8V33.9Z" fill="#EFA2A2"/>
<path d="M130.8 29.1H126V33.9H130.8V29.1Z" fill="#F1AEAE"/>
<path d="M130.8 24.2H126V29H130.8V24.2Z" fill="#F1AEAE"/>
<path d="M130.8 19.4H126V24.2H130.8V19.4Z" fill="#F1AEAE"/>
<path d="M130.8 14.5H126V19.3H130.8V14.5Z" fill="#F1AEAE"/>
<path d="M130.8 9.7H126V14.5H130.8V9.7Z" fill="#F8CBC5"/>
<path d="M130.8 4.8H126V9.6H130.8V4.8Z" fill="#EB8B8B"/>
<path d="M130.8 0H126V4.8H130.8V0Z" fill="black"/>
<path d="M125.9 43.6H121.1V48.4H125.9V43.6Z" fill="black"/>
<path d="M125.9 38.8H121.1V43.6H125.9V38.8Z" fill="#EB8B8B"/>
<path d="M125.9 33.9H121.1V38.7H125.9V33.9Z" fill="#EFA2A2"/>
<path d="M125.9 29.1H121.1V33.9H125.9V29.1Z" fill="#F1AEAE"/>
<path d="M125.9 24.2H121.1V29H125.9V24.2Z" fill="#F1AEAE"/>
<path d="M125.9 19.4H121.1V24.2H125.9V19.4Z" fill="#F1AEAE"/>
<path d="M125.9 14.5H121.1V19.3H125.9V14.5Z" fill="#F1AEAE"/>
<path d="M125.9 9.7H121.1V14.5H125.9V9.7Z" fill="#F8CBC5"/>
<path d="M125.9 4.8H121.1V9.6H125.9V4.8Z" fill="#EB8B8B"/>
<path d="M125.9 0H121.1V4.8H125.9V0Z" fill="black"/>
<path d="M121.1 43.6H116.3V48.4H121.1V43.6Z" fill="black"/>
<path d="M121.1 38.8H116.3V43.6H121.1V38.8Z" fill="#EB8B8B"/>
<path d="M121.1 33.9H116.3V38.7H121.1V33.9Z" fill="#EFA2A2"/>
<path d="M121.1 29.1H116.3V33.9H121.1V29.1Z" fill="#F1AEAE"/>
<path d="M121.1 24.2H116.3V29H121.1V24.2Z" fill="#F1AEAE"/>
<path d="M121.1 19.4H116.3V24.2H121.1V19.4Z" fill="#F1AEAE"/>
<path d="M121.1 14.5H116.3V19.3H121.1V14.5Z" fill="#F1AEAE"/>
<path d="M121.1 9.7H116.3V14.5H121.1V9.7Z" fill="#F8CBC5"/>
<path d="M121.1 4.8H116.3V9.6H121.1V4.8Z" fill="#EB8B8B"/>
<path d="M121.1 0H116.3V4.8H121.1V0Z" fill="black"/>
<path d="M116.2 43.6H111.4V48.4H116.2V43.6Z" fill="black"/>
<path d="M116.2 38.8H111.4V43.6H116.2V38.8Z" fill="#EB8B8B"/>
<path d="M116.2 33.9H111.4V38.7H116.2V33.9Z" fill="#EFA2A2"/>
<path d="M116.2 29.1H111.4V33.9H116.2V29.1Z" fill="#F1AEAE"/>
<path d="M116.2 24.2H111.4V29H116.2V24.2Z" fill="#F1AEAE"/>
<path d="M116.2 19.4H111.4V24.2H116.2V19.4Z" fill="#F1AEAE"/>
<path d="M116.2 14.5H111.4V19.3H116.2V14.5Z" fill="#F1AEAE"/>
<path d="M116.2 9.7H111.4V14.5H116.2V9.7Z" fill="#F8CBC5"/>
<path d="M116.2 4.8H111.4V9.6H116.2V4.8Z" fill="#EB8B8B"/>
<path d="M116.2 0H111.4V4.8H116.2V0Z" fill="black"/>
<path d="M111.4 43.6H106.6V48.4H111.4V43.6Z" fill="black"/>
<path d="M111.4 38.8H106.6V43.6H111.4V38.8Z" fill="#EB8B8B"/>
<path d="M111.4 33.9H106.6V38.7H111.4V33.9Z" fill="#EFA2A2"/>
<path d="M111.4 29.1H106.6V33.9H111.4V29.1Z" fill="#F1AEAE"/>
<path d="M111.4 24.2H106.6V29H111.4V24.2Z" fill="#F1AEAE"/>
<path d="M111.4 19.4H106.6V24.2H111.4V19.4Z" fill="#F1AEAE"/>
<path d="M111.4 14.5H106.6V19.3H111.4V14.5Z" fill="#F1AEAE"/>
<path d="M111.4 9.7H106.6V14.5H111.4V9.7Z" fill="#F8CBC5"/>
<path d="M111.4 4.8H106.6V9.6H111.4V4.8Z" fill="#EB8B8B"/>
<path d="M111.4 0H106.6V4.8H111.4V0Z" fill="black"/>
<path d="M106.6 43.6H101.8V48.4H106.6V43.6Z" fill="black"/>
<path d="M106.6 38.8H101.8V43.6H106.6V38.8Z" fill="#EB8B8B"/>
<path d="M106.6 33.9H101.8V38.7H106.6V33.9Z" fill="#EFA2A2"/>
<path d="M106.6 29.1H101.8V33.9H106.6V29.1Z" fill="#F1AEAE"/>
<path d="M106.6 24.2H101.8V29H106.6V24.2Z" fill="#F1AEAE"/>
<path d="M106.6 19.4H101.8V24.2H106.6V19.4Z" fill="#F1AEAE"/>
<path d="M106.6 14.5H101.8V19.3H106.6V14.5Z" fill="#F1AEAE"/>
<path d="M106.6 9.7H101.8V14.5H106.6V9.7Z" fill="#F8CBC5"/>
<path d="M106.6 4.8H101.8V9.6H106.6V4.8Z" fill="#EB8B8B"/>
<path d="M106.6 0H101.8V4.8H106.6V0Z" fill="black"/>
<path d="M101.7 43.6H96.9V48.4H101.7V43.6Z" fill="black"/>
<path d="M101.7 38.8H96.9V43.6H101.7V38.8Z" fill="#EB8B8B"/>
<path d="M101.7 33.9H96.9V38.7H101.7V33.9Z" fill="#EFA2A2"/>
<path d="M101.7 29.1H96.9V33.9H101.7V29.1Z" fill="#F1AEAE"/>
<path d="M101.7 24.2H96.9V29H101.7V24.2Z" fill="#F1AEAE"/>
<path d="M101.7 19.4H96.9V24.2H101.7V19.4Z" fill="#F1AEAE"/>
<path d="M101.7 14.5H96.9V19.3H101.7V14.5Z" fill="#F1AEAE"/>
<path d="M101.7 9.7H96.9V14.5H101.7V9.7Z" fill="#F8CBC5"/>
<path d="M101.7 4.8H96.9V9.6H101.7V4.8Z" fill="#EB8B8B"/>
<path d="M101.7 0H96.9V4.8H101.7V0Z" fill="black"/>
<path d="M96.9 43.6H92V48.4H96.8L96.9 43.6Z" fill="black"/>
<path d="M96.9 38.8H92V43.6H96.8L96.9 38.8Z" fill="#EB8B8B"/>
<path d="M96.9 33.9H92V38.7H96.8L96.9 33.9Z" fill="#EFA2A2"/>
<path d="M96.9 29.1H92V33.9H96.8L96.9 29.1Z" fill="#F1AEAE"/>
<path d="M96.9 24.2H92V29H96.8L96.9 24.2Z" fill="#F1AEAE"/>
<path d="M96.9 19.4H92V24.2H96.8L96.9 19.4Z" fill="#F1AEAE"/>
<path d="M96.9 14.5H92V19.3H96.8L96.9 14.5Z" fill="#F1AEAE"/>
<path d="M96.9 9.7H92V14.5H96.8L96.9 9.7Z" fill="#F8CBC5"/>
<path d="M96.9 4.8H92V9.6H96.8L96.9 4.8Z" fill="#EB8B8B"/>
<path d="M96.9 0H92V4.8H96.8L96.9 0Z" fill="black"/>
<path d="M92 43.6H87.2V48.4H92V43.6Z" fill="black"/>
<path d="M92 38.8H87.2V43.6H92V38.8Z" fill="#EB8B8B"/>
<path d="M92 33.9H87.2V38.7H92V33.9Z" fill="#EFA2A2"/>
<path d="M92 29.1H87.2V33.9H92V29.1Z" fill="#F1AEAE"/>
<path d="M92 24.2H87.2V29H92V24.2Z" fill="#F1AEAE"/>
<path d="M92 19.4H87.2V24.2H92V19.4Z" fill="#F1AEAE"/>
<path d="M92 14.5H87.2V19.3H92V14.5Z" fill="#F1AEAE"/>
<path d="M92 9.7H87.2V14.5H92V9.7Z" fill="#F8CBC5"/>
<path d="M92 4.8H87.2V9.6H92V4.8Z" fill="#EB8B8B"/>
<path d="M92 0H87.2V4.8H92V0Z" fill="black"/>
<path d="M87.2 43.6H82.4V48.4H87.2V43.6Z" fill="black"/>
<path d="M87.2 38.8H82.4V43.6H87.2V38.8Z" fill="#EB8B8B"/>
<path d="M87.2 33.9H82.4V38.7H87.2V33.9Z" fill="#EFA2A2"/>
<path d="M87.2 29.1H82.4V33.9H87.2V29.1Z" fill="#F1AEAE"/>
<path d="M87.2 24.2H82.4V29H87.2V24.2Z" fill="#F1AEAE"/>
<path d="M87.2 19.4H82.4V24.2H87.2V19.4Z" fill="#F1AEAE"/>
<path d="M87.2 14.5H82.4V19.3H87.2V14.5Z" fill="#F1AEAE"/>
<path d="M87.2 9.7H82.4V14.5H87.2V9.7Z" fill="#F8CBC5"/>
<path d="M87.2 4.8H82.4V9.6H87.2V4.8Z" fill="#EB8B8B"/>
<path d="M87.2 0H82.4V4.8H87.2V0Z" fill="black"/>
<path d="M82.3 43.6H77.5V48.4H82.3V43.6Z" fill="black"/>
<path d="M82.3 38.8H77.5V43.6H82.3V38.8Z" fill="#EB8B8B"/>
<path d="M82.3 33.9H77.5V38.7H82.3V33.9Z" fill="#EFA2A2"/>
<path d="M82.3 29.1H77.5V33.9H82.3V29.1Z" fill="#F1AEAE"/>
<path d="M82.3 24.2H77.5V29H82.3V24.2Z" fill="#F1AEAE"/>
<path d="M82.3 19.4H77.5V24.2H82.3V19.4Z" fill="#F1AEAE"/>
<path d="M82.3 14.5H77.5V19.3H82.3V14.5Z" fill="#F1AEAE"/>
<path d="M82.3 9.7H77.5V14.5H82.3V9.7Z" fill="#F8CBC5"/>
<path d="M82.3 4.8H77.5V9.6H82.3V4.8Z" fill="#EB8B8B"/>
<path d="M82.3 0H77.5V4.8H82.3V0Z" fill="black"/>
<path d="M77.5 43.6H72.7V48.4H77.5V43.6Z" fill="black"/>
<path d="M77.5 38.8H72.7V43.6H77.5V38.8Z" fill="#EB8B8B"/>
<path d="M77.5 33.9H72.7V38.7H77.5V33.9Z" fill="#EFA2A2"/>
<path d="M77.5 29.1H72.7V33.9H77.5V29.1Z" fill="#F1AEAE"/>
<path d="M77.5 24.2H72.7V29H77.5V24.2Z" fill="#F1AEAE"/>
<path d="M77.5 19.4H72.7V24.2H77.5V19.4Z" fill="#F1AEAE"/>
<path d="M77.5 14.5H72.7V19.3H77.5V14.5Z" fill="#F1AEAE"/>
<path d="M77.5 9.7H72.7V14.5H77.5V9.7Z" fill="#F8CBC5"/>
<path d="M77.5 4.8H72.7V9.6H77.5V4.8Z" fill="#EB8B8B"/>
<path d="M77.5 0H72.7V4.8H77.5V0Z" fill="black"/>
<path d="M72.7 43.6H67.9V48.4H72.7V43.6Z" fill="black"/>
<path d="M72.7 38.8H67.9V43.6H72.7V38.8Z" fill="#EB8B8B"/>
<path d="M72.7 33.9H67.9V38.7H72.7V33.9Z" fill="#EFA2A2"/>
<path d="M72.7 29.1H67.9V33.9H72.7V29.1Z" fill="#F1AEAE"/>
<path d="M72.7 24.2H67.9V29H72.7V24.2Z" fill="#F1AEAE"/>
<path d="M72.7 19.4H67.9V24.2H72.7V19.4Z" fill="#F1AEAE"/>
<path d="M72.7 14.5H67.9V19.3H72.7V14.5Z" fill="#F1AEAE"/>
<path d="M72.7 9.7H67.9V14.5H72.7V9.7Z" fill="#F8CBC5"/>
<path d="M72.7 4.8H67.9V9.6H72.7V4.8Z" fill="#EB8B8B"/>
<path d="M72.7 0H67.9V4.8H72.7V0Z" fill="black"/>
<path d="M67.8 43.6H63V48.4H67.8V43.6Z" fill="black"/>
<path d="M67.8 38.8H63V43.6H67.8V38.8Z" fill="#EB8B8B"/>
<path d="M67.8 33.9H63V38.7H67.8V33.9Z" fill="#EFA2A2"/>
<path d="M67.8 29.1H63V33.9H67.8V29.1Z" fill="#F1AEAE"/>
<path d="M67.8 24.2H63V29H67.8V24.2Z" fill="#F1AEAE"/>
<path d="M67.8 19.4H63V24.2H67.8V19.4Z" fill="#F1AEAE"/>
<path d="M67.8 14.5H63V19.3H67.8V14.5Z" fill="#F1AEAE"/>
<path d="M67.8 9.7H63V14.5H67.8V9.7Z" fill="#F8CBC5"/>
<path d="M67.8 4.8H63V9.6H67.8V4.8Z" fill="#EB8B8B"/>
<path d="M67.8 0H63V4.8H67.8V0Z" fill="black"/>
<path d="M63 43.6H58.2V48.4H63V43.6Z" fill="black"/>
<path d="M63 38.8H58.2V43.6H63V38.8Z" fill="#EB8B8B"/>
<path d="M63 33.9H58.2V38.7H63V33.9Z" fill="#EFA2A2"/>
<path d="M63 29.1H58.2V33.9H63V29.1Z" fill="#F1AEAE"/>
<path d="M63 24.2H58.2V29H63V24.2Z" fill="#F1AEAE"/>
<path d="M63 19.4H58.2V24.2H63V19.4Z" fill="#F1AEAE"/>
<path d="M63 14.5H58.2V19.3H63V14.5Z" fill="#F1AEAE"/>
<path d="M63 9.7H58.2V14.5H63V9.7Z" fill="#F8CBC5"/>
<path d="M63 4.8H58.2V9.6H63V4.8Z" fill="#EB8B8B"/>
<path d="M63 0H58.2V4.8H63V0Z" fill="black"/>
<path d="M58.1 43.6H53.3V48.4H58.1V43.6Z" fill="black"/>
<path d="M58.1 38.8H53.3V43.6H58.1V38.8Z" fill="#EB8B8B"/>
<path d="M58.1 33.9H53.3V38.7H58.1V33.9Z" fill="#EFA2A2"/>
<path d="M58.1 29.1H53.3V33.9H58.1V29.1Z" fill="#F1AEAE"/>
<path d="M58.1 24.2H53.3V29H58.1V24.2Z" fill="#F1AEAE"/>
<path d="M58.1 19.4H53.3V24.2H58.1V19.4Z" fill="#F1AEAE"/>
<path d="M58.1 14.5H53.3V19.3H58.1V14.5Z" fill="#F1AEAE"/>
<path d="M58.1 9.7H53.3V14.5H58.1V9.7Z" fill="#F8CBC5"/>
<path d="M58.1 4.8H53.3V9.6H58.1V4.8Z" fill="#EB8B8B"/>
<path d="M58.1 0H53.3V4.8H58.1V0Z" fill="black"/>
<path d="M53.3 43.6H48.5V48.4H53.3V43.6Z" fill="black"/>
<path d="M53.3 38.8H48.5V43.6H53.3V38.8Z" fill="#EB8B8B"/>
<path d="M53.3 33.9H48.5V38.7H53.3V33.9Z" fill="#EFA2A2"/>
<path d="M53.3 29.1H48.5V33.9H53.3V29.1Z" fill="#F1AEAE"/>
<path d="M53.3 24.2H48.5V29H53.3V24.2Z" fill="#F1AEAE"/>
<path d="M53.3 19.4H48.5V24.2H53.3V19.4Z" fill="#F1AEAE"/>
<path d="M53.3 14.5H48.5V19.3H53.3V14.5Z" fill="#F1AEAE"/>
<path d="M53.3 9.7H48.5V14.5H53.3V9.7Z" fill="#F8CBC5"/>
<path d="M53.3 4.8H48.5V9.6H53.3V4.8Z" fill="#EB8B8B"/>
<path d="M53.3 0H48.5V4.8H53.3V0Z" fill="black"/>
<path d="M48.4 43.6H43.6V48.4H48.4V43.6Z" fill="black"/>
<path d="M48.4 38.8H43.6V43.6H48.4V38.8Z" fill="#EB8B8B"/>
<path d="M48.4 33.9H43.6V38.7H48.4V33.9Z" fill="#EFA2A2"/>
<path d="M48.4 29.1H43.6V33.9H48.4V29.1Z" fill="#F1AEAE"/>
<path d="M48.4 24.2H43.6V29H48.4V24.2Z" fill="#F1AEAE"/>
<path d="M48.4 19.4H43.6V24.2H48.4V19.4Z" fill="#F1AEAE"/>
<path d="M48.4 14.5H43.6V19.3H48.4V14.5Z" fill="#F1AEAE"/>
<path d="M48.4 9.7H43.6V14.5H48.4V9.7Z" fill="#F8CBC5"/>
<path d="M48.4 4.8H43.6V9.6H48.4V4.8Z" fill="#EB8B8B"/>
<path d="M48.4 0H43.6V4.8H48.4V0Z" fill="black"/>
<path d="M43.6 43.6H38.8V48.4H43.6V43.6Z" fill="black"/>
<path d="M43.6 38.8H38.8V43.6H43.6V38.8Z" fill="#EB8B8B"/>
<path d="M43.6 33.9H38.8V38.7H43.6V33.9Z" fill="#EFA2A2"/>
<path d="M43.6 29.1H38.8V33.9H43.6V29.1Z" fill="#F1AEAE"/>
<path d="M43.6 24.2H38.8V29H43.6V24.2Z" fill="#F1AEAE"/>
<path d="M43.6 19.4H38.8V24.2H43.6V19.4Z" fill="#F1AEAE"/>
<path d="M43.6 14.5H38.8V19.3H43.6V14.5Z" fill="#F1AEAE"/>
<path d="M43.6 9.7H38.8V14.5H43.6V9.7Z" fill="#F8CBC5"/>
<path d="M43.6 4.8H38.8V9.6H43.6V4.8Z" fill="#EB8B8B"/>
<path d="M43.6 0H38.8V4.8H43.6V0Z" fill="black"/>
<path d="M38.8 43.6H34V48.4H38.8V43.6Z" fill="black"/>
<path d="M38.8 38.8H34V43.6H38.8V38.8Z" fill="#EB8B8B"/>
<path d="M38.8 33.9H34V38.7H38.8V33.9Z" fill="#EFA2A2"/>
<path d="M38.8 29.1H34V33.9H38.8V29.1Z" fill="#F1AEAE"/>
<path d="M38.8 24.2H34V29H38.8V24.2Z" fill="#F1AEAE"/>
<path d="M38.8 19.4H34V24.2H38.8V19.4Z" fill="#F1AEAE"/>
<path d="M38.8 14.5H34V19.3H38.8V14.5Z" fill="#F1AEAE"/>
<path d="M38.8 9.7H34V14.5H38.8V9.7Z" fill="#F8CBC5"/>
<path d="M38.8 4.8H34V9.6H38.8V4.8Z" fill="#EB8B8B"/>
<path d="M38.8 0H34V4.8H38.8V0Z" fill="black"/>
<path d="M33.9 43.6H29.1V48.4H33.9V43.6Z" fill="black"/>
<path d="M33.9 38.8H29.1V43.6H33.9V38.8Z" fill="#EB8B8B"/>
<path d="M33.9 33.9H29.1V38.7H33.9V33.9Z" fill="#EFA2A2"/>
<path d="M33.9 29.1H29.1V33.9H33.9V29.1Z" fill="#F1AEAE"/>
<path d="M33.9 24.2H29.1V29H33.9V24.2Z" fill="#F1AEAE"/>
<path d="M33.9 19.4H29.1V24.2H33.9V19.4Z" fill="#F1AEAE"/>
<path d="M33.9 14.5H29.1V19.3H33.9V14.5Z" fill="#F1AEAE"/>
<path d="M33.9 9.7H29.1V14.5H33.9V9.7Z" fill="#F8CBC5"/>
<path d="M33.9 4.8H29.1V9.6H33.9V4.8Z" fill="#EB8B8B"/>
<path d="M33.9 0H29.1V4.8H33.9V0Z" fill="black"/>
<path d="M29.1 43.6H24.3V48.4H29.1V43.6Z" fill="black"/>
<path d="M29.1 38.8H24.3V43.6H29.1V38.8Z" fill="#EB8B8B"/>
<path d="M29.1 33.9H24.3V38.7H29.1V33.9Z" fill="#EFA2A2"/>
<path d="M29.1 29.1H24.3V33.9H29.1V29.1Z" fill="#F1AEAE"/>
<path d="M29.1 24.2H24.3V29H29.1V24.2Z" fill="#F1AEAE"/>
<path d="M29.1 19.4H24.3V24.2H29.1V19.4Z" fill="#F1AEAE"/>
<path d="M29.1 14.5H24.3V19.3H29.1V14.5Z" fill="#F1AEAE"/>
<path d="M29.1 9.7H24.3V14.5H29.1V9.7Z" fill="#F8CBC5"/>
<path d="M29.1 4.8H24.3V9.6H29.1V4.8Z" fill="#EB8B8B"/>
<path d="M29.1 0H24.3V4.8H29.1V0Z" fill="black"/>
<path d="M24.2 43.6H19.4V48.4H24.2V43.6Z" fill="black"/>
<path d="M24.2 38.8H19.4V43.6H24.2V38.8Z" fill="#EB8B8B"/>
<path d="M24.2 33.9H19.4V38.7H24.2V33.9Z" fill="#EFA2A2"/>
<path d="M24.2 29.1H19.4V33.9H24.2V29.1Z" fill="#F1AEAE"/>
<path d="M24.2 24.2H19.4V29H24.2V24.2Z" fill="#F1AEAE"/>
<path d="M24.2 19.4H19.4V24.2H24.2V19.4Z" fill="#F1AEAE"/>
<path d="M24.2 14.5H19.4V19.3H24.2V14.5Z" fill="#F1AEAE"/>
<path d="M24.2 9.7H19.4V14.5H24.2V9.7Z" fill="#F8CBC5"/>
<path d="M24.2 4.8H19.4V9.6H24.2V4.8Z" fill="#EB8B8B"/>
<path d="M24.2 0H19.4V4.8H24.2V0Z" fill="black"/>
<path d="M19.4 43.6H14.6V48.4H19.4V43.6Z" fill="black"/>
<path d="M19.4 38.8H14.6V43.6H19.4V38.8Z" fill="#EB8B8B"/>
<path d="M19.4 33.9H14.6V38.7H19.4V33.9Z" fill="#EFA2A2"/>
<path d="M19.4 29.1H14.6V33.9H19.4V29.1Z" fill="#F1AEAE"/>
<path d="M19.4 24.2H14.6V29H19.4V24.2Z" fill="#F1AEAE"/>
<path d="M19.4 19.4H14.6V24.2H19.4V19.4Z" fill="#F1AEAE"/>
<path d="M19.4 14.5H14.6V19.3H19.4V14.5Z" fill="#F1AEAE"/>
<path d="M19.4 9.7H14.6V14.5H19.4V9.7Z" fill="#F8CBC5"/>
<path d="M19.4 4.8H14.6V9.6H19.4V4.8Z" fill="#EB8B8B"/>
<path d="M19.4 0H14.6V4.8H19.4V0Z" fill="black"/>
<path d="M14.5 43.6H9.69995V48.4H14.5V43.6Z" fill="black"/>
<path d="M14.5 38.8H9.69995V43.6H14.5V38.8Z" fill="#EB8B8B"/>
<path d="M14.5 33.9H9.69995V38.7H14.5V33.9Z" fill="#EB8B8B"/>
<path d="M14.5 29.1H9.69995V33.9H14.5V29.1Z" fill="#EFA2A2"/>
<path d="M14.5 24.2H9.69995V29H14.5V24.2Z" fill="#EFA2A2"/>
<path d="M14.5 19.4H9.69995V24.2H14.5V19.4Z" fill="#EFA2A2"/>
<path d="M14.5 14.5H9.69995V19.3H14.5V14.5Z" fill="#F8CBC5"/>
<path d="M14.5 9.7H9.69995V14.5H14.5V9.7Z" fill="#EB8B8B"/>
<path d="M14.5 4.8H9.69995V9.6H14.5V4.8Z" fill="#EB8B8B"/>
<path d="M14.5 0H9.69995V4.8H14.5V0Z" fill="black"/>
<path d="M9.70005 38.8H4.80005V43.6H9.60005L9.70005 38.8Z" fill="black"/>
<path d="M9.70005 33.9H4.80005V38.7H9.60005L9.70005 33.9Z" fill="#EB8B8B"/>
<path d="M9.70005 29.1H4.80005V33.9H9.60005L9.70005 29.1Z" fill="#EB8B8B"/>
<path d="M9.70005 24.2H4.80005V29H9.60005L9.70005 24.2Z" fill="#EB8B8B"/>
<path d="M9.70005 19.4H4.80005V24.2H9.60005L9.70005 19.4Z" fill="#EB8B8B"/>
<path d="M9.70005 14.5H4.80005V19.3H9.60005L9.70005 14.5Z" fill="#EB8B8B"/>
<path d="M9.70005 9.7H4.80005V14.5H9.60005L9.70005 9.7Z" fill="#EB8B8B"/>
<path d="M9.70005 4.8H4.80005V9.6H9.60005L9.70005 4.8Z" fill="black"/>
<path d="M4.8 33.9H0V38.7H4.8V33.9Z" fill="black"/>
<path d="M4.8 29.1H0V33.9H4.8V29.1Z" fill="black"/>
<path d="M4.8 24.2H0V29H4.8V24.2Z" fill="black"/>
<path d="M4.8 19.4H0V24.2H4.8V19.4Z" fill="black"/>
<path d="M4.8 14.5H0V19.3H4.8V14.5Z" fill="black"/>
<path d="M4.8 9.7H0V14.5H4.8V9.7Z" fill="black"/>
</g>
<path d="M69.934 29.2222H68.1562V27.4444H69.934V29.2222ZM75.2674 31H69.934V29.2222H75.2674V31ZM77.0451 29.2222H75.2674V25.6667H77.0451V29.2222ZM75.2674 20.3333H69.934V18.5556H75.2674V20.3333ZM77.0451 22.1111H75.2674V20.3333H77.0451V22.1111ZM69.934 23.8889H68.1562V20.3333H69.934V23.8889ZM75.2674 25.6667H69.934V23.8889H75.2674V25.6667ZM80.6059 29.2222H78.8281V23.8889H80.6059V29.2222ZM85.9392 25.6667H84.1615V23.8889H85.9392V22.1111H87.717V31H85.9392V29.2222H84.1615V27.4444H85.9392V25.6667ZM84.1615 31H80.6059V29.2222H84.1615V31ZM84.1615 23.8889H80.6059V22.1111H84.1615V23.8889ZM94.8333 31H93.0556V29.2222H94.8333V31ZM93.0556 29.2222H91.2778V27.4444H93.0556V29.2222ZM96.6111 29.2222H94.8333V27.4444H96.6111V29.2222ZM91.2778 27.4444H89.5V22.1111H91.2778V27.4444ZM98.3889 27.4444H96.6111V22.1111H98.3889V27.4444ZM107.283 23.8889H101.95V22.1111H107.283V23.8889ZM101.95 27.4444V29.2222H100.172V23.8889H101.95V25.6667H107.283V23.8889H109.061V27.4444H101.95ZM109.061 31H101.95V29.2222H109.061V31Z" fill="black"/>
<g clip-path="url(#clip1_296_6204)">
<path d="M61.3343 17.6523H60.5055V32.5114H61.3343V17.6523Z" fill="black"/>
<path d="M60.5047 16.8234H59.6813V17.6522H60.5047V16.8234Z" fill="black"/>
<path d="M58.8584 25.0792H58.0296V32.5115H47.2983V25.0792H46.4749V32.5115H44.8226V33.3349H60.5052V32.5115H58.8584V25.0792Z" fill="black"/>
<path d="M53.9015 20.9513H57.2059V17.6523H53.9015V20.9513ZM54.7303 18.4757H55.5537V20.1279H54.7303V18.4757Z" fill="black"/>
<path d="M56.3774 30.0303H48.9506V30.8591H56.3774V30.0303Z" fill="black"/>
<path d="M56.3774 27.5547H48.9506V28.3835H56.3774V27.5547Z" fill="black"/>
<path d="M58.03 24.2558H47.2987V25.0792H58.03V24.2558Z" fill="black"/>
<path d="M46.4748 20.9513H47.2982V16.8234H48.9504V20.9513H47.2982V21.7801H48.9504V22.6035H58.8583V16.8234H59.6817V16H45.6514V16.8234H46.4748V20.9513ZM49.7738 16.8234H58.0295V21.7801H49.7738V16.8234Z" fill="black"/>
<path d="M45.6515 16.8234H44.8226V17.6522H45.6515V16.8234Z" fill="black"/>
<path d="M44.8229 17.6523H43.9995V32.5114H44.8229V17.6523Z" fill="black"/>
</g>
<defs>
<clipPath id="clip0_296_6204">
<rect width="155" height="49" fill="white"/>
</clipPath>
<clipPath id="clip1_296_6204">
<rect width="17.3348" height="17.3348" fill="white" transform="translate(44 16)"/>
</clipPath>
</defs>
</svg>
