<svg width="155" height="49" viewBox="0 0 155 49" fill="none" xmlns="http://www.w3.org/2000/svg">
<g clip-path="url(#clip0_535_13491)">
<path d="M155 33.9H150.2V38.7H155V33.9Z" fill="black"/>
<path d="M155 29.1001H150.2V33.9001H155V29.1001Z" fill="black"/>
<path d="M155 24.2H150.2V29H155V24.2Z" fill="black"/>
<path d="M155 19.4H150.2V24.2H155V19.4Z" fill="black"/>
<path d="M155 14.5H150.2V19.3H155V14.5Z" fill="black"/>
<path d="M155 9.70007H150.2V14.5001H155V9.70007Z" fill="black"/>
<path d="M150.2 38.8H145.4V43.6H150.2V38.8Z" fill="black"/>
<path d="M150.2 33.9H145.4V38.7H150.2V33.9Z" fill="#EB8B8B"/>
<path d="M150.2 29.1001H145.4V33.9001H150.2V29.1001Z" fill="#EB8B8B"/>
<path d="M150.2 24.2H145.4V29H150.2V24.2Z" fill="#EB8B8B"/>
<path d="M150.2 19.4H145.4V24.2H150.2V19.4Z" fill="#EB8B8B"/>
<path d="M150.2 14.5H145.4V19.3H150.2V14.5Z" fill="#EB8B8B"/>
<path d="M150.2 9.70007H145.4V14.5001H150.2V9.70007Z" fill="#EB8B8B"/>
<path d="M150.2 4.79993H145.4V9.59993H150.2V4.79993Z" fill="black"/>
<path d="M145.3 43.6H140.5V48.4H145.3V43.6Z" fill="black"/>
<path d="M145.3 38.8H140.5V43.6H145.3V38.8Z" fill="#EB8B8B"/>
<path d="M145.3 33.9H140.5V38.7H145.3V33.9Z" fill="#EB8B8B"/>
<path d="M145.3 29.1001H140.5V33.9001H145.3V29.1001Z" fill="#EFA2A2"/>
<path d="M145.3 24.2H140.5V29H145.3V24.2Z" fill="#EFA2A2"/>
<path d="M145.3 19.4H140.5V24.2H145.3V19.4Z" fill="#EFA2A2"/>
<path d="M145.3 14.5H140.5V19.3H145.3V14.5Z" fill="#F8CBC5"/>
<path d="M145.3 9.70007H140.5V14.5001H145.3V9.70007Z" fill="#EB8B8B"/>
<path d="M145.3 4.79993H140.5V9.59993H145.3V4.79993Z" fill="#EB8B8B"/>
<path d="M145.3 0H140.5V4.8H145.3V0Z" fill="black"/>
<path d="M140.5 43.6H135.7V48.4H140.5V43.6Z" fill="black"/>
<path d="M140.5 38.8H135.7V43.6H140.5V38.8Z" fill="#EB8B8B"/>
<path d="M140.5 33.9H135.7V38.7H140.5V33.9Z" fill="#EFA2A2"/>
<path d="M140.5 29.1001H135.7V33.9001H140.5V29.1001Z" fill="#F1AEAE"/>
<path d="M140.5 24.2H135.7V29H140.5V24.2Z" fill="#F1AEAE"/>
<path d="M140.5 19.4H135.7V24.2H140.5V19.4Z" fill="#F1AEAE"/>
<path d="M140.5 14.5H135.7V19.3H140.5V14.5Z" fill="#F1AEAE"/>
<path d="M140.5 9.70007H135.7V14.5001H140.5V9.70007Z" fill="#F8CBC5"/>
<path d="M140.5 4.79993H135.7V9.59993H140.5V4.79993Z" fill="#EB8B8B"/>
<path d="M140.5 0H135.7V4.8H140.5V0Z" fill="black"/>
<path d="M135.6 43.6H130.8V48.4H135.6V43.6Z" fill="black"/>
<path d="M135.6 38.8H130.8V43.6H135.6V38.8Z" fill="#EB8B8B"/>
<path d="M135.6 33.9H130.8V38.7H135.6V33.9Z" fill="#EFA2A2"/>
<path d="M135.6 29.1001H130.8V33.9001H135.6V29.1001Z" fill="#F1AEAE"/>
<path d="M135.6 24.2H130.8V29H135.6V24.2Z" fill="#F1AEAE"/>
<path d="M135.6 19.4H130.8V24.2H135.6V19.4Z" fill="#F1AEAE"/>
<path d="M135.6 14.5H130.8V19.3H135.6V14.5Z" fill="#F1AEAE"/>
<path d="M135.6 9.70007H130.8V14.5001H135.6V9.70007Z" fill="#F8CBC5"/>
<path d="M135.6 4.79993H130.8V9.59993H135.6V4.79993Z" fill="#EB8B8B"/>
<path d="M135.6 0H130.8V4.8H135.6V0Z" fill="black"/>
<path d="M130.8 43.6H126V48.4H130.8V43.6Z" fill="black"/>
<path d="M130.8 38.8H126V43.6H130.8V38.8Z" fill="#EB8B8B"/>
<path d="M130.8 33.9H126V38.7H130.8V33.9Z" fill="#EFA2A2"/>
<path d="M130.8 29.1001H126V33.9001H130.8V29.1001Z" fill="#F1AEAE"/>
<path d="M130.8 24.2H126V29H130.8V24.2Z" fill="#F1AEAE"/>
<path d="M130.8 19.4H126V24.2H130.8V19.4Z" fill="#F1AEAE"/>
<path d="M130.8 14.5H126V19.3H130.8V14.5Z" fill="#F1AEAE"/>
<path d="M130.8 9.70007H126V14.5001H130.8V9.70007Z" fill="#F8CBC5"/>
<path d="M130.8 4.79993H126V9.59993H130.8V4.79993Z" fill="#EB8B8B"/>
<path d="M130.8 0H126V4.8H130.8V0Z" fill="black"/>
<path d="M125.9 43.6H121.1V48.4H125.9V43.6Z" fill="black"/>
<path d="M125.9 38.8H121.1V43.6H125.9V38.8Z" fill="#EB8B8B"/>
<path d="M125.9 33.9H121.1V38.7H125.9V33.9Z" fill="#EFA2A2"/>
<path d="M125.9 29.1001H121.1V33.9001H125.9V29.1001Z" fill="#F1AEAE"/>
<path d="M125.9 24.2H121.1V29H125.9V24.2Z" fill="#F1AEAE"/>
<path d="M125.9 19.4H121.1V24.2H125.9V19.4Z" fill="#F1AEAE"/>
<path d="M125.9 14.5H121.1V19.3H125.9V14.5Z" fill="#F1AEAE"/>
<path d="M125.9 9.70007H121.1V14.5001H125.9V9.70007Z" fill="#F8CBC5"/>
<path d="M125.9 4.79993H121.1V9.59993H125.9V4.79993Z" fill="#EB8B8B"/>
<path d="M125.9 0H121.1V4.8H125.9V0Z" fill="black"/>
<path d="M121.1 43.6H116.3V48.4H121.1V43.6Z" fill="black"/>
<path d="M121.1 38.8H116.3V43.6H121.1V38.8Z" fill="#EB8B8B"/>
<path d="M121.1 33.9H116.3V38.7H121.1V33.9Z" fill="#EFA2A2"/>
<path d="M121.1 29.1001H116.3V33.9001H121.1V29.1001Z" fill="#F1AEAE"/>
<path d="M121.1 24.2H116.3V29H121.1V24.2Z" fill="#F1AEAE"/>
<path d="M121.1 19.4H116.3V24.2H121.1V19.4Z" fill="#F1AEAE"/>
<path d="M121.1 14.5H116.3V19.3H121.1V14.5Z" fill="#F1AEAE"/>
<path d="M121.1 9.70007H116.3V14.5001H121.1V9.70007Z" fill="#F8CBC5"/>
<path d="M121.1 4.79993H116.3V9.59993H121.1V4.79993Z" fill="#EB8B8B"/>
<path d="M121.1 0H116.3V4.8H121.1V0Z" fill="black"/>
<path d="M116.2 43.6H111.4V48.4H116.2V43.6Z" fill="black"/>
<path d="M116.2 38.8H111.4V43.6H116.2V38.8Z" fill="#EB8B8B"/>
<path d="M116.2 33.9H111.4V38.7H116.2V33.9Z" fill="#EFA2A2"/>
<path d="M116.2 29.1001H111.4V33.9001H116.2V29.1001Z" fill="#F1AEAE"/>
<path d="M116.2 24.2H111.4V29H116.2V24.2Z" fill="#F1AEAE"/>
<path d="M116.2 19.4H111.4V24.2H116.2V19.4Z" fill="#F1AEAE"/>
<path d="M116.2 14.5H111.4V19.3H116.2V14.5Z" fill="#F1AEAE"/>
<path d="M116.2 9.70007H111.4V14.5001H116.2V9.70007Z" fill="#F8CBC5"/>
<path d="M116.2 4.79993H111.4V9.59993H116.2V4.79993Z" fill="#EB8B8B"/>
<path d="M116.2 0H111.4V4.8H116.2V0Z" fill="black"/>
<path d="M111.4 43.6H106.6V48.4H111.4V43.6Z" fill="black"/>
<path d="M111.4 38.8H106.6V43.6H111.4V38.8Z" fill="#EB8B8B"/>
<path d="M111.4 33.9H106.6V38.7H111.4V33.9Z" fill="#EFA2A2"/>
<path d="M111.4 29.1001H106.6V33.9001H111.4V29.1001Z" fill="#F1AEAE"/>
<path d="M111.4 24.2H106.6V29H111.4V24.2Z" fill="#F1AEAE"/>
<path d="M111.4 19.4H106.6V24.2H111.4V19.4Z" fill="#F1AEAE"/>
<path d="M111.4 14.5H106.6V19.3H111.4V14.5Z" fill="#F1AEAE"/>
<path d="M111.4 9.70007H106.6V14.5001H111.4V9.70007Z" fill="#F8CBC5"/>
<path d="M111.4 4.79993H106.6V9.59993H111.4V4.79993Z" fill="#EB8B8B"/>
<path d="M111.4 0H106.6V4.8H111.4V0Z" fill="black"/>
<path d="M106.6 43.6H101.8V48.4H106.6V43.6Z" fill="black"/>
<path d="M106.6 38.8H101.8V43.6H106.6V38.8Z" fill="#EB8B8B"/>
<path d="M106.6 33.9H101.8V38.7H106.6V33.9Z" fill="#EFA2A2"/>
<path d="M106.6 29.1001H101.8V33.9001H106.6V29.1001Z" fill="#F1AEAE"/>
<path d="M106.6 24.2H101.8V29H106.6V24.2Z" fill="#F1AEAE"/>
<path d="M106.6 19.4H101.8V24.2H106.6V19.4Z" fill="#F1AEAE"/>
<path d="M106.6 14.5H101.8V19.3H106.6V14.5Z" fill="#F1AEAE"/>
<path d="M106.6 9.70007H101.8V14.5001H106.6V9.70007Z" fill="#F8CBC5"/>
<path d="M106.6 4.79993H101.8V9.59993H106.6V4.79993Z" fill="#EB8B8B"/>
<path d="M106.6 0H101.8V4.8H106.6V0Z" fill="black"/>
<path d="M101.7 43.6H96.9001V48.4H101.7V43.6Z" fill="black"/>
<path d="M101.7 38.8H96.9001V43.6H101.7V38.8Z" fill="#EB8B8B"/>
<path d="M101.7 33.9H96.9001V38.7H101.7V33.9Z" fill="#EFA2A2"/>
<path d="M101.7 29.1001H96.9001V33.9001H101.7V29.1001Z" fill="#F1AEAE"/>
<path d="M101.7 24.2H96.9001V29H101.7V24.2Z" fill="#F1AEAE"/>
<path d="M101.7 19.4H96.9001V24.2H101.7V19.4Z" fill="#F1AEAE"/>
<path d="M101.7 14.5H96.9001V19.3H101.7V14.5Z" fill="#F1AEAE"/>
<path d="M101.7 9.70007H96.9001V14.5001H101.7V9.70007Z" fill="#F8CBC5"/>
<path d="M101.7 4.79993H96.9001V9.59993H101.7V4.79993Z" fill="#EB8B8B"/>
<path d="M101.7 0H96.9001V4.8H101.7V0Z" fill="black"/>
<path d="M96.9 43.6H92V48.4H96.8L96.9 43.6Z" fill="black"/>
<path d="M96.9 38.8H92V43.6H96.8L96.9 38.8Z" fill="#EB8B8B"/>
<path d="M96.9 33.9H92V38.7H96.8L96.9 33.9Z" fill="#EFA2A2"/>
<path d="M96.9 29.1001H92V33.9001H96.8L96.9 29.1001Z" fill="#F1AEAE"/>
<path d="M96.9 24.2H92V29H96.8L96.9 24.2Z" fill="#F1AEAE"/>
<path d="M96.9 19.4H92V24.2H96.8L96.9 19.4Z" fill="#F1AEAE"/>
<path d="M96.9 14.5H92V19.3H96.8L96.9 14.5Z" fill="#F1AEAE"/>
<path d="M96.9 9.70007H92V14.5001H96.8L96.9 9.70007Z" fill="#F8CBC5"/>
<path d="M96.9 4.79993H92V9.59993H96.8L96.9 4.79993Z" fill="#EB8B8B"/>
<path d="M96.9 0H92V4.8H96.8L96.9 0Z" fill="black"/>
<path d="M92 43.6H87.2V48.4H92V43.6Z" fill="black"/>
<path d="M92 38.8H87.2V43.6H92V38.8Z" fill="#EB8B8B"/>
<path d="M92 33.9H87.2V38.7H92V33.9Z" fill="#EFA2A2"/>
<path d="M92 29.1001H87.2V33.9001H92V29.1001Z" fill="#F1AEAE"/>
<path d="M92 24.2H87.2V29H92V24.2Z" fill="#F1AEAE"/>
<path d="M92 19.4H87.2V24.2H92V19.4Z" fill="#F1AEAE"/>
<path d="M92 14.5H87.2V19.3H92V14.5Z" fill="#F1AEAE"/>
<path d="M92 9.70007H87.2V14.5001H92V9.70007Z" fill="#F8CBC5"/>
<path d="M92 4.79993H87.2V9.59993H92V4.79993Z" fill="#EB8B8B"/>
<path d="M92 0H87.2V4.8H92V0Z" fill="black"/>
<path d="M87.2001 43.6H82.4001V48.4H87.2001V43.6Z" fill="black"/>
<path d="M87.2001 38.8H82.4001V43.6H87.2001V38.8Z" fill="#EB8B8B"/>
<path d="M87.2001 33.9H82.4001V38.7H87.2001V33.9Z" fill="#EFA2A2"/>
<path d="M87.2001 29.1001H82.4001V33.9001H87.2001V29.1001Z" fill="#F1AEAE"/>
<path d="M87.2001 24.2H82.4001V29H87.2001V24.2Z" fill="#F1AEAE"/>
<path d="M87.2001 19.4H82.4001V24.2H87.2001V19.4Z" fill="#F1AEAE"/>
<path d="M87.2001 14.5H82.4001V19.3H87.2001V14.5Z" fill="#F1AEAE"/>
<path d="M87.2001 9.70007H82.4001V14.5001H87.2001V9.70007Z" fill="#F8CBC5"/>
<path d="M87.2001 4.79993H82.4001V9.59993H87.2001V4.79993Z" fill="#EB8B8B"/>
<path d="M87.2001 0H82.4001V4.8H87.2001V0Z" fill="black"/>
<path d="M82.3 43.6H77.5V48.4H82.3V43.6Z" fill="black"/>
<path d="M82.3 38.8H77.5V43.6H82.3V38.8Z" fill="#EB8B8B"/>
<path d="M82.3 33.9H77.5V38.7H82.3V33.9Z" fill="#EFA2A2"/>
<path d="M82.3 29.1001H77.5V33.9001H82.3V29.1001Z" fill="#F1AEAE"/>
<path d="M82.3 24.2H77.5V29H82.3V24.2Z" fill="#F1AEAE"/>
<path d="M82.3 19.4H77.5V24.2H82.3V19.4Z" fill="#F1AEAE"/>
<path d="M82.3 14.5H77.5V19.3H82.3V14.5Z" fill="#F1AEAE"/>
<path d="M82.3 9.70007H77.5V14.5001H82.3V9.70007Z" fill="#F8CBC5"/>
<path d="M82.3 4.79993H77.5V9.59993H82.3V4.79993Z" fill="#EB8B8B"/>
<path d="M82.3 0H77.5V4.8H82.3V0Z" fill="black"/>
<path d="M77.5 43.6H72.7V48.4H77.5V43.6Z" fill="black"/>
<path d="M77.5 38.8H72.7V43.6H77.5V38.8Z" fill="#EB8B8B"/>
<path d="M77.5 33.9H72.7V38.7H77.5V33.9Z" fill="#EFA2A2"/>
<path d="M77.5 29.1001H72.7V33.9001H77.5V29.1001Z" fill="#F1AEAE"/>
<path d="M77.5 24.2H72.7V29H77.5V24.2Z" fill="#F1AEAE"/>
<path d="M77.5 19.4H72.7V24.2H77.5V19.4Z" fill="#F1AEAE"/>
<path d="M77.5 14.5H72.7V19.3H77.5V14.5Z" fill="#F1AEAE"/>
<path d="M77.5 9.70007H72.7V14.5001H77.5V9.70007Z" fill="#F8CBC5"/>
<path d="M77.5 4.79993H72.7V9.59993H77.5V4.79993Z" fill="#EB8B8B"/>
<path d="M77.5 0H72.7V4.8H77.5V0Z" fill="black"/>
<path d="M72.7001 43.6H67.9001V48.4H72.7001V43.6Z" fill="black"/>
<path d="M72.7001 38.8H67.9001V43.6H72.7001V38.8Z" fill="#EB8B8B"/>
<path d="M72.7001 33.9H67.9001V38.7H72.7001V33.9Z" fill="#EFA2A2"/>
<path d="M72.7001 29.1001H67.9001V33.9001H72.7001V29.1001Z" fill="#F1AEAE"/>
<path d="M72.7001 24.2H67.9001V29H72.7001V24.2Z" fill="#F1AEAE"/>
<path d="M72.7001 19.4H67.9001V24.2H72.7001V19.4Z" fill="#F1AEAE"/>
<path d="M72.7001 14.5H67.9001V19.3H72.7001V14.5Z" fill="#F1AEAE"/>
<path d="M72.7001 9.70007H67.9001V14.5001H72.7001V9.70007Z" fill="#F8CBC5"/>
<path d="M72.7001 4.79993H67.9001V9.59993H72.7001V4.79993Z" fill="#EB8B8B"/>
<path d="M72.7001 0H67.9001V4.8H72.7001V0Z" fill="black"/>
<path d="M67.8 43.6H63V48.4H67.8V43.6Z" fill="black"/>
<path d="M67.8 38.8H63V43.6H67.8V38.8Z" fill="#EB8B8B"/>
<path d="M67.8 33.9H63V38.7H67.8V33.9Z" fill="#EFA2A2"/>
<path d="M67.8 29.1001H63V33.9001H67.8V29.1001Z" fill="#F1AEAE"/>
<path d="M67.8 24.2H63V29H67.8V24.2Z" fill="#F1AEAE"/>
<path d="M67.8 19.4H63V24.2H67.8V19.4Z" fill="#F1AEAE"/>
<path d="M67.8 14.5H63V19.3H67.8V14.5Z" fill="#F1AEAE"/>
<path d="M67.8 9.70007H63V14.5001H67.8V9.70007Z" fill="#F8CBC5"/>
<path d="M67.8 4.79993H63V9.59993H67.8V4.79993Z" fill="#EB8B8B"/>
<path d="M67.8 0H63V4.8H67.8V0Z" fill="black"/>
<path d="M63 43.6H58.2V48.4H63V43.6Z" fill="black"/>
<path d="M63 38.8H58.2V43.6H63V38.8Z" fill="#EB8B8B"/>
<path d="M63 33.9H58.2V38.7H63V33.9Z" fill="#EFA2A2"/>
<path d="M63 29.1001H58.2V33.9001H63V29.1001Z" fill="#F1AEAE"/>
<path d="M63 24.2H58.2V29H63V24.2Z" fill="#F1AEAE"/>
<path d="M63 19.4H58.2V24.2H63V19.4Z" fill="#F1AEAE"/>
<path d="M63 14.5H58.2V19.3H63V14.5Z" fill="#F1AEAE"/>
<path d="M63 9.70007H58.2V14.5001H63V9.70007Z" fill="#F8CBC5"/>
<path d="M63 4.79993H58.2V9.59993H63V4.79993Z" fill="#EB8B8B"/>
<path d="M63 0H58.2V4.8H63V0Z" fill="black"/>
<path d="M58.1 43.6H53.3V48.4H58.1V43.6Z" fill="black"/>
<path d="M58.1 38.8H53.3V43.6H58.1V38.8Z" fill="#EB8B8B"/>
<path d="M58.1 33.9H53.3V38.7H58.1V33.9Z" fill="#EFA2A2"/>
<path d="M58.1 29.1001H53.3V33.9001H58.1V29.1001Z" fill="#F1AEAE"/>
<path d="M58.1 24.2H53.3V29H58.1V24.2Z" fill="#F1AEAE"/>
<path d="M58.1 19.4H53.3V24.2H58.1V19.4Z" fill="#F1AEAE"/>
<path d="M58.1 14.5H53.3V19.3H58.1V14.5Z" fill="#F1AEAE"/>
<path d="M58.1 9.70007H53.3V14.5001H58.1V9.70007Z" fill="#F8CBC5"/>
<path d="M58.1 4.79993H53.3V9.59993H58.1V4.79993Z" fill="#EB8B8B"/>
<path d="M58.1 0H53.3V4.8H58.1V0Z" fill="black"/>
<path d="M53.3 43.6H48.5V48.4H53.3V43.6Z" fill="black"/>
<path d="M53.3 38.8H48.5V43.6H53.3V38.8Z" fill="#EB8B8B"/>
<path d="M53.3 33.9H48.5V38.7H53.3V33.9Z" fill="#EFA2A2"/>
<path d="M53.3 29.1001H48.5V33.9001H53.3V29.1001Z" fill="#F1AEAE"/>
<path d="M53.3 24.2H48.5V29H53.3V24.2Z" fill="#F1AEAE"/>
<path d="M53.3 19.4H48.5V24.2H53.3V19.4Z" fill="#F1AEAE"/>
<path d="M53.3 14.5H48.5V19.3H53.3V14.5Z" fill="#F1AEAE"/>
<path d="M53.3 9.70007H48.5V14.5001H53.3V9.70007Z" fill="#F8CBC5"/>
<path d="M53.3 4.79993H48.5V9.59993H53.3V4.79993Z" fill="#EB8B8B"/>
<path d="M53.3 0H48.5V4.8H53.3V0Z" fill="black"/>
<path d="M48.4001 43.6H43.6001V48.4H48.4001V43.6Z" fill="black"/>
<path d="M48.4001 38.8H43.6001V43.6H48.4001V38.8Z" fill="#EB8B8B"/>
<path d="M48.4001 33.9H43.6001V38.7H48.4001V33.9Z" fill="#EFA2A2"/>
<path d="M48.4001 29.1001H43.6001V33.9001H48.4001V29.1001Z" fill="#F1AEAE"/>
<path d="M48.4001 24.2H43.6001V29H48.4001V24.2Z" fill="#F1AEAE"/>
<path d="M48.4001 19.4H43.6001V24.2H48.4001V19.4Z" fill="#F1AEAE"/>
<path d="M48.4001 14.5H43.6001V19.3H48.4001V14.5Z" fill="#F1AEAE"/>
<path d="M48.4001 9.70007H43.6001V14.5001H48.4001V9.70007Z" fill="#F8CBC5"/>
<path d="M48.4001 4.79993H43.6001V9.59993H48.4001V4.79993Z" fill="#EB8B8B"/>
<path d="M48.4001 0H43.6001V4.8H48.4001V0Z" fill="black"/>
<path d="M43.6 43.6H38.8V48.4H43.6V43.6Z" fill="black"/>
<path d="M43.6 38.8H38.8V43.6H43.6V38.8Z" fill="#EB8B8B"/>
<path d="M43.6 33.9H38.8V38.7H43.6V33.9Z" fill="#EFA2A2"/>
<path d="M43.6 29.1001H38.8V33.9001H43.6V29.1001Z" fill="#F1AEAE"/>
<path d="M43.6 24.2H38.8V29H43.6V24.2Z" fill="#F1AEAE"/>
<path d="M43.6 19.4H38.8V24.2H43.6V19.4Z" fill="#F1AEAE"/>
<path d="M43.6 14.5H38.8V19.3H43.6V14.5Z" fill="#F1AEAE"/>
<path d="M43.6 9.70007H38.8V14.5001H43.6V9.70007Z" fill="#F8CBC5"/>
<path d="M43.6 4.79993H38.8V9.59993H43.6V4.79993Z" fill="#EB8B8B"/>
<path d="M43.6 0H38.8V4.8H43.6V0Z" fill="black"/>
<path d="M38.8 43.6H34V48.4H38.8V43.6Z" fill="black"/>
<path d="M38.8 38.8H34V43.6H38.8V38.8Z" fill="#EB8B8B"/>
<path d="M38.8 33.9H34V38.7H38.8V33.9Z" fill="#EFA2A2"/>
<path d="M38.8 29.1001H34V33.9001H38.8V29.1001Z" fill="#F1AEAE"/>
<path d="M38.8 24.2H34V29H38.8V24.2Z" fill="#F1AEAE"/>
<path d="M38.8 19.4H34V24.2H38.8V19.4Z" fill="#F1AEAE"/>
<path d="M38.8 14.5H34V19.3H38.8V14.5Z" fill="#F1AEAE"/>
<path d="M38.8 9.70007H34V14.5001H38.8V9.70007Z" fill="#F8CBC5"/>
<path d="M38.8 4.79993H34V9.59993H38.8V4.79993Z" fill="#EB8B8B"/>
<path d="M38.8 0H34V4.8H38.8V0Z" fill="black"/>
<path d="M33.9001 43.6H29.1001V48.4H33.9001V43.6Z" fill="black"/>
<path d="M33.9001 38.8H29.1001V43.6H33.9001V38.8Z" fill="#EB8B8B"/>
<path d="M33.9001 33.9H29.1001V38.7H33.9001V33.9Z" fill="#EFA2A2"/>
<path d="M33.9001 29.1001H29.1001V33.9001H33.9001V29.1001Z" fill="#F1AEAE"/>
<path d="M33.9001 24.2H29.1001V29H33.9001V24.2Z" fill="#F1AEAE"/>
<path d="M33.9001 19.4H29.1001V24.2H33.9001V19.4Z" fill="#F1AEAE"/>
<path d="M33.9001 14.5H29.1001V19.3H33.9001V14.5Z" fill="#F1AEAE"/>
<path d="M33.9001 9.70007H29.1001V14.5001H33.9001V9.70007Z" fill="#F8CBC5"/>
<path d="M33.9001 4.79993H29.1001V9.59993H33.9001V4.79993Z" fill="#EB8B8B"/>
<path d="M33.9001 0H29.1001V4.8H33.9001V0Z" fill="black"/>
<path d="M29.1001 43.6H24.3V48.4H29.1001V43.6Z" fill="black"/>
<path d="M29.1001 38.8H24.3V43.6H29.1001V38.8Z" fill="#EB8B8B"/>
<path d="M29.1001 33.9H24.3V38.7H29.1001V33.9Z" fill="#EFA2A2"/>
<path d="M29.1001 29.1001H24.3V33.9001H29.1001V29.1001Z" fill="#F1AEAE"/>
<path d="M29.1001 24.2H24.3V29H29.1001V24.2Z" fill="#F1AEAE"/>
<path d="M29.1001 19.4H24.3V24.2H29.1001V19.4Z" fill="#F1AEAE"/>
<path d="M29.1001 14.5H24.3V19.3H29.1001V14.5Z" fill="#F1AEAE"/>
<path d="M29.1001 9.70007H24.3V14.5001H29.1001V9.70007Z" fill="#F8CBC5"/>
<path d="M29.1001 4.79993H24.3V9.59993H29.1001V4.79993Z" fill="#EB8B8B"/>
<path d="M29.1001 0H24.3V4.8H29.1001V0Z" fill="black"/>
<path d="M24.2001 43.6H19.4001V48.4H24.2001V43.6Z" fill="black"/>
<path d="M24.2001 38.8H19.4001V43.6H24.2001V38.8Z" fill="#EB8B8B"/>
<path d="M24.2001 33.9H19.4001V38.7H24.2001V33.9Z" fill="#EFA2A2"/>
<path d="M24.2001 29.1001H19.4001V33.9001H24.2001V29.1001Z" fill="#F1AEAE"/>
<path d="M24.2001 24.2H19.4001V29H24.2001V24.2Z" fill="#F1AEAE"/>
<path d="M24.2001 19.4H19.4001V24.2H24.2001V19.4Z" fill="#F1AEAE"/>
<path d="M24.2001 14.5H19.4001V19.3H24.2001V14.5Z" fill="#F1AEAE"/>
<path d="M24.2001 9.70007H19.4001V14.5001H24.2001V9.70007Z" fill="#F8CBC5"/>
<path d="M24.2001 4.79993H19.4001V9.59993H24.2001V4.79993Z" fill="#EB8B8B"/>
<path d="M24.2001 0H19.4001V4.8H24.2001V0Z" fill="black"/>
<path d="M19.4001 43.6H14.6001V48.4H19.4001V43.6Z" fill="black"/>
<path d="M19.4001 38.8H14.6001V43.6H19.4001V38.8Z" fill="#EB8B8B"/>
<path d="M19.4001 33.9H14.6001V38.7H19.4001V33.9Z" fill="#EFA2A2"/>
<path d="M19.4001 29.1001H14.6001V33.9001H19.4001V29.1001Z" fill="#F1AEAE"/>
<path d="M19.4001 24.2H14.6001V29H19.4001V24.2Z" fill="#F1AEAE"/>
<path d="M19.4001 19.4H14.6001V24.2H19.4001V19.4Z" fill="#F1AEAE"/>
<path d="M19.4001 14.5H14.6001V19.3H19.4001V14.5Z" fill="#F1AEAE"/>
<path d="M19.4001 9.70007H14.6001V14.5001H19.4001V9.70007Z" fill="#F8CBC5"/>
<path d="M19.4001 4.79993H14.6001V9.59993H19.4001V4.79993Z" fill="#EB8B8B"/>
<path d="M19.4001 0H14.6001V4.8H19.4001V0Z" fill="black"/>
<path d="M14.5 43.6H9.69995V48.4H14.5V43.6Z" fill="black"/>
<path d="M14.5 38.8H9.69995V43.6H14.5V38.8Z" fill="#EB8B8B"/>
<path d="M14.5 33.9H9.69995V38.7H14.5V33.9Z" fill="#EB8B8B"/>
<path d="M14.5 29.1001H9.69995V33.9001H14.5V29.1001Z" fill="#EFA2A2"/>
<path d="M14.5 24.2H9.69995V29H14.5V24.2Z" fill="#EFA2A2"/>
<path d="M14.5 19.4H9.69995V24.2H14.5V19.4Z" fill="#EFA2A2"/>
<path d="M14.5 14.5H9.69995V19.3H14.5V14.5Z" fill="#F8CBC5"/>
<path d="M14.5 9.70007H9.69995V14.5001H14.5V9.70007Z" fill="#EB8B8B"/>
<path d="M14.5 4.79993H9.69995V9.59993H14.5V4.79993Z" fill="#EB8B8B"/>
<path d="M14.5 0H9.69995V4.8H14.5V0Z" fill="black"/>
<path d="M9.70005 38.8H4.80005V43.6H9.60005L9.70005 38.8Z" fill="black"/>
<path d="M9.70005 33.9H4.80005V38.7H9.60005L9.70005 33.9Z" fill="#EB8B8B"/>
<path d="M9.70005 29.1001H4.80005V33.9001H9.60005L9.70005 29.1001Z" fill="#EB8B8B"/>
<path d="M9.70005 24.2H4.80005V29H9.60005L9.70005 24.2Z" fill="#EB8B8B"/>
<path d="M9.70005 19.4H4.80005V24.2H9.60005L9.70005 19.4Z" fill="#EB8B8B"/>
<path d="M9.70005 14.5H4.80005V19.3H9.60005L9.70005 14.5Z" fill="#EB8B8B"/>
<path d="M9.70005 9.70007H4.80005V14.5001H9.60005L9.70005 9.70007Z" fill="#EB8B8B"/>
<path d="M9.70005 4.79993H4.80005V9.59993H9.60005L9.70005 4.79993Z" fill="black"/>
<path d="M4.8 33.9H0V38.7H4.8V33.9Z" fill="black"/>
<path d="M4.8 29.1001H0V33.9001H4.8V29.1001Z" fill="black"/>
<path d="M4.8 24.2H0V29H4.8V24.2Z" fill="black"/>
<path d="M4.8 19.4H0V24.2H4.8V19.4Z" fill="black"/>
<path d="M4.8 14.5H0V19.3H4.8V14.5Z" fill="black"/>
<path d="M4.8 9.70007H0V14.5001H4.8V9.70007Z" fill="black"/>
</g>
<path d="M66.0487 23.7778H64.4932V19.1111H66.0487V23.7778ZM69.1598 25.3333V30H67.6043V25.3333H66.0487V23.7778H70.7154V25.3333H69.1598ZM72.2709 23.7778H70.7154V19.1111H72.2709V23.7778ZM80.0533 23.7778H75.3866V22.2222H80.0533V23.7778ZM75.3866 26.8889V28.4444H73.8311V23.7778H75.3866V25.3333H80.0533V23.7778H81.6088V26.8889H75.3866ZM81.6088 30H75.3866V28.4444H81.6088V30ZM89.3912 30H83.1689V28.4444H89.3912V30ZM90.9467 28.4444H89.3912V26.8889H90.9467V28.4444ZM89.3912 26.8889H84.7245V25.3333H89.3912V26.8889ZM84.7245 25.3333H83.1689V23.7778H84.7245V25.3333ZM90.9467 23.7778H84.7245V22.2222H90.9467V23.7778Z" fill="black"/>
<defs>
<clipPath id="clip0_535_13491">
<rect width="155" height="49" fill="white"/>
</clipPath>
</defs>
</svg>
