<svg width="73" height="24" viewBox="0 0 73 24" fill="none" xmlns="http://www.w3.org/2000/svg">
<g clip-path="url(#clip0_408_12030)">
<path d="M73 16.604H70.7394V18.955H73V16.604Z" fill="black"/>
<path d="M73 14.2532H70.7394V16.6042H73V14.2532Z" fill="black"/>
<path d="M73 11.853H70.7394V14.204H73V11.853Z" fill="black"/>
<path d="M73 9.50195H70.7394V11.853H73V9.50195Z" fill="black"/>
<path d="M73 7.10205H70.7394V9.45307H73V7.10205Z" fill="black"/>
<path d="M73 4.75098H70.7394V7.102H73V4.75098Z" fill="black"/>
<path d="M70.7394 19.0042H68.4788V21.3552H70.7394V19.0042Z" fill="black"/>
<path d="M70.7394 16.604H68.4788V18.955H70.7394V16.604Z" fill="#EB8B8B"/>
<path d="M70.7394 14.2532H68.4788V16.6042H70.7394V14.2532Z" fill="#EB8B8B"/>
<path d="M70.7394 11.853H68.4788V14.204H70.7394V11.853Z" fill="#EB8B8B"/>
<path d="M70.7394 9.50195H68.4788V11.853H70.7394V9.50195Z" fill="#EB8B8B"/>
<path d="M70.7394 7.10205H68.4788V9.45307H70.7394V7.10205Z" fill="#EB8B8B"/>
<path d="M70.7394 4.75098H68.4788V7.102H70.7394V4.75098Z" fill="#EB8B8B"/>
<path d="M70.7394 2.35107H68.4788V4.70209H70.7394V2.35107Z" fill="black"/>
<path d="M68.4317 21.355H66.171V23.706H68.4317V21.355Z" fill="black"/>
<path d="M68.4317 19.0042H66.171V21.3552H68.4317V19.0042Z" fill="#EB8B8B"/>
<path d="M68.4317 16.604H66.171V18.955H68.4317V16.604Z" fill="#EB8B8B"/>
<path d="M68.4317 14.2532H66.171V16.6042H68.4317V14.2532Z" fill="#EFA2A2"/>
<path d="M68.4317 11.853H66.171V14.204H68.4317V11.853Z" fill="#EFA2A2"/>
<path d="M68.4317 9.50195H66.171V11.853H68.4317V9.50195Z" fill="#EFA2A2"/>
<path d="M68.4317 7.10205H66.171V9.45307H68.4317V7.10205Z" fill="#F8CBC5"/>
<path d="M68.4317 4.75098H66.171V7.102H68.4317V4.75098Z" fill="#EB8B8B"/>
<path d="M68.4317 2.35107H66.171V4.70209H68.4317V2.35107Z" fill="#EB8B8B"/>
<path d="M68.4317 0H66.171V2.35102H68.4317V0Z" fill="black"/>
<path d="M66.1709 21.355H63.9103V23.706H66.1709V21.355Z" fill="black"/>
<path d="M66.1709 19.0042H63.9103V21.3552H66.1709V19.0042Z" fill="#EB8B8B"/>
<path d="M66.1709 16.604H63.9103V18.955H66.1709V16.604Z" fill="#EFA2A2"/>
<path d="M66.1709 14.2532H63.9103V16.6042H66.1709V14.2532Z" fill="#F1AEAE"/>
<path d="M66.1709 11.853H63.9103V14.204H66.1709V11.853Z" fill="#F1AEAE"/>
<path d="M66.1709 9.50195H63.9103V11.853H66.1709V9.50195Z" fill="#F1AEAE"/>
<path d="M66.1709 7.10205H63.9103V9.45307H66.1709V7.10205Z" fill="#F1AEAE"/>
<path d="M66.1709 4.75098H63.9103V7.102H66.1709V4.75098Z" fill="#F8CBC5"/>
<path d="M66.1709 2.35107H63.9103V4.70209H66.1709V2.35107Z" fill="#EB8B8B"/>
<path d="M66.1709 0H63.9103V2.35102H66.1709V0Z" fill="black"/>
<path d="M63.8632 21.355H61.6025V23.706H63.8632V21.355Z" fill="black"/>
<path d="M63.8632 19.0042H61.6025V21.3552H63.8632V19.0042Z" fill="#EB8B8B"/>
<path d="M63.8632 16.604H61.6025V18.955H63.8632V16.604Z" fill="#EFA2A2"/>
<path d="M63.8632 14.2532H61.6025V16.6042H63.8632V14.2532Z" fill="#F1AEAE"/>
<path d="M63.8632 11.853H61.6025V14.204H63.8632V11.853Z" fill="#F1AEAE"/>
<path d="M63.8632 9.50195H61.6025V11.853H63.8632V9.50195Z" fill="#F1AEAE"/>
<path d="M63.8632 7.10205H61.6025V9.45307H63.8632V7.10205Z" fill="#F1AEAE"/>
<path d="M63.8632 4.75098H61.6025V7.102H63.8632V4.75098Z" fill="#F8CBC5"/>
<path d="M63.8632 2.35107H61.6025V4.70209H63.8632V2.35107Z" fill="#EB8B8B"/>
<path d="M63.8632 0H61.6025V2.35102H63.8632V0Z" fill="black"/>
<path d="M61.6026 21.355H59.3419V23.706H61.6026V21.355Z" fill="black"/>
<path d="M61.6026 19.0042H59.3419V21.3552H61.6026V19.0042Z" fill="#EB8B8B"/>
<path d="M61.6026 16.604H59.3419V18.955H61.6026V16.604Z" fill="#EFA2A2"/>
<path d="M61.6026 14.2532H59.3419V16.6042H61.6026V14.2532Z" fill="#F1AEAE"/>
<path d="M61.6026 11.853H59.3419V14.204H61.6026V11.853Z" fill="#F1AEAE"/>
<path d="M61.6026 9.50195H59.3419V11.853H61.6026V9.50195Z" fill="#F1AEAE"/>
<path d="M61.6026 7.10205H59.3419V9.45307H61.6026V7.10205Z" fill="#F1AEAE"/>
<path d="M61.6026 4.75098H59.3419V7.102H61.6026V4.75098Z" fill="#F8CBC5"/>
<path d="M61.6026 2.35107H59.3419V4.70209H61.6026V2.35107Z" fill="#EB8B8B"/>
<path d="M61.6026 0H59.3419V2.35102H61.6026V0Z" fill="black"/>
<path d="M59.2948 21.355H57.0342V23.706H59.2948V21.355Z" fill="black"/>
<path d="M59.2948 19.0042H57.0342V21.3552H59.2948V19.0042Z" fill="#EB8B8B"/>
<path d="M59.2948 16.604H57.0342V18.955H59.2948V16.604Z" fill="#EFA2A2"/>
<path d="M59.2948 14.2532H57.0342V16.6042H59.2948V14.2532Z" fill="#F1AEAE"/>
<path d="M59.2948 11.853H57.0342V14.204H59.2948V11.853Z" fill="#F1AEAE"/>
<path d="M59.2948 9.50195H57.0342V11.853H59.2948V9.50195Z" fill="#F1AEAE"/>
<path d="M59.2948 7.10205H57.0342V9.45307H59.2948V7.10205Z" fill="#F1AEAE"/>
<path d="M59.2948 4.75098H57.0342V7.102H59.2948V4.75098Z" fill="#F8CBC5"/>
<path d="M59.2948 2.35107H57.0342V4.70209H59.2948V2.35107Z" fill="#EB8B8B"/>
<path d="M59.2948 0H57.0342V2.35102H59.2948V0Z" fill="black"/>
<path d="M57.0342 21.355H54.7736V23.706H57.0342V21.355Z" fill="black"/>
<path d="M57.0342 19.0042H54.7736V21.3552H57.0342V19.0042Z" fill="#EB8B8B"/>
<path d="M57.0342 16.604H54.7736V18.955H57.0342V16.604Z" fill="#EFA2A2"/>
<path d="M57.0342 14.2532H54.7736V16.6042H57.0342V14.2532Z" fill="#F1AEAE"/>
<path d="M57.0342 11.853H54.7736V14.204H57.0342V11.853Z" fill="#F1AEAE"/>
<path d="M57.0342 9.50195H54.7736V11.853H57.0342V9.50195Z" fill="#F1AEAE"/>
<path d="M57.0342 7.10205H54.7736V9.45307H57.0342V7.10205Z" fill="#F1AEAE"/>
<path d="M57.0342 4.75098H54.7736V7.102H57.0342V4.75098Z" fill="#F8CBC5"/>
<path d="M57.0342 2.35107H54.7736V4.70209H57.0342V2.35107Z" fill="#EB8B8B"/>
<path d="M57.0342 0H54.7736V2.35102H57.0342V0Z" fill="black"/>
<path d="M54.7265 21.355H52.4658V23.706H54.7265V21.355Z" fill="black"/>
<path d="M54.7265 19.0042H52.4658V21.3552H54.7265V19.0042Z" fill="#EB8B8B"/>
<path d="M54.7265 16.604H52.4658V18.955H54.7265V16.604Z" fill="#EFA2A2"/>
<path d="M54.7265 14.2532H52.4658V16.6042H54.7265V14.2532Z" fill="#F1AEAE"/>
<path d="M54.7265 11.853H52.4658V14.204H54.7265V11.853Z" fill="#F1AEAE"/>
<path d="M54.7265 9.50195H52.4658V11.853H54.7265V9.50195Z" fill="#F1AEAE"/>
<path d="M54.7265 7.10205H52.4658V9.45307H54.7265V7.10205Z" fill="#F1AEAE"/>
<path d="M54.7265 4.75098H52.4658V7.102H54.7265V4.75098Z" fill="#F8CBC5"/>
<path d="M54.7265 2.35107H52.4658V4.70209H54.7265V2.35107Z" fill="#EB8B8B"/>
<path d="M54.7265 0H52.4658V2.35102H54.7265V0Z" fill="black"/>
<path d="M52.4658 21.355H50.2052V23.706H52.4658V21.355Z" fill="black"/>
<path d="M52.4658 19.0042H50.2052V21.3552H52.4658V19.0042Z" fill="#EB8B8B"/>
<path d="M52.4658 16.604H50.2052V18.955H52.4658V16.604Z" fill="#EFA2A2"/>
<path d="M52.4658 14.2532H50.2052V16.6042H52.4658V14.2532Z" fill="#F1AEAE"/>
<path d="M52.4658 11.853H50.2052V14.204H52.4658V11.853Z" fill="#F1AEAE"/>
<path d="M52.4658 9.50195H50.2052V11.853H52.4658V9.50195Z" fill="#F1AEAE"/>
<path d="M52.4658 7.10205H50.2052V9.45307H52.4658V7.10205Z" fill="#F1AEAE"/>
<path d="M52.4658 4.75098H50.2052V7.102H52.4658V4.75098Z" fill="#F8CBC5"/>
<path d="M52.4658 2.35107H50.2052V4.70209H52.4658V2.35107Z" fill="#EB8B8B"/>
<path d="M52.4658 0H50.2052V2.35102H52.4658V0Z" fill="black"/>
<path d="M50.2052 21.355H47.9446V23.706H50.2052V21.355Z" fill="black"/>
<path d="M50.2052 19.0042H47.9446V21.3552H50.2052V19.0042Z" fill="#EB8B8B"/>
<path d="M50.2052 16.604H47.9446V18.955H50.2052V16.604Z" fill="#EFA2A2"/>
<path d="M50.2052 14.2532H47.9446V16.6042H50.2052V14.2532Z" fill="#F1AEAE"/>
<path d="M50.2052 11.853H47.9446V14.204H50.2052V11.853Z" fill="#F1AEAE"/>
<path d="M50.2052 9.50195H47.9446V11.853H50.2052V9.50195Z" fill="#F1AEAE"/>
<path d="M50.2052 7.10205H47.9446V9.45307H50.2052V7.10205Z" fill="#F1AEAE"/>
<path d="M50.2052 4.75098H47.9446V7.102H50.2052V4.75098Z" fill="#F8CBC5"/>
<path d="M50.2052 2.35107H47.9446V4.70209H50.2052V2.35107Z" fill="#EB8B8B"/>
<path d="M50.2052 0H47.9446V2.35102H50.2052V0Z" fill="black"/>
<path d="M47.8974 21.355H45.6367V23.706H47.8974V21.355Z" fill="black"/>
<path d="M47.8974 19.0042H45.6367V21.3552H47.8974V19.0042Z" fill="#EB8B8B"/>
<path d="M47.8974 16.604H45.6367V18.955H47.8974V16.604Z" fill="#EFA2A2"/>
<path d="M47.8974 14.2532H45.6367V16.6042H47.8974V14.2532Z" fill="#F1AEAE"/>
<path d="M47.8974 11.853H45.6367V14.204H47.8974V11.853Z" fill="#F1AEAE"/>
<path d="M47.8974 9.50195H45.6367V11.853H47.8974V9.50195Z" fill="#F1AEAE"/>
<path d="M47.8974 7.10205H45.6367V9.45307H47.8974V7.10205Z" fill="#F1AEAE"/>
<path d="M47.8974 4.75098H45.6367V7.102H47.8974V4.75098Z" fill="#F8CBC5"/>
<path d="M47.8974 2.35107H45.6367V4.70209H47.8974V2.35107Z" fill="#EB8B8B"/>
<path d="M47.8974 0H45.6367V2.35102H47.8974V0Z" fill="black"/>
<path d="M45.6367 21.355H43.329V23.706H45.5896L45.6367 21.355Z" fill="black"/>
<path d="M45.6367 19.0042H43.329V21.3552H45.5896L45.6367 19.0042Z" fill="#EB8B8B"/>
<path d="M45.6367 16.604H43.329V18.955H45.5896L45.6367 16.604Z" fill="#EFA2A2"/>
<path d="M45.6367 14.2532H43.329V16.6042H45.5896L45.6367 14.2532Z" fill="#F1AEAE"/>
<path d="M45.6367 11.853H43.329V14.204H45.5896L45.6367 11.853Z" fill="#F1AEAE"/>
<path d="M45.6367 9.50195H43.329V11.853H45.5896L45.6367 9.50195Z" fill="#F1AEAE"/>
<path d="M45.6367 7.10205H43.329V9.45307H45.5896L45.6367 7.10205Z" fill="#F1AEAE"/>
<path d="M45.6367 4.75098H43.329V7.102H45.5896L45.6367 4.75098Z" fill="#F8CBC5"/>
<path d="M45.6367 2.35107H43.329V4.70209H45.5896L45.6367 2.35107Z" fill="#EB8B8B"/>
<path d="M45.6367 0H43.329V2.35102H45.5896L45.6367 0Z" fill="black"/>
<path d="M43.329 21.355H41.0684V23.706H43.329V21.355Z" fill="black"/>
<path d="M43.329 19.0042H41.0684V21.3552H43.329V19.0042Z" fill="#EB8B8B"/>
<path d="M43.329 16.604H41.0684V18.955H43.329V16.604Z" fill="#EFA2A2"/>
<path d="M43.329 14.2532H41.0684V16.6042H43.329V14.2532Z" fill="#F1AEAE"/>
<path d="M43.329 11.853H41.0684V14.204H43.329V11.853Z" fill="#F1AEAE"/>
<path d="M43.329 9.50195H41.0684V11.853H43.329V9.50195Z" fill="#F1AEAE"/>
<path d="M43.329 7.10205H41.0684V9.45307H43.329V7.10205Z" fill="#F1AEAE"/>
<path d="M43.329 4.75098H41.0684V7.102H43.329V4.75098Z" fill="#F8CBC5"/>
<path d="M43.329 2.35107H41.0684V4.70209H43.329V2.35107Z" fill="#EB8B8B"/>
<path d="M43.329 0H41.0684V2.35102H43.329V0Z" fill="black"/>
<path d="M41.0684 21.355H38.8077V23.706H41.0684V21.355Z" fill="black"/>
<path d="M41.0684 19.0042H38.8077V21.3552H41.0684V19.0042Z" fill="#EB8B8B"/>
<path d="M41.0684 16.604H38.8077V18.955H41.0684V16.604Z" fill="#EFA2A2"/>
<path d="M41.0684 14.2532H38.8077V16.6042H41.0684V14.2532Z" fill="#F1AEAE"/>
<path d="M41.0684 11.853H38.8077V14.204H41.0684V11.853Z" fill="#F1AEAE"/>
<path d="M41.0684 9.50195H38.8077V11.853H41.0684V9.50195Z" fill="#F1AEAE"/>
<path d="M41.0684 7.10205H38.8077V9.45307H41.0684V7.10205Z" fill="#F1AEAE"/>
<path d="M41.0684 4.75098H38.8077V7.102H41.0684V4.75098Z" fill="#F8CBC5"/>
<path d="M41.0684 2.35107H38.8077V4.70209H41.0684V2.35107Z" fill="#EB8B8B"/>
<path d="M41.0684 0H38.8077V2.35102H41.0684V0Z" fill="black"/>
<path d="M38.7606 21.355H36.5V23.706H38.7606V21.355Z" fill="black"/>
<path d="M38.7606 19.0042H36.5V21.3552H38.7606V19.0042Z" fill="#EB8B8B"/>
<path d="M38.7606 16.604H36.5V18.955H38.7606V16.604Z" fill="#EFA2A2"/>
<path d="M38.7606 14.2532H36.5V16.6042H38.7606V14.2532Z" fill="#F1AEAE"/>
<path d="M38.7606 11.853H36.5V14.204H38.7606V11.853Z" fill="#F1AEAE"/>
<path d="M38.7606 9.50195H36.5V11.853H38.7606V9.50195Z" fill="#F1AEAE"/>
<path d="M38.7606 7.10205H36.5V9.45307H38.7606V7.10205Z" fill="#F1AEAE"/>
<path d="M38.7606 4.75098H36.5V7.102H38.7606V4.75098Z" fill="#F8CBC5"/>
<path d="M38.7606 2.35107H36.5V4.70209H38.7606V2.35107Z" fill="#EB8B8B"/>
<path d="M38.7606 0H36.5V2.35102H38.7606V0Z" fill="black"/>
<path d="M36.5 21.355H34.2394V23.706H36.5V21.355Z" fill="black"/>
<path d="M36.5 19.0042H34.2394V21.3552H36.5V19.0042Z" fill="#EB8B8B"/>
<path d="M36.5 16.604H34.2394V18.955H36.5V16.604Z" fill="#EFA2A2"/>
<path d="M36.5 14.2532H34.2394V16.6042H36.5V14.2532Z" fill="#F1AEAE"/>
<path d="M36.5 11.853H34.2394V14.204H36.5V11.853Z" fill="#F1AEAE"/>
<path d="M36.5 9.50195H34.2394V11.853H36.5V9.50195Z" fill="#F1AEAE"/>
<path d="M36.5 7.10205H34.2394V9.45307H36.5V7.10205Z" fill="#F1AEAE"/>
<path d="M36.5 4.75098H34.2394V7.102H36.5V4.75098Z" fill="#F8CBC5"/>
<path d="M36.5 2.35107H34.2394V4.70209H36.5V2.35107Z" fill="#EB8B8B"/>
<path d="M36.5 0H34.2394V2.35102H36.5V0Z" fill="black"/>
<path d="M34.2394 21.355H31.9788V23.706H34.2394V21.355Z" fill="black"/>
<path d="M34.2394 19.0042H31.9788V21.3552H34.2394V19.0042Z" fill="#EB8B8B"/>
<path d="M34.2394 16.604H31.9788V18.955H34.2394V16.604Z" fill="#EFA2A2"/>
<path d="M34.2394 14.2532H31.9788V16.6042H34.2394V14.2532Z" fill="#F1AEAE"/>
<path d="M34.2394 11.853H31.9788V14.204H34.2394V11.853Z" fill="#F1AEAE"/>
<path d="M34.2394 9.50195H31.9788V11.853H34.2394V9.50195Z" fill="#F1AEAE"/>
<path d="M34.2394 7.10205H31.9788V9.45307H34.2394V7.10205Z" fill="#F1AEAE"/>
<path d="M34.2394 4.75098H31.9788V7.102H34.2394V4.75098Z" fill="#F8CBC5"/>
<path d="M34.2394 2.35107H31.9788V4.70209H34.2394V2.35107Z" fill="#EB8B8B"/>
<path d="M34.2394 0H31.9788V2.35102H34.2394V0Z" fill="black"/>
<path d="M31.9317 21.355H29.671V23.706H31.9317V21.355Z" fill="black"/>
<path d="M31.9317 19.0042H29.671V21.3552H31.9317V19.0042Z" fill="#EB8B8B"/>
<path d="M31.9317 16.604H29.671V18.955H31.9317V16.604Z" fill="#EFA2A2"/>
<path d="M31.9317 14.2532H29.671V16.6042H31.9317V14.2532Z" fill="#F1AEAE"/>
<path d="M31.9317 11.853H29.671V14.204H31.9317V11.853Z" fill="#F1AEAE"/>
<path d="M31.9317 9.50195H29.671V11.853H31.9317V9.50195Z" fill="#F1AEAE"/>
<path d="M31.9317 7.10205H29.671V9.45307H31.9317V7.10205Z" fill="#F1AEAE"/>
<path d="M31.9317 4.75098H29.671V7.102H31.9317V4.75098Z" fill="#F8CBC5"/>
<path d="M31.9317 2.35107H29.671V4.70209H31.9317V2.35107Z" fill="#EB8B8B"/>
<path d="M31.9317 0H29.671V2.35102H31.9317V0Z" fill="black"/>
<path d="M29.6709 21.355H27.4103V23.706H29.6709V21.355Z" fill="black"/>
<path d="M29.6709 19.0042H27.4103V21.3552H29.6709V19.0042Z" fill="#EB8B8B"/>
<path d="M29.6709 16.604H27.4103V18.955H29.6709V16.604Z" fill="#EFA2A2"/>
<path d="M29.6709 14.2532H27.4103V16.6042H29.6709V14.2532Z" fill="#F1AEAE"/>
<path d="M29.6709 11.853H27.4103V14.204H29.6709V11.853Z" fill="#F1AEAE"/>
<path d="M29.6709 9.50195H27.4103V11.853H29.6709V9.50195Z" fill="#F1AEAE"/>
<path d="M29.6709 7.10205H27.4103V9.45307H29.6709V7.10205Z" fill="#F1AEAE"/>
<path d="M29.6709 4.75098H27.4103V7.102H29.6709V4.75098Z" fill="#F8CBC5"/>
<path d="M29.6709 2.35107H27.4103V4.70209H29.6709V2.35107Z" fill="#EB8B8B"/>
<path d="M29.6709 0H27.4103V2.35102H29.6709V0Z" fill="black"/>
<path d="M27.3632 21.355H25.1025V23.706H27.3632V21.355Z" fill="black"/>
<path d="M27.3632 19.0042H25.1025V21.3552H27.3632V19.0042Z" fill="#EB8B8B"/>
<path d="M27.3632 16.604H25.1025V18.955H27.3632V16.604Z" fill="#EFA2A2"/>
<path d="M27.3632 14.2532H25.1025V16.6042H27.3632V14.2532Z" fill="#F1AEAE"/>
<path d="M27.3632 11.853H25.1025V14.204H27.3632V11.853Z" fill="#F1AEAE"/>
<path d="M27.3632 9.50195H25.1025V11.853H27.3632V9.50195Z" fill="#F1AEAE"/>
<path d="M27.3632 7.10205H25.1025V9.45307H27.3632V7.10205Z" fill="#F1AEAE"/>
<path d="M27.3632 4.75098H25.1025V7.102H27.3632V4.75098Z" fill="#F8CBC5"/>
<path d="M27.3632 2.35107H25.1025V4.70209H27.3632V2.35107Z" fill="#EB8B8B"/>
<path d="M27.3632 0H25.1025V2.35102H27.3632V0Z" fill="black"/>
<path d="M25.1026 21.355H22.8419V23.706H25.1026V21.355Z" fill="black"/>
<path d="M25.1026 19.0042H22.8419V21.3552H25.1026V19.0042Z" fill="#EB8B8B"/>
<path d="M25.1026 16.604H22.8419V18.955H25.1026V16.604Z" fill="#EFA2A2"/>
<path d="M25.1026 14.2532H22.8419V16.6042H25.1026V14.2532Z" fill="#F1AEAE"/>
<path d="M25.1026 11.853H22.8419V14.204H25.1026V11.853Z" fill="#F1AEAE"/>
<path d="M25.1026 9.50195H22.8419V11.853H25.1026V9.50195Z" fill="#F1AEAE"/>
<path d="M25.1026 7.10205H22.8419V9.45307H25.1026V7.10205Z" fill="#F1AEAE"/>
<path d="M25.1026 4.75098H22.8419V7.102H25.1026V4.75098Z" fill="#F8CBC5"/>
<path d="M25.1026 2.35107H22.8419V4.70209H25.1026V2.35107Z" fill="#EB8B8B"/>
<path d="M25.1026 0H22.8419V2.35102H25.1026V0Z" fill="black"/>
<path d="M22.7948 21.355H20.5342V23.706H22.7948V21.355Z" fill="black"/>
<path d="M22.7948 19.0042H20.5342V21.3552H22.7948V19.0042Z" fill="#EB8B8B"/>
<path d="M22.7948 16.604H20.5342V18.955H22.7948V16.604Z" fill="#EFA2A2"/>
<path d="M22.7948 14.2532H20.5342V16.6042H22.7948V14.2532Z" fill="#F1AEAE"/>
<path d="M22.7948 11.853H20.5342V14.204H22.7948V11.853Z" fill="#F1AEAE"/>
<path d="M22.7948 9.50195H20.5342V11.853H22.7948V9.50195Z" fill="#F1AEAE"/>
<path d="M22.7948 7.10205H20.5342V9.45307H22.7948V7.10205Z" fill="#F1AEAE"/>
<path d="M22.7948 4.75098H20.5342V7.102H22.7948V4.75098Z" fill="#F8CBC5"/>
<path d="M22.7948 2.35107H20.5342V4.70209H22.7948V2.35107Z" fill="#EB8B8B"/>
<path d="M22.7948 0H20.5342V2.35102H22.7948V0Z" fill="black"/>
<path d="M20.5342 21.355H18.2736V23.706H20.5342V21.355Z" fill="black"/>
<path d="M20.5342 19.0042H18.2736V21.3552H20.5342V19.0042Z" fill="#EB8B8B"/>
<path d="M20.5342 16.604H18.2736V18.955H20.5342V16.604Z" fill="#EFA2A2"/>
<path d="M20.5342 14.2532H18.2736V16.6042H20.5342V14.2532Z" fill="#F1AEAE"/>
<path d="M20.5342 11.853H18.2736V14.204H20.5342V11.853Z" fill="#F1AEAE"/>
<path d="M20.5342 9.50195H18.2736V11.853H20.5342V9.50195Z" fill="#F1AEAE"/>
<path d="M20.5342 7.10205H18.2736V9.45307H20.5342V7.10205Z" fill="#F1AEAE"/>
<path d="M20.5342 4.75098H18.2736V7.102H20.5342V4.75098Z" fill="#F8CBC5"/>
<path d="M20.5342 2.35107H18.2736V4.70209H20.5342V2.35107Z" fill="#EB8B8B"/>
<path d="M20.5342 0H18.2736V2.35102H20.5342V0Z" fill="black"/>
<path d="M18.2736 21.355H16.0129V23.706H18.2736V21.355Z" fill="black"/>
<path d="M18.2736 19.0042H16.0129V21.3552H18.2736V19.0042Z" fill="#EB8B8B"/>
<path d="M18.2736 16.604H16.0129V18.955H18.2736V16.604Z" fill="#EFA2A2"/>
<path d="M18.2736 14.2532H16.0129V16.6042H18.2736V14.2532Z" fill="#F1AEAE"/>
<path d="M18.2736 11.853H16.0129V14.204H18.2736V11.853Z" fill="#F1AEAE"/>
<path d="M18.2736 9.50195H16.0129V11.853H18.2736V9.50195Z" fill="#F1AEAE"/>
<path d="M18.2736 7.10205H16.0129V9.45307H18.2736V7.10205Z" fill="#F1AEAE"/>
<path d="M18.2736 4.75098H16.0129V7.102H18.2736V4.75098Z" fill="#F8CBC5"/>
<path d="M18.2736 2.35107H16.0129V4.70209H18.2736V2.35107Z" fill="#EB8B8B"/>
<path d="M18.2736 0H16.0129V2.35102H18.2736V0Z" fill="black"/>
<path d="M15.9658 21.355H13.7052V23.706H15.9658V21.355Z" fill="black"/>
<path d="M15.9658 19.0042H13.7052V21.3552H15.9658V19.0042Z" fill="#EB8B8B"/>
<path d="M15.9658 16.604H13.7052V18.955H15.9658V16.604Z" fill="#EFA2A2"/>
<path d="M15.9658 14.2532H13.7052V16.6042H15.9658V14.2532Z" fill="#F1AEAE"/>
<path d="M15.9658 11.853H13.7052V14.204H15.9658V11.853Z" fill="#F1AEAE"/>
<path d="M15.9658 9.50195H13.7052V11.853H15.9658V9.50195Z" fill="#F1AEAE"/>
<path d="M15.9658 7.10205H13.7052V9.45307H15.9658V7.10205Z" fill="#F1AEAE"/>
<path d="M15.9658 4.75098H13.7052V7.102H15.9658V4.75098Z" fill="#F8CBC5"/>
<path d="M15.9658 2.35107H13.7052V4.70209H15.9658V2.35107Z" fill="#EB8B8B"/>
<path d="M15.9658 0H13.7052V2.35102H15.9658V0Z" fill="black"/>
<path d="M13.7051 21.355H11.4445V23.706H13.7051V21.355Z" fill="black"/>
<path d="M13.7051 19.0042H11.4445V21.3552H13.7051V19.0042Z" fill="#EB8B8B"/>
<path d="M13.7051 16.604H11.4445V18.955H13.7051V16.604Z" fill="#EFA2A2"/>
<path d="M13.7051 14.2532H11.4445V16.6042H13.7051V14.2532Z" fill="#F1AEAE"/>
<path d="M13.7051 11.853H11.4445V14.204H13.7051V11.853Z" fill="#F1AEAE"/>
<path d="M13.7051 9.50195H11.4445V11.853H13.7051V9.50195Z" fill="#F1AEAE"/>
<path d="M13.7051 7.10205H11.4445V9.45307H13.7051V7.10205Z" fill="#F1AEAE"/>
<path d="M13.7051 4.75098H11.4445V7.102H13.7051V4.75098Z" fill="#F8CBC5"/>
<path d="M13.7051 2.35107H11.4445V4.70209H13.7051V2.35107Z" fill="#EB8B8B"/>
<path d="M13.7051 0H11.4445V2.35102H13.7051V0Z" fill="black"/>
<path d="M11.3974 21.355H9.13672V23.706H11.3974V21.355Z" fill="black"/>
<path d="M11.3974 19.0042H9.13672V21.3552H11.3974V19.0042Z" fill="#EB8B8B"/>
<path d="M11.3974 16.604H9.13672V18.955H11.3974V16.604Z" fill="#EFA2A2"/>
<path d="M11.3974 14.2532H9.13672V16.6042H11.3974V14.2532Z" fill="#F1AEAE"/>
<path d="M11.3974 11.853H9.13672V14.204H11.3974V11.853Z" fill="#F1AEAE"/>
<path d="M11.3974 9.50195H9.13672V11.853H11.3974V9.50195Z" fill="#F1AEAE"/>
<path d="M11.3974 7.10205H9.13672V9.45307H11.3974V7.10205Z" fill="#F1AEAE"/>
<path d="M11.3974 4.75098H9.13672V7.102H11.3974V4.75098Z" fill="#F8CBC5"/>
<path d="M11.3974 2.35107H9.13672V4.70209H11.3974V2.35107Z" fill="#EB8B8B"/>
<path d="M11.3974 0H9.13672V2.35102H11.3974V0Z" fill="black"/>
<path d="M9.13674 21.355H6.8761V23.706H9.13674V21.355Z" fill="black"/>
<path d="M9.13674 19.0042H6.8761V21.3552H9.13674V19.0042Z" fill="#EB8B8B"/>
<path d="M9.13674 16.604H6.8761V18.955H9.13674V16.604Z" fill="#EFA2A2"/>
<path d="M9.13674 14.2532H6.8761V16.6042H9.13674V14.2532Z" fill="#F1AEAE"/>
<path d="M9.13674 11.853H6.8761V14.204H9.13674V11.853Z" fill="#F1AEAE"/>
<path d="M9.13674 9.50195H6.8761V11.853H9.13674V9.50195Z" fill="#F1AEAE"/>
<path d="M9.13674 7.10205H6.8761V9.45307H9.13674V7.10205Z" fill="#F1AEAE"/>
<path d="M9.13674 4.75098H6.8761V7.102H9.13674V4.75098Z" fill="#F8CBC5"/>
<path d="M9.13674 2.35107H6.8761V4.70209H9.13674V2.35107Z" fill="#EB8B8B"/>
<path d="M9.13674 0H6.8761V2.35102H9.13674V0Z" fill="black"/>
<path d="M6.829 21.355H4.56836V23.706H6.829V21.355Z" fill="black"/>
<path d="M6.829 19.0042H4.56836V21.3552H6.829V19.0042Z" fill="#EB8B8B"/>
<path d="M6.829 16.604H4.56836V18.955H6.829V16.604Z" fill="#EB8B8B"/>
<path d="M6.829 14.2532H4.56836V16.6042H6.829V14.2532Z" fill="#EFA2A2"/>
<path d="M6.829 11.853H4.56836V14.204H6.829V11.853Z" fill="#EFA2A2"/>
<path d="M6.829 9.50195H4.56836V11.853H6.829V9.50195Z" fill="#EFA2A2"/>
<path d="M6.829 7.10205H4.56836V9.45307H6.829V7.10205Z" fill="#F8CBC5"/>
<path d="M6.829 4.75098H4.56836V7.102H6.829V4.75098Z" fill="#EB8B8B"/>
<path d="M6.829 2.35107H4.56836V4.70209H6.829V2.35107Z" fill="#EB8B8B"/>
<path d="M6.829 0H4.56836V2.35102H6.829V0Z" fill="black"/>
<path d="M4.56836 19.0042H2.26062V21.3552H4.52127L4.56836 19.0042Z" fill="black"/>
<path d="M4.56836 16.604H2.26062V18.955H4.52127L4.56836 16.604Z" fill="#EB8B8B"/>
<path d="M4.56836 14.2532H2.26062V16.6042H4.52127L4.56836 14.2532Z" fill="#EB8B8B"/>
<path d="M4.56836 11.853H2.26062V14.204H4.52127L4.56836 11.853Z" fill="#EB8B8B"/>
<path d="M4.56836 9.50195H2.26062V11.853H4.52127L4.56836 9.50195Z" fill="#EB8B8B"/>
<path d="M4.56836 7.10205H2.26062V9.45307H4.52127L4.56836 7.10205Z" fill="#EB8B8B"/>
<path d="M4.56836 4.75098H2.26062V7.102H4.52127L4.56836 4.75098Z" fill="#EB8B8B"/>
<path d="M4.56836 2.35107H2.26062V4.70209H4.52127L4.56836 2.35107Z" fill="black"/>
<path d="M2.26065 16.604H0V18.955H2.26065V16.604Z" fill="black"/>
<path d="M2.26065 14.2532H0V16.6042H2.26065V14.2532Z" fill="black"/>
<path d="M2.26065 11.853H0V14.204H2.26065V11.853Z" fill="black"/>
<path d="M2.26065 9.50195H0V11.853H2.26065V9.50195Z" fill="black"/>
<path d="M2.26065 7.10205H0V9.45307H2.26065V7.10205Z" fill="black"/>
<path d="M2.26065 4.75098H0V7.102H2.26065V4.75098Z" fill="black"/>
</g>
<path d="M26.9821 14.9206H30.6487V16.1428H25.7599V7.58727H30.6487V8.80949H26.9821V11.2539H30.6487V12.4762H26.9821V14.9206ZM31.871 14.9206H30.6487V12.4762H31.871V14.9206ZM31.871 11.2539H30.6487V8.80949H31.871V11.2539ZM34.319 14.9206H33.0968V10.0317H34.319V14.9206ZM39.2079 14.9206H37.9857V10.0317H39.2079V14.9206ZM37.9857 16.1428H34.319V14.9206H37.9857V16.1428ZM46.5448 12.4762H45.3226V10.0317H46.5448V12.4762ZM41.6559 12.4762H40.4337V10.0317H41.6559V12.4762ZM44.1004 17.365H42.8781V14.9206H44.1004V17.365ZM42.8781 18.5873H40.4337V17.365H42.8781V18.5873ZM42.8781 14.9206H41.6559V12.4762H42.8781V14.9206ZM45.3226 14.9206H44.1004V12.4762H45.3226V14.9206Z" fill="black"/>
<defs>
<clipPath id="clip0_408_12030">
<rect width="73" height="24" fill="white"/>
</clipPath>
</defs>
</svg>
