<svg width="234" height="42" viewBox="0 0 234 42" fill="none" xmlns="http://www.w3.org/2000/svg">
<g clip-path="url(#clip0_544_17642)">
<path d="M185.857 29.0571H181.743V33.1714H185.857V29.0571Z" fill="black"/>
<path d="M185.857 24.943H181.743V29.0572H185.857V24.943Z" fill="black"/>
<path d="M185.857 20.7428H181.743V24.8571H185.857V20.7428Z" fill="black"/>
<path d="M185.857 16.6285H181.743V20.7428H185.857V16.6285Z" fill="black"/>
<path d="M185.857 12.4285H181.743V16.5428H185.857V12.4285Z" fill="black"/>
<path d="M185.857 8.31424H181.743V12.4285H185.857V8.31424Z" fill="black"/>
<path d="M181.743 33.2572H177.629V37.3715H181.743V33.2572Z" fill="black"/>
<path d="M181.743 29.0571H177.629V33.1714H181.743V29.0571Z" fill="#EB8B8B"/>
<path d="M181.743 24.943H177.629V29.0572H181.743V24.943Z" fill="#EB8B8B"/>
<path d="M181.743 20.7428H177.629V24.8571H181.743V20.7428Z" fill="#EB8B8B"/>
<path d="M181.743 16.6285H177.629V20.7428H181.743V16.6285Z" fill="#EB8B8B"/>
<path d="M181.743 12.4285H177.629V16.5428H181.743V12.4285Z" fill="#EB8B8B"/>
<path d="M181.743 8.31424H177.629V12.4285H181.743V8.31424Z" fill="#EB8B8B"/>
<path d="M181.743 4.11432H177.629V8.2286H181.743V4.11432Z" fill="black"/>
<path d="M177.543 37.3715H173.429V41.4858H177.543V37.3715Z" fill="black"/>
<path d="M177.543 33.2572H173.429V37.3715H177.543V33.2572Z" fill="#EB8B8B"/>
<path d="M177.543 29.0571H173.429V33.1714H177.543V29.0571Z" fill="#EB8B8B"/>
<path d="M177.543 24.943H173.429V29.0572H177.543V24.943Z" fill="#EFA2A2"/>
<path d="M177.543 20.7428H173.429V24.8571H177.543V20.7428Z" fill="#EFA2A2"/>
<path d="M177.543 16.6285H173.429V20.7428H177.543V16.6285Z" fill="#EFA2A2"/>
<path d="M177.543 12.4285H173.429V16.5428H177.543V12.4285Z" fill="#F8CBC5"/>
<path d="M177.543 8.31424H173.429V12.4285H177.543V8.31424Z" fill="#EB8B8B"/>
<path d="M177.543 4.11432H173.429V8.2286H177.543V4.11432Z" fill="#EB8B8B"/>
<path d="M177.543 0H173.429V4.11429H177.543V0Z" fill="black"/>
<path d="M173.428 37.3715H169.314V41.4858H173.428V37.3715Z" fill="black"/>
<path d="M173.428 33.2572H169.314V37.3715H173.428V33.2572Z" fill="#EB8B8B"/>
<path d="M173.428 29.0571H169.314V33.1714H173.428V29.0571Z" fill="#EFA2A2"/>
<path d="M173.428 24.943H169.314V29.0572H173.428V24.943Z" fill="#F1AEAE"/>
<path d="M173.428 20.7428H169.314V24.8571H173.428V20.7428Z" fill="#F1AEAE"/>
<path d="M173.428 16.6285H169.314V20.7428H173.428V16.6285Z" fill="#F1AEAE"/>
<path d="M173.428 12.4285H169.314V16.5428H173.428V12.4285Z" fill="#F1AEAE"/>
<path d="M173.428 8.31424H169.314V12.4285H173.428V8.31424Z" fill="#F8CBC5"/>
<path d="M173.428 4.11432H169.314V8.2286H173.428V4.11432Z" fill="#EB8B8B"/>
<path d="M173.428 0H169.314V4.11429H173.428V0Z" fill="black"/>
<path d="M169.229 37.3715H165.114V41.4858H169.229V37.3715Z" fill="black"/>
<path d="M169.229 33.2572H165.114V37.3715H169.229V33.2572Z" fill="#EB8B8B"/>
<path d="M169.229 29.0571H165.114V33.1714H169.229V29.0571Z" fill="#EFA2A2"/>
<path d="M169.229 24.943H165.114V29.0572H169.229V24.943Z" fill="#F1AEAE"/>
<path d="M169.229 20.7428H165.114V24.8571H169.229V20.7428Z" fill="#F1AEAE"/>
<path d="M169.229 16.6285H165.114V20.7428H169.229V16.6285Z" fill="#F1AEAE"/>
<path d="M169.229 12.4285H165.114V16.5428H169.229V12.4285Z" fill="#F1AEAE"/>
<path d="M169.229 8.31424H165.114V12.4285H169.229V8.31424Z" fill="#F8CBC5"/>
<path d="M169.229 4.11432H165.114V8.2286H169.229V4.11432Z" fill="#EB8B8B"/>
<path d="M169.229 0H165.114V4.11429H169.229V0Z" fill="black"/>
<path d="M165.114 37.3715H161V41.4858H165.114V37.3715Z" fill="black"/>
<path d="M165.114 33.2572H161V37.3715H165.114V33.2572Z" fill="#EB8B8B"/>
<path d="M165.114 29.0571H161V33.1714H165.114V29.0571Z" fill="#EFA2A2"/>
<path d="M165.114 24.943H161V29.0572H165.114V24.943Z" fill="#F1AEAE"/>
<path d="M165.114 20.7428H161V24.8571H165.114V20.7428Z" fill="#F1AEAE"/>
<path d="M165.114 16.6285H161V20.7428H165.114V16.6285Z" fill="#F1AEAE"/>
<path d="M165.114 12.4285H161V16.5428H165.114V12.4285Z" fill="#F1AEAE"/>
<path d="M165.114 8.31424H161V12.4285H165.114V8.31424Z" fill="#F8CBC5"/>
<path d="M165.114 4.11432H161V8.2286H165.114V4.11432Z" fill="#EB8B8B"/>
<path d="M165.114 0H161V4.11429H165.114V0Z" fill="black"/>
<path d="M160.914 37.3715H156.8V41.4858H160.914V37.3715Z" fill="black"/>
<path d="M160.914 33.2572H156.8V37.3715H160.914V33.2572Z" fill="#EB8B8B"/>
<path d="M160.914 29.0571H156.8V33.1714H160.914V29.0571Z" fill="#EFA2A2"/>
<path d="M160.914 24.943H156.8V29.0572H160.914V24.943Z" fill="#F1AEAE"/>
<path d="M160.914 20.7428H156.8V24.8571H160.914V20.7428Z" fill="#F1AEAE"/>
<path d="M160.914 16.6285H156.8V20.7428H160.914V16.6285Z" fill="#F1AEAE"/>
<path d="M160.914 12.4285H156.8V16.5428H160.914V12.4285Z" fill="#F1AEAE"/>
<path d="M160.914 8.31424H156.8V12.4285H160.914V8.31424Z" fill="#F8CBC5"/>
<path d="M160.914 4.11432H156.8V8.2286H160.914V4.11432Z" fill="#EB8B8B"/>
<path d="M160.914 0H156.8V4.11429H160.914V0Z" fill="black"/>
<path d="M156.8 37.3715H152.686V41.4858H156.8V37.3715Z" fill="black"/>
<path d="M156.8 33.2572H152.686V37.3715H156.8V33.2572Z" fill="#EB8B8B"/>
<path d="M156.8 29.0571H152.686V33.1714H156.8V29.0571Z" fill="#EFA2A2"/>
<path d="M156.8 24.943H152.686V29.0572H156.8V24.943Z" fill="#F1AEAE"/>
<path d="M156.8 20.7428H152.686V24.8571H156.8V20.7428Z" fill="#F1AEAE"/>
<path d="M156.8 16.6285H152.686V20.7428H156.8V16.6285Z" fill="#F1AEAE"/>
<path d="M156.8 12.4285H152.686V16.5428H156.8V12.4285Z" fill="#F1AEAE"/>
<path d="M156.8 8.31424H152.686V12.4285H156.8V8.31424Z" fill="#F8CBC5"/>
<path d="M156.8 4.11432H152.686V8.2286H156.8V4.11432Z" fill="#EB8B8B"/>
<path d="M156.8 0H152.686V4.11429H156.8V0Z" fill="black"/>
<path d="M152.6 37.3715H148.486V41.4858H152.6V37.3715Z" fill="black"/>
<path d="M152.6 33.2572H148.486V37.3715H152.6V33.2572Z" fill="#EB8B8B"/>
<path d="M152.6 29.0571H148.486V33.1714H152.6V29.0571Z" fill="#EFA2A2"/>
<path d="M152.6 24.943H148.486V29.0572H152.6V24.943Z" fill="#F1AEAE"/>
<path d="M152.6 20.7428H148.486V24.8571H152.6V20.7428Z" fill="#F1AEAE"/>
<path d="M152.6 16.6285H148.486V20.7428H152.6V16.6285Z" fill="#F1AEAE"/>
<path d="M152.6 12.4285H148.486V16.5428H152.6V12.4285Z" fill="#F1AEAE"/>
<path d="M152.6 8.31424H148.486V12.4285H152.6V8.31424Z" fill="#F8CBC5"/>
<path d="M152.6 4.11432H148.486V8.2286H152.6V4.11432Z" fill="#EB8B8B"/>
<path d="M152.6 0H148.486V4.11429H152.6V0Z" fill="black"/>
<path d="M148.486 37.3715H144.372V41.4858H148.486V37.3715Z" fill="black"/>
<path d="M148.486 33.2572H144.372V37.3715H148.486V33.2572Z" fill="#EB8B8B"/>
<path d="M148.486 29.0571H144.372V33.1714H148.486V29.0571Z" fill="#EFA2A2"/>
<path d="M148.486 24.943H144.372V29.0572H148.486V24.943Z" fill="#F1AEAE"/>
<path d="M148.486 20.7428H144.372V24.8571H148.486V20.7428Z" fill="#F1AEAE"/>
<path d="M148.486 16.6285H144.372V20.7428H148.486V16.6285Z" fill="#F1AEAE"/>
<path d="M148.486 12.4285H144.372V16.5428H148.486V12.4285Z" fill="#F1AEAE"/>
<path d="M148.486 8.31424H144.372V12.4285H148.486V8.31424Z" fill="#F8CBC5"/>
<path d="M148.486 4.11432H144.372V8.2286H148.486V4.11432Z" fill="#EB8B8B"/>
<path d="M148.486 0H144.372V4.11429H148.486V0Z" fill="black"/>
<path d="M144.372 37.3715H140.257V41.4858H144.372V37.3715Z" fill="black"/>
<path d="M144.372 33.2572H140.257V37.3715H144.372V33.2572Z" fill="#EB8B8B"/>
<path d="M144.372 29.0571H140.257V33.1714H144.372V29.0571Z" fill="#EFA2A2"/>
<path d="M144.372 24.943H140.257V29.0572H144.372V24.943Z" fill="#F1AEAE"/>
<path d="M144.372 20.7428H140.257V24.8571H144.372V20.7428Z" fill="#F1AEAE"/>
<path d="M144.372 16.6285H140.257V20.7428H144.372V16.6285Z" fill="#F1AEAE"/>
<path d="M144.372 12.4285H140.257V16.5428H144.372V12.4285Z" fill="#F1AEAE"/>
<path d="M144.372 8.31424H140.257V12.4285H144.372V8.31424Z" fill="#F8CBC5"/>
<path d="M144.372 4.11432H140.257V8.2286H144.372V4.11432Z" fill="#EB8B8B"/>
<path d="M144.372 0H140.257V4.11429H144.372V0Z" fill="black"/>
<path d="M140.171 37.3715H136.057V41.4858H140.171V37.3715Z" fill="black"/>
<path d="M140.171 33.2572H136.057V37.3715H140.171V33.2572Z" fill="#EB8B8B"/>
<path d="M140.171 29.0571H136.057V33.1714H140.171V29.0571Z" fill="#EFA2A2"/>
<path d="M140.171 24.943H136.057V29.0572H140.171V24.943Z" fill="#F1AEAE"/>
<path d="M140.171 20.7428H136.057V24.8571H140.171V20.7428Z" fill="#F1AEAE"/>
<path d="M140.171 16.6285H136.057V20.7428H140.171V16.6285Z" fill="#F1AEAE"/>
<path d="M140.171 12.4285H136.057V16.5428H140.171V12.4285Z" fill="#F1AEAE"/>
<path d="M140.171 8.31424H136.057V12.4285H140.171V8.31424Z" fill="#F8CBC5"/>
<path d="M140.171 4.11432H136.057V8.2286H140.171V4.11432Z" fill="#EB8B8B"/>
<path d="M140.171 0H136.057V4.11429H140.171V0Z" fill="black"/>
<path d="M136.057 37.3715H131.857V41.4858H135.971L136.057 37.3715Z" fill="black"/>
<path d="M136.057 33.2572H131.857V37.3715H135.971L136.057 33.2572Z" fill="#EB8B8B"/>
<path d="M136.057 29.0571H131.857V33.1714H135.971L136.057 29.0571Z" fill="#EFA2A2"/>
<path d="M136.057 24.943H131.857V29.0572H135.971L136.057 24.943Z" fill="#F1AEAE"/>
<path d="M136.057 20.7428H131.857V24.8571H135.971L136.057 20.7428Z" fill="#F1AEAE"/>
<path d="M136.057 16.6285H131.857V20.7428H135.971L136.057 16.6285Z" fill="#F1AEAE"/>
<path d="M136.057 12.4285H131.857V16.5428H135.971L136.057 12.4285Z" fill="#F1AEAE"/>
<path d="M136.057 8.31424H131.857V12.4285H135.971L136.057 8.31424Z" fill="#F8CBC5"/>
<path d="M136.057 4.11432H131.857V8.2286H135.971L136.057 4.11432Z" fill="#EB8B8B"/>
<path d="M136.057 0H131.857V4.11429H135.971L136.057 0Z" fill="black"/>
<path d="M131.857 37.3715H127.743V41.4858H131.857V37.3715Z" fill="black"/>
<path d="M131.857 33.2572H127.743V37.3715H131.857V33.2572Z" fill="#EB8B8B"/>
<path d="M131.857 29.0571H127.743V33.1714H131.857V29.0571Z" fill="#EFA2A2"/>
<path d="M131.857 24.943H127.743V29.0572H131.857V24.943Z" fill="#F1AEAE"/>
<path d="M131.857 20.7428H127.743V24.8571H131.857V20.7428Z" fill="#F1AEAE"/>
<path d="M131.857 16.6285H127.743V20.7428H131.857V16.6285Z" fill="#F1AEAE"/>
<path d="M131.857 12.4285H127.743V16.5428H131.857V12.4285Z" fill="#F1AEAE"/>
<path d="M131.857 8.31424H127.743V12.4285H131.857V8.31424Z" fill="#F8CBC5"/>
<path d="M131.857 4.11432H127.743V8.2286H131.857V4.11432Z" fill="#EB8B8B"/>
<path d="M131.857 0H127.743V4.11429H131.857V0Z" fill="black"/>
<path d="M127.743 37.3715H123.629V41.4858H127.743V37.3715Z" fill="black"/>
<path d="M127.743 33.2572H123.629V37.3715H127.743V33.2572Z" fill="#EB8B8B"/>
<path d="M127.743 29.0571H123.629V33.1714H127.743V29.0571Z" fill="#EFA2A2"/>
<path d="M127.743 24.943H123.629V29.0572H127.743V24.943Z" fill="#F1AEAE"/>
<path d="M127.743 20.7428H123.629V24.8571H127.743V20.7428Z" fill="#F1AEAE"/>
<path d="M127.743 16.6285H123.629V20.7428H127.743V16.6285Z" fill="#F1AEAE"/>
<path d="M127.743 12.4285H123.629V16.5428H127.743V12.4285Z" fill="#F1AEAE"/>
<path d="M127.743 8.31424H123.629V12.4285H127.743V8.31424Z" fill="#F8CBC5"/>
<path d="M127.743 4.11432H123.629V8.2286H127.743V4.11432Z" fill="#EB8B8B"/>
<path d="M127.743 0H123.629V4.11429H127.743V0Z" fill="black"/>
<path d="M123.543 37.3715H119.428V41.4858H123.543V37.3715Z" fill="black"/>
<path d="M123.543 33.2572H119.428V37.3715H123.543V33.2572Z" fill="#EB8B8B"/>
<path d="M123.543 29.0571H119.428V33.1714H123.543V29.0571Z" fill="#EFA2A2"/>
<path d="M123.543 24.943H119.428V29.0572H123.543V24.943Z" fill="#F1AEAE"/>
<path d="M123.543 20.7428H119.428V24.8571H123.543V20.7428Z" fill="#F1AEAE"/>
<path d="M123.543 16.6285H119.428V20.7428H123.543V16.6285Z" fill="#F1AEAE"/>
<path d="M123.543 12.4285H119.428V16.5428H123.543V12.4285Z" fill="#F1AEAE"/>
<path d="M123.543 8.31424H119.428V12.4285H123.543V8.31424Z" fill="#F8CBC5"/>
<path d="M123.543 4.11432H119.428V8.2286H123.543V4.11432Z" fill="#EB8B8B"/>
<path d="M123.543 0H119.428V4.11429H123.543V0Z" fill="black"/>
<path d="M119.428 37.3715H115.314V41.4858H119.428V37.3715Z" fill="black"/>
<path d="M119.428 33.2572H115.314V37.3715H119.428V33.2572Z" fill="#EB8B8B"/>
<path d="M119.428 29.0571H115.314V33.1714H119.428V29.0571Z" fill="#EFA2A2"/>
<path d="M119.428 24.943H115.314V29.0572H119.428V24.943Z" fill="#F1AEAE"/>
<path d="M119.428 20.7428H115.314V24.8571H119.428V20.7428Z" fill="#F1AEAE"/>
<path d="M119.428 16.6285H115.314V20.7428H119.428V16.6285Z" fill="#F1AEAE"/>
<path d="M119.428 12.4285H115.314V16.5428H119.428V12.4285Z" fill="#F1AEAE"/>
<path d="M119.428 8.31424H115.314V12.4285H119.428V8.31424Z" fill="#F8CBC5"/>
<path d="M119.428 4.11432H115.314V8.2286H119.428V4.11432Z" fill="#EB8B8B"/>
<path d="M119.428 0H115.314V4.11429H119.428V0Z" fill="black"/>
<path d="M115.314 37.3715H111.2V41.4858H115.314V37.3715Z" fill="black"/>
<path d="M115.314 33.2572H111.2V37.3715H115.314V33.2572Z" fill="#EB8B8B"/>
<path d="M115.314 29.0571H111.2V33.1714H115.314V29.0571Z" fill="#EFA2A2"/>
<path d="M115.314 24.943H111.2V29.0572H115.314V24.943Z" fill="#F1AEAE"/>
<path d="M115.314 20.7428H111.2V24.8571H115.314V20.7428Z" fill="#F1AEAE"/>
<path d="M115.314 16.6285H111.2V20.7428H115.314V16.6285Z" fill="#F1AEAE"/>
<path d="M115.314 12.4285H111.2V16.5428H115.314V12.4285Z" fill="#F1AEAE"/>
<path d="M115.314 8.31424H111.2V12.4285H115.314V8.31424Z" fill="#F8CBC5"/>
<path d="M115.314 4.11432H111.2V8.2286H115.314V4.11432Z" fill="#EB8B8B"/>
<path d="M115.314 0H111.2V4.11429H115.314V0Z" fill="black"/>
<path d="M111.114 37.3715H107V41.4858H111.114V37.3715Z" fill="black"/>
<path d="M111.114 33.2572H107V37.3715H111.114V33.2572Z" fill="#EB8B8B"/>
<path d="M111.114 29.0571H107V33.1714H111.114V29.0571Z" fill="#EFA2A2"/>
<path d="M111.114 24.943H107V29.0572H111.114V24.943Z" fill="#F1AEAE"/>
<path d="M111.114 20.7428H107V24.8571H111.114V20.7428Z" fill="#F1AEAE"/>
<path d="M111.114 16.6285H107V20.7428H111.114V16.6285Z" fill="#F1AEAE"/>
<path d="M111.114 12.4285H107V16.5428H111.114V12.4285Z" fill="#F1AEAE"/>
<path d="M111.114 8.31424H107V12.4285H111.114V8.31424Z" fill="#F8CBC5"/>
<path d="M111.114 4.11432H107V8.2286H111.114V4.11432Z" fill="#EB8B8B"/>
<path d="M111.114 0H107V4.11429H111.114V0Z" fill="black"/>
<path d="M107 37.3715H102.886V41.4858H107V37.3715Z" fill="black"/>
<path d="M107 33.2572H102.886V37.3715H107V33.2572Z" fill="#EB8B8B"/>
<path d="M107 29.0571H102.886V33.1714H107V29.0571Z" fill="#EFA2A2"/>
<path d="M107 24.943H102.886V29.0572H107V24.943Z" fill="#F1AEAE"/>
<path d="M107 20.7428H102.886V24.8571H107V20.7428Z" fill="#F1AEAE"/>
<path d="M107 16.6285H102.886V20.7428H107V16.6285Z" fill="#F1AEAE"/>
<path d="M107 12.4285H102.886V16.5428H107V12.4285Z" fill="#F1AEAE"/>
<path d="M107 8.31424H102.886V12.4285H107V8.31424Z" fill="#F8CBC5"/>
<path d="M107 4.11432H102.886V8.2286H107V4.11432Z" fill="#EB8B8B"/>
<path d="M107 0H102.886V4.11429H107V0Z" fill="black"/>
<path d="M102.8 37.3715H98.6858V41.4858H102.8V37.3715Z" fill="black"/>
<path d="M102.8 33.2572H98.6858V37.3715H102.8V33.2572Z" fill="#EB8B8B"/>
<path d="M102.8 29.0571H98.6858V33.1714H102.8V29.0571Z" fill="#EFA2A2"/>
<path d="M102.8 24.943H98.6858V29.0572H102.8V24.943Z" fill="#F1AEAE"/>
<path d="M102.8 20.7428H98.6858V24.8571H102.8V20.7428Z" fill="#F1AEAE"/>
<path d="M102.8 16.6285H98.6858V20.7428H102.8V16.6285Z" fill="#F1AEAE"/>
<path d="M102.8 12.4285H98.6858V16.5428H102.8V12.4285Z" fill="#F1AEAE"/>
<path d="M102.8 8.31424H98.6858V12.4285H102.8V8.31424Z" fill="#F8CBC5"/>
<path d="M102.8 4.11432H98.6858V8.2286H102.8V4.11432Z" fill="#EB8B8B"/>
<path d="M102.8 0H98.6858V4.11429H102.8V0Z" fill="black"/>
<path d="M98.6858 37.3715H94.5715V41.4858H98.6858V37.3715Z" fill="black"/>
<path d="M98.6858 33.2572H94.5715V37.3715H98.6858V33.2572Z" fill="#EB8B8B"/>
<path d="M98.6858 29.0571H94.5715V33.1714H98.6858V29.0571Z" fill="#EFA2A2"/>
<path d="M98.6858 24.943H94.5715V29.0572H98.6858V24.943Z" fill="#F1AEAE"/>
<path d="M98.6858 20.7428H94.5715V24.8571H98.6858V20.7428Z" fill="#F1AEAE"/>
<path d="M98.6858 16.6285H94.5715V20.7428H98.6858V16.6285Z" fill="#F1AEAE"/>
<path d="M98.6858 12.4285H94.5715V16.5428H98.6858V12.4285Z" fill="#F1AEAE"/>
<path d="M98.6858 8.31424H94.5715V12.4285H98.6858V8.31424Z" fill="#F8CBC5"/>
<path d="M98.6858 4.11432H94.5715V8.2286H98.6858V4.11432Z" fill="#EB8B8B"/>
<path d="M98.6858 0H94.5715V4.11429H98.6858V0Z" fill="black"/>
<path d="M94.4856 37.3715H90.3713V41.4858H94.4856V37.3715Z" fill="black"/>
<path d="M94.4856 33.2572H90.3713V37.3715H94.4856V33.2572Z" fill="#EB8B8B"/>
<path d="M94.4856 29.0571H90.3713V33.1714H94.4856V29.0571Z" fill="#EFA2A2"/>
<path d="M94.4856 24.943H90.3713V29.0572H94.4856V24.943Z" fill="#F1AEAE"/>
<path d="M94.4856 20.7428H90.3713V24.8571H94.4856V20.7428Z" fill="#F1AEAE"/>
<path d="M94.4856 16.6285H90.3713V20.7428H94.4856V16.6285Z" fill="#F1AEAE"/>
<path d="M94.4856 12.4285H90.3713V16.5428H94.4856V12.4285Z" fill="#F1AEAE"/>
<path d="M94.4856 8.31424H90.3713V12.4285H94.4856V8.31424Z" fill="#F8CBC5"/>
<path d="M94.4856 4.11432H90.3713V8.2286H94.4856V4.11432Z" fill="#EB8B8B"/>
<path d="M94.4856 0H90.3713V4.11429H94.4856V0Z" fill="black"/>
<path d="M90.3714 37.3715H86.2571V41.4858H90.3714V37.3715Z" fill="black"/>
<path d="M90.3714 33.2572H86.2571V37.3715H90.3714V33.2572Z" fill="#EB8B8B"/>
<path d="M90.3714 29.0571H86.2571V33.1714H90.3714V29.0571Z" fill="#EFA2A2"/>
<path d="M90.3714 24.943H86.2571V29.0572H90.3714V24.943Z" fill="#F1AEAE"/>
<path d="M90.3714 20.7428H86.2571V24.8571H90.3714V20.7428Z" fill="#F1AEAE"/>
<path d="M90.3714 16.6285H86.2571V20.7428H90.3714V16.6285Z" fill="#F1AEAE"/>
<path d="M90.3714 12.4285H86.2571V16.5428H90.3714V12.4285Z" fill="#F1AEAE"/>
<path d="M90.3714 8.31424H86.2571V12.4285H90.3714V8.31424Z" fill="#F8CBC5"/>
<path d="M90.3714 4.11432H86.2571V8.2286H90.3714V4.11432Z" fill="#EB8B8B"/>
<path d="M90.3714 0H86.2571V4.11429H90.3714V0Z" fill="black"/>
<path d="M86.2571 37.3715H82.1428V41.4858H86.2571V37.3715Z" fill="black"/>
<path d="M86.2571 33.2572H82.1428V37.3715H86.2571V33.2572Z" fill="#EB8B8B"/>
<path d="M86.2571 29.0571H82.1428V33.1714H86.2571V29.0571Z" fill="#EFA2A2"/>
<path d="M86.2571 24.943H82.1428V29.0572H86.2571V24.943Z" fill="#F1AEAE"/>
<path d="M86.2571 20.7428H82.1428V24.8571H86.2571V20.7428Z" fill="#F1AEAE"/>
<path d="M86.2571 16.6285H82.1428V20.7428H86.2571V16.6285Z" fill="#F1AEAE"/>
<path d="M86.2571 12.4285H82.1428V16.5428H86.2571V12.4285Z" fill="#F1AEAE"/>
<path d="M86.2571 8.31424H82.1428V12.4285H86.2571V8.31424Z" fill="#F8CBC5"/>
<path d="M86.2571 4.11432H82.1428V8.2286H86.2571V4.11432Z" fill="#EB8B8B"/>
<path d="M86.2571 0H82.1428V4.11429H86.2571V0Z" fill="black"/>
<path d="M82.0572 37.3715H77.9429V41.4858H82.0572V37.3715Z" fill="black"/>
<path d="M82.0572 33.2572H77.9429V37.3715H82.0572V33.2572Z" fill="#EB8B8B"/>
<path d="M82.0572 29.0571H77.9429V33.1714H82.0572V29.0571Z" fill="#EFA2A2"/>
<path d="M82.0572 24.943H77.9429V29.0572H82.0572V24.943Z" fill="#F1AEAE"/>
<path d="M82.0572 20.7428H77.9429V24.8571H82.0572V20.7428Z" fill="#F1AEAE"/>
<path d="M82.0572 16.6285H77.9429V20.7428H82.0572V16.6285Z" fill="#F1AEAE"/>
<path d="M82.0572 12.4285H77.9429V16.5428H82.0572V12.4285Z" fill="#F1AEAE"/>
<path d="M82.0572 8.31424H77.9429V12.4285H82.0572V8.31424Z" fill="#F8CBC5"/>
<path d="M82.0572 4.11432H77.9429V8.2286H82.0572V4.11432Z" fill="#EB8B8B"/>
<path d="M82.0572 0H77.9429V4.11429H82.0572V0Z" fill="black"/>
<path d="M77.9429 37.3715H73.8286V41.4858H77.9429V37.3715Z" fill="black"/>
<path d="M77.9429 33.2572H73.8286V37.3715H77.9429V33.2572Z" fill="#EB8B8B"/>
<path d="M77.9429 29.0571H73.8286V33.1714H77.9429V29.0571Z" fill="#EFA2A2"/>
<path d="M77.9429 24.943H73.8286V29.0572H77.9429V24.943Z" fill="#F1AEAE"/>
<path d="M77.9429 20.7428H73.8286V24.8571H77.9429V20.7428Z" fill="#F1AEAE"/>
<path d="M77.9429 16.6285H73.8286V20.7428H77.9429V16.6285Z" fill="#F1AEAE"/>
<path d="M77.9429 12.4285H73.8286V16.5428H77.9429V12.4285Z" fill="#F1AEAE"/>
<path d="M77.9429 8.31424H73.8286V12.4285H77.9429V8.31424Z" fill="#F8CBC5"/>
<path d="M77.9429 4.11432H73.8286V8.2286H77.9429V4.11432Z" fill="#EB8B8B"/>
<path d="M77.9429 0H73.8286V4.11429H77.9429V0Z" fill="black"/>
<path d="M73.7429 37.3715H69.6287V41.4858H73.7429V37.3715Z" fill="black"/>
<path d="M73.7429 33.2572H69.6287V37.3715H73.7429V33.2572Z" fill="#EB8B8B"/>
<path d="M73.7429 29.0571H69.6287V33.1714H73.7429V29.0571Z" fill="#EFA2A2"/>
<path d="M73.7429 24.943H69.6287V29.0572H73.7429V24.943Z" fill="#F1AEAE"/>
<path d="M73.7429 20.7428H69.6287V24.8571H73.7429V20.7428Z" fill="#F1AEAE"/>
<path d="M73.7429 16.6285H69.6287V20.7428H73.7429V16.6285Z" fill="#F1AEAE"/>
<path d="M73.7429 12.4285H69.6287V16.5428H73.7429V12.4285Z" fill="#F1AEAE"/>
<path d="M73.7429 8.31424H69.6287V12.4285H73.7429V8.31424Z" fill="#F8CBC5"/>
<path d="M73.7429 4.11432H69.6287V8.2286H73.7429V4.11432Z" fill="#EB8B8B"/>
<path d="M73.7429 0H69.6287V4.11429H73.7429V0Z" fill="black"/>
<path d="M69.6287 37.3715H65.5144V41.4858H69.6287V37.3715Z" fill="black"/>
<path d="M69.6287 33.2572H65.5144V37.3715H69.6287V33.2572Z" fill="#EB8B8B"/>
<path d="M69.6287 29.0571H65.5144V33.1714H69.6287V29.0571Z" fill="#EFA2A2"/>
<path d="M69.6287 24.943H65.5144V29.0572H69.6287V24.943Z" fill="#F1AEAE"/>
<path d="M69.6287 20.7428H65.5144V24.8571H69.6287V20.7428Z" fill="#F1AEAE"/>
<path d="M69.6287 16.6285H65.5144V20.7428H69.6287V16.6285Z" fill="#F1AEAE"/>
<path d="M69.6287 12.4285H65.5144V16.5428H69.6287V12.4285Z" fill="#F1AEAE"/>
<path d="M69.6287 8.31424H65.5144V12.4285H69.6287V8.31424Z" fill="#F8CBC5"/>
<path d="M69.6287 4.11432H65.5144V8.2286H69.6287V4.11432Z" fill="#EB8B8B"/>
<path d="M69.6287 0H65.5144V4.11429H69.6287V0Z" fill="black"/>
<path d="M65.4285 37.3715H61.3142V41.4858H65.4285V37.3715Z" fill="black"/>
<path d="M65.4285 33.2572H61.3142V37.3715H65.4285V33.2572Z" fill="#EB8B8B"/>
<path d="M65.4285 29.0571H61.3142V33.1714H65.4285V29.0571Z" fill="#EB8B8B"/>
<path d="M65.4285 24.943H61.3142V29.0572H65.4285V24.943Z" fill="#EFA2A2"/>
<path d="M65.4285 20.7428H61.3142V24.8571H65.4285V20.7428Z" fill="#EFA2A2"/>
<path d="M65.4285 16.6285H61.3142V20.7428H65.4285V16.6285Z" fill="#EFA2A2"/>
<path d="M65.4285 12.4285H61.3142V16.5428H65.4285V12.4285Z" fill="#F8CBC5"/>
<path d="M65.4285 8.31424H61.3142V12.4285H65.4285V8.31424Z" fill="#EB8B8B"/>
<path d="M65.4285 4.11432H61.3142V8.2286H65.4285V4.11432Z" fill="#EB8B8B"/>
<path d="M65.4285 0H61.3142V4.11429H65.4285V0Z" fill="black"/>
<path d="M61.3143 33.2572H57.1143V37.3715H61.2285L61.3143 33.2572Z" fill="black"/>
<path d="M61.3143 29.0571H57.1143V33.1714H61.2285L61.3143 29.0571Z" fill="#EB8B8B"/>
<path d="M61.3143 24.943H57.1143V29.0572H61.2285L61.3143 24.943Z" fill="#EB8B8B"/>
<path d="M61.3143 20.7428H57.1143V24.8571H61.2285L61.3143 20.7428Z" fill="#EB8B8B"/>
<path d="M61.3143 16.6285H57.1143V20.7428H61.2285L61.3143 16.6285Z" fill="#EB8B8B"/>
<path d="M61.3143 12.4285H57.1143V16.5428H61.2285L61.3143 12.4285Z" fill="#EB8B8B"/>
<path d="M61.3143 8.31424H57.1143V12.4285H61.2285L61.3143 8.31424Z" fill="#EB8B8B"/>
<path d="M61.3143 4.11432H57.1143V8.2286H61.2285L61.3143 4.11432Z" fill="black"/>
<path d="M57.1143 29.0571H53V33.1714H57.1143V29.0571Z" fill="black"/>
<path d="M57.1143 24.943H53V29.0572H57.1143V24.943Z" fill="black"/>
<path d="M57.1143 20.7428H53V24.8571H57.1143V20.7428Z" fill="black"/>
<path d="M57.1143 16.6285H53V20.7428H57.1143V16.6285Z" fill="black"/>
<path d="M57.1143 12.4285H53V16.5428H57.1143V12.4285Z" fill="black"/>
<path d="M57.1143 8.31424H53V12.4285H57.1143V8.31424Z" fill="black"/>
<path d="M109.049 15.1111V16.6667H105.938V24.4444H109.049V26H104.383V15.1111H109.049ZM112.161 22.8889H110.605V18.2222H112.161V22.8889ZM110.605 18.2222H109.049V16.6667H110.605V18.2222ZM110.605 24.4444H109.049V22.8889H110.605V24.4444ZM115.276 24.4444H113.721V19.7778H115.276V24.4444ZM119.943 21.3333H118.387V19.7778H119.943V18.2222H121.498V26H119.943V24.4444H118.387V22.8889H119.943V21.3333ZM118.387 26H115.276V24.4444H118.387V26ZM118.387 19.7778H115.276V18.2222H118.387V19.7778ZM127.725 21.3333H126.17V19.7778H127.725V21.3333ZM129.281 19.7778H127.725V18.2222H129.281V19.7778ZM124.614 22.8889V26H123.059V18.2222H124.614V21.3333H126.17V22.8889H124.614ZM137.06 26H135.505V24.4444H137.06V26ZM132.393 22.8889V26H130.838V15.1111H132.393V21.3333H133.949V22.8889H132.393ZM135.505 21.3333H133.949V19.7778H135.505V21.3333ZM137.06 19.7778H135.505V18.2222H137.06V19.7778ZM135.505 24.4444H133.949V22.8889H135.505V24.4444Z" fill="black"/>
</g>
<path d="M198.058 14.0245L198.052 16.0245L200.052 16.0306L200.058 14.0306L198.058 14.0245ZM202.046 18.0367L202.052 16.0367L200.052 16.0306L200.046 18.0306L202.046 18.0367ZM204.04 20.0428L204.046 18.0429L202.046 18.0367L202.04 20.0367L204.04 20.0428ZM204.034 22.0428L206.034 22.049L206.04 20.049L204.04 20.0428L204.034 22.0428ZM202.027 24.0367L202.034 22.0367L204.034 22.0428L204.027 24.0428L202.027 24.0367ZM202.027 24.0367L200.027 24.0306L200.021 26.0306L202.021 26.0367L202.027 24.0367ZM198.015 28.0244L198.021 26.0244L200.021 26.0306L200.015 28.0306L198.015 28.0244Z" fill="black"/>
<path d="M190.058 14.0245L190.052 16.0245L192.052 16.0306L192.058 14.0306L190.058 14.0245ZM194.046 18.0367L194.052 16.0367L192.052 16.0306L192.046 18.0306L194.046 18.0367ZM196.04 20.0428L196.046 18.0429L194.046 18.0367L194.04 20.0367L196.04 20.0428ZM196.034 22.0428L198.034 22.049L198.04 20.049L196.04 20.0428L196.034 22.0428ZM194.027 24.0367L194.034 22.0367L196.034 22.0428L196.027 24.0428L194.027 24.0367ZM194.027 24.0367L192.027 24.0306L192.021 26.0306L194.021 26.0367L194.027 24.0367ZM190.015 28.0244L190.021 26.0244L192.021 26.0306L192.015 28.0306L190.015 28.0244Z" fill="black"/>
<path d="M40.2312 28.0965L40.2067 26.0966L38.2069 26.1211L38.2314 28.1209L40.2312 28.0965ZM36.1826 24.1457L36.207 26.1455L38.2069 26.1211L38.1824 24.1212L36.1826 24.1457ZM34.1582 22.1703L34.1827 24.1702L36.1826 24.1457L36.1581 22.1458L34.1582 22.1703ZM34.1338 20.1705L32.1339 20.1949L32.1584 22.1948L34.1582 22.1703L34.1338 20.1705ZM36.1092 18.1461L36.1336 20.146L34.1338 20.1705L34.1093 18.1706L36.1092 18.1461ZM36.1092 18.1461L38.109 18.1217L38.0845 16.1218L36.0847 16.1463L36.1092 18.1461ZM40.0599 14.0975L40.0844 16.0973L38.0845 16.1218L38.0601 14.122L40.0599 14.0975Z" fill="black"/>
<path d="M48.2312 28.0965L48.2067 26.0966L46.2069 26.1211L46.2314 28.1209L48.2312 28.0965ZM44.1826 24.1457L44.207 26.1455L46.2069 26.1211L46.1824 24.1212L44.1826 24.1457ZM42.1582 22.1703L42.1827 24.1702L44.1826 24.1457L44.1581 22.1458L42.1582 22.1703ZM42.1338 20.1705L40.1339 20.1949L40.1584 22.1948L42.1582 22.1703L42.1338 20.1705ZM44.1092 18.1461L44.1336 20.146L42.1338 20.1705L42.1093 18.1706L44.1092 18.1461ZM44.1092 18.1461L46.109 18.1217L46.0845 16.1218L44.0847 16.1463L44.1092 18.1461ZM48.0599 14.0975L48.0844 16.0973L46.0845 16.1218L46.0601 14.122L48.0599 14.0975Z" fill="black"/>
<defs>
<clipPath id="clip0_544_17642">
<rect width="132.857" height="42" fill="white" transform="translate(53)"/>
</clipPath>
</defs>
</svg>
