<svg width="155" height="49" viewBox="0 0 155 49" fill="none" xmlns="http://www.w3.org/2000/svg">
<g clip-path="url(#clip0_296_6589)">
<path d="M155 33.9H150.2V38.7H155V33.9Z" fill="black"/>
<path d="M155 29.1H150.2V33.9H155V29.1Z" fill="black"/>
<path d="M155 24.2H150.2V29H155V24.2Z" fill="black"/>
<path d="M155 19.4H150.2V24.2H155V19.4Z" fill="black"/>
<path d="M155 14.5H150.2V19.3H155V14.5Z" fill="black"/>
<path d="M155 9.7H150.2V14.5H155V9.7Z" fill="black"/>
<path d="M150.2 38.8H145.4V43.6H150.2V38.8Z" fill="black"/>
<path d="M150.2 33.9H145.4V38.7H150.2V33.9Z" fill="#EB8B8B"/>
<path d="M150.2 29.1H145.4V33.9H150.2V29.1Z" fill="#EB8B8B"/>
<path d="M150.2 24.2H145.4V29H150.2V24.2Z" fill="#EB8B8B"/>
<path d="M150.2 19.4H145.4V24.2H150.2V19.4Z" fill="#EB8B8B"/>
<path d="M150.2 14.5H145.4V19.3H150.2V14.5Z" fill="#EB8B8B"/>
<path d="M150.2 9.7H145.4V14.5H150.2V9.7Z" fill="#EB8B8B"/>
<path d="M150.2 4.8H145.4V9.6H150.2V4.8Z" fill="black"/>
<path d="M145.3 43.6H140.5V48.4H145.3V43.6Z" fill="black"/>
<path d="M145.3 38.8H140.5V43.6H145.3V38.8Z" fill="#EB8B8B"/>
<path d="M145.3 33.9H140.5V38.7H145.3V33.9Z" fill="#EB8B8B"/>
<path d="M145.3 29.1H140.5V33.9H145.3V29.1Z" fill="#EFA2A2"/>
<path d="M145.3 24.2H140.5V29H145.3V24.2Z" fill="#EFA2A2"/>
<path d="M145.3 19.4H140.5V24.2H145.3V19.4Z" fill="#EFA2A2"/>
<path d="M145.3 14.5H140.5V19.3H145.3V14.5Z" fill="#F8CBC5"/>
<path d="M145.3 9.7H140.5V14.5H145.3V9.7Z" fill="#EB8B8B"/>
<path d="M145.3 4.8H140.5V9.6H145.3V4.8Z" fill="#EB8B8B"/>
<path d="M145.3 0H140.5V4.8H145.3V0Z" fill="black"/>
<path d="M140.5 43.6H135.7V48.4H140.5V43.6Z" fill="black"/>
<path d="M140.5 38.8H135.7V43.6H140.5V38.8Z" fill="#EB8B8B"/>
<path d="M140.5 33.9H135.7V38.7H140.5V33.9Z" fill="#EFA2A2"/>
<path d="M140.5 29.1H135.7V33.9H140.5V29.1Z" fill="#F1AEAE"/>
<path d="M140.5 24.2H135.7V29H140.5V24.2Z" fill="#F1AEAE"/>
<path d="M140.5 19.4H135.7V24.2H140.5V19.4Z" fill="#F1AEAE"/>
<path d="M140.5 14.5H135.7V19.3H140.5V14.5Z" fill="#F1AEAE"/>
<path d="M140.5 9.7H135.7V14.5H140.5V9.7Z" fill="#F8CBC5"/>
<path d="M140.5 4.8H135.7V9.6H140.5V4.8Z" fill="#EB8B8B"/>
<path d="M140.5 0H135.7V4.8H140.5V0Z" fill="black"/>
<path d="M135.6 43.6H130.8V48.4H135.6V43.6Z" fill="black"/>
<path d="M135.6 38.8H130.8V43.6H135.6V38.8Z" fill="#EB8B8B"/>
<path d="M135.6 33.9H130.8V38.7H135.6V33.9Z" fill="#EFA2A2"/>
<path d="M135.6 29.1H130.8V33.9H135.6V29.1Z" fill="#F1AEAE"/>
<path d="M135.6 24.2H130.8V29H135.6V24.2Z" fill="#F1AEAE"/>
<path d="M135.6 19.4H130.8V24.2H135.6V19.4Z" fill="#F1AEAE"/>
<path d="M135.6 14.5H130.8V19.3H135.6V14.5Z" fill="#F1AEAE"/>
<path d="M135.6 9.7H130.8V14.5H135.6V9.7Z" fill="#F8CBC5"/>
<path d="M135.6 4.8H130.8V9.6H135.6V4.8Z" fill="#EB8B8B"/>
<path d="M135.6 0H130.8V4.8H135.6V0Z" fill="black"/>
<path d="M130.8 43.6H126V48.4H130.8V43.6Z" fill="black"/>
<path d="M130.8 38.8H126V43.6H130.8V38.8Z" fill="#EB8B8B"/>
<path d="M130.8 33.9H126V38.7H130.8V33.9Z" fill="#EFA2A2"/>
<path d="M130.8 29.1H126V33.9H130.8V29.1Z" fill="#F1AEAE"/>
<path d="M130.8 24.2H126V29H130.8V24.2Z" fill="#F1AEAE"/>
<path d="M130.8 19.4H126V24.2H130.8V19.4Z" fill="#F1AEAE"/>
<path d="M130.8 14.5H126V19.3H130.8V14.5Z" fill="#F1AEAE"/>
<path d="M130.8 9.7H126V14.5H130.8V9.7Z" fill="#F8CBC5"/>
<path d="M130.8 4.8H126V9.6H130.8V4.8Z" fill="#EB8B8B"/>
<path d="M130.8 0H126V4.8H130.8V0Z" fill="black"/>
<path d="M125.9 43.6H121.1V48.4H125.9V43.6Z" fill="black"/>
<path d="M125.9 38.8H121.1V43.6H125.9V38.8Z" fill="#EB8B8B"/>
<path d="M125.9 33.9H121.1V38.7H125.9V33.9Z" fill="#EFA2A2"/>
<path d="M125.9 29.1H121.1V33.9H125.9V29.1Z" fill="#F1AEAE"/>
<path d="M125.9 24.2H121.1V29H125.9V24.2Z" fill="#F1AEAE"/>
<path d="M125.9 19.4H121.1V24.2H125.9V19.4Z" fill="#F1AEAE"/>
<path d="M125.9 14.5H121.1V19.3H125.9V14.5Z" fill="#F1AEAE"/>
<path d="M125.9 9.7H121.1V14.5H125.9V9.7Z" fill="#F8CBC5"/>
<path d="M125.9 4.8H121.1V9.6H125.9V4.8Z" fill="#EB8B8B"/>
<path d="M125.9 0H121.1V4.8H125.9V0Z" fill="black"/>
<path d="M121.1 43.6H116.3V48.4H121.1V43.6Z" fill="black"/>
<path d="M121.1 38.8H116.3V43.6H121.1V38.8Z" fill="#EB8B8B"/>
<path d="M121.1 33.9H116.3V38.7H121.1V33.9Z" fill="#EFA2A2"/>
<path d="M121.1 29.1H116.3V33.9H121.1V29.1Z" fill="#F1AEAE"/>
<path d="M121.1 24.2H116.3V29H121.1V24.2Z" fill="#F1AEAE"/>
<path d="M121.1 19.4H116.3V24.2H121.1V19.4Z" fill="#F1AEAE"/>
<path d="M121.1 14.5H116.3V19.3H121.1V14.5Z" fill="#F1AEAE"/>
<path d="M121.1 9.7H116.3V14.5H121.1V9.7Z" fill="#F8CBC5"/>
<path d="M121.1 4.8H116.3V9.6H121.1V4.8Z" fill="#EB8B8B"/>
<path d="M121.1 0H116.3V4.8H121.1V0Z" fill="black"/>
<path d="M116.2 43.6H111.4V48.4H116.2V43.6Z" fill="black"/>
<path d="M116.2 38.8H111.4V43.6H116.2V38.8Z" fill="#EB8B8B"/>
<path d="M116.2 33.9H111.4V38.7H116.2V33.9Z" fill="#EFA2A2"/>
<path d="M116.2 29.1H111.4V33.9H116.2V29.1Z" fill="#F1AEAE"/>
<path d="M116.2 24.2H111.4V29H116.2V24.2Z" fill="#F1AEAE"/>
<path d="M116.2 19.4H111.4V24.2H116.2V19.4Z" fill="#F1AEAE"/>
<path d="M116.2 14.5H111.4V19.3H116.2V14.5Z" fill="#F1AEAE"/>
<path d="M116.2 9.7H111.4V14.5H116.2V9.7Z" fill="#F8CBC5"/>
<path d="M116.2 4.8H111.4V9.6H116.2V4.8Z" fill="#EB8B8B"/>
<path d="M116.2 0H111.4V4.8H116.2V0Z" fill="black"/>
<path d="M111.4 43.6H106.6V48.4H111.4V43.6Z" fill="black"/>
<path d="M111.4 38.8H106.6V43.6H111.4V38.8Z" fill="#EB8B8B"/>
<path d="M111.4 33.9H106.6V38.7H111.4V33.9Z" fill="#EFA2A2"/>
<path d="M111.4 29.1H106.6V33.9H111.4V29.1Z" fill="#F1AEAE"/>
<path d="M111.4 24.2H106.6V29H111.4V24.2Z" fill="#F1AEAE"/>
<path d="M111.4 19.4H106.6V24.2H111.4V19.4Z" fill="#F1AEAE"/>
<path d="M111.4 14.5H106.6V19.3H111.4V14.5Z" fill="#F1AEAE"/>
<path d="M111.4 9.7H106.6V14.5H111.4V9.7Z" fill="#F8CBC5"/>
<path d="M111.4 4.8H106.6V9.6H111.4V4.8Z" fill="#EB8B8B"/>
<path d="M111.4 0H106.6V4.8H111.4V0Z" fill="black"/>
<path d="M106.6 43.6H101.8V48.4H106.6V43.6Z" fill="black"/>
<path d="M106.6 38.8H101.8V43.6H106.6V38.8Z" fill="#EB8B8B"/>
<path d="M106.6 33.9H101.8V38.7H106.6V33.9Z" fill="#EFA2A2"/>
<path d="M106.6 29.1H101.8V33.9H106.6V29.1Z" fill="#F1AEAE"/>
<path d="M106.6 24.2H101.8V29H106.6V24.2Z" fill="#F1AEAE"/>
<path d="M106.6 19.4H101.8V24.2H106.6V19.4Z" fill="#F1AEAE"/>
<path d="M106.6 14.5H101.8V19.3H106.6V14.5Z" fill="#F1AEAE"/>
<path d="M106.6 9.7H101.8V14.5H106.6V9.7Z" fill="#F8CBC5"/>
<path d="M106.6 4.8H101.8V9.6H106.6V4.8Z" fill="#EB8B8B"/>
<path d="M106.6 0H101.8V4.8H106.6V0Z" fill="black"/>
<path d="M101.7 43.6H96.9V48.4H101.7V43.6Z" fill="black"/>
<path d="M101.7 38.8H96.9V43.6H101.7V38.8Z" fill="#EB8B8B"/>
<path d="M101.7 33.9H96.9V38.7H101.7V33.9Z" fill="#EFA2A2"/>
<path d="M101.7 29.1H96.9V33.9H101.7V29.1Z" fill="#F1AEAE"/>
<path d="M101.7 24.2H96.9V29H101.7V24.2Z" fill="#F1AEAE"/>
<path d="M101.7 19.4H96.9V24.2H101.7V19.4Z" fill="#F1AEAE"/>
<path d="M101.7 14.5H96.9V19.3H101.7V14.5Z" fill="#F1AEAE"/>
<path d="M101.7 9.7H96.9V14.5H101.7V9.7Z" fill="#F8CBC5"/>
<path d="M101.7 4.8H96.9V9.6H101.7V4.8Z" fill="#EB8B8B"/>
<path d="M101.7 0H96.9V4.8H101.7V0Z" fill="black"/>
<path d="M96.9 43.6H92V48.4H96.8L96.9 43.6Z" fill="black"/>
<path d="M96.9 38.8H92V43.6H96.8L96.9 38.8Z" fill="#EB8B8B"/>
<path d="M96.9 33.9H92V38.7H96.8L96.9 33.9Z" fill="#EFA2A2"/>
<path d="M96.9 29.1H92V33.9H96.8L96.9 29.1Z" fill="#F1AEAE"/>
<path d="M96.9 24.2H92V29H96.8L96.9 24.2Z" fill="#F1AEAE"/>
<path d="M96.9 19.4H92V24.2H96.8L96.9 19.4Z" fill="#F1AEAE"/>
<path d="M96.9 14.5H92V19.3H96.8L96.9 14.5Z" fill="#F1AEAE"/>
<path d="M96.9 9.7H92V14.5H96.8L96.9 9.7Z" fill="#F8CBC5"/>
<path d="M96.9 4.8H92V9.6H96.8L96.9 4.8Z" fill="#EB8B8B"/>
<path d="M96.9 0H92V4.8H96.8L96.9 0Z" fill="black"/>
<path d="M92 43.6H87.2V48.4H92V43.6Z" fill="black"/>
<path d="M92 38.8H87.2V43.6H92V38.8Z" fill="#EB8B8B"/>
<path d="M92 33.9H87.2V38.7H92V33.9Z" fill="#EFA2A2"/>
<path d="M92 29.1H87.2V33.9H92V29.1Z" fill="#F1AEAE"/>
<path d="M92 24.2H87.2V29H92V24.2Z" fill="#F1AEAE"/>
<path d="M92 19.4H87.2V24.2H92V19.4Z" fill="#F1AEAE"/>
<path d="M92 14.5H87.2V19.3H92V14.5Z" fill="#F1AEAE"/>
<path d="M92 9.7H87.2V14.5H92V9.7Z" fill="#F8CBC5"/>
<path d="M92 4.8H87.2V9.6H92V4.8Z" fill="#EB8B8B"/>
<path d="M92 0H87.2V4.8H92V0Z" fill="black"/>
<path d="M87.2 43.6H82.4V48.4H87.2V43.6Z" fill="black"/>
<path d="M87.2 38.8H82.4V43.6H87.2V38.8Z" fill="#EB8B8B"/>
<path d="M87.2 33.9H82.4V38.7H87.2V33.9Z" fill="#EFA2A2"/>
<path d="M87.2 29.1H82.4V33.9H87.2V29.1Z" fill="#F1AEAE"/>
<path d="M87.2 24.2H82.4V29H87.2V24.2Z" fill="#F1AEAE"/>
<path d="M87.2 19.4H82.4V24.2H87.2V19.4Z" fill="#F1AEAE"/>
<path d="M87.2 14.5H82.4V19.3H87.2V14.5Z" fill="#F1AEAE"/>
<path d="M87.2 9.7H82.4V14.5H87.2V9.7Z" fill="#F8CBC5"/>
<path d="M87.2 4.8H82.4V9.6H87.2V4.8Z" fill="#EB8B8B"/>
<path d="M87.2 0H82.4V4.8H87.2V0Z" fill="black"/>
<path d="M82.3 43.6H77.5V48.4H82.3V43.6Z" fill="black"/>
<path d="M82.3 38.8H77.5V43.6H82.3V38.8Z" fill="#EB8B8B"/>
<path d="M82.3 33.9H77.5V38.7H82.3V33.9Z" fill="#EFA2A2"/>
<path d="M82.3 29.1H77.5V33.9H82.3V29.1Z" fill="#F1AEAE"/>
<path d="M82.3 24.2H77.5V29H82.3V24.2Z" fill="#F1AEAE"/>
<path d="M82.3 19.4H77.5V24.2H82.3V19.4Z" fill="#F1AEAE"/>
<path d="M82.3 14.5H77.5V19.3H82.3V14.5Z" fill="#F1AEAE"/>
<path d="M82.3 9.7H77.5V14.5H82.3V9.7Z" fill="#F8CBC5"/>
<path d="M82.3 4.8H77.5V9.6H82.3V4.8Z" fill="#EB8B8B"/>
<path d="M82.3 0H77.5V4.8H82.3V0Z" fill="black"/>
<path d="M77.5 43.6H72.7V48.4H77.5V43.6Z" fill="black"/>
<path d="M77.5 38.8H72.7V43.6H77.5V38.8Z" fill="#EB8B8B"/>
<path d="M77.5 33.9H72.7V38.7H77.5V33.9Z" fill="#EFA2A2"/>
<path d="M77.5 29.1H72.7V33.9H77.5V29.1Z" fill="#F1AEAE"/>
<path d="M77.5 24.2H72.7V29H77.5V24.2Z" fill="#F1AEAE"/>
<path d="M77.5 19.4H72.7V24.2H77.5V19.4Z" fill="#F1AEAE"/>
<path d="M77.5 14.5H72.7V19.3H77.5V14.5Z" fill="#F1AEAE"/>
<path d="M77.5 9.7H72.7V14.5H77.5V9.7Z" fill="#F8CBC5"/>
<path d="M77.5 4.8H72.7V9.6H77.5V4.8Z" fill="#EB8B8B"/>
<path d="M77.5 0H72.7V4.8H77.5V0Z" fill="black"/>
<path d="M72.7 43.6H67.9V48.4H72.7V43.6Z" fill="black"/>
<path d="M72.7 38.8H67.9V43.6H72.7V38.8Z" fill="#EB8B8B"/>
<path d="M72.7 33.9H67.9V38.7H72.7V33.9Z" fill="#EFA2A2"/>
<path d="M72.7 29.1H67.9V33.9H72.7V29.1Z" fill="#F1AEAE"/>
<path d="M72.7 24.2H67.9V29H72.7V24.2Z" fill="#F1AEAE"/>
<path d="M72.7 19.4H67.9V24.2H72.7V19.4Z" fill="#F1AEAE"/>
<path d="M72.7 14.5H67.9V19.3H72.7V14.5Z" fill="#F1AEAE"/>
<path d="M72.7 9.7H67.9V14.5H72.7V9.7Z" fill="#F8CBC5"/>
<path d="M72.7 4.8H67.9V9.6H72.7V4.8Z" fill="#EB8B8B"/>
<path d="M72.7 0H67.9V4.8H72.7V0Z" fill="black"/>
<path d="M67.8 43.6H63V48.4H67.8V43.6Z" fill="black"/>
<path d="M67.8 38.8H63V43.6H67.8V38.8Z" fill="#EB8B8B"/>
<path d="M67.8 33.9H63V38.7H67.8V33.9Z" fill="#EFA2A2"/>
<path d="M67.8 29.1H63V33.9H67.8V29.1Z" fill="#F1AEAE"/>
<path d="M67.8 24.2H63V29H67.8V24.2Z" fill="#F1AEAE"/>
<path d="M67.8 19.4H63V24.2H67.8V19.4Z" fill="#F1AEAE"/>
<path d="M67.8 14.5H63V19.3H67.8V14.5Z" fill="#F1AEAE"/>
<path d="M67.8 9.7H63V14.5H67.8V9.7Z" fill="#F8CBC5"/>
<path d="M67.8 4.8H63V9.6H67.8V4.8Z" fill="#EB8B8B"/>
<path d="M67.8 0H63V4.8H67.8V0Z" fill="black"/>
<path d="M63 43.6H58.2V48.4H63V43.6Z" fill="black"/>
<path d="M63 38.8H58.2V43.6H63V38.8Z" fill="#EB8B8B"/>
<path d="M63 33.9H58.2V38.7H63V33.9Z" fill="#EFA2A2"/>
<path d="M63 29.1H58.2V33.9H63V29.1Z" fill="#F1AEAE"/>
<path d="M63 24.2H58.2V29H63V24.2Z" fill="#F1AEAE"/>
<path d="M63 19.4H58.2V24.2H63V19.4Z" fill="#F1AEAE"/>
<path d="M63 14.5H58.2V19.3H63V14.5Z" fill="#F1AEAE"/>
<path d="M63 9.7H58.2V14.5H63V9.7Z" fill="#F8CBC5"/>
<path d="M63 4.8H58.2V9.6H63V4.8Z" fill="#EB8B8B"/>
<path d="M63 0H58.2V4.8H63V0Z" fill="black"/>
<path d="M58.1 43.6H53.3V48.4H58.1V43.6Z" fill="black"/>
<path d="M58.1 38.8H53.3V43.6H58.1V38.8Z" fill="#EB8B8B"/>
<path d="M58.1 33.9H53.3V38.7H58.1V33.9Z" fill="#EFA2A2"/>
<path d="M58.1 29.1H53.3V33.9H58.1V29.1Z" fill="#F1AEAE"/>
<path d="M58.1 24.2H53.3V29H58.1V24.2Z" fill="#F1AEAE"/>
<path d="M58.1 19.4H53.3V24.2H58.1V19.4Z" fill="#F1AEAE"/>
<path d="M58.1 14.5H53.3V19.3H58.1V14.5Z" fill="#F1AEAE"/>
<path d="M58.1 9.7H53.3V14.5H58.1V9.7Z" fill="#F8CBC5"/>
<path d="M58.1 4.8H53.3V9.6H58.1V4.8Z" fill="#EB8B8B"/>
<path d="M58.1 0H53.3V4.8H58.1V0Z" fill="black"/>
<path d="M53.3 43.6H48.5V48.4H53.3V43.6Z" fill="black"/>
<path d="M53.3 38.8H48.5V43.6H53.3V38.8Z" fill="#EB8B8B"/>
<path d="M53.3 33.9H48.5V38.7H53.3V33.9Z" fill="#EFA2A2"/>
<path d="M53.3 29.1H48.5V33.9H53.3V29.1Z" fill="#F1AEAE"/>
<path d="M53.3 24.2H48.5V29H53.3V24.2Z" fill="#F1AEAE"/>
<path d="M53.3 19.4H48.5V24.2H53.3V19.4Z" fill="#F1AEAE"/>
<path d="M53.3 14.5H48.5V19.3H53.3V14.5Z" fill="#F1AEAE"/>
<path d="M53.3 9.7H48.5V14.5H53.3V9.7Z" fill="#F8CBC5"/>
<path d="M53.3 4.8H48.5V9.6H53.3V4.8Z" fill="#EB8B8B"/>
<path d="M53.3 0H48.5V4.8H53.3V0Z" fill="black"/>
<path d="M48.4 43.6H43.6V48.4H48.4V43.6Z" fill="black"/>
<path d="M48.4 38.8H43.6V43.6H48.4V38.8Z" fill="#EB8B8B"/>
<path d="M48.4 33.9H43.6V38.7H48.4V33.9Z" fill="#EFA2A2"/>
<path d="M48.4 29.1H43.6V33.9H48.4V29.1Z" fill="#F1AEAE"/>
<path d="M48.4 24.2H43.6V29H48.4V24.2Z" fill="#F1AEAE"/>
<path d="M48.4 19.4H43.6V24.2H48.4V19.4Z" fill="#F1AEAE"/>
<path d="M48.4 14.5H43.6V19.3H48.4V14.5Z" fill="#F1AEAE"/>
<path d="M48.4 9.7H43.6V14.5H48.4V9.7Z" fill="#F8CBC5"/>
<path d="M48.4 4.8H43.6V9.6H48.4V4.8Z" fill="#EB8B8B"/>
<path d="M48.4 0H43.6V4.8H48.4V0Z" fill="black"/>
<path d="M43.6 43.6H38.8V48.4H43.6V43.6Z" fill="black"/>
<path d="M43.6 38.8H38.8V43.6H43.6V38.8Z" fill="#EB8B8B"/>
<path d="M43.6 33.9H38.8V38.7H43.6V33.9Z" fill="#EFA2A2"/>
<path d="M43.6 29.1H38.8V33.9H43.6V29.1Z" fill="#F1AEAE"/>
<path d="M43.6 24.2H38.8V29H43.6V24.2Z" fill="#F1AEAE"/>
<path d="M43.6 19.4H38.8V24.2H43.6V19.4Z" fill="#F1AEAE"/>
<path d="M43.6 14.5H38.8V19.3H43.6V14.5Z" fill="#F1AEAE"/>
<path d="M43.6 9.7H38.8V14.5H43.6V9.7Z" fill="#F8CBC5"/>
<path d="M43.6 4.8H38.8V9.6H43.6V4.8Z" fill="#EB8B8B"/>
<path d="M43.6 0H38.8V4.8H43.6V0Z" fill="black"/>
<path d="M38.8 43.6H34V48.4H38.8V43.6Z" fill="black"/>
<path d="M38.8 38.8H34V43.6H38.8V38.8Z" fill="#EB8B8B"/>
<path d="M38.8 33.9H34V38.7H38.8V33.9Z" fill="#EFA2A2"/>
<path d="M38.8 29.1H34V33.9H38.8V29.1Z" fill="#F1AEAE"/>
<path d="M38.8 24.2H34V29H38.8V24.2Z" fill="#F1AEAE"/>
<path d="M38.8 19.4H34V24.2H38.8V19.4Z" fill="#F1AEAE"/>
<path d="M38.8 14.5H34V19.3H38.8V14.5Z" fill="#F1AEAE"/>
<path d="M38.8 9.7H34V14.5H38.8V9.7Z" fill="#F8CBC5"/>
<path d="M38.8 4.8H34V9.6H38.8V4.8Z" fill="#EB8B8B"/>
<path d="M38.8 0H34V4.8H38.8V0Z" fill="black"/>
<path d="M33.9 43.6H29.1V48.4H33.9V43.6Z" fill="black"/>
<path d="M33.9 38.8H29.1V43.6H33.9V38.8Z" fill="#EB8B8B"/>
<path d="M33.9 33.9H29.1V38.7H33.9V33.9Z" fill="#EFA2A2"/>
<path d="M33.9 29.1H29.1V33.9H33.9V29.1Z" fill="#F1AEAE"/>
<path d="M33.9 24.2H29.1V29H33.9V24.2Z" fill="#F1AEAE"/>
<path d="M33.9 19.4H29.1V24.2H33.9V19.4Z" fill="#F1AEAE"/>
<path d="M33.9 14.5H29.1V19.3H33.9V14.5Z" fill="#F1AEAE"/>
<path d="M33.9 9.7H29.1V14.5H33.9V9.7Z" fill="#F8CBC5"/>
<path d="M33.9 4.8H29.1V9.6H33.9V4.8Z" fill="#EB8B8B"/>
<path d="M33.9 0H29.1V4.8H33.9V0Z" fill="black"/>
<path d="M29.1 43.6H24.3V48.4H29.1V43.6Z" fill="black"/>
<path d="M29.1 38.8H24.3V43.6H29.1V38.8Z" fill="#EB8B8B"/>
<path d="M29.1 33.9H24.3V38.7H29.1V33.9Z" fill="#EFA2A2"/>
<path d="M29.1 29.1H24.3V33.9H29.1V29.1Z" fill="#F1AEAE"/>
<path d="M29.1 24.2H24.3V29H29.1V24.2Z" fill="#F1AEAE"/>
<path d="M29.1 19.4H24.3V24.2H29.1V19.4Z" fill="#F1AEAE"/>
<path d="M29.1 14.5H24.3V19.3H29.1V14.5Z" fill="#F1AEAE"/>
<path d="M29.1 9.7H24.3V14.5H29.1V9.7Z" fill="#F8CBC5"/>
<path d="M29.1 4.8H24.3V9.6H29.1V4.8Z" fill="#EB8B8B"/>
<path d="M29.1 0H24.3V4.8H29.1V0Z" fill="black"/>
<path d="M24.2 43.6H19.4V48.4H24.2V43.6Z" fill="black"/>
<path d="M24.2 38.8H19.4V43.6H24.2V38.8Z" fill="#EB8B8B"/>
<path d="M24.2 33.9H19.4V38.7H24.2V33.9Z" fill="#EFA2A2"/>
<path d="M24.2 29.1H19.4V33.9H24.2V29.1Z" fill="#F1AEAE"/>
<path d="M24.2 24.2H19.4V29H24.2V24.2Z" fill="#F1AEAE"/>
<path d="M24.2 19.4H19.4V24.2H24.2V19.4Z" fill="#F1AEAE"/>
<path d="M24.2 14.5H19.4V19.3H24.2V14.5Z" fill="#F1AEAE"/>
<path d="M24.2 9.7H19.4V14.5H24.2V9.7Z" fill="#F8CBC5"/>
<path d="M24.2 4.8H19.4V9.6H24.2V4.8Z" fill="#EB8B8B"/>
<path d="M24.2 0H19.4V4.8H24.2V0Z" fill="black"/>
<path d="M19.4 43.6H14.6V48.4H19.4V43.6Z" fill="black"/>
<path d="M19.4 38.8H14.6V43.6H19.4V38.8Z" fill="#EB8B8B"/>
<path d="M19.4 33.9H14.6V38.7H19.4V33.9Z" fill="#EFA2A2"/>
<path d="M19.4 29.1H14.6V33.9H19.4V29.1Z" fill="#F1AEAE"/>
<path d="M19.4 24.2H14.6V29H19.4V24.2Z" fill="#F1AEAE"/>
<path d="M19.4 19.4H14.6V24.2H19.4V19.4Z" fill="#F1AEAE"/>
<path d="M19.4 14.5H14.6V19.3H19.4V14.5Z" fill="#F1AEAE"/>
<path d="M19.4 9.7H14.6V14.5H19.4V9.7Z" fill="#F8CBC5"/>
<path d="M19.4 4.8H14.6V9.6H19.4V4.8Z" fill="#EB8B8B"/>
<path d="M19.4 0H14.6V4.8H19.4V0Z" fill="black"/>
<path d="M14.5 43.6H9.69995V48.4H14.5V43.6Z" fill="black"/>
<path d="M14.5 38.8H9.69995V43.6H14.5V38.8Z" fill="#EB8B8B"/>
<path d="M14.5 33.9H9.69995V38.7H14.5V33.9Z" fill="#EB8B8B"/>
<path d="M14.5 29.1H9.69995V33.9H14.5V29.1Z" fill="#EFA2A2"/>
<path d="M14.5 24.2H9.69995V29H14.5V24.2Z" fill="#EFA2A2"/>
<path d="M14.5 19.4H9.69995V24.2H14.5V19.4Z" fill="#EFA2A2"/>
<path d="M14.5 14.5H9.69995V19.3H14.5V14.5Z" fill="#F8CBC5"/>
<path d="M14.5 9.7H9.69995V14.5H14.5V9.7Z" fill="#EB8B8B"/>
<path d="M14.5 4.8H9.69995V9.6H14.5V4.8Z" fill="#EB8B8B"/>
<path d="M14.5 0H9.69995V4.8H14.5V0Z" fill="black"/>
<path d="M9.70005 38.8H4.80005V43.6H9.60005L9.70005 38.8Z" fill="black"/>
<path d="M9.70005 33.9H4.80005V38.7H9.60005L9.70005 33.9Z" fill="#EB8B8B"/>
<path d="M9.70005 29.1H4.80005V33.9H9.60005L9.70005 29.1Z" fill="#EB8B8B"/>
<path d="M9.70005 24.2H4.80005V29H9.60005L9.70005 24.2Z" fill="#EB8B8B"/>
<path d="M9.70005 19.4H4.80005V24.2H9.60005L9.70005 19.4Z" fill="#EB8B8B"/>
<path d="M9.70005 14.5H4.80005V19.3H9.60005L9.70005 14.5Z" fill="#EB8B8B"/>
<path d="M9.70005 9.7H4.80005V14.5H9.60005L9.70005 9.7Z" fill="#EB8B8B"/>
<path d="M9.70005 4.8H4.80005V9.6H9.60005L9.70005 4.8Z" fill="black"/>
<path d="M4.8 33.9H0V38.7H4.8V33.9Z" fill="black"/>
<path d="M4.8 29.1H0V33.9H4.8V29.1Z" fill="black"/>
<path d="M4.8 24.2H0V29H4.8V24.2Z" fill="black"/>
<path d="M4.8 19.4H0V24.2H4.8V19.4Z" fill="black"/>
<path d="M4.8 14.5H0V19.3H4.8V14.5Z" fill="black"/>
<path d="M4.8 9.7H0V14.5H4.8V9.7Z" fill="black"/>
</g>
<path d="M57.2356 29.2222H55.4578V27.4444H57.2356V29.2222ZM62.5689 31H57.2356V29.2222H62.5689V31ZM64.3467 29.2222H62.5689V25.6667H64.3467V29.2222ZM62.5689 20.3333H57.2356V18.5556H62.5689V20.3333ZM64.3467 22.1111H62.5689V20.3333H64.3467V22.1111ZM57.2356 23.8889H55.4578V20.3333H57.2356V23.8889ZM62.5689 25.6667H57.2356V23.8889H62.5689V25.6667ZM73.2408 23.8889H67.9074V22.1111H73.2408V23.8889ZM67.9074 27.4444V29.2222H66.1297V23.8889H67.9074V25.6667H73.2408V23.8889H75.0185V27.4444H67.9074ZM75.0185 31H67.9074V29.2222H75.0185V31ZM80.3571 22.1111H82.1349V23.8889H80.3571V29.2222H82.1349V31H78.5793V23.8889H76.8015V22.1111H78.5793V18.5556H80.3571V22.1111ZM87.4665 22.1111H89.2442V23.8889H87.4665V29.2222H89.2442V31H85.6887V23.8889H83.9109V22.1111H85.6887V18.5556H87.4665V22.1111ZM92.7981 31H91.0203V22.1111H92.7981V31ZM92.7981 20.3333H91.0203V18.5556H92.7981V20.3333ZM96.3606 25.6667V31H94.5828V22.1111H96.3606V23.8889H98.1383V25.6667H96.3606ZM103.472 31H101.694V23.8889H103.472V31ZM101.694 23.8889H98.1383V22.1111H101.694V23.8889ZM107.032 29.2222H105.255V23.8889H107.032V29.2222ZM112.366 29.2222H110.588V27.4444H112.366V25.6667H110.588V23.8889H112.366V22.1111H114.144V32.7778H112.366V29.2222ZM110.588 23.8889H107.032V22.1111H110.588V23.8889ZM110.588 31H107.032V29.2222H110.588V31ZM112.366 34.5556H107.032V32.7778H112.366V34.5556ZM123.038 31H115.927V29.2222H123.038V31ZM124.815 29.2222H123.038V27.4444H124.815V29.2222ZM123.038 27.4444H117.704V25.6667H123.038V27.4444ZM117.704 25.6667H115.927V23.8889H117.704V25.6667ZM124.815 23.8889H117.704V22.1111H124.815V23.8889Z" fill="black"/>
<g clip-path="url(#clip1_296_6589)">
<path d="M48.6838 20.1278V20.9512H49.5127V21.78H48.6838V22.6034H50.3361V20.1278H48.6838Z" fill="black"/>
<path d="M49.5127 23.4268H48.6838V24.2557H49.5127V23.4268Z" fill="black"/>
<path d="M49.5127 18.4756H48.6838V19.299H49.5127V18.4756Z" fill="black"/>
<path d="M48.683 24.2556H47.8596V25.079H48.683V24.2556Z" fill="black"/>
<path d="M48.683 22.6034H47.8596V23.4268H48.683V22.6034Z" fill="black"/>
<path d="M48.683 19.299H47.8596V20.1278H48.683V19.299Z" fill="black"/>
<path d="M48.683 17.6522H47.8596V18.4756H48.683V17.6522Z" fill="black"/>
<path d="M47.8599 25.0791H47.0365V25.9025H47.8599V25.0791Z" fill="black"/>
<path d="M47.8599 16.8233H47.0365V17.6521H47.8599V16.8233Z" fill="black"/>
<path d="M47.0366 24.2556H46.2078V25.079H47.0366V24.2556Z" fill="black"/>
<path d="M47.0366 17.6522H46.2078V18.4756H47.0366V17.6522Z" fill="black"/>
<path d="M43.7317 15.9999V17.6521H44.5605V16.8233H45.3839V17.6521H46.2073V15.9999H43.7317Z" fill="black"/>
<path d="M45.3849 30.0302H44.5615V30.859H45.3849V30.0302Z" fill="black"/>
<path d="M43.7317 25.0791V25.9025H45.3839V27.5547H43.7317V28.3835H46.2073V25.0791H43.7317Z" fill="black"/>
<path d="M44.5605 30.8591H43.7317V31.6825H44.5605V30.8591Z" fill="black"/>
<path d="M44.5605 29.2068H43.7317V30.0302H44.5605V29.2068Z" fill="black"/>
<path d="M44.5605 23.4268H43.7317V24.2557H44.5605V23.4268Z" fill="black"/>
<path d="M43.7321 22.6034H44.5609V23.4268H46.2077V22.6034H47.0365V20.1278H46.2077V20.9512H45.3843V20.1278H46.2077V19.299H43.7321V20.1278H42.9087V21.78H43.7321V22.6034Z" fill="black"/>
<path d="M43.7321 31.6825H42.9087V32.5113H43.7321V31.6825Z" fill="black"/>
<path d="M43.7321 28.3834H42.9087V29.2068H43.7321V28.3834Z" fill="black"/>
<path d="M43.7321 24.2556H42.9087V25.079H43.7321V24.2556Z" fill="black"/>
<path d="M43.7321 17.6522H42.9087V18.4756H43.7321V17.6522Z" fill="black"/>
<path d="M42.9088 30.8591H42.08V31.6825H42.9088V30.8591Z" fill="black"/>
<path d="M42.9088 21.7801H42.08V22.6035H42.9088V21.7801Z" fill="black"/>
<path d="M42.9088 16.8233H42.08V17.6521H42.9088V16.8233Z" fill="black"/>
<path d="M42.0802 30.0302H41.2568V30.859H42.0802V30.0302Z" fill="black"/>
<path d="M42.0802 25.9025H41.2568V27.5547H42.0802V25.9025Z" fill="black"/>
<path d="M42.0802 22.6034H41.2568V23.4268H42.0802V22.6034Z" fill="black"/>
<path d="M42.0802 17.6522H41.2568V18.4756H42.0802V17.6522Z" fill="black"/>
<path d="M40.4333 32.5113H38.781V30.8591H37.9576V33.3347H41.2567V30.8591H40.4333V32.5113Z" fill="black"/>
<path d="M41.2571 27.5546H40.4337V28.3834H41.2571V27.5546Z" fill="black"/>
<path d="M41.2571 25.0791H40.4337V25.9025H41.2571V25.0791Z" fill="black"/>
<path d="M41.2571 18.4756H40.4337V19.299H41.2571V18.4756Z" fill="black"/>
<path d="M40.433 24.2556H38.7808V25.079H40.433V24.2556Z" fill="black"/>
<path d="M40.433 28.3834H38.7808V29.2068H40.433V28.3834Z" fill="black"/>
<path d="M38.781 27.5546H37.9576V28.3834H38.781V27.5546Z" fill="black"/>
<path d="M38.781 25.0791H37.9576V25.9025H38.781V25.0791Z" fill="black"/>
<path d="M38.781 20.9512H40.4333V22.6034H41.2567V20.1278H37.9576V22.6034H38.781V20.9512Z" fill="black"/>
<path d="M37.9577 30.0302H37.1289V30.859H37.9577V30.0302Z" fill="black"/>
<path d="M37.9577 25.9025H37.1289V27.5547H37.9577V25.9025Z" fill="black"/>
<path d="M37.9577 22.6034H37.1289V23.4268H37.9577V22.6034Z" fill="black"/>
<path d="M37.1292 30.8591H36.3058V31.6825H37.1292V30.8591Z" fill="black"/>
<path d="M37.1292 21.7801H36.3058V22.6035H37.1292V21.7801Z" fill="black"/>
<path d="M36.3059 31.6825H35.4771V32.5113H36.3059V31.6825Z" fill="black"/>
<path d="M36.3059 28.3834H35.4771V29.2068H36.3059V28.3834Z" fill="black"/>
<path d="M36.3059 24.2556H35.4771V25.079H36.3059V24.2556Z" fill="black"/>
<path d="M36.3059 20.9512H35.4771V21.78H36.3059V20.9512Z" fill="black"/>
<path d="M35.4762 30.8591H34.6528V31.6825H35.4762V30.8591Z" fill="black"/>
<path d="M35.4762 29.2068H34.6528V30.0302H35.4762V29.2068Z" fill="black"/>
<path d="M33.8299 27.5547V25.9025H35.4767V25.0791H33.0011V28.3835H35.4767V27.5547H33.8299Z" fill="black"/>
<path d="M35.4762 23.4268H34.6528V24.2557H35.4762V23.4268Z" fill="black"/>
<path d="M35.4762 21.7801H34.6528V22.6035H35.4762V21.7801Z" fill="black"/>
<path d="M34.6531 30.0302H33.8297V30.859H34.6531V30.0302Z" fill="black"/>
<path d="M34.6531 22.6034H33.8297V23.4268H34.6531V22.6034Z" fill="black"/>
</g>
<defs>
<clipPath id="clip0_296_6589">
<rect width="155" height="49" fill="white"/>
</clipPath>
<clipPath id="clip1_296_6589">
<rect width="17.3348" height="17.3348" fill="white" transform="translate(33 16)"/>
</clipPath>
</defs>
</svg>
