<svg width="83" height="26" viewBox="0 0 83 26" fill="none" xmlns="http://www.w3.org/2000/svg">
<g clip-path="url(#clip0_402_10185)">
<path d="M82.2449 17.9878H79.698V20.5347H82.2449V17.9878Z" fill="black"/>
<path d="M82.2449 15.4409H79.698V17.9879H82.2449V15.4409Z" fill="black"/>
<path d="M82.2449 12.8408H79.698V15.3878H82.2449V12.8408Z" fill="black"/>
<path d="M82.2449 10.2939H79.698V12.8409H82.2449V10.2939Z" fill="black"/>
<path d="M82.2449 7.69385H79.698V10.2408H82.2449V7.69385Z" fill="black"/>
<path d="M82.2449 5.14697H79.698V7.69391H82.2449V5.14697Z" fill="black"/>
<path d="M79.6979 20.5876H77.151V23.1346H79.6979V20.5876Z" fill="black"/>
<path d="M79.6979 17.9878H77.151V20.5347H79.6979V17.9878Z" fill="#EB8B8B"/>
<path d="M79.6979 15.4409H77.151V17.9879H79.6979V15.4409Z" fill="#EB8B8B"/>
<path d="M79.6979 12.8408H77.151V15.3878H79.6979V12.8408Z" fill="#EB8B8B"/>
<path d="M79.6979 10.2939H77.151V12.8409H79.6979V10.2939Z" fill="#EB8B8B"/>
<path d="M79.6979 7.69385H77.151V10.2408H79.6979V7.69385Z" fill="#EB8B8B"/>
<path d="M79.6979 5.14697H77.151V7.69391H79.6979V5.14697Z" fill="#EB8B8B"/>
<path d="M79.6979 2.54688H77.151V5.09381H79.6979V2.54688Z" fill="black"/>
<path d="M77.098 23.1348H74.551V25.6817H77.098V23.1348Z" fill="black"/>
<path d="M77.098 20.5876H74.551V23.1346H77.098V20.5876Z" fill="#EB8B8B"/>
<path d="M77.098 17.9878H74.551V20.5347H77.098V17.9878Z" fill="#EB8B8B"/>
<path d="M77.098 15.4409H74.551V17.9879H77.098V15.4409Z" fill="#EFA2A2"/>
<path d="M77.098 12.8408H74.551V15.3878H77.098V12.8408Z" fill="#EFA2A2"/>
<path d="M77.098 10.2939H74.551V12.8409H77.098V10.2939Z" fill="#EFA2A2"/>
<path d="M77.098 7.69385H74.551V10.2408H77.098V7.69385Z" fill="#F8CBC5"/>
<path d="M77.098 5.14697H74.551V7.69391H77.098V5.14697Z" fill="#EB8B8B"/>
<path d="M77.098 2.54688H74.551V5.09381H77.098V2.54688Z" fill="#EB8B8B"/>
<path d="M77.098 0H74.551V2.54694H77.098V0Z" fill="black"/>
<path d="M74.551 23.1348H72.0041V25.6817H74.551V23.1348Z" fill="black"/>
<path d="M74.551 20.5876H72.0041V23.1346H74.551V20.5876Z" fill="#EB8B8B"/>
<path d="M74.551 17.9878H72.0041V20.5347H74.551V17.9878Z" fill="#EFA2A2"/>
<path d="M74.551 15.4409H72.0041V17.9879H74.551V15.4409Z" fill="#F1AEAE"/>
<path d="M74.551 12.8408H72.0041V15.3878H74.551V12.8408Z" fill="#F1AEAE"/>
<path d="M74.551 10.2939H72.0041V12.8409H74.551V10.2939Z" fill="#F1AEAE"/>
<path d="M74.551 7.69385H72.0041V10.2408H74.551V7.69385Z" fill="#F1AEAE"/>
<path d="M74.551 5.14697H72.0041V7.69391H74.551V5.14697Z" fill="#F8CBC5"/>
<path d="M74.551 2.54688H72.0041V5.09381H74.551V2.54688Z" fill="#EB8B8B"/>
<path d="M74.551 0H72.0041V2.54694H74.551V0Z" fill="black"/>
<path d="M71.951 23.1348H69.4041V25.6817H71.951V23.1348Z" fill="black"/>
<path d="M71.951 20.5876H69.4041V23.1346H71.951V20.5876Z" fill="#EB8B8B"/>
<path d="M71.951 17.9878H69.4041V20.5347H71.951V17.9878Z" fill="#EFA2A2"/>
<path d="M71.951 15.4409H69.4041V17.9879H71.951V15.4409Z" fill="#F1AEAE"/>
<path d="M71.951 12.8408H69.4041V15.3878H71.951V12.8408Z" fill="#F1AEAE"/>
<path d="M71.951 10.2939H69.4041V12.8409H71.951V10.2939Z" fill="#F1AEAE"/>
<path d="M71.951 7.69385H69.4041V10.2408H71.951V7.69385Z" fill="#F1AEAE"/>
<path d="M71.951 5.14697H69.4041V7.69391H71.951V5.14697Z" fill="#F8CBC5"/>
<path d="M71.951 2.54688H69.4041V5.09381H71.951V2.54688Z" fill="#EB8B8B"/>
<path d="M71.951 0H69.4041V2.54694H71.951V0Z" fill="black"/>
<path d="M69.4041 23.1348H66.8571V25.6817H69.4041V23.1348Z" fill="black"/>
<path d="M69.4041 20.5876H66.8571V23.1346H69.4041V20.5876Z" fill="#EB8B8B"/>
<path d="M69.4041 17.9878H66.8571V20.5347H69.4041V17.9878Z" fill="#EFA2A2"/>
<path d="M69.4041 15.4409H66.8571V17.9879H69.4041V15.4409Z" fill="#F1AEAE"/>
<path d="M69.4041 12.8408H66.8571V15.3878H69.4041V12.8408Z" fill="#F1AEAE"/>
<path d="M69.4041 10.2939H66.8571V12.8409H69.4041V10.2939Z" fill="#F1AEAE"/>
<path d="M69.4041 7.69385H66.8571V10.2408H69.4041V7.69385Z" fill="#F1AEAE"/>
<path d="M69.4041 5.14697H66.8571V7.69391H69.4041V5.14697Z" fill="#F8CBC5"/>
<path d="M69.4041 2.54688H66.8571V5.09381H69.4041V2.54688Z" fill="#EB8B8B"/>
<path d="M69.4041 0H66.8571V2.54694H69.4041V0Z" fill="black"/>
<path d="M66.8041 23.1348H64.2571V25.6817H66.8041V23.1348Z" fill="black"/>
<path d="M66.8041 20.5876H64.2571V23.1346H66.8041V20.5876Z" fill="#EB8B8B"/>
<path d="M66.8041 17.9878H64.2571V20.5347H66.8041V17.9878Z" fill="#EFA2A2"/>
<path d="M66.8041 15.4409H64.2571V17.9879H66.8041V15.4409Z" fill="#F1AEAE"/>
<path d="M66.8041 12.8408H64.2571V15.3878H66.8041V12.8408Z" fill="#F1AEAE"/>
<path d="M66.8041 10.2939H64.2571V12.8409H66.8041V10.2939Z" fill="#F1AEAE"/>
<path d="M66.8041 7.69385H64.2571V10.2408H66.8041V7.69385Z" fill="#F1AEAE"/>
<path d="M66.8041 5.14697H64.2571V7.69391H66.8041V5.14697Z" fill="#F8CBC5"/>
<path d="M66.8041 2.54688H64.2571V5.09381H66.8041V2.54688Z" fill="#EB8B8B"/>
<path d="M66.8041 0H64.2571V2.54694H66.8041V0Z" fill="black"/>
<path d="M64.2571 23.1348H61.7102V25.6817H64.2571V23.1348Z" fill="black"/>
<path d="M64.2571 20.5876H61.7102V23.1346H64.2571V20.5876Z" fill="#EB8B8B"/>
<path d="M64.2571 17.9878H61.7102V20.5347H64.2571V17.9878Z" fill="#EFA2A2"/>
<path d="M64.2571 15.4409H61.7102V17.9879H64.2571V15.4409Z" fill="#F1AEAE"/>
<path d="M64.2571 12.8408H61.7102V15.3878H64.2571V12.8408Z" fill="#F1AEAE"/>
<path d="M64.2571 10.2939H61.7102V12.8409H64.2571V10.2939Z" fill="#F1AEAE"/>
<path d="M64.2571 7.69385H61.7102V10.2408H64.2571V7.69385Z" fill="#F1AEAE"/>
<path d="M64.2571 5.14697H61.7102V7.69391H64.2571V5.14697Z" fill="#F8CBC5"/>
<path d="M64.2571 2.54688H61.7102V5.09381H64.2571V2.54688Z" fill="#EB8B8B"/>
<path d="M64.2571 0H61.7102V2.54694H64.2571V0Z" fill="black"/>
<path d="M61.6571 23.1348H59.1102V25.6817H61.6571V23.1348Z" fill="black"/>
<path d="M61.6571 20.5876H59.1102V23.1346H61.6571V20.5876Z" fill="#EB8B8B"/>
<path d="M61.6571 17.9878H59.1102V20.5347H61.6571V17.9878Z" fill="#EFA2A2"/>
<path d="M61.6571 15.4409H59.1102V17.9879H61.6571V15.4409Z" fill="#F1AEAE"/>
<path d="M61.6571 12.8408H59.1102V15.3878H61.6571V12.8408Z" fill="#F1AEAE"/>
<path d="M61.6571 10.2939H59.1102V12.8409H61.6571V10.2939Z" fill="#F1AEAE"/>
<path d="M61.6571 7.69385H59.1102V10.2408H61.6571V7.69385Z" fill="#F1AEAE"/>
<path d="M61.6571 5.14697H59.1102V7.69391H61.6571V5.14697Z" fill="#F8CBC5"/>
<path d="M61.6571 2.54688H59.1102V5.09381H61.6571V2.54688Z" fill="#EB8B8B"/>
<path d="M61.6571 0H59.1102V2.54694H61.6571V0Z" fill="black"/>
<path d="M59.1102 23.1348H56.5633V25.6817H59.1102V23.1348Z" fill="black"/>
<path d="M59.1102 20.5876H56.5633V23.1346H59.1102V20.5876Z" fill="#EB8B8B"/>
<path d="M59.1102 17.9878H56.5633V20.5347H59.1102V17.9878Z" fill="#EFA2A2"/>
<path d="M59.1102 15.4409H56.5633V17.9879H59.1102V15.4409Z" fill="#F1AEAE"/>
<path d="M59.1102 12.8408H56.5633V15.3878H59.1102V12.8408Z" fill="#F1AEAE"/>
<path d="M59.1102 10.2939H56.5633V12.8409H59.1102V10.2939Z" fill="#F1AEAE"/>
<path d="M59.1102 7.69385H56.5633V10.2408H59.1102V7.69385Z" fill="#F1AEAE"/>
<path d="M59.1102 5.14697H56.5633V7.69391H59.1102V5.14697Z" fill="#F8CBC5"/>
<path d="M59.1102 2.54688H56.5633V5.09381H59.1102V2.54688Z" fill="#EB8B8B"/>
<path d="M59.1102 0H56.5633V2.54694H59.1102V0Z" fill="black"/>
<path d="M56.5633 23.1348H54.0163V25.6817H56.5633V23.1348Z" fill="black"/>
<path d="M56.5633 20.5876H54.0163V23.1346H56.5633V20.5876Z" fill="#EB8B8B"/>
<path d="M56.5633 17.9878H54.0163V20.5347H56.5633V17.9878Z" fill="#EFA2A2"/>
<path d="M56.5633 15.4409H54.0163V17.9879H56.5633V15.4409Z" fill="#F1AEAE"/>
<path d="M56.5633 12.8408H54.0163V15.3878H56.5633V12.8408Z" fill="#F1AEAE"/>
<path d="M56.5633 10.2939H54.0163V12.8409H56.5633V10.2939Z" fill="#F1AEAE"/>
<path d="M56.5633 7.69385H54.0163V10.2408H56.5633V7.69385Z" fill="#F1AEAE"/>
<path d="M56.5633 5.14697H54.0163V7.69391H56.5633V5.14697Z" fill="#F8CBC5"/>
<path d="M56.5633 2.54688H54.0163V5.09381H56.5633V2.54688Z" fill="#EB8B8B"/>
<path d="M56.5633 0H54.0163V2.54694H56.5633V0Z" fill="black"/>
<path d="M53.9633 23.1348H51.4163V25.6817H53.9633V23.1348Z" fill="black"/>
<path d="M53.9633 20.5876H51.4163V23.1346H53.9633V20.5876Z" fill="#EB8B8B"/>
<path d="M53.9633 17.9878H51.4163V20.5347H53.9633V17.9878Z" fill="#EFA2A2"/>
<path d="M53.9633 15.4409H51.4163V17.9879H53.9633V15.4409Z" fill="#F1AEAE"/>
<path d="M53.9633 12.8408H51.4163V15.3878H53.9633V12.8408Z" fill="#F1AEAE"/>
<path d="M53.9633 10.2939H51.4163V12.8409H53.9633V10.2939Z" fill="#F1AEAE"/>
<path d="M53.9633 7.69385H51.4163V10.2408H53.9633V7.69385Z" fill="#F1AEAE"/>
<path d="M53.9633 5.14697H51.4163V7.69391H53.9633V5.14697Z" fill="#F8CBC5"/>
<path d="M53.9633 2.54688H51.4163V5.09381H53.9633V2.54688Z" fill="#EB8B8B"/>
<path d="M53.9633 0H51.4163V2.54694H53.9633V0Z" fill="black"/>
<path d="M51.4163 23.1348H48.8163V25.6817H51.3633L51.4163 23.1348Z" fill="black"/>
<path d="M51.4163 20.5876H48.8163V23.1346H51.3633L51.4163 20.5876Z" fill="#EB8B8B"/>
<path d="M51.4163 17.9878H48.8163V20.5347H51.3633L51.4163 17.9878Z" fill="#EFA2A2"/>
<path d="M51.4163 15.4409H48.8163V17.9879H51.3633L51.4163 15.4409Z" fill="#F1AEAE"/>
<path d="M51.4163 12.8408H48.8163V15.3878H51.3633L51.4163 12.8408Z" fill="#F1AEAE"/>
<path d="M51.4163 10.2939H48.8163V12.8409H51.3633L51.4163 10.2939Z" fill="#F1AEAE"/>
<path d="M51.4163 7.69385H48.8163V10.2408H51.3633L51.4163 7.69385Z" fill="#F1AEAE"/>
<path d="M51.4163 5.14697H48.8163V7.69391H51.3633L51.4163 5.14697Z" fill="#F8CBC5"/>
<path d="M51.4163 2.54688H48.8163V5.09381H51.3633L51.4163 2.54688Z" fill="#EB8B8B"/>
<path d="M51.4163 0H48.8163V2.54694H51.3633L51.4163 0Z" fill="black"/>
<path d="M48.8163 23.1348H46.2694V25.6817H48.8163V23.1348Z" fill="black"/>
<path d="M48.8163 20.5876H46.2694V23.1346H48.8163V20.5876Z" fill="#EB8B8B"/>
<path d="M48.8163 17.9878H46.2694V20.5347H48.8163V17.9878Z" fill="#EFA2A2"/>
<path d="M48.8163 15.4409H46.2694V17.9879H48.8163V15.4409Z" fill="#F1AEAE"/>
<path d="M48.8163 12.8408H46.2694V15.3878H48.8163V12.8408Z" fill="#F1AEAE"/>
<path d="M48.8163 10.2939H46.2694V12.8409H48.8163V10.2939Z" fill="#F1AEAE"/>
<path d="M48.8163 7.69385H46.2694V10.2408H48.8163V7.69385Z" fill="#F1AEAE"/>
<path d="M48.8163 5.14697H46.2694V7.69391H48.8163V5.14697Z" fill="#F8CBC5"/>
<path d="M48.8163 2.54688H46.2694V5.09381H48.8163V2.54688Z" fill="#EB8B8B"/>
<path d="M48.8163 0H46.2694V2.54694H48.8163V0Z" fill="black"/>
<path d="M46.2694 23.1348H43.7224V25.6817H46.2694V23.1348Z" fill="black"/>
<path d="M46.2694 20.5876H43.7224V23.1346H46.2694V20.5876Z" fill="#EB8B8B"/>
<path d="M46.2694 17.9878H43.7224V20.5347H46.2694V17.9878Z" fill="#EFA2A2"/>
<path d="M46.2694 15.4409H43.7224V17.9879H46.2694V15.4409Z" fill="#F1AEAE"/>
<path d="M46.2694 12.8408H43.7224V15.3878H46.2694V12.8408Z" fill="#F1AEAE"/>
<path d="M46.2694 10.2939H43.7224V12.8409H46.2694V10.2939Z" fill="#F1AEAE"/>
<path d="M46.2694 7.69385H43.7224V10.2408H46.2694V7.69385Z" fill="#F1AEAE"/>
<path d="M46.2694 5.14697H43.7224V7.69391H46.2694V5.14697Z" fill="#F8CBC5"/>
<path d="M46.2694 2.54688H43.7224V5.09381H46.2694V2.54688Z" fill="#EB8B8B"/>
<path d="M46.2694 0H43.7224V2.54694H46.2694V0Z" fill="black"/>
<path d="M43.6694 23.1348H41.1224V25.6817H43.6694V23.1348Z" fill="black"/>
<path d="M43.6694 20.5876H41.1224V23.1346H43.6694V20.5876Z" fill="#EB8B8B"/>
<path d="M43.6694 17.9878H41.1224V20.5347H43.6694V17.9878Z" fill="#EFA2A2"/>
<path d="M43.6694 15.4409H41.1224V17.9879H43.6694V15.4409Z" fill="#F1AEAE"/>
<path d="M43.6694 12.8408H41.1224V15.3878H43.6694V12.8408Z" fill="#F1AEAE"/>
<path d="M43.6694 10.2939H41.1224V12.8409H43.6694V10.2939Z" fill="#F1AEAE"/>
<path d="M43.6694 7.69385H41.1224V10.2408H43.6694V7.69385Z" fill="#F1AEAE"/>
<path d="M43.6694 5.14697H41.1224V7.69391H43.6694V5.14697Z" fill="#F8CBC5"/>
<path d="M43.6694 2.54688H41.1224V5.09381H43.6694V2.54688Z" fill="#EB8B8B"/>
<path d="M43.6694 0H41.1224V2.54694H43.6694V0Z" fill="black"/>
<path d="M41.1224 23.1348H38.5755V25.6817H41.1224V23.1348Z" fill="black"/>
<path d="M41.1224 20.5876H38.5755V23.1346H41.1224V20.5876Z" fill="#EB8B8B"/>
<path d="M41.1224 17.9878H38.5755V20.5347H41.1224V17.9878Z" fill="#EFA2A2"/>
<path d="M41.1224 15.4409H38.5755V17.9879H41.1224V15.4409Z" fill="#F1AEAE"/>
<path d="M41.1224 12.8408H38.5755V15.3878H41.1224V12.8408Z" fill="#F1AEAE"/>
<path d="M41.1224 10.2939H38.5755V12.8409H41.1224V10.2939Z" fill="#F1AEAE"/>
<path d="M41.1224 7.69385H38.5755V10.2408H41.1224V7.69385Z" fill="#F1AEAE"/>
<path d="M41.1224 5.14697H38.5755V7.69391H41.1224V5.14697Z" fill="#F8CBC5"/>
<path d="M41.1224 2.54688H38.5755V5.09381H41.1224V2.54688Z" fill="#EB8B8B"/>
<path d="M41.1224 0H38.5755V2.54694H41.1224V0Z" fill="black"/>
<path d="M38.5755 23.1348H36.0286V25.6817H38.5755V23.1348Z" fill="black"/>
<path d="M38.5755 20.5876H36.0286V23.1346H38.5755V20.5876Z" fill="#EB8B8B"/>
<path d="M38.5755 17.9878H36.0286V20.5347H38.5755V17.9878Z" fill="#EFA2A2"/>
<path d="M38.5755 15.4409H36.0286V17.9879H38.5755V15.4409Z" fill="#F1AEAE"/>
<path d="M38.5755 12.8408H36.0286V15.3878H38.5755V12.8408Z" fill="#F1AEAE"/>
<path d="M38.5755 10.2939H36.0286V12.8409H38.5755V10.2939Z" fill="#F1AEAE"/>
<path d="M38.5755 7.69385H36.0286V10.2408H38.5755V7.69385Z" fill="#F1AEAE"/>
<path d="M38.5755 5.14697H36.0286V7.69391H38.5755V5.14697Z" fill="#F8CBC5"/>
<path d="M38.5755 2.54688H36.0286V5.09381H38.5755V2.54688Z" fill="#EB8B8B"/>
<path d="M38.5755 0H36.0286V2.54694H38.5755V0Z" fill="black"/>
<path d="M35.9755 23.1348H33.4286V25.6817H35.9755V23.1348Z" fill="black"/>
<path d="M35.9755 20.5876H33.4286V23.1346H35.9755V20.5876Z" fill="#EB8B8B"/>
<path d="M35.9755 17.9878H33.4286V20.5347H35.9755V17.9878Z" fill="#EFA2A2"/>
<path d="M35.9755 15.4409H33.4286V17.9879H35.9755V15.4409Z" fill="#F1AEAE"/>
<path d="M35.9755 12.8408H33.4286V15.3878H35.9755V12.8408Z" fill="#F1AEAE"/>
<path d="M35.9755 10.2939H33.4286V12.8409H35.9755V10.2939Z" fill="#F1AEAE"/>
<path d="M35.9755 7.69385H33.4286V10.2408H35.9755V7.69385Z" fill="#F1AEAE"/>
<path d="M35.9755 5.14697H33.4286V7.69391H35.9755V5.14697Z" fill="#F8CBC5"/>
<path d="M35.9755 2.54688H33.4286V5.09381H35.9755V2.54688Z" fill="#EB8B8B"/>
<path d="M35.9755 0H33.4286V2.54694H35.9755V0Z" fill="black"/>
<path d="M33.4286 23.1348H30.8816V25.6817H33.4286V23.1348Z" fill="black"/>
<path d="M33.4286 20.5876H30.8816V23.1346H33.4286V20.5876Z" fill="#EB8B8B"/>
<path d="M33.4286 17.9878H30.8816V20.5347H33.4286V17.9878Z" fill="#EFA2A2"/>
<path d="M33.4286 15.4409H30.8816V17.9879H33.4286V15.4409Z" fill="#F1AEAE"/>
<path d="M33.4286 12.8408H30.8816V15.3878H33.4286V12.8408Z" fill="#F1AEAE"/>
<path d="M33.4286 10.2939H30.8816V12.8409H33.4286V10.2939Z" fill="#F1AEAE"/>
<path d="M33.4286 7.69385H30.8816V10.2408H33.4286V7.69385Z" fill="#F1AEAE"/>
<path d="M33.4286 5.14697H30.8816V7.69391H33.4286V5.14697Z" fill="#F8CBC5"/>
<path d="M33.4286 2.54688H30.8816V5.09381H33.4286V2.54688Z" fill="#EB8B8B"/>
<path d="M33.4286 0H30.8816V2.54694H33.4286V0Z" fill="black"/>
<path d="M30.8286 23.1348H28.2816V25.6817H30.8286V23.1348Z" fill="black"/>
<path d="M30.8286 20.5876H28.2816V23.1346H30.8286V20.5876Z" fill="#EB8B8B"/>
<path d="M30.8286 17.9878H28.2816V20.5347H30.8286V17.9878Z" fill="#EFA2A2"/>
<path d="M30.8286 15.4409H28.2816V17.9879H30.8286V15.4409Z" fill="#F1AEAE"/>
<path d="M30.8286 12.8408H28.2816V15.3878H30.8286V12.8408Z" fill="#F1AEAE"/>
<path d="M30.8286 10.2939H28.2816V12.8409H30.8286V10.2939Z" fill="#F1AEAE"/>
<path d="M30.8286 7.69385H28.2816V10.2408H30.8286V7.69385Z" fill="#F1AEAE"/>
<path d="M30.8286 5.14697H28.2816V7.69391H30.8286V5.14697Z" fill="#F8CBC5"/>
<path d="M30.8286 2.54688H28.2816V5.09381H30.8286V2.54688Z" fill="#EB8B8B"/>
<path d="M30.8286 0H28.2816V2.54694H30.8286V0Z" fill="black"/>
<path d="M28.2816 23.1348H25.7347V25.6817H28.2816V23.1348Z" fill="black"/>
<path d="M28.2816 20.5876H25.7347V23.1346H28.2816V20.5876Z" fill="#EB8B8B"/>
<path d="M28.2816 17.9878H25.7347V20.5347H28.2816V17.9878Z" fill="#EFA2A2"/>
<path d="M28.2816 15.4409H25.7347V17.9879H28.2816V15.4409Z" fill="#F1AEAE"/>
<path d="M28.2816 12.8408H25.7347V15.3878H28.2816V12.8408Z" fill="#F1AEAE"/>
<path d="M28.2816 10.2939H25.7347V12.8409H28.2816V10.2939Z" fill="#F1AEAE"/>
<path d="M28.2816 7.69385H25.7347V10.2408H28.2816V7.69385Z" fill="#F1AEAE"/>
<path d="M28.2816 5.14697H25.7347V7.69391H28.2816V5.14697Z" fill="#F8CBC5"/>
<path d="M28.2816 2.54688H25.7347V5.09381H28.2816V2.54688Z" fill="#EB8B8B"/>
<path d="M28.2816 0H25.7347V2.54694H28.2816V0Z" fill="black"/>
<path d="M25.6816 23.1348H23.1347V25.6817H25.6816V23.1348Z" fill="black"/>
<path d="M25.6816 20.5876H23.1347V23.1346H25.6816V20.5876Z" fill="#EB8B8B"/>
<path d="M25.6816 17.9878H23.1347V20.5347H25.6816V17.9878Z" fill="#EFA2A2"/>
<path d="M25.6816 15.4409H23.1347V17.9879H25.6816V15.4409Z" fill="#F1AEAE"/>
<path d="M25.6816 12.8408H23.1347V15.3878H25.6816V12.8408Z" fill="#F1AEAE"/>
<path d="M25.6816 10.2939H23.1347V12.8409H25.6816V10.2939Z" fill="#F1AEAE"/>
<path d="M25.6816 7.69385H23.1347V10.2408H25.6816V7.69385Z" fill="#F1AEAE"/>
<path d="M25.6816 5.14697H23.1347V7.69391H25.6816V5.14697Z" fill="#F8CBC5"/>
<path d="M25.6816 2.54688H23.1347V5.09381H25.6816V2.54688Z" fill="#EB8B8B"/>
<path d="M25.6816 0H23.1347V2.54694H25.6816V0Z" fill="black"/>
<path d="M23.1347 23.1348H20.5878V25.6817H23.1347V23.1348Z" fill="black"/>
<path d="M23.1347 20.5876H20.5878V23.1346H23.1347V20.5876Z" fill="#EB8B8B"/>
<path d="M23.1347 17.9878H20.5878V20.5347H23.1347V17.9878Z" fill="#EFA2A2"/>
<path d="M23.1347 15.4409H20.5878V17.9879H23.1347V15.4409Z" fill="#F1AEAE"/>
<path d="M23.1347 12.8408H20.5878V15.3878H23.1347V12.8408Z" fill="#F1AEAE"/>
<path d="M23.1347 10.2939H20.5878V12.8409H23.1347V10.2939Z" fill="#F1AEAE"/>
<path d="M23.1347 7.69385H20.5878V10.2408H23.1347V7.69385Z" fill="#F1AEAE"/>
<path d="M23.1347 5.14697H20.5878V7.69391H23.1347V5.14697Z" fill="#F8CBC5"/>
<path d="M23.1347 2.54688H20.5878V5.09381H23.1347V2.54688Z" fill="#EB8B8B"/>
<path d="M23.1347 0H20.5878V2.54694H23.1347V0Z" fill="black"/>
<path d="M20.5878 23.1348H18.0408V25.6817H20.5878V23.1348Z" fill="black"/>
<path d="M20.5878 20.5876H18.0408V23.1346H20.5878V20.5876Z" fill="#EB8B8B"/>
<path d="M20.5878 17.9878H18.0408V20.5347H20.5878V17.9878Z" fill="#EFA2A2"/>
<path d="M20.5878 15.4409H18.0408V17.9879H20.5878V15.4409Z" fill="#F1AEAE"/>
<path d="M20.5878 12.8408H18.0408V15.3878H20.5878V12.8408Z" fill="#F1AEAE"/>
<path d="M20.5878 10.2939H18.0408V12.8409H20.5878V10.2939Z" fill="#F1AEAE"/>
<path d="M20.5878 7.69385H18.0408V10.2408H20.5878V7.69385Z" fill="#F1AEAE"/>
<path d="M20.5878 5.14697H18.0408V7.69391H20.5878V5.14697Z" fill="#F8CBC5"/>
<path d="M20.5878 2.54688H18.0408V5.09381H20.5878V2.54688Z" fill="#EB8B8B"/>
<path d="M20.5878 0H18.0408V2.54694H20.5878V0Z" fill="black"/>
<path d="M17.9878 23.1348H15.4408V25.6817H17.9878V23.1348Z" fill="black"/>
<path d="M17.9878 20.5876H15.4408V23.1346H17.9878V20.5876Z" fill="#EB8B8B"/>
<path d="M17.9878 17.9878H15.4408V20.5347H17.9878V17.9878Z" fill="#EFA2A2"/>
<path d="M17.9878 15.4409H15.4408V17.9879H17.9878V15.4409Z" fill="#F1AEAE"/>
<path d="M17.9878 12.8408H15.4408V15.3878H17.9878V12.8408Z" fill="#F1AEAE"/>
<path d="M17.9878 10.2939H15.4408V12.8409H17.9878V10.2939Z" fill="#F1AEAE"/>
<path d="M17.9878 7.69385H15.4408V10.2408H17.9878V7.69385Z" fill="#F1AEAE"/>
<path d="M17.9878 5.14697H15.4408V7.69391H17.9878V5.14697Z" fill="#F8CBC5"/>
<path d="M17.9878 2.54688H15.4408V5.09381H17.9878V2.54688Z" fill="#EB8B8B"/>
<path d="M17.9878 0H15.4408V2.54694H17.9878V0Z" fill="black"/>
<path d="M15.4408 23.1348H12.8939V25.6817H15.4408V23.1348Z" fill="black"/>
<path d="M15.4408 20.5876H12.8939V23.1346H15.4408V20.5876Z" fill="#EB8B8B"/>
<path d="M15.4408 17.9878H12.8939V20.5347H15.4408V17.9878Z" fill="#EFA2A2"/>
<path d="M15.4408 15.4409H12.8939V17.9879H15.4408V15.4409Z" fill="#F1AEAE"/>
<path d="M15.4408 12.8408H12.8939V15.3878H15.4408V12.8408Z" fill="#F1AEAE"/>
<path d="M15.4408 10.2939H12.8939V12.8409H15.4408V10.2939Z" fill="#F1AEAE"/>
<path d="M15.4408 7.69385H12.8939V10.2408H15.4408V7.69385Z" fill="#F1AEAE"/>
<path d="M15.4408 5.14697H12.8939V7.69391H15.4408V5.14697Z" fill="#F8CBC5"/>
<path d="M15.4408 2.54688H12.8939V5.09381H15.4408V2.54688Z" fill="#EB8B8B"/>
<path d="M15.4408 0H12.8939V2.54694H15.4408V0Z" fill="black"/>
<path d="M12.8408 23.1348H10.2939V25.6817H12.8408V23.1348Z" fill="black"/>
<path d="M12.8408 20.5876H10.2939V23.1346H12.8408V20.5876Z" fill="#EB8B8B"/>
<path d="M12.8408 17.9878H10.2939V20.5347H12.8408V17.9878Z" fill="#EFA2A2"/>
<path d="M12.8408 15.4409H10.2939V17.9879H12.8408V15.4409Z" fill="#F1AEAE"/>
<path d="M12.8408 12.8408H10.2939V15.3878H12.8408V12.8408Z" fill="#F1AEAE"/>
<path d="M12.8408 10.2939H10.2939V12.8409H12.8408V10.2939Z" fill="#F1AEAE"/>
<path d="M12.8408 7.69385H10.2939V10.2408H12.8408V7.69385Z" fill="#F1AEAE"/>
<path d="M12.8408 5.14697H10.2939V7.69391H12.8408V5.14697Z" fill="#F8CBC5"/>
<path d="M12.8408 2.54688H10.2939V5.09381H12.8408V2.54688Z" fill="#EB8B8B"/>
<path d="M12.8408 0H10.2939V2.54694H12.8408V0Z" fill="black"/>
<path d="M10.2939 23.1348H7.74693V25.6817H10.2939V23.1348Z" fill="black"/>
<path d="M10.2939 20.5876H7.74693V23.1346H10.2939V20.5876Z" fill="#EB8B8B"/>
<path d="M10.2939 17.9878H7.74693V20.5347H10.2939V17.9878Z" fill="#EFA2A2"/>
<path d="M10.2939 15.4409H7.74693V17.9879H10.2939V15.4409Z" fill="#F1AEAE"/>
<path d="M10.2939 12.8408H7.74693V15.3878H10.2939V12.8408Z" fill="#F1AEAE"/>
<path d="M10.2939 10.2939H7.74693V12.8409H10.2939V10.2939Z" fill="#F1AEAE"/>
<path d="M10.2939 7.69385H7.74693V10.2408H10.2939V7.69385Z" fill="#F1AEAE"/>
<path d="M10.2939 5.14697H7.74693V7.69391H10.2939V5.14697Z" fill="#F8CBC5"/>
<path d="M10.2939 2.54688H7.74693V5.09381H10.2939V2.54688Z" fill="#EB8B8B"/>
<path d="M10.2939 0H7.74693V2.54694H10.2939V0Z" fill="black"/>
<path d="M7.69388 23.1348H5.14694V25.6817H7.69388V23.1348Z" fill="black"/>
<path d="M7.69388 20.5876H5.14694V23.1346H7.69388V20.5876Z" fill="#EB8B8B"/>
<path d="M7.69388 17.9878H5.14694V20.5347H7.69388V17.9878Z" fill="#EB8B8B"/>
<path d="M7.69388 15.4409H5.14694V17.9879H7.69388V15.4409Z" fill="#EFA2A2"/>
<path d="M7.69388 12.8408H5.14694V15.3878H7.69388V12.8408Z" fill="#EFA2A2"/>
<path d="M7.69388 10.2939H5.14694V12.8409H7.69388V10.2939Z" fill="#EFA2A2"/>
<path d="M7.69388 7.69385H5.14694V10.2408H7.69388V7.69385Z" fill="#F8CBC5"/>
<path d="M7.69388 5.14697H5.14694V7.69391H7.69388V5.14697Z" fill="#EB8B8B"/>
<path d="M7.69388 2.54688H5.14694V5.09381H7.69388V2.54688Z" fill="#EB8B8B"/>
<path d="M7.69388 0H5.14694V2.54694H7.69388V0Z" fill="black"/>
<path d="M5.14694 20.5876H2.54694V23.1346H5.09387L5.14694 20.5876Z" fill="black"/>
<path d="M5.14694 17.9878H2.54694V20.5347H5.09387L5.14694 17.9878Z" fill="#EB8B8B"/>
<path d="M5.14694 15.4409H2.54694V17.9879H5.09387L5.14694 15.4409Z" fill="#EB8B8B"/>
<path d="M5.14694 12.8408H2.54694V15.3878H5.09387L5.14694 12.8408Z" fill="#EB8B8B"/>
<path d="M5.14694 10.2939H2.54694V12.8409H5.09387L5.14694 10.2939Z" fill="#EB8B8B"/>
<path d="M5.14694 7.69385H2.54694V10.2408H5.09387L5.14694 7.69385Z" fill="#EB8B8B"/>
<path d="M5.14694 5.14697H2.54694V7.69391H5.09387L5.14694 5.14697Z" fill="#EB8B8B"/>
<path d="M5.14694 2.54688H2.54694V5.09381H5.09387L5.14694 2.54688Z" fill="black"/>
<path d="M2.54694 17.9878H0V20.5347H2.54694V17.9878Z" fill="black"/>
<path d="M2.54694 15.4409H0V17.9879H2.54694V15.4409Z" fill="black"/>
<path d="M2.54694 12.8408H0V15.3878H2.54694V12.8408Z" fill="black"/>
<path d="M2.54694 10.2939H0V12.8409H2.54694V10.2939Z" fill="black"/>
<path d="M2.54694 7.69385H0V10.2408H2.54694V7.69385Z" fill="black"/>
<path d="M2.54694 5.14697H0V7.69391H2.54694V5.14697Z" fill="black"/>
</g>
<path d="M29.0487 11.7778H27.4932V7.11111H29.0487V11.7778ZM32.1598 13.3333V18H30.6043V13.3333H29.0487V11.7778H33.7154V13.3333H32.1598ZM35.2709 11.7778H33.7154V7.11111H35.2709V11.7778ZM43.0533 11.7778H38.3866V10.2222H43.0533V11.7778ZM38.3866 14.8889V16.4444H36.8311V11.7778H38.3866V13.3333H43.0533V11.7778H44.6088V14.8889H38.3866ZM44.6088 18H38.3866V16.4444H44.6088V18ZM52.3912 18H46.1689V16.4444H52.3912V18ZM53.9467 16.4444H52.3912V14.8889H53.9467V16.4444ZM52.3912 14.8889H47.7245V13.3333H52.3912V14.8889ZM47.7245 13.3333H46.1689V11.7778H47.7245V13.3333ZM53.9467 11.7778H47.7245V10.2222H53.9467V11.7778Z" fill="black"/>
<defs>
<clipPath id="clip0_402_10185">
<rect width="82.2449" height="26" fill="white"/>
</clipPath>
</defs>
</svg>
