<svg width="202" height="24" viewBox="0 0 202 24" fill="none" xmlns="http://www.w3.org/2000/svg">
<rect width="202" height="24" fill="#FAEBD7"/>
<rect x="35" y="9" width="165" height="13" fill="#C1EB8B"/>
<path fill-rule="evenodd" clip-rule="evenodd" d="M100 9H67V22H100V9ZM102 9V22H135V9H102ZM170 22H137V9H170V22ZM172 22H200V24H35L35 22H65V9H35V7H200V9H172V22ZM200 9V22H202V9H200ZM35 9L35 22H33V9H35Z" fill="black"/>
<g clip-path="url(#clip0_1021_22236)">
<path d="M24.0001 9.14246H22.8601V10.2825H24.0001V9.14246Z" fill="#EB8B8B"/>
<path d="M22.8599 10.2825H21.7124V11.4225H22.8599V10.2825Z" fill="#EB8B8B"/>
<path d="M21.7125 20.5725H20.5725V22.8525H21.7125V20.5725Z" fill="#EB8B8B"/>
<path d="M20.5725 18.285H19.425V20.5725H20.5725V18.285Z" fill="#EB8B8B"/>
<path d="M21.7125 11.4225H19.425V12.57H21.7125V11.4225Z" fill="#EB8B8B"/>
<path d="M20.5724 22.8525H18.2849V24H20.5724V22.8525Z" fill="#EB8B8B"/>
<path d="M19.4249 15.9976H18.2849V18.2851H19.4249V15.9976Z" fill="#EB8B8B"/>
<path d="M19.4249 12.5699H18.2849V13.7099H19.4249V12.5699Z" fill="#EB8B8B"/>
<path d="M18.285 21.7125H17.145V22.8525H18.285V21.7125Z" fill="#EB8B8B"/>
<path d="M18.285 13.71H17.145V15.9975H18.285V13.71Z" fill="#EB8B8B"/>
<path d="M17.1449 20.5725H14.8574V21.7125H17.1449V20.5725Z" fill="#EB8B8B"/>
<path d="M22.8601 7.995H15.9976V9.14249H22.8601V7.995Z" fill="#EB8B8B"/>
<path d="M15.9974 5.71497H14.8574V7.99497H15.9974V5.71497Z" fill="#EB8B8B"/>
<path d="M14.8575 19.425H13.7175V20.5725H14.8575V19.425Z" fill="#EB8B8B"/>
<path d="M14.8575 12.5699H13.7175V13.7099H14.8575V12.5699Z" fill="#EB8B8B"/>
<path d="M14.8575 3.42749H13.7175V5.71499H14.8575V3.42749Z" fill="#EB8B8B"/>
<path d="M13.7176 18.285H12.5701V19.425H13.7176V18.285Z" fill="#EB8B8B"/>
<path d="M13.7176 10.2825H12.5701V11.4225H13.7176V10.2825Z" fill="#EB8B8B"/>
<path d="M13.7176 1.14001H12.5701V3.42751H13.7176V1.14001Z" fill="#EB8B8B"/>
<path d="M12.5699 17.1375H11.4299V18.285H12.5699V17.1375Z" fill="#EB8B8B"/>
<path d="M13.7175 13.71H10.2825V14.8575H13.7175V13.71Z" fill="#EB8B8B"/>
<path d="M12.5699 0H11.4299V1.14H12.5699V0Z" fill="#EB8B8B"/>
<path d="M11.43 18.285H10.2825V19.425H11.43V18.285Z" fill="#EB8B8B"/>
<path d="M11.43 10.2825H10.2825V11.4225H11.43V10.2825Z" fill="#EB8B8B"/>
<path d="M11.43 1.14001H10.2825V3.42751H11.43V1.14001Z" fill="#EB8B8B"/>
<path d="M10.2826 19.425H9.14258V20.5725H10.2826V19.425Z" fill="#EB8B8B"/>
<path d="M10.2826 12.5699H9.14258V13.7099H10.2826V12.5699Z" fill="#EB8B8B"/>
<path d="M10.2826 3.42749H9.14258V5.71499H10.2826V3.42749Z" fill="#EB8B8B"/>
<path d="M9.14244 5.71497H8.00244V7.99497H9.14244V5.71497Z" fill="#EB8B8B"/>
<path d="M9.14248 20.5725H6.85498V21.7125H9.14248V20.5725Z" fill="#EB8B8B"/>
<path d="M6.85509 21.7125H5.71509V22.8525H6.85509V21.7125Z" fill="#EB8B8B"/>
<path d="M6.85509 13.71H5.71509V15.9975H6.85509V13.71Z" fill="#EB8B8B"/>
<path d="M5.71495 15.9976H4.57495V18.2851H5.71495V15.9976Z" fill="#EB8B8B"/>
<path d="M5.71495 12.5699H4.57495V13.7099H5.71495V12.5699Z" fill="#EB8B8B"/>
<path d="M5.71499 22.8525H3.42749V24H5.71499V22.8525Z" fill="#EB8B8B"/>
<path d="M4.57499 18.285H3.42749V20.5725H4.57499V18.285Z" fill="#EB8B8B"/>
<path d="M4.5751 11.4225H2.2876V12.57H4.5751V11.4225Z" fill="#EB8B8B"/>
<path d="M3.4276 20.5725H2.2876V22.8525H3.4276V20.5725Z" fill="#EB8B8B"/>
<path d="M8.00239 7.995H1.13989V9.14249H8.00239V7.995Z" fill="#EB8B8B"/>
<path d="M2.28739 10.2825H1.13989V11.4225H2.28739V10.2825Z" fill="#EB8B8B"/>
<path d="M1.14 9.14246H0V10.2825H1.14V9.14246Z" fill="#EB8B8B"/>
</g>
<defs>
<clipPath id="clip0_1021_22236">
<rect width="24" height="24" fill="white"/>
</clipPath>
</defs>
</svg>
