<svg width="202" height="24" viewBox="0 0 202 24" fill="none" xmlns="http://www.w3.org/2000/svg">
<rect x="35" y="9" width="165" height="13" fill="#C1EB8B"/>
<path fill-rule="evenodd" clip-rule="evenodd" d="M100 9H67V22H100V9ZM102 9V22H135V9H102ZM170 22H137V9H170V22ZM172 22H200V24H35L35 22H65V9H35V7H200V9H172V22ZM200 9V22H202V9H200ZM35 9L35 22H33V9H35Z" fill="black"/>
<g clip-path="url(#clip0_365_5053)">
<path d="M24 9.14258H22.86V10.2826H24V9.14258Z" fill="#EB8B8B"/>
<path d="M22.86 10.2825H21.7125V11.4225H22.86V10.2825Z" fill="#EB8B8B"/>
<path d="M21.7125 20.5725H20.5725V22.8525H21.7125V20.5725Z" fill="#EB8B8B"/>
<path d="M20.5725 18.2849H19.425V20.5724H20.5725V18.2849Z" fill="#EB8B8B"/>
<path d="M21.7125 11.4226H19.425V12.5701H21.7125V11.4226Z" fill="#EB8B8B"/>
<path d="M20.5725 22.8525H18.285V24H20.5725V22.8525Z" fill="#EB8B8B"/>
<path d="M19.425 15.9976H18.285V18.2851H19.425V15.9976Z" fill="#EB8B8B"/>
<path d="M19.425 12.5701H18.285V13.7101H19.425V12.5701Z" fill="#EB8B8B"/>
<path d="M18.285 21.7124H17.145V22.8524H18.285V21.7124Z" fill="#EB8B8B"/>
<path d="M18.285 13.71H17.145V15.9975H18.285V13.71Z" fill="#EB8B8B"/>
<path d="M17.145 20.5725H14.8575V21.7125H17.145V20.5725Z" fill="#EB8B8B"/>
<path d="M22.86 7.99512H15.9975V9.14262H22.86V7.99512Z" fill="#EB8B8B"/>
<path d="M15.9975 5.71509H14.8575V7.99509H15.9975V5.71509Z" fill="#EB8B8B"/>
<path d="M14.8575 19.425H13.7175V20.5725H14.8575V19.425Z" fill="#EB8B8B"/>
<path d="M14.8575 12.5701H13.7175V13.7101H14.8575V12.5701Z" fill="#EB8B8B"/>
<path d="M14.8575 3.42749H13.7175V5.71499H14.8575V3.42749Z" fill="#EB8B8B"/>
<path d="M13.7175 18.2849H12.57V19.4249H13.7175V18.2849Z" fill="#EB8B8B"/>
<path d="M13.7175 10.2825H12.57V11.4225H13.7175V10.2825Z" fill="#EB8B8B"/>
<path d="M13.7175 1.13989H12.57V3.42739H13.7175V1.13989Z" fill="#EB8B8B"/>
<path d="M12.57 17.1375H11.43V18.285H12.57V17.1375Z" fill="#EB8B8B"/>
<path d="M13.7175 13.71H10.2825V14.8575H13.7175V13.71Z" fill="#EB8B8B"/>
<path d="M12.57 0H11.43V1.14H12.57V0Z" fill="#EB8B8B"/>
<path d="M11.43 18.2849H10.2825V19.4249H11.43V18.2849Z" fill="#EB8B8B"/>
<path d="M11.43 10.2825H10.2825V11.4225H11.43V10.2825Z" fill="#EB8B8B"/>
<path d="M11.43 1.13989H10.2825V3.42739H11.43V1.13989Z" fill="#EB8B8B"/>
<path d="M10.2825 19.425H9.1425V20.5725H10.2825V19.425Z" fill="#EB8B8B"/>
<path d="M10.2825 12.5701H9.1425V13.7101H10.2825V12.5701Z" fill="#EB8B8B"/>
<path d="M10.2825 3.42749H9.1425V5.71499H10.2825V3.42749Z" fill="#EB8B8B"/>
<path d="M9.1425 5.71509H8.0025V7.99509H9.1425V5.71509Z" fill="#EB8B8B"/>
<path d="M9.1425 20.5725H6.855V21.7125H9.1425V20.5725Z" fill="#EB8B8B"/>
<path d="M6.855 21.7124H5.715V22.8524H6.855V21.7124Z" fill="#EB8B8B"/>
<path d="M6.855 13.71H5.715V15.9975H6.855V13.71Z" fill="#EB8B8B"/>
<path d="M5.715 15.9976H4.575V18.2851H5.715V15.9976Z" fill="#EB8B8B"/>
<path d="M5.715 12.5701H4.575V13.7101H5.715V12.5701Z" fill="#EB8B8B"/>
<path d="M5.71501 22.8525H3.42751V24H5.71501V22.8525Z" fill="#EB8B8B"/>
<path d="M4.57501 18.2849H3.42751V20.5724H4.57501V18.2849Z" fill="#EB8B8B"/>
<path d="M4.57501 11.4226H2.28751V12.5701H4.57501V11.4226Z" fill="#EB8B8B"/>
<path d="M3.42751 20.5725H2.28751V22.8525H3.42751V20.5725Z" fill="#EB8B8B"/>
<path d="M8.0025 7.99512H1.14V9.14262H8.0025V7.99512Z" fill="#EB8B8B"/>
<path d="M2.2875 10.2825H1.14V11.4225H2.2875V10.2825Z" fill="#EB8B8B"/>
<path d="M1.14 9.14258H0V10.2826H1.14V9.14258Z" fill="#EB8B8B"/>
</g>
<defs>
<clipPath id="clip0_365_5053">
<rect width="24" height="24" fill="white"/>
</clipPath>
</defs>
</svg>
