<svg width="86" height="80" viewBox="0 0 86 80" fill="none" xmlns="http://www.w3.org/2000/svg">
<rect y="20" width="10" height="10" fill="#1B752F"/>
<rect y="30" width="10" height="10" fill="#1B752F"/>
<rect x="10" y="20" width="10" height="10" fill="#3AD05B"/>
<rect x="10" y="30" width="10" height="10" fill="#3AD05B"/>
<rect x="20" y="30" width="10" height="10" fill="#3AD05B"/>
<rect x="10" y="10" width="10" height="10" fill="#1B752F"/>
<rect x="20" y="10" width="10" height="10" fill="#3AD05B"/>
<rect x="30" y="20" width="10" height="10" fill="#3AD05B"/>
<rect x="30" y="10" width="10" height="10" fill="#B5EE7E"/>
<rect x="40" y="20" width="10" height="10" fill="#B5EE7E"/>
<rect x="40" y="30" width="10" height="10" fill="#B5EE7E"/>
<rect x="50" y="30" width="10" height="10" fill="#B5EE7E"/>
<rect x="30" y="30" width="10" height="10" fill="#B5EE7E"/>
<rect x="20" y="20" width="10" height="10" fill="#3AD05B"/>
<rect x="20" width="10" height="10" fill="#1B752F"/>
<rect x="30" width="10" height="10" fill="#1B752F"/>
<rect x="36" y="70" width="10" height="10" fill="#1B752F"/>
<rect x="46" y="70" width="10" height="10" fill="#3AD05B"/>
<rect x="46" y="60" width="10" height="10" fill="#1B752F"/>
<rect x="56" y="60" width="10" height="10" fill="#3AD05B"/>
<rect x="66" y="70" width="10" height="10" fill="#3AD05B"/>
<rect x="66" y="60" width="10" height="10" fill="#B5EE7E"/>
<rect x="76" y="70" width="10" height="10" fill="#B5EE7E"/>
<rect x="56" y="70" width="10" height="10" fill="#3AD05B"/>
<rect x="56" y="50" width="10" height="10" fill="#1B752F"/>
</svg>
