<svg width="155" height="49" viewBox="0 0 155 49" fill="none" xmlns="http://www.w3.org/2000/svg">
<path d="M155 33.9062H150.156V38.7499H155V33.9062Z" fill="black"/>
<path d="M155 29.0626H150.156V33.9063H155V29.0626Z" fill="black"/>
<path d="M155 24.2187H150.156V29.0625H155V24.2187Z" fill="black"/>
<path d="M155 19.3749H150.156V24.2187H155V19.3749Z" fill="black"/>
<path d="M155 14.5313H150.156V19.375H155V14.5313Z" fill="black"/>
<path d="M155 9.68745H150.156V14.5312H155V9.68745Z" fill="black"/>
<path d="M150.156 38.75H145.312V43.5938H150.156V38.75Z" fill="black"/>
<path d="M150.156 33.9062H145.312V38.7499H150.156V33.9062Z" fill="#EB8B8B"/>
<path d="M150.156 29.0626H145.312V33.9063H150.156V29.0626Z" fill="#EB8B8B"/>
<path d="M150.156 24.2187H145.312V29.0625H150.156V24.2187Z" fill="#EB8B8B"/>
<path d="M150.156 19.3749H145.312V24.2187H150.156V19.3749Z" fill="#EB8B8B"/>
<path d="M150.156 14.5313H145.312V19.375H150.156V14.5313Z" fill="#EB8B8B"/>
<path d="M150.156 9.68745H145.312V14.5312H150.156V9.68745Z" fill="#EB8B8B"/>
<path d="M150.156 4.84383H145.312V9.68757H150.156V4.84383Z" fill="black"/>
<path d="M145.312 43.5936H140.469V48.4374H145.312V43.5936Z" fill="black"/>
<path d="M145.312 38.75H140.469V43.5938H145.312V38.75Z" fill="#EB8B8B"/>
<path d="M145.312 33.9062H140.469V38.7499H145.312V33.9062Z" fill="#EB8B8B"/>
<path d="M145.312 29.0626H140.469V33.9063H145.312V29.0626Z" fill="#EFA2A2"/>
<path d="M145.312 24.2187H140.469V29.0625H145.312V24.2187Z" fill="#EFA2A2"/>
<path d="M145.312 19.3749H140.469V24.2187H145.312V19.3749Z" fill="#EFA2A2"/>
<path d="M145.312 14.5313H140.469V19.375H145.312V14.5313Z" fill="#F8CBC5"/>
<path d="M145.312 9.68745H140.469V14.5312H145.312V9.68745Z" fill="#EB8B8B"/>
<path d="M145.312 4.84383H140.469V9.68757H145.312V4.84383Z" fill="#EB8B8B"/>
<path d="M145.312 0H140.469V4.84375H145.312V0Z" fill="black"/>
<path d="M140.469 43.5936H135.625V48.4374H140.469V43.5936Z" fill="black"/>
<path d="M140.469 38.75H135.625V43.5938H140.469V38.75Z" fill="#EB8B8B"/>
<path d="M140.469 33.9062H135.625V38.7499H140.469V33.9062Z" fill="#EFA2A2"/>
<path d="M140.469 29.0626H135.625V33.9063H140.469V29.0626Z" fill="#F1AEAE"/>
<path d="M140.469 24.2187H135.625V29.0625H140.469V24.2187Z" fill="#F1AEAE"/>
<path d="M140.469 19.3749H135.625V24.2187H140.469V19.3749Z" fill="#F1AEAE"/>
<path d="M140.469 14.5313H135.625V19.375H140.469V14.5313Z" fill="#F1AEAE"/>
<path d="M140.469 9.68745H135.625V14.5312H140.469V9.68745Z" fill="#F8CBC5"/>
<path d="M140.469 4.84383H135.625V9.68757H140.469V4.84383Z" fill="#EB8B8B"/>
<path d="M140.469 0H135.625V4.84375H140.469V0Z" fill="black"/>
<path d="M135.625 43.5936H130.781V48.4374H135.625V43.5936Z" fill="black"/>
<path d="M135.625 38.75H130.781V43.5938H135.625V38.75Z" fill="#EB8B8B"/>
<path d="M135.625 33.9062H130.781V38.7499H135.625V33.9062Z" fill="#EFA2A2"/>
<path d="M135.625 29.0626H130.781V33.9063H135.625V29.0626Z" fill="#F1AEAE"/>
<path d="M135.625 24.2187H130.781V29.0625H135.625V24.2187Z" fill="#F1AEAE"/>
<path d="M135.625 19.3749H130.781V24.2187H135.625V19.3749Z" fill="#F1AEAE"/>
<path d="M135.625 14.5313H130.781V19.375H135.625V14.5313Z" fill="#F1AEAE"/>
<path d="M135.625 9.68745H130.781V14.5312H135.625V9.68745Z" fill="#F8CBC5"/>
<path d="M135.625 4.84383H130.781V9.68757H135.625V4.84383Z" fill="#EB8B8B"/>
<path d="M135.625 0H130.781V4.84375H135.625V0Z" fill="black"/>
<path d="M130.781 43.5936H125.938V48.4374H130.781V43.5936Z" fill="black"/>
<path d="M130.781 38.75H125.938V43.5938H130.781V38.75Z" fill="#EB8B8B"/>
<path d="M130.781 33.9062H125.938V38.7499H130.781V33.9062Z" fill="#EFA2A2"/>
<path d="M130.781 29.0626H125.938V33.9063H130.781V29.0626Z" fill="#F1AEAE"/>
<path d="M130.781 24.2187H125.938V29.0625H130.781V24.2187Z" fill="#F1AEAE"/>
<path d="M130.781 19.3749H125.938V24.2187H130.781V19.3749Z" fill="#F1AEAE"/>
<path d="M130.781 14.5313H125.938V19.375H130.781V14.5313Z" fill="#F1AEAE"/>
<path d="M130.781 9.68745H125.938V14.5312H130.781V9.68745Z" fill="#F8CBC5"/>
<path d="M130.781 4.84383H125.938V9.68757H130.781V4.84383Z" fill="#EB8B8B"/>
<path d="M130.781 0H125.938V4.84375H130.781V0Z" fill="black"/>
<path d="M125.937 43.5936H121.094V48.4374H125.937V43.5936Z" fill="black"/>
<path d="M125.937 38.75H121.094V43.5938H125.937V38.75Z" fill="#EB8B8B"/>
<path d="M125.937 33.9062H121.094V38.7499H125.937V33.9062Z" fill="#EFA2A2"/>
<path d="M125.937 29.0626H121.094V33.9063H125.937V29.0626Z" fill="#F1AEAE"/>
<path d="M125.937 24.2187H121.094V29.0625H125.937V24.2187Z" fill="#F1AEAE"/>
<path d="M125.937 19.3749H121.094V24.2187H125.937V19.3749Z" fill="#F1AEAE"/>
<path d="M125.937 14.5313H121.094V19.375H125.937V14.5313Z" fill="#F1AEAE"/>
<path d="M125.937 9.68745H121.094V14.5312H125.937V9.68745Z" fill="#F8CBC5"/>
<path d="M125.937 4.84383H121.094V9.68757H125.937V4.84383Z" fill="#EB8B8B"/>
<path d="M125.937 0H121.094V4.84375H125.937V0Z" fill="black"/>
<path d="M121.094 43.5936H116.25V48.4374H121.094V43.5936Z" fill="black"/>
<path d="M121.094 38.75H116.25V43.5938H121.094V38.75Z" fill="#EB8B8B"/>
<path d="M121.094 33.9062H116.25V38.7499H121.094V33.9062Z" fill="#EFA2A2"/>
<path d="M121.094 29.0626H116.25V33.9063H121.094V29.0626Z" fill="#F1AEAE"/>
<path d="M121.094 24.2187H116.25V29.0625H121.094V24.2187Z" fill="#F1AEAE"/>
<path d="M121.094 19.3749H116.25V24.2187H121.094V19.3749Z" fill="#F1AEAE"/>
<path d="M121.094 14.5313H116.25V19.375H121.094V14.5313Z" fill="#F1AEAE"/>
<path d="M121.094 9.68745H116.25V14.5312H121.094V9.68745Z" fill="#F8CBC5"/>
<path d="M121.094 4.84383H116.25V9.68757H121.094V4.84383Z" fill="#EB8B8B"/>
<path d="M121.094 0H116.25V4.84375H121.094V0Z" fill="black"/>
<path d="M116.25 43.5936H111.406V48.4374H116.25V43.5936Z" fill="black"/>
<path d="M116.25 38.75H111.406V43.5938H116.25V38.75Z" fill="#EB8B8B"/>
<path d="M116.25 33.9062H111.406V38.7499H116.25V33.9062Z" fill="#EFA2A2"/>
<path d="M116.25 29.0626H111.406V33.9063H116.25V29.0626Z" fill="#F1AEAE"/>
<path d="M116.25 24.2187H111.406V29.0625H116.25V24.2187Z" fill="#F1AEAE"/>
<path d="M116.25 19.3749H111.406V24.2187H116.25V19.3749Z" fill="#F1AEAE"/>
<path d="M116.25 14.5313H111.406V19.375H116.25V14.5313Z" fill="#F1AEAE"/>
<path d="M116.25 9.68745H111.406V14.5312H116.25V9.68745Z" fill="#F8CBC5"/>
<path d="M116.25 4.84383H111.406V9.68757H116.25V4.84383Z" fill="#EB8B8B"/>
<path d="M116.25 0H111.406V4.84375H116.25V0Z" fill="black"/>
<path d="M111.406 43.5936H106.563V48.4374H111.406V43.5936Z" fill="black"/>
<path d="M111.406 38.75H106.563V43.5938H111.406V38.75Z" fill="#EB8B8B"/>
<path d="M111.406 33.9062H106.563V38.7499H111.406V33.9062Z" fill="#EFA2A2"/>
<path d="M111.406 29.0626H106.563V33.9063H111.406V29.0626Z" fill="#F1AEAE"/>
<path d="M111.406 24.2187H106.563V29.0625H111.406V24.2187Z" fill="#F1AEAE"/>
<path d="M111.406 19.3749H106.563V24.2187H111.406V19.3749Z" fill="#F1AEAE"/>
<path d="M111.406 14.5313H106.563V19.375H111.406V14.5313Z" fill="#F1AEAE"/>
<path d="M111.406 9.68745H106.563V14.5312H111.406V9.68745Z" fill="#F8CBC5"/>
<path d="M111.406 4.84383H106.563V9.68757H111.406V4.84383Z" fill="#EB8B8B"/>
<path d="M111.406 0H106.563V4.84375H111.406V0Z" fill="black"/>
<path d="M106.562 43.5936H101.719V48.4374H106.562V43.5936Z" fill="black"/>
<path d="M106.562 38.75H101.719V43.5938H106.562V38.75Z" fill="#EB8B8B"/>
<path d="M106.562 33.9062H101.719V38.7499H106.562V33.9062Z" fill="#EFA2A2"/>
<path d="M106.562 29.0626H101.719V33.9063H106.562V29.0626Z" fill="#F1AEAE"/>
<path d="M106.562 24.2187H101.719V29.0625H106.562V24.2187Z" fill="#F1AEAE"/>
<path d="M106.562 19.3749H101.719V24.2187H106.562V19.3749Z" fill="#F1AEAE"/>
<path d="M106.562 14.5313H101.719V19.375H106.562V14.5313Z" fill="#F1AEAE"/>
<path d="M106.562 9.68745H101.719V14.5312H106.562V9.68745Z" fill="#F8CBC5"/>
<path d="M106.562 4.84383H101.719V9.68757H106.562V4.84383Z" fill="#EB8B8B"/>
<path d="M106.562 0H101.719V4.84375H106.562V0Z" fill="black"/>
<path d="M101.719 43.5936H96.8749V48.4374H101.719V43.5936Z" fill="black"/>
<path d="M101.719 38.75H96.8749V43.5938H101.719V38.75Z" fill="#EB8B8B"/>
<path d="M101.719 33.9062H96.8749V38.7499H101.719V33.9062Z" fill="#EFA2A2"/>
<path d="M101.719 29.0626H96.8749V33.9063H101.719V29.0626Z" fill="#F1AEAE"/>
<path d="M101.719 24.2187H96.8749V29.0625H101.719V24.2187Z" fill="#F1AEAE"/>
<path d="M101.719 19.3749H96.8749V24.2187H101.719V19.3749Z" fill="#F1AEAE"/>
<path d="M101.719 14.5313H96.8749V19.375H101.719V14.5313Z" fill="#F1AEAE"/>
<path d="M101.719 9.68745H96.8749V14.5312H101.719V9.68745Z" fill="#F8CBC5"/>
<path d="M101.719 4.84383H96.8749V9.68757H101.719V4.84383Z" fill="#EB8B8B"/>
<path d="M101.719 0H96.8749V4.84375H101.719V0Z" fill="black"/>
<path d="M96.8749 43.5936H92.0311V48.4374H96.8749V43.5936Z" fill="black"/>
<path d="M96.8749 38.75H92.0311V43.5938H96.8749V38.75Z" fill="#EB8B8B"/>
<path d="M96.8749 33.9062H92.0311V38.7499H96.8749V33.9062Z" fill="#EFA2A2"/>
<path d="M96.8749 29.0626H92.0311V33.9063H96.8749V29.0626Z" fill="#F1AEAE"/>
<path d="M96.8749 24.2187H92.0311V29.0625H96.8749V24.2187Z" fill="#F1AEAE"/>
<path d="M96.8749 19.3749H92.0311V24.2187H96.8749V19.3749Z" fill="#F1AEAE"/>
<path d="M96.8749 14.5313H92.0311V19.375H96.8749V14.5313Z" fill="#F1AEAE"/>
<path d="M96.8749 9.68745H92.0311V14.5312H96.8749V9.68745Z" fill="#F8CBC5"/>
<path d="M96.8749 4.84383H92.0311V9.68757H96.8749V4.84383Z" fill="#EB8B8B"/>
<path d="M96.8749 0H92.0311V4.84375H96.8749V0Z" fill="black"/>
<path d="M92.0314 43.5936H87.1877V48.4374H92.0314V43.5936Z" fill="black"/>
<path d="M92.0314 38.75H87.1877V43.5938H92.0314V38.75Z" fill="#EB8B8B"/>
<path d="M92.0314 33.9062H87.1877V38.7499H92.0314V33.9062Z" fill="#EFA2A2"/>
<path d="M92.0314 29.0626H87.1877V33.9063H92.0314V29.0626Z" fill="#F1AEAE"/>
<path d="M92.0314 24.2187H87.1877V29.0625H92.0314V24.2187Z" fill="#F1AEAE"/>
<path d="M92.0314 19.3749H87.1877V24.2187H92.0314V19.3749Z" fill="#F1AEAE"/>
<path d="M92.0314 14.5313H87.1877V19.375H92.0314V14.5313Z" fill="#F1AEAE"/>
<path d="M92.0314 9.68745H87.1877V14.5312H92.0314V9.68745Z" fill="#F8CBC5"/>
<path d="M92.0314 4.84383H87.1877V9.68757H92.0314V4.84383Z" fill="#EB8B8B"/>
<path d="M92.0314 0H87.1877V4.84375H92.0314V0Z" fill="black"/>
<path d="M87.1876 43.5936H82.3439V48.4374H87.1876V43.5936Z" fill="black"/>
<path d="M87.1876 38.75H82.3439V43.5938H87.1876V38.75Z" fill="#EB8B8B"/>
<path d="M87.1876 33.9062H82.3439V38.7499H87.1876V33.9062Z" fill="#EFA2A2"/>
<path d="M87.1876 29.0626H82.3439V33.9063H87.1876V29.0626Z" fill="#F1AEAE"/>
<path d="M87.1876 24.2187H82.3439V29.0625H87.1876V24.2187Z" fill="#F1AEAE"/>
<path d="M87.1876 19.3749H82.3439V24.2187H87.1876V19.3749Z" fill="#F1AEAE"/>
<path d="M87.1876 14.5313H82.3439V19.375H87.1876V14.5313Z" fill="#F1AEAE"/>
<path d="M87.1876 9.68745H82.3439V14.5312H87.1876V9.68745Z" fill="#F8CBC5"/>
<path d="M87.1876 4.84383H82.3439V9.68757H87.1876V4.84383Z" fill="#EB8B8B"/>
<path d="M87.1876 0H82.3439V4.84375H87.1876V0Z" fill="black"/>
<path d="M82.3438 43.5936H77.5001V48.4374H82.3438V43.5936Z" fill="black"/>
<path d="M82.3438 38.75H77.5001V43.5938H82.3438V38.75Z" fill="#EB8B8B"/>
<path d="M82.3438 33.9062H77.5001V38.7499H82.3438V33.9062Z" fill="#EFA2A2"/>
<path d="M82.3438 29.0626H77.5001V33.9063H82.3438V29.0626Z" fill="#F1AEAE"/>
<path d="M82.3438 24.2187H77.5001V29.0625H82.3438V24.2187Z" fill="#F1AEAE"/>
<path d="M82.3438 19.3749H77.5001V24.2187H82.3438V19.3749Z" fill="#F1AEAE"/>
<path d="M82.3438 14.5313H77.5001V19.375H82.3438V14.5313Z" fill="#F1AEAE"/>
<path d="M82.3438 9.68745H77.5001V14.5312H82.3438V9.68745Z" fill="#F8CBC5"/>
<path d="M82.3438 4.84383H77.5001V9.68757H82.3438V4.84383Z" fill="#EB8B8B"/>
<path d="M82.3438 0H77.5001V4.84375H82.3438V0Z" fill="black"/>
<path d="M77.5 43.5936H72.6562V48.4374H77.5V43.5936Z" fill="black"/>
<path d="M77.5 38.75H72.6562V43.5938H77.5V38.75Z" fill="#EB8B8B"/>
<path d="M77.5 33.9062H72.6562V38.7499H77.5V33.9062Z" fill="#EFA2A2"/>
<path d="M77.5 29.0626H72.6562V33.9063H77.5V29.0626Z" fill="#F1AEAE"/>
<path d="M77.5 24.2187H72.6562V29.0625H77.5V24.2187Z" fill="#F1AEAE"/>
<path d="M77.5 19.3749H72.6562V24.2187H77.5V19.3749Z" fill="#F1AEAE"/>
<path d="M77.5 14.5313H72.6562V19.375H77.5V14.5313Z" fill="#F1AEAE"/>
<path d="M77.5 9.68745H72.6562V14.5312H77.5V9.68745Z" fill="#F8CBC5"/>
<path d="M77.5 4.84383H72.6562V9.68757H77.5V4.84383Z" fill="#EB8B8B"/>
<path d="M77.5 0H72.6562V4.84375H77.5V0Z" fill="black"/>
<path d="M72.6562 43.5936H67.8124V48.4374H72.6562V43.5936Z" fill="black"/>
<path d="M72.6562 38.75H67.8124V43.5938H72.6562V38.75Z" fill="#EB8B8B"/>
<path d="M72.6562 33.9062H67.8124V38.7499H72.6562V33.9062Z" fill="#EFA2A2"/>
<path d="M72.6562 29.0626H67.8124V33.9063H72.6562V29.0626Z" fill="#F1AEAE"/>
<path d="M72.6562 24.2187H67.8124V29.0625H72.6562V24.2187Z" fill="#F1AEAE"/>
<path d="M72.6562 19.3749H67.8124V24.2187H72.6562V19.3749Z" fill="#F1AEAE"/>
<path d="M72.6562 14.5313H67.8124V19.375H72.6562V14.5313Z" fill="#F1AEAE"/>
<path d="M72.6562 9.68745H67.8124V14.5312H72.6562V9.68745Z" fill="#F8CBC5"/>
<path d="M72.6562 4.84383H67.8124V9.68757H72.6562V4.84383Z" fill="#EB8B8B"/>
<path d="M72.6562 0H67.8124V4.84375H72.6562V0Z" fill="black"/>
<path d="M67.8127 43.5936H62.969V48.4374H67.8127V43.5936Z" fill="black"/>
<path d="M67.8127 38.75H62.969V43.5938H67.8127V38.75Z" fill="#EB8B8B"/>
<path d="M67.8127 33.9062H62.969V38.7499H67.8127V33.9062Z" fill="#EFA2A2"/>
<path d="M67.8127 29.0626H62.969V33.9063H67.8127V29.0626Z" fill="#F1AEAE"/>
<path d="M67.8127 24.2187H62.969V29.0625H67.8127V24.2187Z" fill="#F1AEAE"/>
<path d="M67.8127 19.3749H62.969V24.2187H67.8127V19.3749Z" fill="#F1AEAE"/>
<path d="M67.8127 14.5313H62.969V19.375H67.8127V14.5313Z" fill="#F1AEAE"/>
<path d="M67.8127 9.68745H62.969V14.5312H67.8127V9.68745Z" fill="#F8CBC5"/>
<path d="M67.8127 4.84383H62.969V9.68757H67.8127V4.84383Z" fill="#EB8B8B"/>
<path d="M67.8127 0H62.969V4.84375H67.8127V0Z" fill="black"/>
<path d="M62.9689 43.5936H58.1251V48.4374H62.9689V43.5936Z" fill="black"/>
<path d="M62.9689 38.75H58.1251V43.5938H62.9689V38.75Z" fill="#EB8B8B"/>
<path d="M62.9689 33.9062H58.1251V38.7499H62.9689V33.9062Z" fill="#EFA2A2"/>
<path d="M62.9689 29.0626H58.1251V33.9063H62.9689V29.0626Z" fill="#F1AEAE"/>
<path d="M62.9689 24.2187H58.1251V29.0625H62.9689V24.2187Z" fill="#F1AEAE"/>
<path d="M62.9689 19.3749H58.1251V24.2187H62.9689V19.3749Z" fill="#F1AEAE"/>
<path d="M62.9689 14.5313H58.1251V19.375H62.9689V14.5313Z" fill="#F1AEAE"/>
<path d="M62.9689 9.68745H58.1251V14.5312H62.9689V9.68745Z" fill="#F8CBC5"/>
<path d="M62.9689 4.84383H58.1251V9.68757H62.9689V4.84383Z" fill="#EB8B8B"/>
<path d="M62.9689 0H58.1251V4.84375H62.9689V0Z" fill="black"/>
<path d="M58.1251 43.5936H53.2813V48.4374H58.1251V43.5936Z" fill="black"/>
<path d="M58.1251 38.75H53.2813V43.5938H58.1251V38.75Z" fill="#EB8B8B"/>
<path d="M58.1251 33.9062H53.2813V38.7499H58.1251V33.9062Z" fill="#EFA2A2"/>
<path d="M58.1251 29.0626H53.2813V33.9063H58.1251V29.0626Z" fill="#F1AEAE"/>
<path d="M58.1251 24.2187H53.2813V29.0625H58.1251V24.2187Z" fill="#F1AEAE"/>
<path d="M58.1251 19.3749H53.2813V24.2187H58.1251V19.3749Z" fill="#F1AEAE"/>
<path d="M58.1251 14.5313H53.2813V19.375H58.1251V14.5313Z" fill="#F1AEAE"/>
<path d="M58.1251 9.68745H53.2813V14.5312H58.1251V9.68745Z" fill="#F8CBC5"/>
<path d="M58.1251 4.84383H53.2813V9.68757H58.1251V4.84383Z" fill="#EB8B8B"/>
<path d="M58.1251 0H53.2813V4.84375H58.1251V0Z" fill="black"/>
<path d="M53.2812 43.5936H48.4375V48.4374H53.2812V43.5936Z" fill="black"/>
<path d="M53.2812 38.75H48.4375V43.5938H53.2812V38.75Z" fill="#EB8B8B"/>
<path d="M53.2812 33.9062H48.4375V38.7499H53.2812V33.9062Z" fill="#EFA2A2"/>
<path d="M53.2812 29.0626H48.4375V33.9063H53.2812V29.0626Z" fill="#F1AEAE"/>
<path d="M53.2812 24.2187H48.4375V29.0625H53.2812V24.2187Z" fill="#F1AEAE"/>
<path d="M53.2812 19.3749H48.4375V24.2187H53.2812V19.3749Z" fill="#F1AEAE"/>
<path d="M53.2812 14.5313H48.4375V19.375H53.2812V14.5313Z" fill="#F1AEAE"/>
<path d="M53.2812 9.68745H48.4375V14.5312H53.2812V9.68745Z" fill="#F8CBC5"/>
<path d="M53.2812 4.84383H48.4375V9.68757H53.2812V4.84383Z" fill="#EB8B8B"/>
<path d="M53.2812 0H48.4375V4.84375H53.2812V0Z" fill="black"/>
<path d="M48.4374 43.5936H43.5936V48.4374H48.4374V43.5936Z" fill="black"/>
<path d="M48.4374 38.75H43.5936V43.5938H48.4374V38.75Z" fill="#EB8B8B"/>
<path d="M48.4374 33.9062H43.5936V38.7499H48.4374V33.9062Z" fill="#EFA2A2"/>
<path d="M48.4374 29.0626H43.5936V33.9063H48.4374V29.0626Z" fill="#F1AEAE"/>
<path d="M48.4374 24.2187H43.5936V29.0625H48.4374V24.2187Z" fill="#F1AEAE"/>
<path d="M48.4374 19.3749H43.5936V24.2187H48.4374V19.3749Z" fill="#F1AEAE"/>
<path d="M48.4374 14.5313H43.5936V19.375H48.4374V14.5313Z" fill="#F1AEAE"/>
<path d="M48.4374 9.68745H43.5936V14.5312H48.4374V9.68745Z" fill="#F8CBC5"/>
<path d="M48.4374 4.84383H43.5936V9.68757H48.4374V4.84383Z" fill="#EB8B8B"/>
<path d="M48.4374 0H43.5936V4.84375H48.4374V0Z" fill="black"/>
<path d="M43.594 43.5936H38.7502V48.4374H43.594V43.5936Z" fill="black"/>
<path d="M43.594 38.75H38.7502V43.5938H43.594V38.75Z" fill="#EB8B8B"/>
<path d="M43.594 33.9062H38.7502V38.7499H43.594V33.9062Z" fill="#EFA2A2"/>
<path d="M43.594 29.0626H38.7502V33.9063H43.594V29.0626Z" fill="#F1AEAE"/>
<path d="M43.594 24.2187H38.7502V29.0625H43.594V24.2187Z" fill="#F1AEAE"/>
<path d="M43.594 19.3749H38.7502V24.2187H43.594V19.3749Z" fill="#F1AEAE"/>
<path d="M43.594 14.5313H38.7502V19.375H43.594V14.5313Z" fill="#F1AEAE"/>
<path d="M43.594 9.68745H38.7502V14.5312H43.594V9.68745Z" fill="#F8CBC5"/>
<path d="M43.594 4.84383H38.7502V9.68757H43.594V4.84383Z" fill="#EB8B8B"/>
<path d="M43.594 0H38.7502V4.84375H43.594V0Z" fill="black"/>
<path d="M38.7502 43.5936H33.9064V48.4374H38.7502V43.5936Z" fill="black"/>
<path d="M38.7502 38.75H33.9064V43.5938H38.7502V38.75Z" fill="#EB8B8B"/>
<path d="M38.7502 33.9062H33.9064V38.7499H38.7502V33.9062Z" fill="#EFA2A2"/>
<path d="M38.7502 29.0626H33.9064V33.9063H38.7502V29.0626Z" fill="#F1AEAE"/>
<path d="M38.7502 24.2187H33.9064V29.0625H38.7502V24.2187Z" fill="#F1AEAE"/>
<path d="M38.7502 19.3749H33.9064V24.2187H38.7502V19.3749Z" fill="#F1AEAE"/>
<path d="M38.7502 14.5313H33.9064V19.375H38.7502V14.5313Z" fill="#F1AEAE"/>
<path d="M38.7502 9.68745H33.9064V14.5312H38.7502V9.68745Z" fill="#F8CBC5"/>
<path d="M38.7502 4.84383H33.9064V9.68757H38.7502V4.84383Z" fill="#EB8B8B"/>
<path d="M38.7502 0H33.9064V4.84375H38.7502V0Z" fill="black"/>
<path d="M33.9064 43.5936H29.0626V48.4374H33.9064V43.5936Z" fill="black"/>
<path d="M33.9064 38.75H29.0626V43.5938H33.9064V38.75Z" fill="#EB8B8B"/>
<path d="M33.9064 33.9062H29.0626V38.7499H33.9064V33.9062Z" fill="#EFA2A2"/>
<path d="M33.9064 29.0626H29.0626V33.9063H33.9064V29.0626Z" fill="#F1AEAE"/>
<path d="M33.9064 24.2187H29.0626V29.0625H33.9064V24.2187Z" fill="#F1AEAE"/>
<path d="M33.9064 19.3749H29.0626V24.2187H33.9064V19.3749Z" fill="#F1AEAE"/>
<path d="M33.9064 14.5313H29.0626V19.375H33.9064V14.5313Z" fill="#F1AEAE"/>
<path d="M33.9064 9.68745H29.0626V14.5312H33.9064V9.68745Z" fill="#F8CBC5"/>
<path d="M33.9064 4.84383H29.0626V9.68757H33.9064V4.84383Z" fill="#EB8B8B"/>
<path d="M33.9064 0H29.0626V4.84375H33.9064V0Z" fill="black"/>
<path d="M29.0626 43.5936H24.2188V48.4374H29.0626V43.5936Z" fill="black"/>
<path d="M29.0626 38.75H24.2188V43.5938H29.0626V38.75Z" fill="#EB8B8B"/>
<path d="M29.0626 33.9062H24.2188V38.7499H29.0626V33.9062Z" fill="#EFA2A2"/>
<path d="M29.0626 29.0626H24.2188V33.9063H29.0626V29.0626Z" fill="#F1AEAE"/>
<path d="M29.0626 24.2187H24.2188V29.0625H29.0626V24.2187Z" fill="#F1AEAE"/>
<path d="M29.0626 19.3749H24.2188V24.2187H29.0626V19.3749Z" fill="#F1AEAE"/>
<path d="M29.0626 14.5313H24.2188V19.375H29.0626V14.5313Z" fill="#F1AEAE"/>
<path d="M29.0626 9.68745H24.2188V14.5312H29.0626V9.68745Z" fill="#F8CBC5"/>
<path d="M29.0626 4.84383H24.2188V9.68757H29.0626V4.84383Z" fill="#EB8B8B"/>
<path d="M29.0626 0H24.2188V4.84375H29.0626V0Z" fill="black"/>
<path d="M24.2186 43.5936H19.3749V48.4374H24.2186V43.5936Z" fill="black"/>
<path d="M24.2186 38.75H19.3749V43.5938H24.2186V38.75Z" fill="#EB8B8B"/>
<path d="M24.2186 33.9062H19.3749V38.7499H24.2186V33.9062Z" fill="#EFA2A2"/>
<path d="M24.2186 29.0626H19.3749V33.9063H24.2186V29.0626Z" fill="#F1AEAE"/>
<path d="M24.2186 24.2187H19.3749V29.0625H24.2186V24.2187Z" fill="#F1AEAE"/>
<path d="M24.2186 19.3749H19.3749V24.2187H24.2186V19.3749Z" fill="#F1AEAE"/>
<path d="M24.2186 14.5313H19.3749V19.375H24.2186V14.5313Z" fill="#F1AEAE"/>
<path d="M24.2186 9.68745H19.3749V14.5312H24.2186V9.68745Z" fill="#F8CBC5"/>
<path d="M24.2186 4.84383H19.3749V9.68757H24.2186V4.84383Z" fill="#EB8B8B"/>
<path d="M24.2186 0H19.3749V4.84375H24.2186V0Z" fill="black"/>
<path d="M19.3753 43.5936H14.5316V48.4374H19.3753V43.5936Z" fill="black"/>
<path d="M19.3753 38.75H14.5316V43.5938H19.3753V38.75Z" fill="#EB8B8B"/>
<path d="M19.3753 33.9062H14.5316V38.7499H19.3753V33.9062Z" fill="#EFA2A2"/>
<path d="M19.3753 29.0626H14.5316V33.9063H19.3753V29.0626Z" fill="#F1AEAE"/>
<path d="M19.3753 24.2187H14.5316V29.0625H19.3753V24.2187Z" fill="#F1AEAE"/>
<path d="M19.3753 19.3749H14.5316V24.2187H19.3753V19.3749Z" fill="#F1AEAE"/>
<path d="M19.3753 14.5313H14.5316V19.375H19.3753V14.5313Z" fill="#F1AEAE"/>
<path d="M19.3753 9.68745H14.5316V14.5312H19.3753V9.68745Z" fill="#F8CBC5"/>
<path d="M19.3753 4.84383H14.5316V9.68757H19.3753V4.84383Z" fill="#EB8B8B"/>
<path d="M19.3753 0H14.5316V4.84375H19.3753V0Z" fill="black"/>
<path d="M14.5314 43.5936H9.68762V48.4374H14.5314V43.5936Z" fill="black"/>
<path d="M14.5314 38.75H9.68762V43.5938H14.5314V38.75Z" fill="#EB8B8B"/>
<path d="M14.5314 33.9062H9.68762V38.7499H14.5314V33.9062Z" fill="#EB8B8B"/>
<path d="M14.5314 29.0626H9.68762V33.9063H14.5314V29.0626Z" fill="#EFA2A2"/>
<path d="M14.5314 24.2187H9.68762V29.0625H14.5314V24.2187Z" fill="#EFA2A2"/>
<path d="M14.5314 19.3749H9.68762V24.2187H14.5314V19.3749Z" fill="#EFA2A2"/>
<path d="M14.5314 14.5313H9.68762V19.375H14.5314V14.5313Z" fill="#F8CBC5"/>
<path d="M14.5314 9.68745H9.68762V14.5312H14.5314V9.68745Z" fill="#EB8B8B"/>
<path d="M14.5314 4.84383H9.68762V9.68757H14.5314V4.84383Z" fill="#EB8B8B"/>
<path d="M14.5314 0H9.68762V4.84375H14.5314V0Z" fill="black"/>
<path d="M9.68756 38.75H4.84381V43.5938H9.68756V38.75Z" fill="black"/>
<path d="M9.68756 33.9062H4.84381V38.7499H9.68756V33.9062Z" fill="#EB8B8B"/>
<path d="M9.68756 29.0626H4.84381V33.9063H9.68756V29.0626Z" fill="#EB8B8B"/>
<path d="M9.68756 24.2187H4.84381V29.0625H9.68756V24.2187Z" fill="#EB8B8B"/>
<path d="M9.68756 19.3749H4.84381V24.2187H9.68756V19.3749Z" fill="#EB8B8B"/>
<path d="M9.68756 14.5313H4.84381V19.375H9.68756V14.5313Z" fill="#EB8B8B"/>
<path d="M9.68756 9.68745H4.84381V14.5312H9.68756V9.68745Z" fill="#EB8B8B"/>
<path d="M9.68756 4.84383H4.84381V9.68757H9.68756V4.84383Z" fill="black"/>
<path d="M4.84375 33.9062H0V38.7499H4.84375V33.9062Z" fill="black"/>
<path d="M4.84375 29.0626H0V33.9063H4.84375V29.0626Z" fill="black"/>
<path d="M4.84375 24.2187H0V29.0625H4.84375V24.2187Z" fill="black"/>
<path d="M4.84375 19.3749H0V24.2187H4.84375V19.3749Z" fill="black"/>
<path d="M4.84375 14.5313H0V19.375H4.84375V14.5313Z" fill="black"/>
<path d="M4.84375 9.68745H0V14.5312H4.84375V9.68745Z" fill="black"/>
<path d="M56.7778 28.2222H55V26.4444H56.7778V28.2222ZM62.1111 30H56.7778V28.2222H62.1111V30ZM63.8889 28.2222H62.1111V24.6667H63.8889V28.2222ZM62.1111 19.3333H56.7778V17.5556H62.1111V19.3333ZM63.8889 21.1111H62.1111V19.3333H63.8889V21.1111ZM56.7778 22.8889H55V19.3333H56.7778V22.8889ZM62.1111 24.6667H56.7778V22.8889H62.1111V24.6667ZM69.2274 21.1111H71.0052V22.8889H69.2274V28.2222H71.0052V30H67.4497V22.8889H65.6719V21.1111H67.4497V17.5556H69.2274V21.1111ZM74.559 28.2222H72.7812V22.8889H74.559V28.2222ZM79.8924 24.6667H78.1146V22.8889H79.8924V21.1111H81.6701V30H79.8924V28.2222H78.1146V26.4444H79.8924V24.6667ZM78.1146 30H74.559V28.2222H78.1146V30ZM78.1146 22.8889H74.559V21.1111H78.1146V22.8889ZM88.7865 24.6667H87.0087V22.8889H88.7865V24.6667ZM90.5642 22.8889H88.7865V21.1111H90.5642V22.8889ZM85.2309 26.4444V30H83.4531V21.1111H85.2309V24.6667H87.0087V26.4444H85.2309ZM95.8993 21.1111H97.6771V22.8889H95.8993V28.2222H97.6771V30H94.1215V22.8889H92.3438V21.1111H94.1215V17.5556H95.8993V21.1111Z" fill="black"/>
</svg>
