<svg width="56" height="56" viewBox="0 0 56 56" fill="none" xmlns="http://www.w3.org/2000/svg">
<path d="M53.3225 21.3326H45.325V15.9951H53.3225V10.6751H50.6625V13.3351H45.325V10.6751H42.665V13.3351H34.65V7.99756H31.99V13.3351H23.9925V7.99756H21.3325V13.3351H13.3175V10.6751H10.6575V13.3351H5.32V10.6751H2.66V15.9951H10.6575V21.3326H2.66V15.9951H0V24.0101H2.66V53.3401H0V56.0001H56V53.3401H53.3225V24.0101H56V15.9951H53.3225V21.3326ZM34.65 15.9951H42.665V21.3326H34.65V15.9951ZM23.9925 15.9951H31.99V21.3326H23.9925V15.9951ZM13.3175 15.9951H21.3325V21.3326H13.3175V15.9951ZM50.6625 53.3401H26.6525V29.3301H23.9925V53.3401H10.6575V29.3301H7.9975V53.3401H5.32V24.0101H50.6625V53.3401Z" fill="#EB8B8B"/>
<path d="M50.6625 7.99756H47.985V10.6751H50.6625V7.99756Z" fill="#EB8B8B"/>
<path d="M47.985 29.3299H45.325V34.6674H39.9875V29.3299H45.325V26.6699H31.99V29.3299H37.3275V34.6674H31.99V29.3299H29.33V45.3424H47.985V29.3299ZM37.3275 42.6649H31.99V37.3274H37.3275V42.6649ZM45.325 42.6649H39.9875V37.3274H45.325V42.6649Z" fill="#EB8B8B"/>
<path d="M47.985 5.3374H45.325V7.9974H47.985V5.3374Z" fill="#EB8B8B"/>
<path d="M42.665 7.99756H39.9875V10.6751H42.665V7.99756Z" fill="#EB8B8B"/>
<path d="M23.9925 26.6699H10.6575V29.3299H23.9925V26.6699Z" fill="#EB8B8B"/>
<path d="M15.995 37.3276H13.3175V42.6651H15.995V37.3276Z" fill="#EB8B8B"/>
<path d="M15.995 7.99756H13.3175V10.6751H15.995V7.99756Z" fill="#EB8B8B"/>
<path d="M15.995 7.9975H18.655V5.3375H23.9925V7.9975H26.6525V5.3375H29.33V7.9975H31.99V5.3375H37.3275V7.9975H39.9875V5.3375H45.325V0H10.6575V5.3375H15.995V7.9975Z" fill="#EB8B8B"/>
<path d="M10.6575 5.3374H7.9975V7.9974H10.6575V5.3374Z" fill="#EB8B8B"/>
<path d="M7.99751 7.99756H5.32001V10.6751H7.99751V7.99756Z" fill="#EB8B8B"/>
</svg>
