<svg width="45" height="47" viewBox="0 0 45 47" fill="none" xmlns="http://www.w3.org/2000/svg">
<path d="M18.003 0V2.21243H13.4985V4.43941H18.003V6.65183H20.2478V4.43941H24.7522V6.65183H26.9971V4.43941H31.5015V6.65183H33.7611V4.43941H36.0059V8.87881H38.2508V6.65183H40.5104V44.365H15.7581V46.5774H42.7552V44.365H45V6.65183H42.7552V4.43941H40.5104V2.21243H33.7611V0H31.5015V2.21243H26.9971V0H24.7522V2.21243H20.2478V0H18.003Z" fill="#6BCC69"/>
<path d="M36.0059 8.87842H33.7611V13.3033H36.0059V8.87842Z" fill="#6BCC69"/>
<path d="M31.5015 17.7431H38.2507V15.5307H33.7611V13.3037H31.5015V17.7431Z" fill="#6BCC69"/>
<path d="M29.2567 22.1821H26.9971V26.6215H29.2567V24.3945H38.2508V22.1821H31.5015V17.7427H29.2567V22.1821Z" fill="#6BCC69"/>
<path d="M24.7522 31.0464H38.2507V28.834H26.997V26.6216H24.7522V31.0464Z" fill="#6BCC69"/>
<path d="M24.7522 17.7427H22.5074V19.9697H24.7522V17.7427Z" fill="#6BCC69"/>
<path d="M24.7522 13.3037H22.5074V15.5307H24.7522V13.3037Z" fill="#6BCC69"/>
<path d="M38.2507 35.4858H18.0029V37.7128H38.2507V35.4858Z" fill="#6BCC69"/>
<path d="M22.5074 19.9697H15.7581V22.1822H22.5074V19.9697Z" fill="#6BCC69"/>
<path d="M18.0029 13.3037H15.7581V15.5307H18.0029V13.3037Z" fill="#6BCC69"/>
<path d="M15.7581 33.2734H24.7522V31.0464H2.24481V33.2734H13.4985V44.3646H15.7581V33.2734Z" fill="#6BCC69"/>
<path d="M15.7581 17.7427H13.4985V19.9697H15.7581V17.7427Z" fill="#6BCC69"/>
<path d="M13.4985 4.43945H11.2537V8.87886H13.4985V4.43945Z" fill="#6BCC69"/>
<path d="M11.2537 8.87842H8.99408V13.3033H11.2537V8.87842Z" fill="#6BCC69"/>
<path d="M8.9941 13.3037H6.74927V17.7431H8.9941V13.3037Z" fill="#6BCC69"/>
<path d="M6.74929 17.7427H4.50446V22.1821H6.74929V17.7427Z" fill="#6BCC69"/>
<path d="M4.50441 22.5073H2.24481V27.0118H4.50441V22.5073Z" fill="#6BCC69"/>
<path d="M2.24483 26.6216H0V31.0464H2.24483V26.6216Z" fill="#6BCC69"/>
</svg>
