<?xml version="1.0" encoding="utf-8"?>
<!-- Generator: Adobe Illustrator 27.4.0, SVG Export Plug-In . SVG Version: 6.00 Build 0)  -->
<svg version="1.1" xmlns="http://www.w3.org/2000/svg" xmlns:xlink="http://www.w3.org/1999/xlink" x="0px" y="0px"
	 viewBox="0 0 414 2975" style="enable-background:new 0 0 414 2975;" xml:space="preserve">
<style type="text/css">
	.st0{fill:#FCF5E5;}
	.st1{fill:#FFEBA2;}
	.st2{fill:#453333;}
	.st3{fill:#2EA1DA;}
	.st4{fill:#F8C468;}
	.st5{fill:#F8CBC5;}
	.st6{fill:#EB8B8B;}
	.st7{fill:#C1EB8B;}
	.st8{fill:#6BCC69;}
	.st9{fill:#D197FF;}
	.st10{fill:#E6C6FF;}
	.st11{fill:#6DBDE5;}
	.st12{fill:#267A9B;}
	.st13{fill:#21677C;}
	.st14{fill:#194D59;}
</style>
<g id="Layer_1">
</g>
<g id="Layer_2">
	<rect x="-135" y="464" class="st0" width="45" height="45"/>
	<rect x="-135" y="509" class="st1" width="45" height="45"/>
	<rect x="-135" y="959" class="st2" width="45" height="45"/>
	<rect x="-135" y="599" class="st3" width="45" height="45"/>
	<rect x="-135" y="554" class="st4" width="45" height="45"/>
	<rect x="-135" y="689" class="st5" width="45" height="45"/>
	<rect x="-135" y="734" class="st6" width="45" height="45"/>
	<rect x="-135" y="779" class="st7" width="45" height="45"/>
	<rect x="-135" y="824" class="st8" width="45" height="45"/>
	<rect x="-135" y="914" class="st9" width="45" height="45"/>
	<rect x="-135" y="869" class="st10" width="45" height="45"/>
	<rect x="-135" y="644" class="st11" width="45" height="45"/>
	<rect x="621" y="896" class="st3" width="414" height="269"/>
	<rect x="0" y="471" class="st11" width="414.3" height="500"/>
	<rect x="0" y="977" class="st3" width="414.3" height="501"/>
	<rect y="340" class="st4" width="414" height="126"/>
	<rect class="st11" width="414" height="338"/>
	<rect x="603" y="1203" class="st12" width="414" height="269"/>
	<rect x="585" y="1472" class="st13" width="414" height="269"/>
	<rect x="765" y="1724" class="st14" width="414" height="269"/>
	<g>
		<g>
			<path d="M45.7,174.8H45v-3.7h0.7V174.8z M46.5,176.2h-0.7v-1.5h0.7V176.2z M47.2,174.8h-0.7v-1.5h0.7V174.8z M48,173.3h-0.7v-1.5
				H48V173.3z M48.7,174.8H48v-1.5h0.7V174.8z M49.4,176.2h-0.7v-1.5h0.7V176.2z M50.2,174.8h-0.7v-3.7h0.7V174.8z"/>
			<path d="M51.7,174.8v0.7h-0.7v-2.2h0.7v0.7h2.2v-0.7h0.7v1.5H51.7z M53.9,173.3h-2.2v-0.7h2.2V173.3z M54.6,176.2h-3v-0.7h3
				V176.2z"/>
			<path d="M56.1,176.2h-0.7v-5.2h0.7V176.2z"/>
			<path d="M57.6,175.5h-0.7v-2.2h0.7V175.5z M60.5,173.3h-3v-0.7h3V173.3z M60.5,176.2h-3v-0.7h3V176.2z"/>
			<path d="M62,175.5h-0.7v-2.2H62V175.5z M64.2,173.3H62v-0.7h2.2V173.3z M64.2,176.2H62v-0.7h2.2V176.2z M65,175.5h-0.7v-2.2H65
				V175.5z"/>
			<path d="M67.9,172.6v0.7h-1.5v3h-0.7v-3.7H67.9z M68.7,176.2h-0.7v-3h0.7V176.2z M70.1,173.3h-1.5v-0.7h1.5V173.3z M70.9,176.2
				h-0.7v-3h0.7V176.2z"/>
			<path d="M72.3,174.8v0.7h-0.7v-2.2h0.7v0.7h2.2v-0.7h0.7v1.5H72.3z M74.6,173.3h-2.2v-0.7h2.2V173.3z M75.3,176.2h-3v-0.7h3
				V176.2z"/>
			<path d="M79,175.5h-0.7v-2.2H79V175.5z M80.5,173.3H79v-0.7h1.5V173.3z M80.5,176.2H79v-0.7h1.5V176.2z M81.2,174h-0.7v-0.7h0.7
				v-0.7H82v3.7h-0.7v-0.7h-0.7v-0.7h0.7V174z"/>
			<path d="M83.4,173.3h0.7v0.7h-0.7v0.7h0.7v0.7h-0.7v0.7h-0.7v-5.2h0.7V173.3z M84.2,173.3v-0.7h1.5v0.7H84.2z M84.2,176.2v-0.7
				h1.5v0.7H84.2z M85.6,175.5v-2.2h0.7v2.2H85.6z"/>
			<path d="M87.9,175.5h-0.7v-2.2h0.7V175.5z M90.1,173.3h-2.2v-0.7h2.2V173.3z M90.1,176.2h-2.2v-0.7h2.2V176.2z M90.8,175.5h-0.7
				v-2.2h0.7V175.5z"/>
			<path d="M92.3,175.5h-0.7v-2.2h0.7V175.5z M93.8,173.3h-1.5v-0.7h1.5V173.3z M93.8,176.2h-1.5v-0.7h1.5V176.2z M94.5,174h-0.7
				v-0.7h0.7v-0.7h0.7v3.7h-0.7v-0.7h-0.7v-0.7h0.7V174z"/>
			<path d="M96.7,174.8v1.5H96v-3.7h0.7v1.5h0.7v0.7H96.7z M98.2,174h-0.7v-0.7h0.7V174z M99,173.3h-0.7v-0.7H99V173.3z"/>
			<path d="M100.4,175.5h-0.7v-2.2h0.7V175.5z M101.9,173.3h-1.5v-0.7h1.5V173.3z M101.9,176.2h-1.5v-0.7h1.5V176.2z M102.6,174
				h-0.7v-0.7h0.7v-2.2h0.7v5.2h-0.7v-0.7h-0.7v-0.7h0.7V174z"/>
			<path d="M104.9,177h-0.7v-1.5h0.7V177z"/>
			<path d="M108.6,175.5h-0.7v-2.2h0.7V175.5z M110,173.3h-1.5v-0.7h1.5V173.3z M110,176.2h-1.5v-0.7h1.5V176.2z M110.8,174H110
				v-0.7h0.7v-0.7h0.7v3.7h-0.7v-0.7H110v-0.7h0.7V174z"/>
			<path d="M113,175.5h-0.7v-2.2h0.7V175.5z M114.5,173.3H113v-0.7h1.5V173.3z M114.5,176.2H113v-0.7h1.5V176.2z M115.2,174h-0.7
				v-0.7h0.7v-2.2h0.7v5.2h-0.7v-0.7h-0.7v-0.7h0.7V174z"/>
			<path d="M117.4,174.8h-0.7v-2.2h0.7V174.8z M118.2,175.5h-0.7v-0.7h0.7V175.5z M118.9,176.2h-0.7v-0.7h0.7V176.2z M119.6,175.5
				h-0.7v-0.7h0.7V175.5z M120.4,174.8h-0.7v-2.2h0.7V174.8z"/>
			<path d="M121.9,174.8v0.7h-0.7v-2.2h0.7v0.7h2.2v-0.7h0.7v1.5H121.9z M124.1,173.3h-2.2v-0.7h2.2V173.3z M124.8,176.2h-3v-0.7h3
				V176.2z"/>
			<path d="M126.3,174v2.2h-0.7v-3.7h0.7v0.7h0.7v0.7H126.3z M128.5,173.3H127v-0.7h1.5V173.3z M129.3,176.2h-0.7v-3h0.7V176.2z"/>
			<path d="M131.5,172.6h0.7v0.7h-0.7v2.2h0.7v0.7h-1.5v-3H130v-0.7h0.7v-1.5h0.7V172.6z"/>
			<path d="M133.7,175.5h-0.7v-3h0.7V175.5z M135.9,176.2h-2.2v-0.7h2.2V176.2z M136.6,175.5h-0.7v-3h0.7V175.5z"/>
			<path d="M138.1,174.8v1.5h-0.7v-3.7h0.7v1.5h0.7v0.7H138.1z M139.6,174h-0.7v-0.7h0.7V174z M140.3,173.3h-0.7v-0.7h0.7V173.3z"/>
			<path d="M141.8,174.8v0.7h-0.7v-2.2h0.7v0.7h2.2v-0.7h0.7v1.5H141.8z M144,173.3h-2.2v-0.7h2.2V173.3z M144.8,176.2h-3v-0.7h3
				V176.2z"/>
			<path d="M146.3,174.8v1.5h-0.7v-3.7h0.7v1.5h0.7v0.7H146.3z M147.7,174H147v-0.7h0.7V174z M148.5,173.3h-0.7v-0.7h0.7V173.3z"/>
			<path d="M149.9,174.8h-0.7v-3.7h0.7V174.8z M149.9,176.2h-0.7v-0.7h0.7V176.2z"/>
			<path d="M153.6,175.5h-0.7v-3.7h0.7V175.5z M155.9,171.8h-2.2v-0.7h2.2V171.8z M155.9,175.5V174h-1.5v-0.7h2.2v3h-3v-0.7H155.9z"
				/>
			<path d="M158.1,174.8v0.7h-0.7v-2.2h0.7v0.7h2.2v-0.7h0.7v1.5H158.1z M160.3,173.3h-2.2v-0.7h2.2V173.3z M161,176.2h-3v-0.7h3
				V176.2z"/>
			<path d="M163.3,172.6h0.7v0.7h-0.7v2.2h0.7v0.7h-1.5v-3h-0.7v-0.7h0.7v-1.5h0.7V172.6z"/>
			<path d="M167.7,174.8v1.5h-0.7v-3.7h0.7v1.5h0.7v0.7H167.7z M169.2,174h-0.7v-0.7h0.7V174z M169.9,173.3h-0.7v-0.7h0.7V173.3z"/>
			<path d="M171.4,174.8v0.7h-0.7v-2.2h0.7v0.7h2.2v-0.7h0.7v1.5H171.4z M173.6,173.3h-2.2v-0.7h2.2V173.3z M174.3,176.2h-3v-0.7h3
				V176.2z"/>
			<path d="M175.8,175.5h-0.7v-2.2h0.7V175.5z M177.3,173.3h-1.5v-0.7h1.5V173.3z M177.3,176.2h-1.5v-0.7h1.5V176.2z M178,174h-0.7
				v-0.7h0.7v-0.7h0.7v3.7H178v-0.7h-0.7v-0.7h0.7V174z"/>
			<path d="M180.3,175.5h-0.7v-2.2h0.7V175.5z M181.7,173.3h-1.5v-0.7h1.5V173.3z M181.7,176.2h-1.5v-0.7h1.5V176.2z M182.5,174
				h-0.7v-0.7h0.7v-2.2h0.7v5.2h-0.7v-0.7h-0.7v-0.7h0.7V174z"/>
			<path d="M184.7,174h-0.7v-1.5h0.7V174z M185.4,177.7h-1.5V177h1.5V177.7z M185.4,175.5h-0.7V174h0.7V175.5z M186.2,177h-0.7v-1.5
				h0.7V177z M186.9,175.5h-0.7V174h0.7V175.5z M187.6,174h-0.7v-1.5h0.7V174z"/>
			<path d="M192.1,172.6h0.7v0.7h-0.7v2.2h0.7v0.7h-1.5v-3h-0.7v-0.7h0.7v-1.5h0.7V172.6z"/>
			<path d="M194.3,175.5h-0.7v-2.2h0.7V175.5z M196.5,173.3h-2.2v-0.7h2.2V173.3z M196.5,176.2h-2.2v-0.7h2.2V176.2z M197.2,175.5
				h-0.7v-2.2h0.7V175.5z"/>
			<path d="M200.9,175.5h-0.7v-2.2h0.7V175.5z M202.4,173.3h-1.5v-0.7h1.5V173.3z M202.4,176.2h-1.5v-0.7h1.5V176.2z M203.2,174
				h-0.7v-0.7h0.7v-2.2h0.7v5.2h-0.7v-0.7h-0.7v-0.7h0.7V174z"/>
			<path d="M205.4,171.8h-0.7v-0.7h0.7V171.8z M205.4,176.2h-0.7v-3.7h0.7V176.2z"/>
			<path d="M206.9,174.8h-0.7v-2.2h0.7V174.8z M207.6,175.5h-0.7v-0.7h0.7V175.5z M208.3,176.2h-0.7v-0.7h0.7V176.2z M209.1,175.5
				h-0.7v-0.7h0.7V175.5z M209.8,174.8h-0.7v-2.2h0.7V174.8z"/>
			<path d="M211.3,174.8v0.7h-0.7v-2.2h0.7v0.7h2.2v-0.7h0.7v1.5H211.3z M213.5,173.3h-2.2v-0.7h2.2V173.3z M214.2,176.2h-3v-0.7h3
				V176.2z"/>
			<path d="M217.9,171.8h-0.7v-0.7h0.7V171.8z M217.9,176.2h-0.7v-3.7h0.7V176.2z"/>
			<path d="M219.4,174v2.2h-0.7v-3.7h0.7v0.7h0.7v0.7H219.4z M221.6,173.3h-1.5v-0.7h1.5V173.3z M222.4,176.2h-0.7v-3h0.7V176.2z"/>
			<path d="M224.6,172.6h0.7v0.7h-0.7v2.2h0.7v0.7h-1.5v-3h-0.7v-0.7h0.7v-1.5h0.7V172.6z"/>
			<path d="M226.8,175.5h-0.7v-2.2h0.7V175.5z M229,173.3h-2.2v-0.7h2.2V173.3z M229,176.2h-2.2v-0.7h2.2V176.2z M229.8,175.5H229
				v-2.2h0.7V175.5z"/>
			<path d="M233.5,175.5h-0.7v-2.2h0.7V175.5z M234.9,173.3h-1.5v-0.7h1.5V173.3z M234.9,176.2h-1.5v-0.7h1.5V176.2z M235.7,174
				h-0.7v-0.7h0.7v-0.7h0.7v3.7h-0.7v-0.7h-0.7v-0.7h0.7V174z"/>
			<path d="M240.1,175.5h-0.7v-3h0.7V175.5z M240.9,176.2h-0.7v-0.7h0.7V176.2z M241.6,175.5h-0.7v-0.7h0.7V175.5z M242.3,174.8
				h-0.7v-1.5h0.7V174.8z M243.1,175.5h-0.7v-0.7h0.7V175.5z M243.8,176.2h-0.7v-0.7h0.7V176.2z M244.5,175.5h-0.7v-3h0.7V175.5z"/>
			<path d="M246,175.5h-0.7v-2.2h0.7V175.5z M248.2,173.3H246v-0.7h2.2V173.3z M248.2,176.2H246v-0.7h2.2V176.2z M249,175.5h-0.7
				v-2.2h0.7V175.5z"/>
			<path d="M250.5,174.8v1.5h-0.7v-3.7h0.7v1.5h0.7v0.7H250.5z M251.9,174h-0.7v-0.7h0.7V174z M252.7,173.3h-0.7v-0.7h0.7V173.3z"/>
			<path d="M254.2,176.2h-0.7v-5.2h0.7V176.2z"/>
			<path d="M255.6,175.5h-0.7v-2.2h0.7V175.5z M257.1,173.3h-1.5v-0.7h1.5V173.3z M257.1,176.2h-1.5v-0.7h1.5V176.2z M257.9,174
				h-0.7v-0.7h0.7v-2.2h0.7v5.2h-0.7v-0.7h-0.7v-0.7h0.7V174z"/>
			<path d="M262.3,175.5h-0.7v-2.2h0.7V175.5z M264.5,173.3h-2.2v-0.7h2.2V173.3z M264.5,176.2h-2.2v-0.7h2.2V176.2z M265.2,175.5
				h-0.7v-2.2h0.7V175.5z"/>
			<path d="M267.5,172.6h0.7v0.7h-0.7v3h-0.7v-3H266v-0.7h0.7v-1.5h1.5v0.7h-0.7V172.6z"/>
			<path d="M271.9,175.5h-0.7v-2.2h0.7V175.5z M273.4,173.3h-1.5v-0.7h1.5V173.3z M273.4,176.2h-1.5v-0.7h1.5V176.2z M274.1,174
				h-0.7v-0.7h0.7v-2.2h0.7v5.2h-0.7v-0.7h-0.7v-0.7h0.7V174z"/>
			<path d="M276.3,171.8h-0.7v-0.7h0.7V171.8z M276.3,176.2h-0.7v-3.7h0.7V176.2z"/>
			<path d="M277.8,174h-0.7v-0.7h0.7V174z M280,176.2h-3v-0.7h3V176.2z M280.8,173.3h-3v-0.7h3V173.3z M280,174.8h-2.2V174h2.2
				V174.8z M280.8,175.5H280v-0.7h0.7V175.5z"/>
			<path d="M282.2,175.5h-0.7v-2.2h0.7V175.5z M285.2,173.3h-3v-0.7h3V173.3z M285.2,176.2h-3v-0.7h3V176.2z"/>
			<path d="M286.7,175.5h-0.7v-2.2h0.7V175.5z M288.9,173.3h-2.2v-0.7h2.2V173.3z M288.9,176.2h-2.2v-0.7h2.2V176.2z M289.6,175.5
				h-0.7v-2.2h0.7V175.5z"/>
			<path d="M291.1,174.8h-0.7v-2.2h0.7V174.8z M291.8,175.5h-0.7v-0.7h0.7V175.5z M292.6,176.2h-0.7v-0.7h0.7V176.2z M293.3,175.5
				h-0.7v-0.7h0.7V175.5z M294.1,174.8h-0.7v-2.2h0.7V174.8z"/>
			<path d="M295.5,174.8v0.7h-0.7v-2.2h0.7v0.7h2.2v-0.7h0.7v1.5H295.5z M297.8,173.3h-2.2v-0.7h2.2V173.3z M298.5,176.2h-3v-0.7h3
				V176.2z"/>
			<path d="M300,174.8v1.5h-0.7v-3.7h0.7v1.5h0.7v0.7H300z M301.5,174h-0.7v-0.7h0.7V174z M302.2,173.3h-0.7v-0.7h0.7V173.3z"/>
			<path d="M303.7,174h-0.7v-1.5h0.7V174z M304.4,177.7h-1.5V177h1.5V177.7z M304.4,175.5h-0.7V174h0.7V175.5z M305.2,177h-0.7v-1.5
				h0.7V177z M305.9,175.5h-0.7V174h0.7V175.5z M306.6,174h-0.7v-1.5h0.7V174z"/>
			<path d="M310.3,175.5h-0.7v-2.2h0.7V175.5z M311.8,173.3h-1.5v-0.7h1.5V173.3z M311.8,176.2h-1.5v-0.7h1.5V176.2z M312.5,174
				h-0.7v-0.7h0.7v-0.7h0.7v3.7h-0.7v-0.7h-0.7v-0.7h0.7V174z"/>
			<path d="M314.8,174v2.2H314v-3.7h0.7v0.7h0.7v0.7H314.8z M317,173.3h-1.5v-0.7h1.5V173.3z M317.7,176.2H317v-3h0.7V176.2z"/>
			<path d="M319.2,175.5h-0.7v-2.2h0.7V175.5z M320.7,173.3h-1.5v-0.7h1.5V173.3z M320.7,176.2h-1.5v-0.7h1.5V176.2z M321.4,174
				h-0.7v-0.7h0.7v-2.2h0.7v5.2h-0.7v-0.7h-0.7v-0.7h0.7V174z"/>
			<path d="M325.8,174.8v0.7h-0.7v-2.2h0.7v0.7h2.2v-0.7h0.7v1.5H325.8z M328.1,173.3h-2.2v-0.7h2.2V173.3z M328.8,176.2h-3v-0.7h3
				V176.2z"/>
			<path d="M330.3,173.3h-0.7v-0.7h0.7V173.3z M330.3,176.2h-0.7v-0.7h0.7V176.2z M331,174h-0.7v-0.7h0.7V174z M331,175.5h-0.7v-0.7
				h0.7V175.5z M331.8,174.8H331V174h0.7V174.8z M332.5,174h-0.7v-0.7h0.7V174z M332.5,175.5h-0.7v-0.7h0.7V175.5z M333.2,173.3
				h-0.7v-0.7h0.7V173.3z M333.2,176.2h-0.7v-0.7h0.7V176.2z"/>
			<path d="M334.7,174.8h0.7v0.7h-0.7v2.2H334v-5.2h0.7v0.7h0.7v0.7h-0.7V174.8z M335.5,173.3v-0.7h1.5v0.7H335.5z M335.5,176.2
				v-0.7h1.5v0.7H335.5z M336.9,175.5v-2.2h0.7v2.2H336.9z"/>
			<path d="M339.2,176.2h-0.7v-5.2h0.7V176.2z"/>
			<path d="M340.6,175.5h-0.7v-2.2h0.7V175.5z M342.8,173.3h-2.2v-0.7h2.2V173.3z M342.8,176.2h-2.2v-0.7h2.2V176.2z M343.6,175.5
				h-0.7v-2.2h0.7V175.5z"/>
			<path d="M345.1,174.8v1.5h-0.7v-3.7h0.7v1.5h0.7v0.7H345.1z M346.5,174h-0.7v-0.7h0.7V174z M347.3,173.3h-0.7v-0.7h0.7V173.3z"/>
			<path d="M348.8,175.5H348v-2.2h0.7V175.5z M350.2,173.3h-1.5v-0.7h1.5V173.3z M350.2,176.2h-1.5v-0.7h1.5V176.2z M351,174h-0.7
				v-0.7h0.7v-0.7h0.7v3.7H351v-0.7h-0.7v-0.7h0.7V174z"/>
			<path d="M353.9,172.6h0.7v0.7h-0.7v2.2h0.7v0.7h-1.5v-3h-0.7v-0.7h0.7v-1.5h0.7V172.6z"/>
			<path d="M356.1,171.8h-0.7v-0.7h0.7V171.8z M356.1,176.2h-0.7v-3.7h0.7V176.2z"/>
			<path d="M357.6,175.5h-0.7v-2.2h0.7V175.5z M359.8,173.3h-2.2v-0.7h2.2V173.3z M359.8,176.2h-2.2v-0.7h2.2V176.2z M360.6,175.5
				h-0.7v-2.2h0.7V175.5z"/>
			<path d="M362.1,174v2.2h-0.7v-3.7h0.7v0.7h0.7v0.7H362.1z M364.3,173.3h-1.5v-0.7h1.5V173.3z M365,176.2h-0.7v-3h0.7V176.2z"/>
			<path d="M368.7,175.5H368v-2.2h0.7V175.5z M370.2,173.3h-1.5v-0.7h1.5V173.3z M370.2,176.2h-1.5v-0.7h1.5V176.2z M370.9,174h-0.7
				v-0.7h0.7v-0.7h0.7v3.7h-0.7v-0.7h-0.7v-0.7h0.7V174z"/>
			<path d="M373.1,174h-0.7v-0.7h0.7V174z M375.4,176.2h-3v-0.7h3V176.2z M376.1,173.3h-3v-0.7h3V173.3z M375.4,174.8h-2.2V174h2.2
				V174.8z M376.1,175.5h-0.7v-0.7h0.7V175.5z"/>
			<path d="M379.8,175.5h-0.7v-3h0.7V175.5z M380.5,176.2h-0.7v-0.7h0.7V176.2z M381.3,175.5h-0.7v-0.7h0.7V175.5z M382,174.8h-0.7
				v-1.5h0.7V174.8z M382.8,175.5H382v-0.7h0.7V175.5z M383.5,176.2h-0.7v-0.7h0.7V176.2z M384.2,175.5h-0.7v-3h0.7V175.5z"/>
			<path d="M385.7,174.8v0.7H385v-2.2h0.7v0.7h2.2v-0.7h0.7v1.5H385.7z M387.9,173.3h-2.2v-0.7h2.2V173.3z M388.7,176.2h-3v-0.7h3
				V176.2z"/>
			<path d="M392.4,174.8v0.7h-0.7v-2.2h0.7v0.7h2.2v-0.7h0.7v1.5H392.4z M394.6,173.3h-2.2v-0.7h2.2V173.3z M395.3,176.2h-3v-0.7h3
				V176.2z"/>
			<path d="M398.3,172.6v0.7h-1.5v3h-0.7v-3.7H398.3z M399,176.2h-0.7v-3h0.7V176.2z M400.5,173.3H399v-0.7h1.5V173.3z M401.2,176.2
				h-0.7v-3h0.7V176.2z"/>
			<path d="M402.7,173.3h0.7v0.7h-0.7v0.7h0.7v0.7h-0.7v0.7H402v-5.2h0.7V173.3z M403.5,173.3v-0.7h1.5v0.7H403.5z M403.5,176.2
				v-0.7h1.5v0.7H403.5z M404.9,175.5v-2.2h0.7v2.2H404.9z"/>
			<path d="M407.1,175.5h-0.7v-2.2h0.7V175.5z M408.6,173.3h-1.5v-0.7h1.5V173.3z M408.6,176.2h-1.5v-0.7h1.5V176.2z M409.4,174
				h-0.7v-0.7h0.7v-0.7h0.7v3.7h-0.7v-0.7h-0.7v-0.7h0.7V174z"/>
			<path d="M411.6,174.8v1.5h-0.7v-3.7h0.7v1.5h0.7v0.7H411.6z M413.1,174h-0.7v-0.7h0.7V174z M413.8,173.3h-0.7v-0.7h0.7V173.3z"/>
			<path d="M415.3,174.8v1.5h-0.7v-5.2h0.7v3h0.7v0.7H415.3z M416.8,174H416v-0.7h0.7V174z M416.8,175.5H416v-0.7h0.7V175.5z
				 M417.5,173.3h-0.7v-0.7h0.7V173.3z M417.5,176.2h-0.7v-0.7h0.7V176.2z"/>
			<path d="M421.2,175.5h-0.7v-2.2h0.7V175.5z M423.4,173.3h-2.2v-0.7h2.2V173.3z M423.4,176.2h-2.2v-0.7h2.2V176.2z M424.1,175.5
				h-0.7v-2.2h0.7V175.5z"/>
			<path d="M425.6,174v2.2h-0.7v-3.7h0.7v0.7h0.7v0.7H425.6z M427.8,173.3h-1.5v-0.7h1.5V173.3z M428.6,176.2h-0.7v-3h0.7V176.2z"/>
			<path d="M432.3,175.5h-0.7v-2.2h0.7V175.5z M433.8,173.3h-1.5v-0.7h1.5V173.3z M433.8,176.2h-1.5v-0.7h1.5V176.2z M434.5,174
				h-0.7v-0.7h0.7v-0.7h0.7v3.7h-0.7v-0.7h-0.7v-0.7h0.7V174z"/>
			<path d="M436.7,174v2.2H436v-3.7h0.7v0.7h0.7v0.7H436.7z M438.9,173.3h-1.5v-0.7h1.5V173.3z M439.7,176.2h-0.7v-3h0.7V176.2z"/>
			<path d="M443.4,174.8v0.7h-0.7v-2.2h0.7v0.7h2.2v-0.7h0.7v1.5H443.4z M445.6,173.3h-2.2v-0.7h2.2V173.3z M446.3,176.2h-3v-0.7h3
				V176.2z"/>
			<path d="M447.8,173.3h-0.7v-0.7h0.7V173.3z M447.8,176.2h-0.7v-0.7h0.7V176.2z M448.5,174h-0.7v-0.7h0.7V174z M448.5,175.5h-0.7
				v-0.7h0.7V175.5z M449.3,174.8h-0.7V174h0.7V174.8z M450,174h-0.7v-0.7h0.7V174z M450,175.5h-0.7v-0.7h0.7V175.5z M450.8,173.3
				H450v-0.7h0.7V173.3z M450.8,176.2H450v-0.7h0.7V176.2z"/>
			<path d="M452.2,175.5h-0.7v-2.2h0.7V175.5z M455.2,173.3h-3v-0.7h3V173.3z M455.2,176.2h-3v-0.7h3V176.2z"/>
			<path d="M456.7,171.8h-0.7v-0.7h0.7V171.8z M456.7,176.2h-0.7v-3.7h0.7V176.2z"/>
			<path d="M458.9,172.6h0.7v0.7h-0.7v2.2h0.7v0.7h-1.5v-3h-0.7v-0.7h0.7v-1.5h0.7V172.6z"/>
			<path d="M461.1,171.8h-0.7v-0.7h0.7V171.8z M461.1,176.2h-0.7v-3.7h0.7V176.2z"/>
			<path d="M462.6,174v2.2h-0.7v-3.7h0.7v0.7h0.7v0.7H462.6z M464.8,173.3h-1.5v-0.7h1.5V173.3z M465.5,176.2h-0.7v-3h0.7V176.2z"/>
			<path d="M467,175.5h-0.7v-2.2h0.7V175.5z M468.5,173.3H467v-0.7h1.5V173.3z M468.5,176.2H467v-0.7h1.5V176.2z M469.2,177.7H467
				V177h2.2V177.7z M469.2,175.5h-0.7v-0.7h0.7V174h-0.7v-0.7h0.7v-0.7h0.7v4.4h-0.7V175.5z"/>
			<path d="M473.7,176.2h-0.7v-0.7h0.7V176.2z M475.1,177h-1.5v-0.7h1.5V177z M475.9,171.8h-0.7v-0.7h0.7V171.8z M475.9,176.2h-0.7
				v-3.7h0.7V176.2z"/>
			<path d="M477.4,175.5h-0.7v-2.2h0.7V175.5z M479.6,173.3h-2.2v-0.7h2.2V173.3z M479.6,176.2h-2.2v-0.7h2.2V176.2z M480.3,175.5
				h-0.7v-2.2h0.7V175.5z"/>
			<path d="M481.8,175.5h-0.7v-3h0.7V175.5z M484,176.2h-2.2v-0.7h2.2V176.2z M484.7,175.5H484v-3h0.7V175.5z"/>
			<path d="M486.2,174.8v1.5h-0.7v-3.7h0.7v1.5h0.7v0.7H486.2z M487.7,174H487v-0.7h0.7V174z M488.4,173.3h-0.7v-0.7h0.7V173.3z"/>
			<path d="M489.9,174v2.2h-0.7v-3.7h0.7v0.7h0.7v0.7H489.9z M492.1,173.3h-1.5v-0.7h1.5V173.3z M492.9,176.2h-0.7v-3h0.7V176.2z"/>
			<path d="M494.4,174.8v0.7h-0.7v-2.2h0.7v0.7h2.2v-0.7h0.7v1.5H494.4z M496.6,173.3h-2.2v-0.7h2.2V173.3z M497.3,176.2h-3v-0.7h3
				V176.2z"/>
			<path d="M498.8,174h-0.7v-1.5h0.7V174z M499.5,177.7h-1.5V177h1.5V177.7z M499.5,175.5h-0.7V174h0.7V175.5z M500.3,177h-0.7v-1.5
				h0.7V177z M501,175.5h-0.7V174h0.7V175.5z M501.7,174H501v-1.5h0.7V174z"/>
			<path d="M506.2,172.6h0.7v0.7h-0.7v2.2h0.7v0.7h-1.5v-3h-0.7v-0.7h0.7v-1.5h0.7V172.6z"/>
			<path d="M508.4,175.5h-0.7v-2.2h0.7V175.5z M510.6,173.3h-2.2v-0.7h2.2V173.3z M510.6,176.2h-2.2v-0.7h2.2V176.2z M511.4,175.5
				h-0.7v-2.2h0.7V175.5z"/>
			<path d="M515.8,172.6h0.7v0.7h-0.7v2.2h0.7v0.7H515v-3h-0.7v-0.7h0.7v-1.5h0.7V172.6z"/>
			<path d="M518,174v2.2h-0.7v-5.2h0.7v2.2h0.7v0.7H518z M520.2,173.3h-1.5v-0.7h1.5V173.3z M521,176.2h-0.7v-3h0.7V176.2z"/>
			<path d="M522.4,174.8v0.7h-0.7v-2.2h0.7v0.7h2.2v-0.7h0.7v1.5H522.4z M524.7,173.3h-2.2v-0.7h2.2V173.3z M525.4,176.2h-3v-0.7h3
				V176.2z"/>
			<path d="M529.1,175.5h-0.7v-2.2h0.7V175.5z M530.6,173.3h-1.5v-0.7h1.5V173.3z M530.6,176.2h-1.5v-0.7h1.5V176.2z M531.3,174
				h-0.7v-0.7h0.7v-2.2h0.7v5.2h-0.7v-0.7h-0.7v-0.7h0.7V174z"/>
			<path d="M533.5,174.8v0.7h-0.7v-2.2h0.7v0.7h2.2v-0.7h0.7v1.5H533.5z M535.7,173.3h-2.2v-0.7h2.2V173.3z M536.5,176.2h-3v-0.7h3
				V176.2z"/>
			<path d="M538,174.8h0.7v0.7H538v2.2h-0.7v-5.2h0.7v0.7h0.7v0.7H538V174.8z M538.7,173.3v-0.7h1.5v0.7H538.7z M538.7,176.2v-0.7
				h1.5v0.7H538.7z M540.2,175.5v-2.2h0.7v2.2H540.2z"/>
			<path d="M543.1,172.6h0.7v0.7h-0.7v2.2h0.7v0.7h-1.5v-3h-0.7v-0.7h0.7v-1.5h0.7V172.6z"/>
			<path d="M545.4,174v2.2h-0.7v-5.2h0.7v2.2h0.7v0.7H545.4z M547.6,173.3h-1.5v-0.7h1.5V173.3z M548.3,176.2h-0.7v-3h0.7V176.2z"/>
			<path d="M549.8,174H549v-0.7h0.7V174z M552,176.2h-3v-0.7h3V176.2z M552.7,173.3h-3v-0.7h3V173.3z M552,174.8h-2.2V174h2.2V174.8
				z M552.7,175.5H552v-0.7h0.7V175.5z"/>
			<path d="M556.4,175.5h-0.7v-2.2h0.7V175.5z M558.7,173.3h-2.2v-0.7h2.2V173.3z M558.7,176.2h-2.2v-0.7h2.2V176.2z M559.4,175.5
				h-0.7v-2.2h0.7V175.5z"/>
			<path d="M561.6,172.6h0.7v0.7h-0.7v3h-0.7v-3h-0.7v-0.7h0.7v-1.5h1.5v0.7h-0.7V172.6z"/>
			<path d="M566.8,172.6h0.7v0.7h-0.7v2.2h0.7v0.7H566v-3h-0.7v-0.7h0.7v-1.5h0.7V172.6z"/>
			<path d="M569,174v2.2h-0.7v-5.2h0.7v2.2h0.7v0.7H569z M571.2,173.3h-1.5v-0.7h1.5V173.3z M572,176.2h-0.7v-3h0.7V176.2z"/>
			<path d="M573.4,174.8v0.7h-0.7v-2.2h0.7v0.7h2.2v-0.7h0.7v1.5H573.4z M575.7,173.3h-2.2v-0.7h2.2V173.3z M576.4,176.2h-3v-0.7h3
				V176.2z"/>
			<path d="M580.1,175.5h-0.7v-2.2h0.7V175.5z M582.3,173.3h-2.2v-0.7h2.2V173.3z M582.3,176.2h-2.2v-0.7h2.2V176.2z M583,175.5
				h-0.7v-2.2h0.7V175.5z"/>
			<path d="M584.5,175.5h-0.7v-2.2h0.7V175.5z M587.5,173.3h-3v-0.7h3V173.3z M587.5,176.2h-3v-0.7h3V176.2z"/>
			<path d="M589,174.8v0.7h-0.7v-2.2h0.7v0.7h2.2v-0.7h0.7v1.5H589z M591.2,173.3H589v-0.7h2.2V173.3z M591.9,176.2h-3v-0.7h3V176.2
				z"/>
			<path d="M593.4,175.5h-0.7v-2.2h0.7V175.5z M594.9,173.3h-1.5v-0.7h1.5V173.3z M594.9,176.2h-1.5v-0.7h1.5V176.2z M595.6,174
				h-0.7v-0.7h0.7v-0.7h0.7v3.7h-0.7v-0.7h-0.7v-0.7h0.7V174z"/>
			<path d="M597.8,174v2.2h-0.7v-3.7h0.7v0.7h0.7v0.7H597.8z M600,173.3h-1.5v-0.7h1.5V173.3z M600.8,176.2H600v-3h0.7V176.2z"/>
			<path d="M602.3,176.2h-0.7v-0.7h0.7V176.2z"/>
		</g>
	</g>
</g>
</svg>
